<?xml version="1.0" encoding="UTF-8"?>
<svg id="Layer_1" xmlns="http://www.w3.org/2000/svg" version="1.1" viewBox="0 0 512 512" width="100" height="100">
  <!-- Generator: Adobe Illustrator 29.4.0, SVG Export Plug-In . SVG Version: 2.1.0 Build 152)  -->
  <defs>
    <style>
      .st0 {
        fill: #0b5bc9;
      }
    </style>
  </defs>
  <path class="st0" d="M13.73,214.62l58.25-47.58v-103.04c0-6.63,5.26-12,11.75-12h62.67c6.49,0,11.75,5.37,11.75,12v32.64L248.7,22.62c4.3-3.52,10.42-3.52,14.73,0l235.01,192c2.77,2.29,4.37,5.74,4.36,9.38v256c0,6.62-5.26,12-11.75,12H21.03c-6.49,0-11.75-5.37-11.75-12V224c0-3.64,1.61-7.09,4.39-9.38h.06ZM32.81,468h446.51v-40H177.73c-6.49,0-11.75-5.37-11.75-12s5.26-12,11.75-12h301.59v-40H209.06c-6.49,0-11.75-5.37-11.75-12s5.26-12,11.75-12h270.26v-40h-238.92c-6.49,0-11.75-5.37-11.75-12s5.26-12,11.75-12h238.92v-46.21L256.06,47.36l-102.34,83.58c-5.06,4.15-12.45,3.33-16.52-1.83-1.68-2.14-2.6-4.8-2.59-7.54v-45.57h-39.14v96.8c0,3.68-1.63,7.1-4.39,9.38l-58.28,47.62v238.21Z"/>
  <path class="st0" d="M211.55,281.99c-.81-1.86-2.65-3.06-4.67-3.06h-22.2v-71.34c0-8.83-7.19-16.02-16.02-16.02h-65.52c-8.83,0-16.02,7.19-16.02,16.02v71.34h-22.2c-2.82,0-5.1,2.28-5.1,5.1,0,1.29.49,2.53,1.36,3.47l70.98,76.44c1.92,2.06,5.14,2.18,7.21.27.09-.09.18-.17.27-.27l70.98-76.44c1.38-1.49,1.75-3.65.94-5.51ZM141.36,283.67h-.36v5.82c0,2.82-2.28,5.1-5.1,5.1s-5.1-2.28-5.1-5.1v-5.82h-5.82c-2.82,0-5.1-2.28-5.1-5.1s2.28-5.1,5.1-5.1h16.38c3.26,0,5.82-2.66,5.82-5.82s-2.54-5.82-5.82-5.82h-10.92c-8.97,0-16.02-7.3-16.02-16.02s7.17-16.02,16.02-16.02h.36v-5.82c0-2.82,2.28-5.1,5.1-5.1s5.1,2.28,5.1,5.1v5.82h5.82c2.82,0,5.1,2.28,5.1,5.1s-2.28,5.1-5.1,5.1h-16.38c-3.22,0-5.82,2.6-5.82,5.82s2.57,5.82,5.82,5.82h10.92c8.86,0,16.02,7.17,16.02,16.02,0,8.7-7.03,16.02-16.02,16.02Z"/>
</svg>