<?xml version="1.0" encoding="UTF-8"?>
<svg id="Layer_1" xmlns="http://www.w3.org/2000/svg" version="1.1" viewBox="0 0 512 512" width="100" height="100">
  <!-- Generator: Adobe Illustrator 29.4.0, SVG Export Plug-In . SVG Version: 2.1.0 Build 152)  -->
  <defs>
    <style>
      .st0 {
        fill: #ffffff;
      }
    </style>
  </defs>
  <path class="st0" d="M91.95,76.44c-3.59,0-6.51,3.68-6.51,8.22v337.15c0,4.54,2.91,8.22,6.51,8.22h117.09c3.59,0,6.51-3.68,6.51-8.22V84.66c0-4.54-2.91-8.22-6.51-8.22h-117.09ZM202.54,413.59h-104.08V92.88h104.08v320.7ZM358.66,216.23c3.59,0,6.51-3.68,6.51-8.22v-123.35c0-4.54-2.91-8.22-6.51-8.22h-117.09c-3.59,0-6.51,3.68-6.51,8.22v337.15c0,4.54,2.91,8.22,6.51,8.22h117.09c3.59,0,6.51-3.68,6.51-8.22s-2.91-8.22-6.51-8.22h-110.59V92.88h104.08v115.12c0,4.54,2.91,8.22,6.51,8.22h0Z"/>
  <path class="st0" d="M417.21,454.7h-19.52v-8.22c0-4.54-2.91-8.22-6.51-8.22s-6.51,3.68-6.51,8.22v8.22H65.93V59.99c0-4.54,2.92-8.22,6.51-8.22h305.75c3.59,0,6.51,3.69,6.51,8.22v123.35c0,4.54,2.91,8.22,6.51,8.22s6.51-3.68,6.51-8.22V59.99c0-13.61-8.75-24.67-19.52-24.67H72.43c-10.76,0-19.52,11.06-19.52,24.67v394.71h-19.52c-3.59,0-6.51,3.68-6.51,8.22s2.91,8.22,6.51,8.22h383.81c3.59,0,6.51-3.68,6.51-8.22s-2.91-8.22-6.51-8.22Z"/>
  <path class="st0" d="M114.71,138.11c1.67,0,3.33-.8,4.6-2.41l13.01-16.45c2.54-3.21,2.54-8.42,0-11.63s-6.66-3.21-9.2,0l-13.01,16.45c-2.54,3.21-2.54,8.42,0,11.63,1.27,1.61,2.93,2.41,4.6,2.41ZM114.71,187.45c1.67,0,3.33-.8,4.6-2.41l52.04-65.79c2.54-3.21,2.54-8.42,0-11.63s-6.66-3.21-9.2,0l-52.04,65.79c-2.54,3.21-2.54,8.42,0,11.63,1.27,1.61,2.93,2.41,4.6,2.41ZM264.34,138.11c1.67,0,3.33-.8,4.6-2.41l13.01-16.45c2.54-3.21,2.54-8.42,0-11.63s-6.66-3.21-9.2,0l-13.01,16.45c-2.54,3.21-2.54,8.42,0,11.63,1.27,1.61,2.93,2.41,4.6,2.41ZM259.74,185.04c1.27,1.61,2.93,2.41,4.6,2.41s3.33-.8,4.6-2.41l52.04-65.79c2.54-3.21,2.54-8.42,0-11.63s-6.66-3.21-9.2,0l-52.04,65.79c-2.54,3.21-2.54,8.42,0,11.63h0ZM142.81,265.57c0,13.61,11.21,24.67,24.98,24.67s24.98-11.06,24.98-24.67-11.21-24.67-24.98-24.67-24.98,11.06-24.98,24.67ZM183.47,265.57c0,8.54-7.03,15.48-15.68,15.48s-15.68-6.94-15.68-15.48,7.03-15.48,15.68-15.48,15.68,6.94,15.68,15.48ZM462.75,314.91c0-19.06-13.55-34.88-31.28-37.95v-29.28c0-7.03-3.56-13.3-9.52-16.77s-13.03-3.38-18.9.24l-42.12,25.95h-35.8c-13.8,0-25.02,11.53-25.02,25.69v64.23c0,14.17,11.22,25.69,25.02,25.69h35.8l42.12,25.95c3.01,1.85,6.32,2.78,9.65,2.78s6.34-.84,9.25-2.54c5.96-3.47,9.52-9.73,9.52-16.77v-29.31c17.72-3.07,31.28-18.87,31.28-37.92h0ZM356.41,359.87h-31.28c-6.9,0-12.51-5.76-12.51-12.85v-64.23c0-7.08,5.61-12.85,12.51-12.85h31.28v89.92ZM418.96,382.15c0,3.38-2.22,5.03-3.17,5.59-.96.56-3.48,1.66-6.3-.08l-40.57-25v-95.5l40.57-25c2.82-1.74,5.34-.64,6.3-.08.95.56,3.17,2.21,3.17,5.58v134.47ZM450.24,314.91c0,11.95-7.99,21.99-18.77,24.84v-49.68c10.77,2.86,18.77,12.89,18.77,24.84Z"/>
  <path class="st0" d="M492.27,370.81c-3.15-3.27-8.26-3.27-11.42,0l-14.48,15.01-14.48-15.01c-3.15-3.27-8.26-3.27-11.42,0s-3.15,8.57,0,11.84l14.47,15.01-14.47,15.01c-3.15,3.27-3.15,8.57,0,11.84,1.58,1.64,3.64,2.45,5.71,2.45s4.13-.82,5.71-2.45l14.48-15.01,14.48,15.01c1.58,1.64,3.64,2.45,5.71,2.45s4.13-.82,5.71-2.45c3.15-3.27,3.15-8.57,0-11.84l-14.47-15.01,14.47-15.01c3.15-3.27,3.15-8.57,0-11.84Z"/>
</svg>