<svg viewBox="0 -42 511.99384 511" xmlns="http://www.w3.org/2000/svg"  height="100" width="100" fill="#0b5bc9">
  <path d="m207.207031 152.542969c9.4375 0 18.207031-5.484375 22.335938-13.972657 2.058593-4.234374.296875-9.34375-3.941407-11.410156-4.253906-2.0625-9.351562-.304687-11.410156 3.945313-2.675781 5.511719-11.757812 5.265625-14.136718-.371094-1.835938-4.339844-6.855469-6.375-11.179688-4.535156-4.339844 1.832031-6.375 6.835937-4.539062 11.179687 3.890624 9.214844 12.871093 15.164063 22.871093 15.164063zm0 0"/>
  <path d="m317.789062 152.542969c9.996094 0 18.972657-5.949219 22.871094-15.15625 1.835938-4.339844-.191406-9.347657-4.535156-11.183594-4.324219-1.839844-9.34375.195313-11.183594 4.53125-2.390625 5.636719-11.460937 5.878906-14.136718.371094-2.066407-4.234375-7.175782-5.996094-11.410157-3.941407-4.234375 2.0625-5.996093 7.171876-3.941406 11.410157 4.128906 8.484375 12.898437 13.96875 22.335937 13.96875zm0 0"/>
  <path d="m247.464844 333.296875h-8.53125v-51.199219c0-4.710937-3.820313-8.535156-8.535156-8.535156h-59.734376c-4.710937 0-8.53125 3.824219-8.53125 8.535156v51.199219h-8.535156c-4.710937 0-8.53125 3.820313-8.53125 8.53125 0 4.714844 3.820313 8.535156 8.53125 8.535156h93.867188c4.714844 0 8.535156-3.820312 8.535156-8.535156 0-4.710937-3.820312-8.53125-8.535156-8.53125zm-68.265625 0v-42.667969h42.667969v42.667969zm0 0"/>
  <path d="m214.96875 194.546875c1.632812 1.484375 3.6875 2.21875 5.734375 2.21875 2.320313 0 4.632813-.941406 6.320313-2.796875 7.671874-8.4375 22.046874-13.683594 37.511718-13.683594 15.296875 0 29.585938 5.15625 37.304688 13.457032 3.199218 3.445312 8.601562 3.648437 12.054687.441406 3.453125-3.207032 3.652344-8.601563.441407-12.058594-11-11.839844-29.621094-18.90625-49.804688-18.90625-20.429688 0-39.175781 7.203125-50.144531 19.273438-3.167969 3.488281-2.90625 8.886718.582031 12.054687zm0 0"/>
  <path d="m112.761719 128.496094c15.148437 0 27.429687-12.277344 27.429687-27.425782 0-15.152343-21.945312-49.371093-27.429687-49.371093s-27.429688 34.222656-27.429688 49.371093c0 15.148438 12.28125 27.425782 27.429688 27.425782zm0 0"/>
  <path d="m44.496094 77.296875c15.148437 0 27.425781-12.277344 27.425781-27.429687 0-15.148438-21.941406-49.371094-27.425781-49.371094s-27.429688 34.222656-27.429688 49.375c0 15.148437 12.277344 27.425781 27.429688 27.425781zm0 0"/>
  <path d="m428.496094 128.496094c15.148437 0 27.425781-12.277344 27.425781-27.425782 0-15.152343-21.945313-49.371093-27.425781-49.371093-5.488282 0-27.429688 34.222656-27.429688 49.371093 0 15.148438 12.28125 27.425782 27.429688 27.425782zm0 0"/>
  <path d="m469.332031 367.429688h-17.066406c0 22.492187-17.554687 40.785156-39.648437 42.363281 3.519531-5.703125 5.515624-12.308594 5.515624-19.1875v-151.175781h35.863282c6.28125 0 11.859375-3.761719 14.207031-9.582032 2.351563-5.824218.949219-12.402344-3.34375-16.542968l-194.175781-201.660157c-3.21875-3.332031-9.078125-3.332031-12.292969 0l-193.960937 201.441407c-4.515626 4.355468-5.917969 10.9375-3.566407 16.761718 2.347657 5.820313 7.925781 9.582032 14.207031 9.582032h35.863282v151.175781c0 6.089843 1.621094 11.976562 4.457031 17.253906-4.121094 1.332031-8.429687 2.238281-12.992187 2.238281-23.523438 0-42.664063-19.140625-42.664063-42.664062h-17.066406c0 23.523437-19.144531 42.664062-42.667969 42.664062v17.066406c21.699219 0 40.738281-11.632812 51.199219-28.992187 10.460937 17.359375 29.5 28.992187 51.199219 28.992187 21.699218 0 40.738281-11.632812 51.199218-28.992187 10.460938 17.359375 29.5 28.992187 51.199219 28.992187s40.738281-11.632812 51.199219-28.992187c10.464844 17.359375 29.5 28.992187 51.199218 28.992187 21.699219 0 40.738282-11.632812 51.199219-28.992187 10.464844 17.359375 29.5 28.992187 51.199219 28.992187s40.738281-11.632812 51.199219-28.992187c10.464843 17.359375 29.5 28.992187 51.199219 28.992187v-17.066406c-23.515626 0-42.660157-19.144531-42.660157-42.667968zm-204.800781-337.558594 185.363281 192.492187h-370.714843zm42.667969 380.226562c-6.261719 0-12.167969-1.433594-17.53125-3.871094.214843-.75.464843-1.484374.464843-2.300781v-113.296875h51.199219v101.90625c0 .066406.035157.121094.039063.1875-7.78125 10.480469-20.144532 17.375-34.171875 17.375zm59.734375-42.667968h-8.535156v-85.332032c0-4.710937-3.820313-8.535156-8.53125-8.535156h-68.269532c-4.710937 0-8.53125 3.824219-8.53125 8.535156v110.667969c-5.289062-7.105469-8.535156-15.816406-8.535156-25.335937h-17.066406c0 23.523437-19.140625 42.664062-42.664063 42.664062-23.523437 0-42.667969-19.140625-42.667969-42.664062h-17.066406c0 12.84375-5.824218 24.246093-14.835937 32.074218-1.410157-2.738281-2.230469-5.765625-2.230469-8.902344v-151.171874h273.066406v151.175781c0 6.355469-3.113281 12.324219-8.320312 15.976562-.003906 0-.007813.003907-.011719.007813-15.152344-6.554688-25.800781-21.625-25.800781-39.160156zm0 0"/>
</svg>