<svg id="Layer_1" overflow="scroll" viewBox="0 0 26 26" xmlns="http://www.w3.org/2000/svg"  height="100" width="100" fill="#0b5bc9"><path d="m.71521 12.2463379c.1292725.3129883.5091553.8388672 1.5951538.8388672h1.6893921v10.4140015h6.500061v-6.75h3v6.75h6.5v-10.4140015h1.6894531c1.0859375 0 1.4658203-.5258789 1.5957031-.8388672.1299438-.3135376.2324219-.9541016-.5351563-1.7217407l-.512207-.512207-1.0605468 1.0605468.512207.5122681h-3.1894531v10.4140015h-3.5v-6.75h-6.000061v6.75h-3.5v-10.4140015h-3.1893921l9.5127563-9.5126953c.0975952-.0976563.2557983-.0976563.3534546 0l1.8754883 1.8754272 1.0605469-1.0605469-1.8754883-1.8754272c-.6826172-.6826172-1.7920532-.6826172-2.4746094 0l-9.5127563 9.5126343c-.7675782.7676391-.6644898 1.4082031-.5345459 1.7217407z"/><path d="m23.237793 3.5c-.0888672-.1552734-.2543945-.2509766-.4335938-.2509766h-2.3588867l.8793945-2.0517578c.0664063-.1542969.050293-.3320313-.0419922-.4726563-.0927734-.1406249-.2495117-.2246093-.4174804-.2246093h-3.1049805c-.2446289 0-.453125.1767578-.4931641.4179688l-.8466797 5.1054688c-.0239258.1455078.0166016.2929688.1118164.4052734.0947266.1123047.234375.1767578.3813477.1767578h2.2167969l-.3334961 3.0908203c-.0253906.234375.1166992.4550781.340332.5283203.0517578.0175781.1044922.0253906.1567383.0253906.1738281 0 .3398438-.0908203.4316406-.2470703l3.5102539-6.0009766c.0903321-.1552734.0913086-.3466797.0019532-.5019531z"/></svg>