<svg id="Layer_3" enable-background="new 0 0 100 100" viewBox="0 0 100 100" xmlns="http://www.w3.org/2000/svg"   height="100" width="100" fill="#0b5bc9"><path d="m19.529 37.406c-.087-.152-.195-.29-.324-.407l-6.537-8.212c-.577-.726-1.633-.849-2.362-.267-.726.578-.845 1.634-.267 2.362l1.314 1.651 3.203 4.024h-3.203c-.929 0-1.681.751-1.681 1.68s.752 1.681 1.681 1.681h5.878l10.701 13.444h-11.841l-3.41-4.392c-.331-.426-.826-.642-1.328-.643-.36-.001-.723.108-1.031.346-.734.569-.866 1.625-.297 2.358l1.328 1.71.482.62h-.482c-.929 0-1.681.752-1.681 1.68 0 .929.752 1.681 1.681 1.681h3.092l10.44 13.444h-13.531c-.019 0-.036.005-.055.006-.063.002-.124.01-.184.019-.05.007-.099.014-.148.025-.054.013-.106.031-.157.049-.053.018-.107.036-.158.06-.045.021-.087.046-.13.07-.054.031-.108.063-.159.101-.015.011-.032.018-.047.03-.024.019-.042.042-.065.062-.046.041-.091.083-.132.128-.035.038-.067.077-.098.119-.034.045-.067.091-.096.139-.028.045-.052.091-.075.139-.024.05-.047.101-.066.152-.019.05-.034.102-.048.155-.014.052-.026.104-.034.157-.009.058-.015.117-.018.177-.002.031-.009.061-.009.093 0 .02.005.037.006.057.002.062.009.122.018.181.007.051.014.101.026.151.013.054.031.105.048.157.018.053.036.106.06.157.021.046.047.088.071.131.031.053.063.106.1.157.012.015.018.032.03.047l1.321 1.681 9.749 12.405h-9.749c-.929 0-1.681.751-1.681 1.68s.752 1.681 1.681 1.681h13.209 16.806 16.804c.645 0 1.234-.369 1.513-.95.28-.581.203-1.272-.199-1.778zm22.661 49.566-10.44-13.445h11.534c.215 0 .419-.044.608-.117l10.795 13.562zm-23.489-30.25h11.139c.235 0 .458-.049.661-.135l10.809 13.579h-12.169zm-3.889 16.805h12.682l10.44 13.445h-12.555zm75.489 11.013-1.526-9.649.95-14.81v-6.72c0-.028-.007-.054-.008-.081v-5.617c0-.921-.736-1.675-1.672-1.68-.003 0-.006-.001-.009-.001-.924 0-1.664.757-1.664 1.681l-.016 4.017h-13.595v-6.401c2.41-.524 4.39-2.342 5.058-4.803l2.195-8.079c.243-.895-.285-1.819-1.182-2.062-.824-.23-1.685.223-1.996 1.013-.022.056-.049.109-.065.169l-2.195 8.078c-.265.976-.946 1.742-1.815 2.153-.438.206-.92.329-1.428.329-.017 0-.033 0-.048 0-.067 0-.129.002-.194.008l-.009.001-1.682.17-5.215.527-1.672.169-1.672.169-4.009.405c-.407-.046-.778-.236-1.055-.543-.3-.333-.453-.765-.43-1.213.047-.926.841-1.656 1.765-1.592.145.007.288-.003.429-.035l2.904-.606 1.652-.344 1.653-.344 5.65-1.178.727-.152c.387-.08.715-.302.955-.601.133-.166.246-.348.31-.558l1.369-4.533.561-1.856.038-.128c.032-.107.052-.214.063-.321.614-.828 1.595-1.37 2.699-1.37h6.89c1.849 0 3.345 1.511 3.345 3.361v2.705c0 .942.756 1.68 1.68 1.68.003 0 .006-.001.009-.001.936-.005 1.688-.741 1.688-1.68 0 0-.016 0-.016-.016v-2.688c0-3.341-2.438-6.104-5.619-6.626.755-1.222 1.2-2.703 1.2-4.299 0-.436-.04-.86-.103-1.276.34-.307.558-.748.558-1.243v-1.681c0-3.707-3.015-6.722-6.722-6.722h-1.681c-3.162 0-4.851 2.022-5.027 6.011l-.711.711h-.985c-.929 0-1.681.752-1.681 1.681s.752 1.68 1.681 1.68h1.27c-.028.276-.044.555-.044.839 0 1.817.573 3.486 1.527 4.792-2.283 1.021-3.886 3.275-3.969 5.919l-.947 3.134-5.085 1.06-1.212-10.968v-.001s0 0 0-.001l-1.478-13.361c-.102-.919-.919-1.581-1.855-1.486l-8.346.922c-.002 0-.003 0-.006 0-.002 0-.003.001-.005.001l-16.698 1.847c-.443.049-.849.272-1.127.62-.279.348-.409.793-.359 1.234l1.477 13.364v.002c0 .001.001.001.001.002l2.953 26.725c.05.441.273.847.62 1.126.299.239.67.369 1.05.369.061 0 .123-.003.185-.01l16.694-1.846h.009c.002 0 .003 0 .006-.001l8.346-.922c.922-.102 1.587-.933 1.486-1.856l-.567-5.127 4.845-.49v7.587l-3.509 19.204c-.236.919-.471 3.648-.229 13.722.003.126.021.254.052.377.586 2.281 2.688 3.809 4.986 3.809.407 0 .821-.049 1.234-.149 1.352-.328 2.487-1.157 3.194-2.335.646-1.078.86-2.325.612-3.543l.203-9.215 2.507-9.799v8.235c0 .076.005.151.015.227l1.631 12.001c.136 1.452.906 2.775 2.112 3.628 1.237.878 2.807 1.165 4.305.789 2.409-.608 4.044-2.984 3.789-5.634zm-6.151 2.097c-.41-.29-.661-.715-.714-1.267l-1.625-11.958v-11.65c0-.929-.751-1.681-1.68-1.681h-2.513c-.768 0-1.438.52-1.628 1.264l-3.351 13.098c-.031.125-.049.251-.052.379l-.213 9.616c-.003.155.015.307.052.457.107.417.043.85-.18 1.224-.242.4-.634.684-1.106.799-.911.22-1.825-.258-2.123-1.078-.123-5.34-.127-11.316.079-12.422.04-.1.069-.203.087-.309l3.302-18.068h13.883l.002 4.932-.959 14.888c-.008.125-.002.248.018.371l1.543 9.727c.085.909-.463 1.748-1.274 1.951-.553.139-1.101.042-1.548-.273zm-22.554-36.686-5.012.554v-.001c-.102-.922-.926-1.576-1.856-1.486-.922.104-1.587.934-1.486 1.856l-5.009.554-.369-3.342c.923-.102 1.587-.932 1.486-1.854-.102-.922-.927-1.577-1.854-1.487h-.001l-.369-3.34c.924-.102 1.588-.932 1.486-1.855-.102-.921-.922-1.58-1.855-1.487h-.001l-.369-3.34 13.363-1.477.324 2.934-3.029.631c-.007 0-.015 0-.023 0-2.662 0-4.894 2.094-5.033 4.784-.069 1.344.39 2.636 1.291 3.636.903 1.001 2.14 1.59 3.486 1.659.027.002.056.002.085.002.056 0 .113-.003.169-.008l4.19-.424zm-21.716 2.401-.369-3.342 5.011-.554.37 3.342zm17.654-39.15.37 3.34-5.012.554-.369-3.341zm-14.12 25.231-5.011.554-.37-3.34 5.012-.554zm6.875-14.286-5.01.554-.37-3.341 5.011-.554zm-7.613 7.605-5.011.554-.369-3.34 5.011-.554zm-.739-6.681-5.011.554-.369-3.341 5.011-.554zm3.711 2.971 5.01-.554.37 3.341-5.011.554zm8.721 2.418-.369-3.341 5.012-.554.369 3.341zm4.273-7.236-5.011.554-.369-3.34 5.011-.554zm-9.46-9.099.369 3.34-5.01.554-.37-3.341zm-7.983 4.264-5.012.553-.369-3.341 5.011-.554zm-2.427 23.939 5.011-.553.37 3.34-5.012.554zm38.577-29.3h1.226.455c.479 0 .933.102 1.346.284 1.185.52 2.015 1.703 2.015 3.077h-.29-3.525-2.907c0-.217.004-.419.011-.609.045-1.18.224-1.85.471-2.235.328-.512.777-.517 1.198-.517zm-2.067 6.722h6.587c.044.271.068.552.068.839 0 2.316-1.508 4.2-3.361 4.2s-3.361-1.884-3.361-4.2c-.001-.287.023-.568.067-.839zm14.435 21.191c0 .922-.736 1.675-1.672 1.68-.003 0-.006.001-.009.001-.924 0-1.68-.755-1.68-1.68 0-.924.756-1.681 1.68-1.681.003 0 .006.001.009.001.936.004 1.672.758 1.672 1.679z"/></svg>