<?xml version="1.0" encoding="UTF-8"?>
<svg id="Layer_1" xmlns="http://www.w3.org/2000/svg" version="1.1" viewBox="0 0 100 100" width="100" height="100">
  <!-- Generator: Adobe Illustrator 29.4.0, SVG Export Plug-In . SVG Version: 2.1.0 Build 152)  -->
  <defs>
    <style>
      .st0 {
        fill: #fff;
      }
    </style>
  </defs>
  <path class="st0" d="M48.03,87.23h3.14v3.14h-3.14v-3.14Z"/>
  <path class="st0" d="M75.09,77.32l2.22-2.22,2.22,2.22-2.22,2.22-2.22-2.22Z"/>
  <path class="st0" d="M87.23,48.03h3.14v3.14h-3.14v-3.14Z"/>
  <path class="st0" d="M95.07,38.63h-11.12c-.61-1.91-1.38-3.77-2.3-5.55l7.86-7.86c.61-.61.61-1.6,0-2.22l-6.65-6.65C64.67-2.2,34.89-2.48,16.34,15.71-2.2,33.91-2.48,63.69,15.71,82.23c.21.21.42.42.63.63l6.65,6.65c.61.61,1.6.61,2.22,0l7.86-7.86c1.78.92,3.64,1.69,5.56,2.3v11.12c0,.87.7,1.57,1.57,1.57h18.81c.87,0,1.57-.7,1.57-1.57v-11.12c1.91-.61,3.77-1.37,5.55-2.3l7.86,7.86c.61.61,1.6.61,2.22,0l13.3-13.3c.61-.61.61-1.6,0-2.22l-7.86-7.86c.92-1.78,1.69-3.64,2.3-5.56h11.12c.87,0,1.57-.7,1.57-1.57v-18.81c0-.87-.7-1.57-1.57-1.57ZM18.56,18.56C35.27,1.84,62.21,1.36,79.51,17.47l-2.21,2.21c-16.55-15.27-42.34-14.23-57.6,2.31-14.41,15.61-14.41,39.68,0,55.29l-2.21,2.21C1.36,62.21,1.84,35.27,18.56,18.56ZM62.9,36.3c7.29,7.41,7.19,19.32-.22,26.61-7.32,7.2-19.07,7.2-26.39,0-.61-.61-1.6-.61-2.22,0l-12.17,12.17c-14.07-15.29-13.09-39.1,2.2-53.17,14.4-13.26,36.56-13.26,50.97,0l-12.17,12.17c-.61.61-.61,1.6,0,2.22,0,0,0,0,0,0ZM93.5,57.44h-10.72c-.7,0-1.32.47-1.51,1.15-.69,2.46-1.67,4.83-2.92,7.06-.35.61-.24,1.38.26,1.88l7.57,7.57-11.09,11.09-7.57-7.57c-.5-.5-1.27-.61-1.88-.26-2.23,1.25-4.6,2.23-7.06,2.92-.68.19-1.15.81-1.15,1.51v10.72h-15.68v-10.72c0-.7-.47-1.32-1.15-1.51-2.46-.69-4.83-1.67-7.06-2.92-.61-.35-1.38-.24-1.88.26l-7.57,7.57-4.43-4.43,15.56-15.56c9.17,7.93,23.03,6.94,30.96-2.23,7.14-8.25,7.14-20.49,0-28.74l15.56-15.56,4.43,4.43-7.57,7.57c-.5.5-.61,1.27-.26,1.88,1.25,2.23,2.23,4.6,2.92,7.06.19.68.81,1.15,1.51,1.15h10.72v15.68Z"/>
  <path class="st0" d="M51.17,43.55v-17.47c0-.87-.7-1.57-1.57-1.57s-1.57.7-1.57,1.57v17.47c-2.19.57-3.91,2.29-4.48,4.48h-11.2c-.87,0-1.57.7-1.57,1.57s.7,1.57,1.57,1.57h11.2c.86,3.35,4.27,5.37,7.62,4.51,3.35-.86,5.37-4.27,4.51-7.62-.57-2.21-2.3-3.94-4.51-4.51ZM49.6,52.74c-1.73,0-3.14-1.4-3.14-3.14s1.4-3.14,3.14-3.14,3.14,1.4,3.14,3.14-1.4,3.14-3.14,3.14Z"/>
  <path class="st0" d="M49.6,19.81c-.87,0-1.57-.7-1.57-1.57v-3.14c0-.87.7-1.57,1.57-1.57s1.57.7,1.57,1.57v3.14c0,.87-.7,1.57-1.57,1.57Z"/>
  <path class="st0" d="M65.28,24.01c-.87,0-1.57-.7-1.57-1.57,0-.27.07-.54.21-.78l1.57-2.72c.44-.75,1.4-1,2.15-.56.74.43.99,1.38.57,2.13l-1.57,2.72c-.28.49-.8.78-1.36.78Z"/>
  <path class="st0" d="M33.92,24.01c-.56,0-1.08-.3-1.36-.78l-1.57-2.72c-.43-.75-.16-1.71.59-2.14.75-.42,1.69-.17,2.13.57l1.57,2.72c.43.75.18,1.71-.57,2.14-.24.14-.51.21-.78.21Z"/>
  <path class="st0" d="M22.44,35.49c-.28,0-.55-.07-.78-.21l-2.72-1.57c-.75-.44-1-1.4-.56-2.15.43-.74,1.38-.99,2.13-.57l2.72,1.57c.75.43,1.01,1.39.57,2.14-.28.49-.8.78-1.36.78Z"/>
  <path class="st0" d="M18.24,51.17h-3.14c-.87,0-1.57-.7-1.57-1.57s.7-1.57,1.57-1.57h3.14c.87,0,1.57.7,1.57,1.57s-.7,1.57-1.57,1.57Z"/>
  <path class="st0" d="M19.73,68.42c-.87,0-1.57-.7-1.57-1.57,0-.56.3-1.08.78-1.36l2.72-1.57c.75-.44,1.71-.19,2.15.56.44.75.19,1.71-.56,2.15,0,0-.01,0-.02.01l-2.72,1.57c-.24.14-.51.21-.78.21Z"/>
  <path class="st0" d="M49.6,65.28c-4.16.01-8.15-1.65-11.08-4.6-.62-.6-.64-1.6-.04-2.22.6-.62,1.6-.64,2.22-.04.01.01.03.03.04.04,4.84,4.95,12.78,5.03,17.73.19,4.95-4.84,5.03-12.78.19-17.73-.06-.06-.12-.13-.19-.19-.62-.6-.64-1.59-.04-2.22.6-.62,1.59-.64,2.22-.04.01.01.03.03.04.04,6.12,6.13,6.12,16.05,0,22.17-2.94,2.93-6.92,4.58-11.07,4.59Z"/>
</svg>