<?xml version="1.0" encoding="iso-8859-1"?>
<!-- Generator: Adobe Illustrator 19.0.0, SVG Export Plug-In . SVG Version: 6.00 Build 0)  -->
<svg version="1.1" id="Capa_1" xmlns="http://www.w3.org/2000/svg" xmlns:xlink="http://www.w3.org/1999/xlink" x="0px" y="0px"
	 viewBox="0 0 512 512" style="enable-background:new 0 0 512 512;" xml:space="preserve">
      <path fill="#09428a" d="M256,35c-73.1,0-132.6,59.5-132.6,132.6v302c0,4.1,3.3,7.4,7.4,7.4h250.5c4.1,0,7.4-3.3,7.4-7.4V167.6c0-73.1-59.5-132.6-132.6-132.6ZM373.9,462.3h-235.7V167.6c0-65,52.9-117.9,117.9-117.9s117.9,52.9,117.9,117.9v294.7Z"/>
      <path fill="#09428a" d="M351.8,160.2h-191.5c-4.1,0-7.4,3.3-7.4,7.4v302c0,4.1,3.3,7.4,7.4,7.4h191.5c4.1,0,7.4-3.3,7.4-7.4V167.6c0-4.1-3.3-7.4-7.4-7.4ZM344.4,462.3h-176.8V175h176.8v287.3h0Z"/>
      <path fill="#09428a" d="M215.5,189.7c-18.3,0-33.2,14.9-33.2,33.2v121.6c0,4.1,3.3,7.4,7.4,7.4h51.6c4.1,0,7.4-3.3,7.4-7.4v-121.6c0-18.3-14.9-33.2-33.1-33.2ZM233.9,337h-36.8v-114.2c0-10.2,8.3-18.4,18.4-18.4s18.4,8.3,18.4,18.4v114.2h0Z"/>
      <path fill="#09428a" d="M296.5,189.7c-18.3,0-33.1,14.9-33.1,33.2v121.6c0,4.1,3.3,7.4,7.4,7.4h51.6c4.1,0,7.4-3.3,7.4-7.4v-121.6c0-18.3-14.9-33.2-33.1-33.2ZM314.9,337h-36.8v-114.2c0-10.2,8.3-18.4,18.4-18.4s18.4,8.3,18.4,18.4v114.2h0Z"/>
      <path fill="#09428a" d="M241.3,366.5h-51.6c-4.1,0-7.4,3.3-7.4,7.4v66.3c0,4.1,3.3,7.4,7.4,7.4h51.6c4.1,0,7.4-3.3,7.4-7.4v-66.3c0-4.1-3.3-7.4-7.4-7.4ZM233.9,432.8h-36.8v-51.6h36.8v51.6Z"/>
      <path fill="#09428a" d="M322.3,366.5h-51.6c-4.1,0-7.4,3.3-7.4,7.4v66.3c0,4.1,3.3,7.4,7.4,7.4h51.6c4.1,0,7.4-3.3,7.4-7.4v-66.3c0-4.1-3.3-7.4-7.4-7.4ZM314.9,432.8h-36.8v-51.6h36.8v51.6Z"/>
      <path fill="#09428a" d="M256,64.5c-56.9,0-103.1,46.3-103.1,103.1s3.3,7.4,7.4,7.4h191.5c4.1,0,7.4-3.3,7.4-7.4,0-56.9-46.3-103.1-103.1-103.1ZM167.9,160.2c3.8-45.3,41.8-81,88.1-81s84.3,35.7,88.1,81h-176.2Z"/>
      <path fill="#09428a" d="M256,64.5c-4.1,0-7.4,3.3-7.4,7.4v95.8c0,4.1,3.3,7.4,7.4,7.4s7.4-3.3,7.4-7.4v-95.8c0-4.1-3.3-7.4-7.4-7.4Z"/>
      <path fill="#09428a" d="M327.5,96.1c-2.9-2.9-7.5-2.9-10.4,0l-66.3,66.3c-2.9,2.9-2.9,7.5,0,10.4,1.4,1.4,3.3,2.2,5.2,2.2s3.8-.7,5.2-2.2l66.3-66.3c2.9-2.9,2.9-7.5,0-10.4Z"/>
      <path fill="#09428a" d="M261.2,162.4l-66.3-66.3c-2.9-2.9-7.5-2.9-10.4,0-2.9,2.9-2.9,7.5,0,10.4l66.3,66.3c1.4,1.4,3.3,2.2,5.2,2.2s3.8-.7,5.2-2.2c2.9-2.9,2.9-7.5,0-10.4Z"/>
      <path fill="#09428a" d="M270.7,403.3h-29.5c-4.1,0-7.4,3.3-7.4,7.4s3.3,7.4,7.4,7.4h29.5c4.1,0,7.4-3.3,7.4-7.4s-3.3-7.4-7.4-7.4Z"/>
      <path fill="#09428a" d="M86.6,462.3h-44.2c-4.1,0-7.4,3.3-7.4,7.4,0,4.1,3.3,7.4,7.4,7.4h44.2c4.1,0,7.4-3.3,7.4-7.4,0-4.1-3.3-7.4-7.4-7.4Z"/>
      <path fill="#09428a" d="M469.6,462.3h-88.4c-4.1,0-7.4,3.3-7.4,7.4s3.3,7.4,7.4,7.4h88.4c4.1,0,7.4-3.3,7.4-7.4s-3.3-7.4-7.4-7.4Z"/>
</svg>
