<?xml version="1.0" encoding="UTF-8"?>
<svg xmlns="http://www.w3.org/2000/svg" version="1.1" viewBox="0 0 512 512">
  <path fill="#09428a" d="M453.2,111.3c3.2,0,5.8-2.6,5.8-5.8v-30.4c0-3.2-2.6-5.8-5.8-5.8H86.3l-24.5-15.5c-1.8-1.1-4-1.2-5.9-.2-1.8,1-3,2.9-3,5v394.5c0,2.1,1.1,4,3,5,.9.5,1.8.7,2.8.7s2.1-.3,3.1-.9l24.5-15.5h366.9c3.2,0,5.8-2.6,5.8-5.8v-30.4c0-3.2-2.6-5.8-5.8-5.8h-27.8V111.3h27.8ZM447.5,80.9v18.9H134.2l-29.8-18.9h343ZM270.4,400.7h-132.1V111.3h132.1v289.3ZM126.8,108.7v141.5h-62.3V69.2l62.3,39.5ZM64.5,261.8h62.3v141.5l-62.3,39.5v-181ZM447.5,431.1H104.5l29.8-18.9h313.3v18.9ZM281.9,400.7v-138.9h132.1v138.9h-132.1ZM414,250.2h-132.1V111.3h132.1v138.9ZM309.9,195.8l56.5-56.5c2.2-2.2,5.9-2.2,8.1,0,2.2,2.2,2.2,5.9,0,8.1l-56.5,56.5c-1.1,1.1-2.6,1.7-4.1,1.7s-2.9-.6-4.1-1.7c-2.2-2.2-2.2-5.9,0-8.1h0ZM321.3,214.1l56.5-56.5c2.2-2.2,5.9-2.2,8.1,0,2.2,2.2,2.2,5.9,0,8.1l-56.5,56.5c-1.1,1.1-2.6,1.7-4.1,1.7s-2.9-.6-4.1-1.7c-2.2-2.2-2.2-5.9,0-8.1h0ZM385.9,316.2l-56.5,56.5c-1.1,1.1-2.6,1.7-4.1,1.7s-2.9-.6-4.1-1.7c-2.2-2.2-2.2-5.9,0-8.1l56.5-56.5c2.2-2.2,5.9-2.2,8.1,0,2.2,2.2,2.2,5.9,0,8.1h0ZM374.5,297.9l-56.5,56.5c-1.1,1.1-2.6,1.7-4.1,1.7s-2.9-.6-4.1-1.7c-2.2-2.2-2.2-5.9,0-8.1l56.5-56.5c2.2-2.2,5.9-2.2,8.1,0,2.2,2.2,2.2,5.9,0,8.1h0Z"/>
</svg>