<svg id="Layer_1" enable-background="new 0 0 512 512" viewBox="0 0 512 512" xmlns="http://www.w3.org/2000/svg" height="100" width="100" fill="#ffffff"><path d="m496 79.979c3.866 0 7-3.134 7-7v-36.979c0-3.866-3.134-7-7-7h-446.45l-29.8-18.91c-2.155-1.367-4.885-1.455-7.123-.224-2.237 1.23-3.627 3.58-3.627 6.134v480c0 2.554 1.39 4.904 3.627 6.134 1.052.579 2.213.866 3.372.866 1.306 0 2.609-.365 3.751-1.09l29.801-18.911h446.449c3.866 0 7-3.134 7-7v-36.979c0-3.866-3.134-7-7-7h-33.789v-352.041zm-7-36.979v22.979h-381.175l-36.213-22.979zm-215.498 389.02h-160.71v-352.041h160.71zm-174.71-355.192v172.172h-75.792v-220.268zm-75.792 186.172h75.792v172.171l-75.792 48.097zm466 205.999h-417.387l36.212-22.979h381.175zm-201.498-36.979v-169.02h160.709v169.02zm160.709-183.02h-160.709v-169.021h160.709zm-126.59-66.2 68.706-68.706c2.733-2.732 7.166-2.732 9.899 0 2.734 2.734 2.734 7.166 0 9.9l-68.706 68.706c-1.367 1.366-3.158 2.05-4.95 2.05s-3.583-.684-4.95-2.05c-2.733-2.734-2.733-7.166.001-9.9zm13.866 22.184 68.706-68.705c2.734-2.732 7.166-2.731 9.899 0 2.734 2.734 2.734 7.166 0 9.9l-68.706 68.705c-1.367 1.366-3.158 2.05-4.95 2.05s-3.583-.684-4.95-2.05c-2.733-2.734-2.733-7.165.001-9.9zm78.605 124.215-68.706 68.706c-1.367 1.366-3.158 2.05-4.95 2.05s-3.583-.684-4.95-2.05c-2.734-2.734-2.734-7.166 0-9.9l68.706-68.706c2.733-2.732 7.166-2.732 9.899 0 2.734 2.734 2.734 7.166.001 9.9zm-13.866-22.184-68.706 68.706c-1.367 1.366-3.158 2.05-4.95 2.05s-3.583-.684-4.95-2.05c-2.734-2.734-2.734-7.166 0-9.9l68.706-68.706c2.733-2.732 7.166-2.732 9.899 0 2.735 2.734 2.735 7.165.001 9.9z"/></svg>