<svg xmlns="http://www.w3.org/2000/svg" version="1.1" xmlns:xlink="http://www.w3.org/1999/xlink" width="100" height="100" x="0" y="0" viewBox="0 0 450 450" style="enable-background:new 0 0 512 512" xml:space="preserve" class=""><g><path d="M395.48 412.57H84.91c-2.76 0-5-2.24-5-5v-39.9c0-2.76 2.24-5 5-5s5 2.24 5 5v34.9h300.58V47.43H89.91v217.01c0 2.76-2.24 5-5 5s-5-2.24-5-5V42.43c0-2.76 2.24-5 5-5h310.58c2.76 0 5 2.24 5 5v365.15a5.002 5.002 0 0 1-5.01 4.99z" fill="#0b5bc9" opacity="1" data-original="#000000"></path><path d="M371.67 388.76H108.72c-2.76 0-5-2.24-5-5v-56.31c0-2.76 2.24-5 5-5s5 2.24 5 5v51.31h252.95V71.24H113.72v233.42c0 2.76-2.24 5-5 5s-5-2.24-5-5V66.24c0-2.76 2.24-5 5-5h262.95c2.76 0 5 2.24 5 5v317.52c0 2.76-2.24 5-5 5z" fill="#0b5bc9" opacity="1" data-original="#000000"></path><path d="M240.2 388.76c-2.76 0-5-2.24-5-5V66.24c0-2.76 2.24-5 5-5s5 2.24 5 5v317.52c0 2.76-2.24 5-5 5z" fill="#0b5bc9" opacity="1" data-original="#000000"></path><path d="M371.67 230H219.65c-2.76 0-5-2.24-5-5s2.24-5 5-5h152.02c2.76 0 5 2.24 5 5s-2.24 5-5 5zm-218.39 0h-44.55c-2.76 0-5-2.24-5-5s2.24-5 5-5h44.55c2.76 0 5 2.24 5 5s-2.24 5-5 5zM419.92 47.43H60.47c-2.76 0-5-2.24-5-5V10c0-2.76 2.24-5 5-5h359.45c2.76 0 5 2.24 5 5v32.43c0 2.76-2.24 5-5 5zm-354.45-10h349.45V15H65.47zM419.92 445H60.47c-2.76 0-5-2.24-5-5v-32.43c0-2.76 2.24-5 5-5h359.45c2.76 0 5 2.24 5 5V440c0 2.76-2.24 5-5 5zM65.47 435h349.45v-22.43H65.47zM84.91 375.85c-2.17 0-4.09-1.4-4.75-3.46l-12.65-38.95-38.97-12.64c-2.06-.67-3.46-2.59-3.46-4.76s1.4-4.09 3.46-4.76l38.97-12.64 12.65-38.95c.67-2.06 2.59-3.46 4.75-3.46s4.09 1.4 4.75 3.46l12.65 38.95 38.97 12.64c2.06.67 3.46 2.59 3.46 4.76s-1.4 4.09-3.46 4.76l-38.97 12.64-12.64 38.96a4.999 4.999 0 0 1-4.76 3.45zm-38.62-59.8 26.73 8.67c1.52.49 2.72 1.69 3.21 3.21l8.68 26.73 8.68-26.73a5.01 5.01 0 0 1 3.21-3.21l26.73-8.67-26.73-8.67a4.989 4.989 0 0 1-3.21-3.21l-8.68-26.73-8.68 26.73a5.01 5.01 0 0 1-3.21 3.21zM306.34 187.94c-2.17 0-4.09-1.4-4.76-3.46l-9.65-29.73-29.75-9.65c-2.06-.67-3.46-2.59-3.46-4.76s1.4-4.09 3.46-4.76l29.75-9.65 9.65-29.73a5.008 5.008 0 0 1 4.76-3.46c2.17 0 4.09 1.4 4.76 3.46l9.65 29.73 29.75 9.65c2.06.67 3.46 2.59 3.46 4.76s-1.4 4.09-3.46 4.76l-29.75 9.65-9.65 29.73a5.017 5.017 0 0 1-4.76 3.46zm-26.41-47.59 17.51 5.68c1.52.49 2.72 1.69 3.21 3.21l5.68 17.51 5.68-17.51a4.989 4.989 0 0 1 3.21-3.21l17.51-5.68-17.51-5.68a4.989 4.989 0 0 1-3.21-3.21l-5.68-17.51-5.68 17.51a4.989 4.989 0 0 1-3.21 3.21z" fill="#0b5bc9" opacity="1" data-original="#000000"></path><path d="M186.46 269.77c-2.17 0-4.09-1.4-4.76-3.46l-8.96-27.6-27.62-8.96c-2.06-.67-3.46-2.59-3.46-4.76s1.4-4.09 3.46-4.76l27.62-8.96 8.96-27.6c.67-2.06 2.59-3.46 4.76-3.46s4.09 1.4 4.76 3.46l8.96 27.6 27.62 8.96c2.06.67 3.46 2.59 3.46 4.76s-1.4 4.09-3.46 4.76l-27.62 8.96-8.96 27.6a4.995 4.995 0 0 1-4.76 3.46zM162.87 225l15.38 4.99c1.52.49 2.72 1.69 3.21 3.21l4.99 15.38 4.99-15.38a4.989 4.989 0 0 1 3.21-3.21l15.38-4.99-15.38-4.99a4.989 4.989 0 0 1-3.21-3.21l-4.99-15.38-4.99 15.38a4.989 4.989 0 0 1-3.21 3.21z" fill="#0b5bc9" opacity="1" data-original="#000000"></path></g></svg>