<svg xmlns="http://www.w3.org/2000/svg" version="1.1" xmlns:xlink="http://www.w3.org/1999/xlink" width="100" height="100" x="0" y="0" viewBox="0 0 512 512" style="enable-background:new 0 0 512 512" xml:space="preserve" class=""><g><path d="M495.75 310.84a5.99 5.99 0 0 0-5.79-5.5c-31.69-1.03-59.23-10.52-81.84-28.21a5.992 5.992 0 0 0-7.39 0c-.18.14-.37.27-.55.41V77.85h1.27c11.03 0 20-8.97 20-20V21c0-3.31-2.69-6-6-6H42.56c-3.31 0-6 2.69-6 6v36.85c0 11.03 8.97 20 20 20h1.27v317.96H21c-3.31 0-6 2.69-6 6v35.94c0 3.31 2.69 6 6 6h317.68c14.43 21.62 34.71 38.5 63.08 52.62a5.984 5.984 0 0 0 5.34 0c32.04-15.95 53.78-35.42 68.41-61.27 17.9-31.64 24.52-72.29 20.24-124.26zM48.56 57.85V27h360.88v30.85c0 4.41-3.59 8-8 8H56.56c-4.41 0-8-3.59-8-8zm21.27 20h318.35v207.93c-3.08 1.87-6.24 3.61-9.47 5.21V93.16c0-3.31-2.69-6-6-6H85.29c-3.31 0-6 2.69-6 6v286.99c0 3.31 2.69 6 6 6h230.6c.63 3.28 1.33 6.5 2.1 9.65H69.83zm249.06 227.48c-3.05.1-5.54 2.47-5.79 5.5-1.92 23.32-1.64 44.35.86 63.31H235v-131.5h131.71v53.53c-14.64 5.53-30.61 8.61-47.82 9.16zm47.82-74.67H235V99.16h131.71zm-143.71 0H91.29V99.16H223zm-131.71 12H223v131.5H91.29zM27 407.81h294.43c2.76 8.49 6.12 16.46 10.09 23.94H27zm377.43 76.47c-44.13-22.59-87.06-60.84-79.76-167.2 30.37-1.87 57.15-11.18 79.76-27.71 22.61 16.53 49.4 25.84 79.76 27.71 7.3 106.36-35.63 144.61-79.76 167.2zm65.48-158.78c-22.87-3.11-43.83-10.57-62.29-22.15a6.018 6.018 0 0 0-6.38 0c-18.46 11.58-39.42 19.04-62.29 22.15a6.01 6.01 0 0 0-5.19 5.77c-1.12 38.61 4.95 69.06 18.55 93.09 10.81 19.1 26.89 34.53 49.16 47.19a6.01 6.01 0 0 0 5.92 0c22.27-12.65 38.35-28.09 49.16-47.19 13.6-24.04 19.67-54.49 18.55-93.09a6.01 6.01 0 0 0-5.19-5.77zm-23.81 92.96c-9.36 16.55-22.66 29.62-41.68 40.94-19.02-11.32-32.31-24.39-41.68-40.94-11.74-20.75-17.48-48.25-17.1-81.83 21.32-3.51 41.05-10.61 58.78-21.16 17.73 10.55 37.46 17.66 58.78 21.16.39 33.57-5.36 61.08-17.1 81.83zm-8.71-54.57a6 6 0 0 1 0 8.48l-36.58 36.58a5.991 5.991 0 0 1-8.48 0l-20.86-20.86a6 6 0 0 1 0-8.48 6 6 0 0 1 8.48 0l16.62 16.62 32.34-32.34a6 6 0 0 1 8.48 0zM110.05 190.21a6.003 6.003 0 0 1 .06-8.49l64.16-63.24a6.003 6.003 0 1 1 8.43 8.55l-64.16 63.24a5.993 5.993 0 0 1-4.21 1.73c-1.56-.01-3.11-.6-4.28-1.79zm2.85-38.57a6.003 6.003 0 0 1 .06-8.49l22.93-22.6c2.36-2.33 6.16-2.3 8.49.06s2.3 6.16-.06 8.49l-22.93 22.6a5.993 5.993 0 0 1-4.21 1.73c-1.56 0-3.11-.6-4.28-1.79z" fill="#0b5bc9" opacity="1" data-original="#000000"></path></g></svg>