<svg xmlns="http://www.w3.org/2000/svg" version="1.1" xmlns:xlink="http://www.w3.org/1999/xlink" width="100" height="100" x="0" y="0" viewBox="0 0 128 128" style="enable-background:new 0 0 512 512" xml:space="preserve"><g><path d="M113 38a5 5 0 0 1 0 10H58a2 2 0 0 0 0 4h55a9 9 0 0 0 0-18 2 2 0 0 0 0 4zM117.87 66.87H54a2 2 0 0 0 0 4h63.87a6.13 6.13 0 0 1 0 12.26 2 2 0 0 0 0 4 10.13 10.13 0 0 0 0-20.26zM71 58a2 2 0 0 0 0 4h37a2 2 0 0 0 0-4z" fill="#0b5bc9" opacity="1" data-original="#000000"></path><path d="M95 76H63a2 2 0 0 0 0 4h32a2 2 0 0 0 0-4z" fill="#0b5bc9" opacity="1" data-original="#000000"></path><path d="M93 104h-7V86a2 2 0 0 0-4 0v18H41V24h41v18a2 2 0 0 0 4 0V22a2 2 0 0 0-2-2H39.62L11.14.35A2 2 0 0 0 8 2v60H2a2 2 0 0 0-2 2v11a2 2 0 0 0 4 0v-9h4v60a2 2 0 0 0 1.07 1.77 2 2 0 0 0 2.07-.12L39.62 108H93a2 2 0 0 0 0-4zM12 5.81l25 17.24V105l-25 17.19z" fill="#0b5bc9" opacity="1" data-original="#000000"></path></g></svg>