<svg id="flat" height="100" viewBox="0 0 64 64" width="100" xmlns="http://www.w3.org/2000/svg"><circle cx="32" cy="55" fill="#f9c33d" r="6"/><path d="m34 60.65a5.8 5.8 0 0 1 -2 .35 6 6 0 0 1 0-12 5.8 5.8 0 0 1 2 .35 6 6 0 0 0 0 11.3z" fill="#f7a83e"/><circle cx="32" cy="7" fill="#f9c33d" r="4"/><path d="m36 7.48a4 4 0 1 1 -5.94-4 3.87 3.87 0 0 0 -.06.52 4 4 0 0 0 6 3.48z" fill="#f7a83e"/><path d="m15 41v-16.57c0-9.43 7.48-17.38 16.91-17.43a17 17 0 0 1 17.09 17v17a6 6 0 0 0 6 6h2a4 4 0 0 1 4 4 4 4 0 0 1 -4 4h-50a4 4 0 0 1 -4-4 4 4 0 0 1 4-4h2a6 6 0 0 0 6-6z" fill="#f9c33d"/><circle cx="47" cy="17" fill="#f7616c" r="14"/><path d="m58.28 25.28a14 14 0 1 1 -19.56-19.56 14 14 0 0 0 19.56 19.56z" fill="#ea3d53"/><rect fill="#fff" height="12" rx="2" width="4" x="45" y="7"/><circle cx="47" cy="25" fill="#fff" r="2"/><path d="m60.87 52a4.08 4.08 0 0 1 -1 1.83 4 4 0 0 1 -2.87 1.17h-50a4 4 0 1 1 0-8h2a6 6 0 0 0 6-6v-16.57c0-9.43 7.48-17.38 16.91-17.43a16.75 16.75 0 0 1 3.19.29 17.59 17.59 0 0 0 -7.1 14.14v16.57a6 6 0 0 1 -6 6h-2a4 4 0 0 0 0 8z" fill="#f7a83e"/></svg>