<svg id="Layer_1" enable-background="new 0 0 66 66" height="100" viewBox="0 0 66 66" width="100" xmlns="http://www.w3.org/2000/svg"><g><g><g><ellipse cx="40.36" cy="23.08" fill="#ef4a51" rx="4.73" ry="23.96" transform="matrix(.866 -.5 .5 .866 -6.134 23.272)"/></g><g opacity=".3"><path d="m28.38 2.33c-2.26 1.31 1.26 11.66 7.88 23.12 1.33 2.31 2.69 4.48 4.02 6.47 3.22.9 6.64 1.04 9.98.34-1.45-3.46-3.43-7.43-5.8-11.54-6.62-11.47-13.82-19.7-16.08-18.39z" fill="#e2e2e2"/></g><g><path d="m6 32.79c-4.19 2.42-5.63 7.78-3.21 11.98 2.42 4.19 7.78 5.63 11.98 3.21l6.73-3.88-8.77-15.19z" fill="#ef4a51"/></g><g><path d="m20.79 44.51-6.02 3.47c-.51.29-1.04.53-1.57.71.62 5.56 3.23 10.67 7.31 14.42 1.34 1.23 3.32 1.43 4.89.52.04-.02.07-.04.11-.06 2.29-1.32 2.81-4.42 1.04-6.38-3.16-3.5-5.19-7.93-5.76-12.68z" fill="#4e6575"/></g><g opacity=".3"><path d="m26.55 57.19c-3.16-3.51-5.19-7.93-5.76-12.68l-2.78 1.61c.82 4.88 2.98 9.39 6.32 13.09.01.01.02.02.03.03 1.27 1.38 3.47-.61 2.22-2.01-.01-.02-.02-.03-.03-.04z" fill="#e2e2e2"/></g><g><path d="m36.26 25.45c-6.39-11.07-9.9-21.1-8.09-22.95-3.87 1.66-5.09 7.9-6.98 12.99-1.93 6.02-4.68 10.61-8.46 13.42 2.92 5.06 5.85 10.13 8.77 15.19 4.32-1.88 9.67-1.97 15.85-.62 5.35.92 11.37 2.97 14.74.46-2.51.63-9.44-7.42-15.83-18.49z" fill="#ffab03"/></g><g><path d="m42.01 22.13c-1.82-3.16-5.78-4.31-9-2.7.97 1.94 2.06 3.96 3.25 6.02s2.4 4.01 3.59 5.83c3-1.99 3.99-5.99 2.16-9.15z" fill="#e2e2e2"/></g><g opacity=".3"><path d="m2.18 43.45c3.34 1.46 7.3 1.38 10.69-.58l5.94-3.43-6.08-10.53-6.73 3.88c-3.77 2.18-5.3 6.72-3.82 10.66z" fill="#e2e2e2"/></g><g opacity=".3"><path d="m4.56 37.27 7.34-4.24.78 1.35c.77 1.33 2.46 1.78 3.79 1.02l-3.74-6.48-6.73 3.87c-1.91 1.1-3.24 2.82-3.91 4.76.8.24 1.69.16 2.47-.28z" fill="#e2e2e2"/></g><g opacity=".3"><path d="m33.01 19.43c.35.71.74 1.43 1.12 2.16 2.3 1.79 5.42 2.3 8.22 1.23-.1-.23-.21-.46-.34-.68-1.82-3.17-5.78-4.32-9-2.71z" fill="#fff"/></g><g opacity=".3"><path d="m22.51 11.63c-.16 4.55.9 9.2 3.35 13.44 4.05 7.01 10.96 11.32 18.4 12.33-2.51-3.17-5.3-7.29-7.99-11.95-6.39-11.07-9.9-21.1-8.09-22.95-2.93 1.25-4.35 5.12-5.67 9.13z" fill="#fff"/></g><g opacity=".3"><path d="m24.98 5.63-.03.04c.74 6.57 6 16.41 8.79 21.23.99 1.72 2.04 3.44 3.09 5.07.82 1.27 2.77.93 3.12-.54-1.23-1.86-2.47-3.87-3.7-5.99-4.48-7.76-7.54-15.01-8.35-19.28-.26-1.43-2.18-1.79-2.92-.53z" fill="#fff"/></g></g><g><g><path d="m51.78 17.7c-.26 0-.51-.13-.65-.38-.21-.36-.08-.82.27-1.02l8.08-4.67c.36-.21.82-.08 1.02.27.21.36.08.82-.27 1.02l-8.08 4.67c-.11.08-.24.11-.37.11z" fill="#4e6575"/></g><g><path d="m54.31 26.38c-.4 0-.73-.31-.75-.72s.3-.76.72-.78l9.32-.41c.4-.02.76.3.78.72.02.41-.3.76-.72.78l-9.32.41c-.01 0-.02 0-.03 0z" fill="#4e6575"/></g><g><path d="m45.53 11.17c-.14 0-.28-.04-.4-.12-.35-.22-.45-.69-.23-1.04l5.02-7.87c.22-.35.69-.45 1.04-.23s.45.69.23 1.04l-5.02 7.87c-.15.23-.39.35-.64.35z" fill="#4e6575"/></g></g></g></svg>