<svg viewBox="0 0 512 512" xmlns="http://www.w3.org/2000/svg" width="100" height="100"><g id="Layer_2" data-name="Layer 2"><g id="calendar_copy_2" data-name="calendar copy 2"><g id="_1" data-name="1"><rect fill="#c9c9c9" height="512" rx="80.82" width="512"/><rect fill="#e6e6e6" height="474" rx="80.82" width="512"/><path d="m512 80.83v101h-512v-101a80.82 80.82 0 0 1 80.82-80.83h350.36a80.82 80.82 0 0 1 80.82 80.83z" fill="#f00"/><path d="m255.86 288.93a37.43 37.43 0 0 1 -10.25 6.68 32.43 32.43 0 0 1 -13.09 2.39 19 19 0 0 1 -14.09-6 21.31 21.31 0 0 1 -4.05-6.34 19.18 19.18 0 0 1 -1.5-7.54 17.13 17.13 0 0 1 1.28-6.9 15.32 15.32 0 0 1 3.56-5 27.53 27.53 0 0 1 5.27-3.85c2-1.13 4.12-2.32 6.4-3.55a125.36 125.36 0 0 0 12.74-9.54q5.61-4.83 10-9t7.68-7.19a24.67 24.67 0 0 1 5.69-4.13c1-.47 1.83-.87 2.64-1.21a11.26 11.26 0 0 1 2.49-.71 25.05 25.05 0 0 1 2.84-.28c1.05 0 2.37-.07 4-.07q7.39 0 11.74 3a19 19 0 0 1 6.55 7.76 33.12 33.12 0 0 1 2.77 10.74q.57 6 .57 12.1v131.95q0 6.27-.57 12.31a32.46 32.46 0 0 1 -2.77 10.75 18.56 18.56 0 0 1 -6.55 7.61q-4.35 2.91-11.74 2.92-7.55 0-11.81-2.92a18.62 18.62 0 0 1 -6.48-7.61 32.21 32.21 0 0 1 -2.77-10.75q-.57-6-.57-12.31z" fill="#3d3d3d"/><g fill="#fff"><path d="m149.11 59.38a12.16 12.16 0 0 0 2.22 6.85 27.15 27.15 0 0 0 5.67 5.77 70.43 70.43 0 0 0 7.93 5.3q4.44 2.58 9.11 5.44c3.12 1.9 6.15 4 9.12 6.21a47.55 47.55 0 0 1 8 7.62 36.3 36.3 0 0 1 5.72 9.61 34.43 34.43 0 0 1 2.35 12.15v.67a41.71 41.71 0 0 1 -1.81 13 32.72 32.72 0 0 1 -4.81 9.52 27 27 0 0 1 -7 6.57 39.55 39.55 0 0 1 -8.38 4.13 47 47 0 0 1 -8.89 2.17 73.08 73.08 0 0 1 -8.48.73h-.9a53.26 53.26 0 0 1 -13.51-1.54 36.91 36.91 0 0 1 -10-4.13 27.63 27.63 0 0 1 -6.94-5.94 31.59 31.59 0 0 1 -4.4-6.93 33 33 0 0 1 -2.35-7.12 32.59 32.59 0 0 1 -.73-6.62 13 13 0 0 1 1.09-5.53 10.94 10.94 0 0 1 2.85-3.85 11.73 11.73 0 0 1 4.08-2.23 16.27 16.27 0 0 1 4.85-.72 17.38 17.38 0 0 1 4.85.72 14.46 14.46 0 0 1 4.54 2.23 11.83 11.83 0 0 1 3.35 3.8 11.41 11.41 0 0 1 1.41 5.4q.18 6.8 3.08 9.29c1.93 1.66 4.72 2.49 8.34 2.49a22.39 22.39 0 0 0 5-.68 9 9 0 0 0 3.95-2.08 10.22 10.22 0 0 0 2.58-4 17.71 17.71 0 0 0 .95-6.3 17.16 17.16 0 0 0 -2.13-8.52 30 30 0 0 0 -5.57-7.08 59.5 59.5 0 0 0 -7.89-6.21q-4.44-2.94-9.07-5.89t-9-6.16a56 56 0 0 1 -7.93-7 32 32 0 0 1 -5.67-8.43 25.86 25.86 0 0 1 -2.22-10.52v-1.46q.09-9.7 2.58-16.14a23.42 23.42 0 0 1 7.35-10.24 29.46 29.46 0 0 1 11.92-5.4 74.43 74.43 0 0 1 16.23-1.59h2.36a47.81 47.81 0 0 1 14.09 1.82 33.14 33.14 0 0 1 9.66 4.62 23.16 23.16 0 0 1 6.07 6.35 30.55 30.55 0 0 1 4.7 13.47q.27 3 .27 4.8a11.53 11.53 0 0 1 -1 4.94 11.29 11.29 0 0 1 -2.81 3.77 13 13 0 0 1 -4.17 2.4 15.43 15.43 0 0 1 -5.21.86 11.83 11.83 0 0 1 -4.36-.86 15.5 15.5 0 0 1 -3.9-2.22 12.24 12.24 0 0 1 -2.81-3.13 6.8 6.8 0 0 1 -1.08-3.58q0-7.44-2.68-10.34c-1.78-1.93-4.4-2.9-7.84-2.9a41 41 0 0 0 -4.84.26 8.82 8.82 0 0 0 -4.08 1.5 8.18 8.18 0 0 0 -2.81 3.76 19.38 19.38 0 0 0 -1 7.12z"/><path d="m266.79 27.47c2.42 0 4.86.09 7.34.27a21.1 21.1 0 0 1 6.71 1.54 11.56 11.56 0 0 1 4.9 3.86 11.92 11.92 0 0 1 1.9 7.2q0 4.63-1.9 7.21a11.56 11.56 0 0 1 -4.9 3.86 21.1 21.1 0 0 1 -6.71 1.59c-2.48.18-4.92.27-7.34.27h-21.58v24.61h11.42c2.42 0 4.86.08 7.3.23a19.4 19.4 0 0 1 6.53 1.45 11 11 0 0 1 4.67 3.71 11.63 11.63 0 0 1 1.81 6.94q0 4.53-1.81 7a11.12 11.12 0 0 1 -4.67 3.67 19.4 19.4 0 0 1 -6.53 1.45c-2.44.16-4.88.23-7.3.23h-11.42v26.11h21.58c2.42 0 4.86.09 7.34.27a21.94 21.94 0 0 1 6.71 1.5 11.3 11.3 0 0 1 4.9 3.81 11.76 11.76 0 0 1 1.9 7.12q0 4.71-1.95 7.34a11.8 11.8 0 0 1 -4.94 3.9 21.1 21.1 0 0 1 -6.71 1.54c-2.48.18-4.89.27-7.25.27h-35.54q-5.08 0-7.84-1.81a10.65 10.65 0 0 1 -4-4.76 19.72 19.72 0 0 1 -1.49-6.67c-.16-2.47-.23-5-.23-7.61v-85.25c0-2.6.07-5.13.23-7.61a19.72 19.72 0 0 1 1.45-6.71 10.65 10.65 0 0 1 4-4.76c1.84-1.2 4.45-1.81 7.84-1.81z"/><path d="m334.79 104.35v29.38q0 3.9-.23 7.62a18.55 18.55 0 0 1 -1.56 6.65 10.58 10.58 0 0 1 -4.13 4.67q-2.81 1.77-8.06 1.77c-3.39 0-6-.59-7.85-1.77a10.35 10.35 0 0 1 -4-4.67 19.21 19.21 0 0 1 -1.5-6.61q-.22-3.72-.22-7.62v-85.63q0-3.9.22-7.61a19.21 19.21 0 0 1 1.5-6.62 10.35 10.35 0 0 1 4-4.67c1.85-1.18 4.46-1.77 7.85-1.77h29.91a53.08 53.08 0 0 1 20.13 4.71 42 42 0 0 1 7.39 4.54 31.42 31.42 0 0 1 6.44 6.66 32.93 32.93 0 0 1 4.58 9.34 41 41 0 0 1 1.74 12.47 43.91 43.91 0 0 1 -3 17 32.14 32.14 0 0 1 -8.79 12.24 38.12 38.12 0 0 1 -14.05 7.43 65.18 65.18 0 0 1 -18.73 2.49zm12.33-21.57a20.06 20.06 0 0 0 8.16-2.18 15.73 15.73 0 0 0 3-2.09 14.09 14.09 0 0 0 2.63-3.12 16.24 16.24 0 0 0 1.86-4.4 22.63 22.63 0 0 0 .68-5.8 19.33 19.33 0 0 0 -.68-5.4 15.27 15.27 0 0 0 -1.77-4 13.45 13.45 0 0 0 -2.46-2.79 16.83 16.83 0 0 0 -2.81-2 21 21 0 0 0 -7.73-2.13h-13.21v33.91z"/></g></g></g></g></svg>