<svg preserveAspectRatio="xMidYMid meet" data-bbox="0.11 0 59.891 60" viewBox="0.11 0 59.891 60" height="80" width="80" xmlns="http://www.w3.org/2000/svg" data-type="color" role="img" aria-label="Clear, Simple Communication">
    <g>
        <path fill="#ffffff" d="M52.981 32h-.233a3 3 0 0 1-2.131-.879l-6.141-6.122a2 2 0 0 0-2.185-.432 1.995 1.995 0 0 0-1.234 1.847V31c0 .551-.451 1-1.006 1H29.017c-3.87 0-7.019 3.14-7.019 7v6h-7a1 1 0 0 0 0 2h7v4H2a1 1 0 0 0 0 2h20c0 3.86 3.148 7 7.019 7h23.963c3.87 0 7.019-3.14 7.019-7V39c0-3.86-3.148-7-7.019-7zM58 53c0 2.757-2.251 5-5.019 5H29.019C26.252 58 24 55.757 24 53V39c0-2.757 2.251-5 5.019-5h11.034a3.007 3.007 0 0 0 3.006-3l.006-4.585 6.141 6.122A4.98 4.98 0 0 0 52.749 34h.233c2.768 0 5.019 2.243 5.019 5zM23.34 14.132A5.97 5.97 0 0 0 25 10c0-3.309-2.691-6-6-6s-6 2.691-6 6c0 1.602.634 3.055 1.66 4.132C11.439 14.759 9 17.599 9 21c0 1.654 1.346 3 3 3h14c1.654 0 3-1.346 3-3 0-3.401-2.44-6.241-5.66-6.868M19 6c2.206 0 4 1.794 4 4s-1.794 4-4 4-4-1.794-4-4 1.794-4 4-4m7 16H12c-.551 0-1-.449-1-1 0-2.757 2.243-5 5-5h6c2.757 0 5 2.243 5 5 0 .551-.449 1-1 1" data-color="1"/>
        <path fill="#ffffff" d="M45.34 46.132A5.97 5.97 0 0 0 47 42c0-3.309-2.691-6-6-6s-6 2.691-6 6c0 1.602.634 3.055 1.66 4.132C33.439 46.759 31 49.599 31 53c0 1.654 1.346 3 3 3h14c1.654 0 3-1.346 3-3 0-3.401-2.44-6.241-5.66-6.868M41 38c2.206 0 4 1.794 4 4s-1.794 4-4 4-4-1.794-4-4 1.794-4 4-4m7 16H34c-.551 0-1-.449-1-1 0-2.757 2.243-5 5-5h6c2.757 0 5 2.243 5 5 0 .551-.448 1-1 1M59 8a1 1 0 0 0-1-1H38c0-3.86-3.14-7-7-7H7.11c-3.86 0-7 3.14-7 7v14c0 3.86 3.14 7 7 7h.233c.79 0 1.562.32 2.121.878L15.586 35a1.99 1.99 0 0 0 2.179.434A1.995 1.995 0 0 0 19 33.586V29c0-.551.449-1 1-1h11c3.86 0 7-3.14 7-7v-6h7a1 1 0 0 0 0-2h-7V9h20a1 1 0 0 0 1-1M36 21c0 2.757-2.243 5-5 5H20c-1.654 0-3 1.346-3 3v4.586l-6.122-6.122A4.97 4.97 0 0 0 7.343 26H7.11c-2.757 0-5-2.243-5-5V7c0-2.757 2.243-5 5-5H31c2.757 0 5 2.243 5 5z" data-color="1"/>
        <path fill="#ffffff" d="M42 19a1 1 0 0 0 0 2h13a1 1 0 1 0 0-2zM5 39a1 1 0 0 0 0 2h13a1 1 0 0 0 0-2z" data-color="1"/>
    </g>
</svg>