<svg preserveAspectRatio="xMidYMid meet" data-bbox="25.457 8.998 461.088 494.013" viewBox="25.457 8.998 461.088 494.013" height="80" width="80" xmlns="http://www.w3.org/2000/svg" data-type="color" role="img" aria-label="Service with Integrity">
    <g>
        <path fill="#ffffff" d="m485.858 355.547-36.416-139.176c-1.114-4.342-4.009-7.905-8.15-10.034-4.45-2.287-9.888-2.571-14.537-.767l-58.159 22.487c-8.904 3.476-13.379 13.539-9.978 22.424l4.66 12.222c-17.577 7.412-31.048 12.045-49.43 2.71-19.282-9.788-40.283-8.308-57.261 3.405-16.948-11.968-37.983-13.531-57.32-3.978-18.319 9.05-31.686 4.357-49.046-3.173l4.884-12.238c3.5-8.844-.846-18.963-9.695-22.559l-57.778-23.39c-4.614-1.861-10.043-1.651-14.525.558-4.173 2.057-7.132 5.562-8.331 9.871L26.224 352.521c-2.597 9.325 1.576 18.522 9.909 21.865l43.358 17.485a17.2 17.2 0 0 0 6.477 1.272c2.298 0 4.597-.464 6.781-1.392a17.3 17.3 0 0 0 9.368-9.556l4.681-11.729 12.793 5.347c5.008 2.428 8.676 6.83 10.956 13.062l-11.655 19.494c-3.598 5.996-4.631 13.046-2.907 19.852 1.724 6.808 5.987 12.519 12.014 16.085a26.15 26.15 0 0 0 13.329 3.64c.207 0 .412-.015.619-.02a26.2 26.2 0 0 0 .35 11.509c1.733 6.793 5.995 12.493 11.986 16.039a26.06 26.06 0 0 0 13.369 3.682c4.918 0 9.769-1.39 13.959-4a25.93 25.93 0 0 0 10.555 11.863 26.07 26.07 0 0 0 13.322 3.647c4.967 0 9.87-1.409 14.097-4.058a25.92 25.92 0 0 0 10.546 11.839 26.17 26.17 0 0 0 13.342 3.644c7.082 0 14.025-2.856 19.061-8.092l8.995 5.345a26.05 26.05 0 0 0 13.341 3.667c8.962 0 17.71-4.586 22.62-12.837 2.449-4.135 3.646-8.656 3.693-13.128 11.098 2.987 23.437-1.664 29.493-11.89a26 26 0 0 0 3.601-15.476c9.506.576 18.984-4.056 24.179-12.785 3.884-6.526 4.595-14.075 2.591-20.844q.49-.106.981-.231c6.811-1.737 12.521-6.006 16.071-12.004 4.723-7.937 4.713-17.402.758-25.249l16.135-6.445 4.528 11.877c1.637 4.336 4.881 7.775 9.133 9.685a17.4 17.4 0 0 0 7.123 1.54 17.3 17.3 0 0 0 6.178-1.149l.016-.006 43.638-16.832c8.397-3.216 12.708-12.342 10.251-21.691zM89.116 376.994a3.4 3.4 0 0 1-1.842 1.869c-.475.202-1.435.473-2.517.034l-.019-.007-43.382-17.495c-1.896-.76-2.182-3.185-1.644-5.118l38.551-138.612c.119-.428.466-.787 1.032-1.065a3.94 3.94 0 0 1 1.722-.385c.478 0 .95.083 1.367.251l57.761 23.382c1.753.712 2.622 2.7 1.944 4.412l-7.278 18.235-.034.068c-.046.105-.08.212-.12.317l-38.158 95.612-.033.069c-.02.046-.032.093-.05.14l-7.301 18.294zm46.008 55.258c-2.786-1.649-4.763-4.301-5.564-7.467s-.325-6.436 1.347-9.22l16.107-26.942c3.455-5.805 11.005-7.724 16.836-4.273a12.08 12.08 0 0 1 5.583 7.478 12.04 12.04 0 0 1-1.336 9.209l-.003.006-.002.004-15.642 26.257a7 7 0 0 0-.448.654c-3.482 5.805-11.057 7.731-16.877 4.294zm26.306 31.181c-2.781-1.646-4.758-4.294-5.564-7.458-.812-3.179-.341-6.471 1.322-9.267l22.924-38.48.003-.005.006-.011v-.003a12.27 12.27 0 0 1 10.561-5.995c2.13 0 4.287.555 6.248 1.722 2.792 1.652 4.774 4.31 5.585 7.483.809 3.172.342 6.455-1.316 9.243l-18.051 30.264c-.035.055-.074.105-.107.16-.08.134-.152.271-.23.406l-4.573 7.666c-3.459 5.812-10.99 7.735-16.808 4.273zm37.87 11.537c-2.797-1.655-4.779-4.316-5.584-7.493a12 12 0 0 1 1.226-8.987l18.286-30.658.003-.006c.069-.116.13-.234.197-.351.045-.07.096-.135.139-.208 3.46-5.797 11.018-7.717 16.841-4.282 2.78 1.646 4.757 4.295 5.563 7.458a12.12 12.12 0 0 1-1.248 9.126l-.977 1.635c-.027.045-.048.093-.074.139l-12.401 20.756c-.099.142-.198.283-.288.433-.165.276-.318.557-.472.838l-4.363 7.303c-3.482 5.804-11.04 7.735-16.849 4.295zm37.956 11.424c-2.783-1.648-4.76-4.294-5.565-7.452a12.1 12.1 0 0 1 1.087-8.799l13.902-23.269c.052-.087.097-.176.148-.263l3.107-5.199c3.465-5.806 11.021-7.728 16.841-4.281 2.797 1.655 4.78 4.316 5.584 7.492.8 3.159.327 6.421-1.339 9.198l-16.893 28.286c-3.472 5.804-11.044 7.726-16.872 4.287m58.193-3.366c-3.452 5.799-10.976 7.719-16.769 4.279l-8.376-4.977 12.549-21.013 8.685 5.159c5.464 3.552 7.218 10.969 3.91 16.553zm80.608-86.358c-1.65 2.789-4.312 4.771-7.491 5.583-3.184.812-6.474.345-9.265-1.316l-.003-.002-52.611-31.266a7 7 0 0 0-9.596 2.442 7 7 0 0 0 2.441 9.596l52.611 31.266c5.803 3.455 7.722 10.974 4.278 16.763-3.456 5.805-10.975 7.727-16.769 4.28l-8.103-4.816-.006-.004-58.932-35.008a7.002 7.002 0 0 0-7.153 12.039l58.932 35.008s.002 0 .003.002l.012.007c2.783 1.663 4.759 4.323 5.562 7.493a12.15 12.15 0 0 1-1.335 9.272c-3.316 5.601-10.664 7.612-16.369 4.492-3.085-1.697-6.312-3.661-9.433-5.56a626 626 0 0 0-3.952-2.392l-.006-.003-.014-.009-12.121-7.2a26.4 26.4 0 0 0-.807-6.152c-1.727-6.817-5.997-12.537-12.026-16.105-7.981-4.724-17.486-4.72-25.232-.838a25.93 25.93 0 0 0-11.145-13.312c-6.683-3.944-14.431-4.581-21.319-2.41-.043-.187-.081-.375-.129-.562-1.736-6.804-6.005-12.512-12.007-16.064-6.533-3.886-14.087-4.594-20.861-2.591-.067-.308-.132-.615-.21-.922-1.728-6.804-5.997-12.515-12.022-16.082-10.277-6.083-23.062-4.344-31.372 3.417-3.579-5.58-8.352-9.862-14.147-12.616a7 7 0 0 0-.306-.136l-13.168-5.504 33.039-82.782c18.623 8.051 36.747 14.422 60.44 2.718 13.632-6.736 27.846-6.333 40.022.889-13.436 11.537-26.63 20.646-39.406 29.459a1549 1549 0 0 0-8.324 5.769c-4.324 3.022-9.606 9.256-10.262 16.876-.463 5.389 1.424 10.353 5.461 14.359 13.997 13.865 35.692 13.869 64.49.014 19.895-8.922 40.707-7.599 61.865 3.931 5.777 3.43 12.004 6.792 18.027 10.043 11.667 6.299 23.695 12.798 33.538 20.311q.224.185.468.353.978.756 1.927 1.525c.062.051.134.086.198.134 4.4 4.109 5.595 10.551 2.584 15.611zm2.773-29.176c-10.58-7.985-22.893-14.632-34.836-21.08-6.21-3.353-12.075-6.519-17.635-9.824a6 6 0 0 0-.22-.125c-25.279-13.817-50.351-15.311-74.518-4.437l-.166.078c-22.928 11.047-39.294 11.954-48.638 2.698-1.336-1.325-1.441-2.369-1.368-3.215.212-2.467 2.39-5.241 4.333-6.6 2.69-1.881 5.444-3.781 8.252-5.718 13.005-8.971 27.744-19.138 42.371-31.908q.243-.213.467-.447c13.745-14.438 33.146-17.894 50.634-9.016 23.71 12.043 41.969 5.791 60.761-2.105l31.735 83.243zm91.753-3.328-43.642 16.833c-1.108.423-2.073.126-2.553-.089s-1.348-.743-1.776-1.877l-50.914-133.549c-.651-1.701.26-3.708 1.968-4.375l58.147-22.482c.412-.16.872-.239 1.335-.239.608 0 1.223.136 1.743.403.546.281.878.637.994 1.091l36.427 139.216c.507 1.928.187 4.334-1.729 5.067zm-59.322-94.003a7.001 7.001 0 1 1-13.002 5.197l-8.306-20.778a7.001 7.001 0 1 1 13.002-5.197zm-309.124-1.833 8.646-20.665a7.001 7.001 0 1 1 12.918 5.404l-8.646 20.665a7 7 0 0 1-6.462 4.301 7.002 7.002 0 0 1-6.456-9.705m151.387-26.492a7 7 0 0 0 4.948 0c79.99-30.207 115.876-95.346 106.658-193.61a7 7 0 0 0-6.187-6.304c-43.583-4.91-76.83-15.535-98.818-31.58a7 7 0 0 0-8.254 0c-21.987 16.045-55.234 26.67-98.817 31.58a7 7 0 0 0-6.187 6.304c-9.219 98.264 26.666 163.403 106.657 193.61M160.328 55.157c40.74-5.154 72.875-15.442 95.67-30.625 22.796 15.183 54.931 25.47 95.671 30.625 6.797 88.237-24.543 144.763-95.671 172.629-71.128-27.867-102.468-84.393-95.67-172.629m92.689 148.936a7 7 0 0 0 5.959 0c48.955-23.018 72.849-63.952 73.047-125.142a7 7 0 0 0-5.724-6.906c-26.059-4.84-48.625-12.158-67.072-21.75a7 7 0 0 0-6.461 0c-18.447 9.593-41.014 16.911-67.071 21.75a7.004 7.004 0 0 0-5.724 6.906c.197 61.176 24.09 102.11 73.045 125.141zm2.98-139.735c17.604 8.715 38.394 15.537 61.93 20.324-1.517 51.452-21.312 85.081-61.929 105.298-40.615-20.227-60.411-53.862-61.93-105.298 23.535-4.787 44.324-11.609 61.929-20.324m-16.026 85.271-14.569-17.858a7.002 7.002 0 0 1 10.85-8.851l9.646 11.824 30.295-30.606a7.002 7.002 0 0 1 9.953 9.85l-35.773 36.142a7 7 0 0 1-10.402-.5z" data-color="1"/>
    </g>
</svg>