<svg preserveAspectRatio="xMidYMid meet" data-bbox="49.667 0.4 412.505 511.333" viewBox="49.667 0.4 412.505 511.333" height="80" width="80" xmlns="http://www.w3.org/2000/svg" data-type="color" role="img" aria-label="Value-Oriented Guidance">
    <g>
        <path fill="#ffffff" clip-rule="evenodd" d="m414.3 294.6-51.5 51.5c-1.2-6.4-4.3-12.1-8.7-16.6-.2-.2-.4-.3-.7-.5-5.4-5.4-12.9-8.9-21.6-8.7H199.5c-24.2 0-45.4 8.8-62.5 25.9l-17.9 17.9-3.4-5.8c-1.8-3.2-5.9-4.3-9.1-2.4L53 386.8c-3.2 1.8-4.3 5.9-2.4 9.1l65 112.5c1.8 3.2 5.9 4.3 9.1 2.4l53.6-30.9c3.2-1.8 4.3-5.9 2.4-9.1l-3.4-6 22.4-12.9c4.9-2.8 9.6-4.1 15.2-4.1h122.6c6.6 0 12.8-1.3 18.4-3.9s10.6-6.4 14.9-11.5l84.8-99.6c4.9-5.7 7-12.8 6.5-19.8-.9-22.7-31.7-35.6-47.8-18.4M123.8 495.9c-19.5-33.6-38.9-67.4-58.3-101.1l42.1-24.3 4.6 7.9s0 .1.1.1l50.3 87.1 3.5 6zm321.8-171.7-84.8 99.6c-6.1 7.1-13.9 10.7-23.2 10.7H214.9c-14.8-1-31.7 12.1-44.3 18.8L126 376c12.2-11.7 28.5-31.5 44.7-36.9 8.8-3.6 18.4-5.5 28.8-5.5h132.3c1.8-.1 3.5.2 5.1.7s3.1 1.2 4.4 2c0 0 .1 0 .1.1 1.3.8 2.4 1.8 3.4 2.9.2.2.3.4.5.5.8 1 1.5 2.1 2.2 3.2.2.5.5.9.7 1.4.5 1 .8 2 1.1 3.1.2.6.3 1.3.4 1.9.1.9.2 1.9.2 2.8 0 .6 0 1.2-.1 1.8-.1 1.3-.3 2.7-.8 4-.6 1.6-1.4 3.1-2.5 4.5-.1.1-.1.2-.2.3-.5.7-1.1 1.3-1.7 1.9-3.3 3.3-7.9 5.4-12.9 5.4h-62.9c-8.7 0-8.7 13.3 0 13.3h62.9c8.7 0 16.6-3.5 22.3-9.3 1.1-1 2-2.1 2.9-3.2 22.1-19.8 45.5-45.5 66.8-66.8 8.5-9.2 24.5-1.9 25.2 9.9.3 3.6-.8 7.3-3.3 10.2M231.8 62.8v224.4c0 4.2 1.7 8.1 4.5 10.8 6.1 7.2 22.4 3.8 32.2 4.5 8.5 0 15.3-6.9 15.3-15.3V62.8c19.6-20.1 11-61.3-26-62.4-37 1.1-45.6 42.3-26 62.4m38.7 224.4c0 1.1-.9 2-2 2h-21.4c-1.1 0-2-.9-2-2V71.1c3.8 1.3 8 2.3 12.7 2.5 4.7-.2 8.9-1.1 12.7-2.5zm3.8-266.7c21.2 22.3-10.7 54.1-32.9 33-21.2-22.3 10.6-54.2 32.9-33M135.4 250.9c4 4.2 11.4.8 11.3-4.8v-28.9H213c3.7 0 6.7-3 6.7-6.7v-71.2c0-3.7-3-6.7-6.7-6.7h-66.2v-28.9c.2-6-7.9-8.9-11.7-4.4l-72.5 70.9c-2.6 2.6-2.7 6.8-.1 9.4zm-2-131.4v19.8c0 3.7 3 6.7 6.7 6.7h66.2v57.9h-66.2c-3.7 0-6.7 3-6.7 6.7v19.8L76.7 175zm169.2 37.6h80.1v19.6c-.2 5.5 6.9 8.8 11 5l66.1-57.7c3.1-2.6 3.1-7.4.1-10.1l-65.8-57.5c-3.9-4.3-11.6-1.2-11.4 4.6v19.6h-80.1c-3.7 0-6.7 3-6.7 6.7v63.2c.1 3.6 3.1 6.6 6.7 6.6m6.7-63.2h80.1c9.4-.3 6.1-12.3 6.7-18.3l49.4 43.2-49.4 43.2c-.5-5.9 2.7-18-6.7-18.3h-80.1zm-7.9 168.9h47.2v9.6c-.2 5.5 6.9 8.8 11 5l41.1-35.9c3.1-2.6 3.1-7.4.1-10.1L360.1 196c-3.9-4.3-11.6-1.2-11.4 4.6v9.6h-47.2c-3.7 0-6.7 3-6.7 6.7v39.3c-.1 3.6 2.9 6.6 6.6 6.6m6.7-39.2h47.2c4.5 0 7.2-4.1 6.7-8.3l24.4 21.3-24.4 21.2c.6-4.2-2.2-8.4-6.7-8.3h-47.2z" fill-rule="evenodd" data-color="1"/>
    </g>
</svg>