<?xml version="1.0" encoding="UTF-8"?>
<svg id="Layer_1" xmlns="http://www.w3.org/2000/svg" version="1.1" viewBox="0 0 100 100" width="60" height="60">
  <!-- Generator: Adobe Illustrator 29.4.0, SVG Export Plug-In . SVG Version: 2.1.0 Build 152)  -->
  <defs>
    <style>
      .st0 {
        fill: #0b5bc9;
      }
    </style>
  </defs>
  <g>
    <path class="st0" d="M80.18,95.27H14.84V2.69h65.35s0,92.58,0,92.58ZM18.28,92.08h58.47V5.88H18.28v86.19h0Z"/>
    <path class="st0" d="M71.58,95.27H23.43V10.67h48.15v84.6ZM26.87,92.08h41.27V13.87H26.87v78.21Z"/>
    <path class="st0" d="M7.96,92.08h79.1v3.19H7.96v-3.19ZM34.61,61.75c-2.38,0-4.3-1.79-4.3-3.99s1.92-3.99,4.3-3.99,4.3,1.79,4.3,3.99-1.92,3.99-4.3,3.99ZM34.61,55.99c-1.05,0-1.91.79-1.91,1.77s.86,1.77,1.91,1.77,1.91-.79,1.91-1.77-.86-1.77-1.91-1.77Z"/>
  </g>
  <path class="st0" d="M49.05,19.4c-5.34,0-9.68,4.15-9.68,9.26s4.34,9.26,9.68,9.26,9.68-4.15,9.68-9.26-4.34-9.26-9.68-9.26ZM54.46,26.22l-6.19,5.87c-.36.35-.95.37-1.34.02l-3.28-2.85c-.39-.35-.41-.93-.07-1.3.36-.37.97-.39,1.36-.05l2.6,2.28,5.53-5.29c.39-.37.99-.37,1.38,0,.39.37.39.95,0,1.32Z"/>
</svg>