<svg xmlns="http://www.w3.org/2000/svg" version="1.1" xmlns:xlink="http://www.w3.org/1999/xlink" width="60" height="60" x="0" y="0" viewBox="0 0 64 64" style="enable-background:new 0 0 512 512" xml:space="preserve" class=""><g><path d="M51 61V35.831a24.464 24.464 0 0 0 6-16.038V19a1 1 0 0 0-1-1h-.292A9.83 9.83 0 0 1 51 16.788V2a1 1 0 0 0-1-1H14a1 1 0 0 0-1 1v59H1v2h62v-2Zm-5-23.234a22.464 22.464 0 0 1-9-17.787 11.765 11.765 0 0 0 9-5.026 11.765 11.765 0 0 0 9 5.026 22.464 22.464 0 0 1-9 17.787Zm-5-20.978A9.83 9.83 0 0 1 36.292 18H36a1 1 0 0 0-1 1v.793a24.464 24.464 0 0 0 6 16.038V53H23V40h1a1 1 0 0 0 1-1v-2h2a1 1 0 0 0 1-1v-4a1 1 0 0 0-1-1h-2v-2a1 1 0 0 0-1-1h-1V11h18ZM26 33v2h-4v-2Zm-3-3v1h-2a1 1 0 0 0-1 1v4a1 1 0 0 0 1 1h2v1h-5v-8Zm-4 10h2v14a1 1 0 0 0 1 1h20a1 1 0 0 0 1-1V37.874a24.416 24.416 0 0 0 2 1.626V57H19ZM15 3h34v12.343a9.857 9.857 0 0 1-2.1-2.79 1.042 1.042 0 0 0-1.79 0 9.857 9.857 0 0 1-2.1 2.79V10a1 1 0 0 0-1-1H22a1 1 0 0 0-1 1v18h-2V7h26v3h2V6a1 1 0 0 0-1-1H18a1 1 0 0 0-1 1v22a1 1 0 0 0-1 1v10a1 1 0 0 0 1 1v18a1 1 0 0 0 1 1h28a1 1 0 0 0 1-1V39.5a24.416 24.416 0 0 0 2-1.627V61H15Z" fill="#0b5bc9" opacity="1" data-original="#000000" class=""></path><path d="M46 20a6.021 6.021 0 1 0 4.729 2.321l1.119-1.791-1.7-1.06-.925 1.48A5.961 5.961 0 0 0 46 20Zm4 6a4 4 0 1 1-4-4 3.963 3.963 0 0 1 2.166.647l-2.193 3.509-1.141-1.711-1.664 1.11 2 3A1 1 0 0 0 46 29h.015a1 1 0 0 0 .833-.47l2.7-4.328A3.938 3.938 0 0 1 50 26Z" fill="#0b5bc9" opacity="1" data-original="#000000" class=""></path></g></svg>