<svg enable-background="new 0 0 64 64" viewBox="0 0 64 64" xmlns="http://www.w3.org/2000/svg" width="100" height="100" fill="#6895cf"><g id="Layer_2"><path d="m47.967 6.925v-1.286c0-1.449-1.178-2.627-2.627-2.627s-2.627 1.179-2.627 2.627v1.104h-8.085v-1.104c0-1.449-1.179-2.627-2.627-2.627s-2.627 1.179-2.627 2.627v1.104h-8.085v-1.104c0-1.449-1.179-2.627-2.627-2.627s-2.627 1.179-2.627 2.627v1.287c-6.69 1.055-11.63 6.675-11.63 13.439v27.002c0 7.511 6.211 13.622 13.846 13.622h27.499c7.635 0 13.846-6.111 13.846-13.622v-27.002c-.001-6.764-4.941-12.384-11.629-13.44zm-3.255-1.286c0-.346.281-.627.627-.627s.627.281.627.627v4.13c0 .346-.281.627-.627.627s-.627-.281-.627-.627zm-13.339 0c0-.346.281-.627.627-.627s.627.281.627.627v4.13c0 .346-.281.627-.627.627s-.627-.281-.627-.627zm-13.34 0c0-.346.281-.627.627-.627s.627.281.627.627v4.13c0 .346-.281.627-.627.627s-.627-.281-.627-.627zm-2 3.303v.826c0 1.449 1.178 2.627 2.627 2.627s2.627-1.179 2.627-2.627v-1.025h8.085v1.026c0 1.449 1.179 2.627 2.627 2.627s2.627-1.179 2.627-2.627v-1.026h8.085v1.026c0 1.449 1.179 2.627 2.627 2.627s2.627-1.179 2.627-2.627v-.827c5.478 1.01 9.499 5.622 9.617 11.175h-51.165c.117-5.553 4.138-10.165 9.616-11.175zm41.562 38.425c0 6.408-5.314 11.622-11.846 11.622h-27.499c-6.532 0-11.846-5.214-11.846-11.622v-25.249h51.19v25.249z"/><path d="m28.771 34.791c.038.149.143.273.284.335.142.061.303.056.438-.018l2.712-1.464v16.233c0 .276.224.5.5.5h2.55c.276 0 .5-.224.5-.5v-19.499c0-.276-.224-.5-.5-.5h-2.25c-.083 0-.164.021-.236.059l-4.26 2.28c-.203.108-.305.341-.249.564z"/></g></svg>