<?xml version="1.0"?>
<svg xmlns="http://www.w3.org/2000/svg" id="Line" viewBox="0 0 256 256" width="100" height="100" fill="#6895cf"><path d="M198.2645,128.4342a56.4758,56.4758,0,1,0-66.8727-25.4494H75.6569a2.2015,2.2015,0,0,0-.4783.0562c-.0508.0115-.0981.0311-.1479.046a2.1871,2.1871,0,0,0-.3019.11c-.0549.0257-.1058.0565-.1585.0866a2.18,2.18,0,0,0-.2477.1629c-.0507.0388-.0985.0795-.1457.1228-.0322.0295-.0691.0524-.1.084-.04.0412-.0693.09-.1056.1336-.0253.03-.057.0536-.0807.0855L17.1624,180.2211a2.2,2.2,0,0,0,1.7661,3.5122s114.1452-.0882,114.4477-.2413a8.3736,8.3736,0,0,1,3.1153,2.35c1.73,1.7638,3.8825,3.9595,8.0421,3.9595s6.3129-2.1957,8.0427-3.9595c1.5031-1.5329,2.5891-2.6405,4.9009-2.6405s3.3985,1.1076,4.9016,2.6405c1.73,1.7638,3.8831,3.9595,8.0432,3.9595s6.3135-2.1957,8.0435-3.9595c1.5031-1.5329,2.5894-2.6405,4.9017-2.6405s3.3985,1.1076,4.9016,2.6405c1.73,1.7638,3.8831,3.9595,8.0432,3.9595s6.3135-2.1957,8.0438-3.9595c1.5034-1.5329,2.5894-2.6405,4.9019-2.6405s3.4,1.1076,4.9033,2.6405c1.73,1.7644,3.8836,3.9595,8.044,3.9595,4.2185,0,6.2243-2.2349,7.8362-4.03,1.3887-1.5474,2.3061-2.57,4.5614-2.57a2.2,2.2,0,0,0,1.7655-3.5127Zm12.4249,24.0882a11.8309,11.8309,0,0,0-4.0946,1.8807c-.1977.1338-.3894.2668-.575.3961a8.0047,8.0047,0,0,1-10.13,0c-.1856-.1293-.3773-.2623-.575-.3961A11.6738,11.6738,0,0,0,190.9,152.45l-12.9351-17.3843a9.5008,9.5008,0,0,0,2.9386.4425c4.1,0,6.2133-2.2059,7.9111-3.9778.3355-.35.649-.6746.9608-.9719q2.0126-.34,3.9753-.82ZM99.7036,133.8593a8.9269,8.9269,0,0,0,5.3444,1.6485c4.0995,0,6.212-2.2059,7.9095-3.9783,1.4575-1.5222,2.5105-2.6217,4.7314-2.6217l.0272.0018L135.2,152.44a11.6565,11.6565,0,0,0-4.4631,1.9629c-.1977.1338-.3894.2668-.5749.3961a7.9987,7.9987,0,0,1-10.1259,0c-.1856-.1293-.3773-.2623-.5749-.3961a11.4306,11.4306,0,0,0-6.1046-2.1691Zm28.1713,1.3447a9.7252,9.7252,0,0,0,2.4562.3038c4.1,0,6.2125-2.2059,7.91-3.9783,1.4577-1.5222,2.5113-2.6217,4.7328-2.6217a5.8141,5.8141,0,0,1,.7661.0493l17.3927,23.375a11.4949,11.4949,0,0,0-5.1119,2.071c-.1977.1338-.3894.2668-.575.3961a8.0012,8.0012,0,0,1-10.1277,0c-.1856-.1293-.3773-.2623-.575-.3961a11.8852,11.8852,0,0,0-3.9813-1.8551Zm26.1286.1763a10.2068,10.2068,0,0,0,1.6126.1275c4.1,0,6.2127-2.2059,7.91-3.9783a10.3754,10.3754,0,0,1,2.3893-2.0529q1.4463.383,2.9214.6916L185.46,152.5088a11.8058,11.8058,0,0,0-4.1534,1.8943c-.1977.1338-.3894.2668-.575.3961a8.0028,8.0028,0,0,1-10.1288,0c-.1855-.1293-.3772-.2623-.5749-.3961a12.62,12.62,0,0,0-3.0466-1.5809ZM128.2952,74.8961A52.0537,52.0537,0,1,1,180.3486,126.95,52.1126,52.1126,0,0,1,128.2952,74.8961Zm29.6471,51.8115q1.466.6365,2.9723,1.1942c-.1943.1976-.3831.3937-.5658.5844-1.458,1.5222-2.5112,2.6216-4.7327,2.6216s-3.2748-1.0994-4.7325-2.6216a22.3031,22.3031,0,0,0-1.848-1.7786,9.453,9.453,0,0,0-2.6783-1.6034l-13.1844-17.7194h1.0337A56.7962,56.7962,0,0,0,157.9423,126.7076Zm-30.2536-19.3228,12.9449,17.3974a9.1045,9.1045,0,0,0-3.722,1.9254,22.3031,22.3031,0,0,0-1.848,1.7786c-1.4577,1.5222-2.511,2.6216-4.7325,2.6216s-3.2745-1.0994-4.7322-2.6216a22.3031,22.3031,0,0,0-1.848-1.7786,9.1356,9.1356,0,0,0-3.5958-1.8935l-12.95-17.4293Zm-25.9658,0L114.77,124.9441a9.27,9.27,0,0,0-3.1423,1.7635,22.3031,22.3031,0,0,0-1.848,1.7786c-1.4574,1.5222-2.51,2.6216-4.7314,2.6216s-3.2736-1.0994-4.7311-2.6216a22.3031,22.3031,0,0,0-1.848-1.7786,8.9878,8.9878,0,0,0-5.7047-2.1877L80.0325,107.3848ZM38.68,179.3333l36.9845-49.9528,37.29,49.9528Zm79.7649,0L77.42,124.3773a2.2,2.2,0,0,0-1.763-.8841h-.0043a2.2012,2.2012,0,0,0-1.7639.8911L33.205,179.3333H23.304l52.3529-70.46,52.3528,70.46Zm30.99,3.4278c-1.5031,1.5329-2.5892,2.64-4.9012,2.64s-3.3975-1.1075-4.9006-2.64c-1.4932-1.5227-3.3048-3.3639-6.4475-3.84L118.38,158.9945a11.3829,11.3829,0,0,0,6.7191,2.011,11.9124,11.9124,0,0,0,7.5778-2.5959,7.6367,7.6367,0,0,1,5.0631-1.8063c.2033,0,.3849.0135.5712.0239l16.6963,22.471A11.615,11.615,0,0,0,149.4348,182.7611Zm25.8892,0c-1.5034,1.5329-2.5894,2.64-4.902,2.64s-3.3985-1.1075-4.9016-2.64a12.3132,12.3132,0,0,0-4.8815-3.4611L146.64,160.4588a12.1467,12.1467,0,0,0,3.7423.5467,11.9153,11.9153,0,0,0,7.5787-2.5959,7.6383,7.6383,0,0,1,5.0638-1.8063,8.8938,8.8938,0,0,1,1.3637.104l16.6367,22.359A11.5114,11.5114,0,0,0,175.324,182.7611Zm25.89,0c-1.5033,1.5329-2.5894,2.64-4.9022,2.64s-3.3985-1.1075-4.9016-2.64a12.5553,12.5553,0,0,0-4.6781-3.3946l-13.8839-18.6594a12.7744,12.7744,0,0,0,2.819.2984,11.915,11.915,0,0,0,7.5789-2.5959,7.6384,7.6384,0,0,1,5.0639-1.8063c.0722,0,.1329.0072.2029.0085l17.0346,22.8939A13.0752,13.0752,0,0,0,201.2142,182.7611Zm25.5522.0709c-1.3887,1.5474-2.3061,2.57-4.5614,2.57-2.313,0-3.3993-1.1075-4.903-2.64-1.538-1.5679-3.4141-3.4731-6.7334-3.8779l-13.83-18.5877A12.532,12.532,0,0,0,208.534,158.41a7.642,7.642,0,0,1,5.0652-1.8063v-.1669L230.79,179.56A11.9773,11.9773,0,0,0,226.7664,182.832Z"/><path d="M196.6982,197.4688a2.1939,2.1939,0,0,0-2.1412-.8626l-1.1652.1987a11.7533,11.7533,0,0,0-7.3313,2.6007,7.41,7.41,0,0,1-4.9924,1.8h-.0016c-1.9838,0-3.1429-.6924-5.0628-1.84-2.5406-1.5179-5.803-3.1969-8.662-2.8064a11.7551,11.7551,0,0,0-7.3538,2.6007,7.4073,7.4073,0,0,1-4.9941,1.8c-2.1758,0-4.5654-1.2472-6.8766-2.453a32.6385,32.6385,0,0,0-4.5391-2.084,2.2,2.2,0,0,0-2.4382,3.4364c2.42,3.1088,24.3587,33.5119,25.7705,33.5849a7.5353,7.5353,0,0,1,4.472,1.787,11.76,11.76,0,0,0,7.5225,2.6007h.0027c3.1842,0,5.14-1.1763,7.21-2.4218l.344-.2068a9.66,9.66,0,0,1,8.6389-1.1022,15.2464,15.2464,0,0,1,2.8359,1.5319,12.2386,12.2386,0,0,0,7.0442,2.4433,11.7568,11.7568,0,0,0,7.5252-2.6018,7.4079,7.4079,0,0,1,4.9943-1.8,2.2445,2.2445,0,0,0,.37-.0311l1.3729-.2342a2.2,2.2,0,0,0,1.4007-3.4746Zm13.2768,34.4083a7.4077,7.4077,0,0,1-4.9943,1.8c-1.9161,0-3.0781-.7375-4.6865-1.7585a19.1794,19.1794,0,0,0-3.6551-1.9385,13.2461,13.2461,0,0,0-4.6567-.8513,15.0962,15.0962,0,0,0-7.7816,2.3l-.3516.211c-1.8576,1.1178-2.9785,1.7924-4.9416,1.7924h-.0019a7.4114,7.4114,0,0,1-4.9933-1.8,12.01,12.01,0,0,0-5.87-2.504c-1.6272-2.0061-16.0287-21.964-18.1664-24.8961a13.6616,13.6616,0,0,0,5.1181,1.1285,11.7573,11.7573,0,0,0,7.5252-2.6018,7.4073,7.4073,0,0,1,4.9941-1.8,2.25,2.25,0,0,0,.37-.0311c.7646-.1316,2.4022.1482,5.8639,2.2155,2.1192,1.2665,4.1207,2.4627,7.3195,2.4627h.0024a11.7549,11.7549,0,0,0,7.5225-2.6018,7.4077,7.4077,0,0,1,4.9943-1.8,2.1937,2.1937,0,0,0,.3706-.0317l.0056,0,20.9169,28.3605A12.4656,12.4656,0,0,0,209.975,231.8771Z"/><path d="M180.3486,120.35a45.4537,45.4537,0,1,0-45.4534-45.4534A45.5051,45.5051,0,0,0,180.3486,120.35Zm16.5593-7.9-6.5857-11.407L202.416,94.06l6.1356,10.6273A41.1834,41.1834,0,0,1,196.9079,112.4491ZM161.674,69.0232l14.2053-8.2015,7.8832-4.5515a20.4976,20.4976,0,0,1,27.4785,6.693,24.91,24.91,0,0,0-19.6434,2.2649L167.5116,79.134Zm3.5569,14.96-8.67,5.0058-8.8967-15.41,8.67-5.0053Zm24.7131-12.72,2.5183,7.1059L181.711,84.5764l-4.8949-5.7338Zm2.4182,12.2444,4.8827,8.4572-6.1512,3.5514L186.211,87.059ZM180.3486,33.8422a41.0238,41.0238,0,0,1,31.3581,67.51l-6.58-11.3976a2.2,2.2,0,0,0-3.0051-.8051l-1.0657.6152-4.8826-8.457.0744-.043a2.1993,2.1993,0,0,0,.9735-2.64l-3.4015-9.5981a20.5082,20.5082,0,0,1,16.5449-1.7274l4.9946,1.6243a2.2,2.2,0,0,0,2.5856-3.1921l-2.406-4.1674a24.9,24.9,0,0,0-33.9759-9.104L159.4741,65.2128l-.43-.7441a2.1989,2.1989,0,0,0-3.0051-.8052l-12.4808,7.2054a2.1995,2.1995,0,0,0-.8051,3.0051L153.85,93.0945a2.2,2.2,0,0,0,3.0052.8051l12.4805-7.2059a2.2,2.2,0,0,0,.8051-3.0051l-.43-.7442,3.23-1.8645,6.6119,7.7451a2.1992,2.1992,0,0,0,2.7731.4769l.0744-.0429,4.8827,8.4573-1.066.6155a2.2,2.2,0,0,0-.8051,3.0051l7.33,12.6965a41.0533,41.0533,0,1,1-12.3937-80.1912Z"/></svg>
