<svg id="Layer_1" enable-background="new 0 0 500 500" viewBox="0 0 500 500" xmlns="http://www.w3.org/2000/svg">
  <path fill="#6895cf" clip-rule="evenodd" d="m382.229 74.281c5.171 13.473 12.958 24.395 22.465 31.292-9.507 6.902-17.294 17.814-22.465 31.297-5.167-13.483-12.953-24.395-22.465-31.297 9.512-6.907 17.299-17.819 22.465-31.292zm-38.048 37.309c16.293 5.585 29.037 27.224 31.72 53.845.754 7.569 11.896 7.569 12.662 0 2.683-26.621 15.427-48.26 31.72-53.845 5.713-1.956 5.708-10.08 0-12.039-16.292-5.58-29.037-27.214-31.72-53.84-.331-3.252-3.067-5.726-6.333-5.726s-6.008 2.474-6.338 5.726c-2.673 26.621-15.417 48.26-31.71 53.84-5.708 1.959-5.714 10.084-.001 12.039zm-66.448-17.595c2.62 4.895 5.915 9.079 9.731 12.312-3.816 3.242-7.111 7.422-9.731 12.321-2.625-4.899-5.925-9.079-9.736-12.321 3.811-3.233 7.112-7.418 9.736-12.312zm-24.361 18.377c9.23 2.926 16.477 14.484 18.028 28.765.824 7.502 11.842 7.512 12.652 0 1.555-14.28 8.812-25.839 18.042-28.755 5.901-1.869 5.882-10.283 0-12.146-9.23-2.916-16.487-14.475-18.042-28.755-.81-7.511-11.827-7.501-12.652 0-1.55 14.28-8.798 25.839-18.028 28.755-5.909 1.871-5.898 10.286 0 12.136zm-21.808 244.61c-3.728-7.782-8.832-14.261-14.907-18.859 6.076-4.608 11.179-11.082 14.907-18.864 3.733 7.782 8.831 14.256 14.917 18.864-6.086 4.598-11.185 11.077-14.917 18.859zm30.392-24.944c-12.35-3.801-22.028-18.592-24.064-36.794-.842-7.487-11.821-7.488-12.652 0-2.037 18.203-11.709 32.993-24.064 36.794-5.964 1.834-5.968 10.331 0 12.166 12.355 3.801 22.028 18.587 24.064 36.794.831 7.487 11.81 7.486 12.652 0 2.036-18.207 11.714-32.993 24.064-36.794 5.962-1.834 5.959-10.335 0-12.166zm-104.19-35.292v68.46c0 3.514-2.843 6.362-6.367 6.362-3.509 0-6.362-2.848-6.362-6.362v-68.46c0-3.514 2.853-6.362 6.362-6.362 3.524-.001 6.367 2.848 6.367 6.362zm0 94.891v18.353c0 3.514-2.843 6.367-6.367 6.367-3.509 0-6.362-2.853-6.362-6.367v-18.353c0-3.509 2.853-6.362 6.362-6.362 3.524 0 6.367 2.853 6.367 6.362zm-72.97 34.155v18.348c0 3.509-2.848 6.362-6.362 6.362-3.524 0-6.363-2.853-6.363-6.362v-18.348c0-3.519 2.839-6.362 6.363-6.362 3.513 0 6.362 2.843 6.362 6.362zm36.245-28.152v18.344c0 3.514-2.853 6.362-6.367 6.362-3.509 0-6.362-2.848-6.362-6.362v-18.344c0-3.524 2.853-6.367 6.362-6.367 3.513 0 6.367 2.843 6.367 6.367zm280.47-159.798c-8.252 11.84-19.355 18.834-31.206 18.572-65.778 0-131.556 0-197.335 0 16.346-14.774 24.892-38.7 25.756-62.18h216.394c-.685 16.554-5.453 31.913-13.609 43.608zm-43.584 92.801-45.538 45.533c-1.191 1.196-1.862 2.819-1.862 4.501v66.608h-13.041v-74.643l45.543-45.533c1.196-1.2 1.867-2.814 1.867-4.501v-53.466h13.031zm-218.509-74.332c12.494.929 24.101-5.761 32.959-18.47 9.257-13.282 14.049-31.099 13.677-49.845-.071-3.569 2.802-6.494 6.357-6.494h121.785c.355-4.656.997-9.24 1.939-13.711h-216.087c-5.162 21.344-2.644 45.972 7.592 64.377 4.496-4.122 9.376-7.918 14.611-11.32 2.946-1.915 6.892-1.074 8.802 1.871 1.915 2.95 1.074 6.887-1.866 8.807-5.133 3.334-9.881 7.087-14.212 11.199 3.222 3.699 6.727 6.703 10.426 8.934 5.176-5.181 11.369-9.468 18.382-12.506 3.222-1.4 6.97.083 8.375 3.31 1.39 3.222-.088 6.965-3.31 8.365-3.403 1.478-6.562 3.33-9.43 5.483zm288.49-68.572c.407 21.449-5.152 41.882-15.952 57.383-10.903 15.648-25.441 24.021-41.3 24.021v64.134c0 1.687-.671 3.31-1.867 4.506l-45.533 45.533v65.048c0 6.421-5.235 11.651-11.66 11.651h-15.179c-6.421 0-11.66-5.23-11.66-11.651v-78.356c0-1.687.671-3.31 1.867-4.506l45.543-45.533v-50.826h-190.397c-4.365 0-8.637-.666-12.773-1.954-5.079 7.436-7.957 16.317-7.957 25.654v78.356c0 3.509-2.853 6.362-6.367 6.362-3.509 0-6.362-2.853-6.362-6.362v-78.356c0-11.262 3.266-22.004 9.079-31.161-3.937-2.561-7.66-5.755-11.106-9.556-13.746 16.997-21.488 38.286-21.488 60.722v86.502c0 3.514-2.848 6.367-6.362 6.367-3.524 0-6.363-2.853-6.363-6.367v-86.502c0-26.509 9.527-51.58 26.378-71.202-14.318-23.102-17.431-55.134-9.366-82.045.807-2.688 3.286-4.54 6.095-4.54h229.129c4.267 0 7.327 4.117 6.105 8.19-1.75 5.838-2.902 11.957-3.446 18.251h94.581c3.469.001 6.293 2.777 6.361 6.237z" fill-rule="evenodd"/>
</svg>