<svg id="Layer_1" enable-background="new 0 0 512 512" viewBox="0 0 512 512" xmlns="http://www.w3.org/2000/svg" width="100" height="100" fill="#6895cf"><path d="m183.148 163.485h145.704c2.27 0 4.433-.964 5.95-2.653 1.518-1.688 2.246-3.941 2.004-6.199-3.34-31.204-23.944-56.609-51.745-67.204 9.768-8.27 15.986-20.61 15.986-34.381.001-24.84-20.207-45.048-45.046-45.048-24.84 0-45.048 20.208-45.048 45.048 0 13.771 6.218 26.111 15.986 34.381-27.802 10.595-48.406 36-51.745 67.205-.242 2.257.486 4.51 2.004 6.199 1.518 1.688 3.681 2.652 5.95 2.652zm72.853-139.485c16.017 0 29.047 13.031 29.047 29.048s-13.03 29.047-29.047 29.047-29.048-13.031-29.048-29.047c0-16.017 13.031-29.048 29.048-29.048zm-.001 74.095c30.4 0 56.22 20.686 63.337 49.39h-126.673c7.116-28.703 32.936-49.39 63.336-49.39zm-130.969 5.091-18.876 4.274c-4.312.974-8.594-1.728-9.569-6.036-.976-4.309 1.727-8.593 6.036-9.569l47.505-10.756c2.598-.589 5.318.154 7.255 1.982 1.938 1.827 2.839 4.499 2.404 7.126l-7.196 43.478c-.648 3.917-4.039 6.695-7.883 6.695-.435 0-.874-.035-1.316-.108-4.358-.722-7.308-4.84-6.586-9.199l3.397-20.526c-51.255 51.785-77.711 124.685-71.099 197.512.4 4.4-2.843 8.291-7.243 8.69-.246.022-.49.033-.733.033-4.091 0-7.58-3.122-7.957-7.276-6.874-75.696 19.804-151.478 71.861-206.32zm225.29-27.42c2.829-3.395 7.874-3.852 11.268-1.023 58.385 48.665 93.106 121.114 95.076 196.702l10.325-16.369c2.357-3.737 7.297-4.854 11.034-2.499 3.737 2.357 4.855 7.298 2.499 11.034l-25.984 41.196c-1.421 2.253-3.87 3.65-6.532 3.729-.078.003-.157.004-.235.004-2.575 0-4.999-1.241-6.504-3.343l-25.655-35.831c-2.572-3.593-1.745-8.59 1.848-11.162 3.594-2.571 8.59-1.745 11.162 1.848l12.112 16.916c-.376-72.859-33.216-143.115-89.388-189.936-3.396-2.827-3.854-7.872-1.026-11.266zm-101.185 375.139c-20.792 0-41.594-2.457-61.975-7.372l13.139 14.209c2.999 3.244 2.801 8.306-.442 11.306-1.539 1.423-3.487 2.126-5.43 2.126-2.153 0-4.299-.863-5.876-2.568l-33.068-35.763c-1.808-1.956-2.524-4.683-1.911-7.274.614-2.592 2.478-4.708 4.97-5.646l41.251-15.507c4.135-1.556 8.749.537 10.304 4.673s-.538 8.749-4.673 10.304l-19.499 7.33c53.473 14.075 110.371 9.923 161.564-12.026 4.059-1.74 8.763.139 10.505 4.2 1.741 4.061-.14 8.764-4.2 10.505-33.349 14.298-68.983 21.503-104.659 21.503zm-45.73-237.172c0-4.418 3.582-8 8-8h43.198c4.418 0 8 3.582 8 8s-3.582 8-8 8h-43.198c-4.418 0-8-3.582-8-8zm-40.158 0c0-4.418 3.582-8 8-8h12.802c4.418 0 8 3.582 8 8s-3.582 8-8 8h-12.802c-4.418 0-8-3.582-8-8zm75.382 147.054h71.215l29.937 31.163c1.539 1.602 3.635 2.458 5.771 2.458 1.004 0 2.017-.188 2.985-.579 3.028-1.219 5.013-4.156 5.013-7.421v-25.621h5.967c13.512 0 24.505-10.993 24.505-24.505v-82.722c0-13.512-10.993-24.505-24.505-24.505h-61.643v-26.957c0-13.512-10.993-24.505-24.505-24.505h-120.888c-13.512 0-24.505 10.993-24.505 24.505v82.722c0 13.512 10.993 24.505 24.505 24.505h5.967v25.621c0 3.265 1.984 6.202 5.013 7.421.969.391 1.981.579 2.985.579 2.137 0 4.232-.856 5.771-2.458l29.937-31.163h11.97v26.957c0 13.512 10.993 24.505 24.505 24.505zm120.888-115.732c4.689 0 8.505 3.815 8.505 8.505v82.722c0 4.689-3.815 8.505-8.505 8.505h-13.967c-4.418 0-8 3.582-8 8v13.746l-18.528-19.288c-1.509-1.57-3.592-2.458-5.77-2.458h-74.623c-4.689 0-8.505-3.815-8.505-8.505v-82.722c0-4.69 3.815-8.505 8.505-8.505zm-160.771 48.27c-2.178 0-4.261.888-5.77 2.458l-18.528 19.288v-13.746c0-4.418-3.582-8-8-8h-13.967c-4.689 0-8.505-3.815-8.505-8.505v-82.722c0-4.689 3.815-8.505 8.505-8.505h120.888c4.689 0 8.505 3.815 8.505 8.505v26.957h-43.245c-6.35 0-12.142 2.428-16.5 6.404h-50.882c-4.418 0-8 3.582-8 8s3.582 8 8 8h42.973c-.059.693-.096 1.393-.096 2.101v11.626h-42.877c-4.418 0-8 3.582-8 8s3.582 8 8 8h42.877v12.139zm92.775-28.131c0-4.418 3.582-8 8-8h41.229c4.418 0 8 3.582 8 8s-3.582 8-8 8h-41.229c-4.418 0-8-3.582-8-8zm-42.126 29.727c0-4.418 3.582-8 8-8h83.356c4.418 0 8 3.582 8 8s-3.582 8-8 8h-83.356c-4.418 0-8-3.582-8-8zm0 29.727c0-4.418 3.582-8 8-8h83.356c4.418 0 8 3.582 8 8s-3.582 8-8 8h-83.356c-4.418 0-8-3.582-8-8zm0-59.454c0-4.418 3.582-8 8-8h14.771c4.418 0 8 3.582 8 8s-3.582 8-8 8h-14.771c-4.418 0-8-3.582-8-8zm-131.481 162.75c9.768-8.27 15.986-20.61 15.986-34.381 0-24.84-20.208-45.048-45.048-45.048s-45.048 20.208-45.048 45.048c0 13.771 6.218 26.111 15.985 34.381-27.801 10.595-48.405 36.001-51.744 67.205-.242 2.258.486 4.511 2.004 6.199s3.68 2.652 5.95 2.652l145.704-.001c2.27 0 4.433-.965 5.95-2.652 1.518-1.688 2.246-3.942 2.004-6.199-3.339-31.204-23.943-56.609-51.743-67.204zm-29.062-63.429c16.017 0 29.048 13.031 29.048 29.048 0 16.01-13.021 29.037-29.028 29.047-.007 0-.014 0-.021 0s-.013 0-.02 0c-16.007-.011-29.027-13.038-29.027-29.047 0-16.017 13.031-29.048 29.048-29.048zm-63.337 123.485c7.115-28.698 32.924-49.381 63.315-49.39h.021.021c30.391.01 56.2 20.693 63.315 49.389zm478.438 7.147c-3.34-31.204-23.943-56.609-51.744-67.204 9.768-8.27 15.986-20.61 15.986-34.381 0-24.84-20.208-45.048-45.048-45.048s-45.048 20.208-45.048 45.048c0 13.771 6.218 26.111 15.986 34.381-27.802 10.595-48.406 36.001-51.744 67.205-.242 2.258.486 4.511 2.004 6.199s3.681 2.652 5.95 2.652h145.704c2.27 0 4.433-.965 5.95-2.652 1.518-1.689 2.246-3.943 2.004-6.2zm-80.806-130.632c16.017 0 29.048 13.031 29.048 29.048 0 16.01-13.021 29.036-29.028 29.047-.007 0-.013 0-.02 0s-.013 0-.02 0c-16.007-.011-29.028-13.037-29.028-29.047.001-16.017 13.032-29.048 29.048-29.048zm-63.336 123.485c7.115-28.698 32.924-49.381 63.316-49.39h.021s.014 0 .021 0c30.391.01 56.199 20.693 63.315 49.389z"/></svg>