<svg id="Layer_1" viewBox="0 0 512 512" xmlns="http://www.w3.org/2000/svg" data-name="Layer 1" width="100" height="100" fill="#6895cf"><path d="m74.11 54.374c3.866 0 7-3.134 7-7v-29.375h215.014c5.214 0 9.695 2.017 13.702 6.166.028.029.057.059.086.087l.664.664c4.085 4.235 6.335 9.786 6.335 15.635v58.076c0 3.866 3.134 7 7 7h58.076c5.85 0 11.403 2.252 15.639 6.34l.66.66c.028.029.058.058.088.086 4.147 4.004 6.164 8.486 6.164 13.702v80.963c0 3.866 3.134 7 7 7s7-3.134 7-7v-80.963c0-8.938-3.594-17.141-10.393-23.727l-88.296-88.296c-6.587-6.799-14.79-10.393-23.726-10.393h-222.013c-1.856 0-3.637.737-4.949 2.05-1.313 1.313-2.051 3.093-2.051 4.95v36.375c0 3.866 3.134 7 7 7zm256.801 37.252v-46.376l46.376 46.376zm171.437 160.553c-3.441-12.844-11.679-23.579-23.194-30.228-11.518-6.648-24.93-8.417-37.776-4.973-12.844 3.441-23.579 11.679-30.227 23.194-3.844 6.656-6.052 13.893-6.564 21.51-2.04 30.283-9.717 55.507-24.889 81.787l-6.745 11.682c-4.481-1.478-9.223-1.478-13.588-.184v-169.38c0-8.938-3.595-17.141-10.393-23.725l-88.295-88.295c-6.588-6.8-14.791-10.394-23.728-10.394h-222.014c-1.856 0-3.637.737-4.949 2.05-1.313 1.313-2.051 3.093-2.051 4.95v430.825c0 1.856.737 3.637 2.051 4.95 1.312 1.312 3.093 2.05 4.949 2.05h337.429c3.866 0 7-3.135 7-7v-21.696l46.142 26.64c2.419 1.396 5.062 2.06 7.674 2.06 5.325 0 10.513-2.762 13.362-7.696l5.161-8.939 1.666.962c2.419 1.396 5.062 2.06 7.674 2.06 5.326 0 10.514-2.762 13.362-7.697l6.692-11.592c7.936-13.746 3.21-31.384-10.535-39.32l-33.489-19.335 4.374-7.577c5.476-9.486 3.32-21.319-4.549-28.342l6.746-11.682c15.172-26.28 33.179-45.54 58.385-62.448 6.341-4.254 11.504-9.785 15.347-16.439 6.648-11.516 8.415-24.931 4.973-37.775zm-230.611-147.753 46.375 46.375h-46.375zm73.628 389.572h-323.43s0-416.824 0-416.824h215.014c5.214 0 9.696 2.017 13.702 6.166.028.029.057.059.086.087l.663.663c4.086 4.236 6.336 9.788 6.336 15.635v58.076c0 3.866 3.134 7 7 7h58.076c5.85 0 11.403 2.252 15.638 6.339l.66.66c.028.029.059.058.088.087 4.147 4.003 6.164 8.485 6.165 13.701v181.127l-3.605 6.245-33.489-19.335c-13.746-7.935-31.384-3.209-39.321 10.536l-6.692 11.592c-4.245 7.354-1.717 16.791 5.637 21.036l1.666.962-5.161 8.94c-4.244 7.354-1.716 16.79 5.637 21.035l75.33 43.492v22.779zm69.054-.693c-.38.657-1.256.891-1.912.512l-135.472-78.214c-.657-.379-.892-1.255-.512-1.912l5.161-8.939 137.895 79.613-5.161 8.94zm34.555-25.207-6.692 11.593c-.379.657-1.254.892-1.912.512l-165.476-95.537c-.657-.379-.892-1.255-.512-1.912l6.691-11.592c2.736-4.738 7.716-7.39 12.83-7.39 2.506 0 5.046.637 7.367 1.978l142.293 82.153c7.06 4.076 9.487 13.136 5.41 20.196zm-95.089-88.138 4.374-7.577c2.412-4.177 7.773-5.611 11.949-3.202l35.913 20.735c4.177 2.412 5.614 7.773 3.202 11.95l-4.374 7.576-51.065-29.482zm131.367-97.006c-2.765 4.787-6.473 8.761-11.021 11.813-27.073 18.161-46.414 38.847-62.71 67.074l-6.507 11.27-19.699-11.373 6.507-11.269c16.296-28.227 24.541-55.32 26.733-87.847.367-5.465 1.955-10.664 4.72-15.451 4.778-8.277 12.494-14.198 21.727-16.672 9.232-2.475 18.874-1.205 27.152 3.575 8.277 4.779 14.198 12.495 16.672 21.727s1.204 18.875-3.574 27.152zm-306.326-61.887h123.45c3.866 0 7 3.134 7 7s-3.134 7-7 7h-123.45c-3.866 0-7-3.134-7-7s3.134-7 7-7zm0-38.3h76.676c3.866 0 7 3.134 7 7s-3.134 7-7 7h-76.676c-3.866 0-7-3.134-7-7s3.134-7 7-7zm-45-19.099h-61.502c-7.994 0-14.498 6.504-14.498 14.499v61.501c0 7.995 6.504 14.499 14.498 14.499h61.502c7.994 0 14.498-6.504 14.498-14.499v-61.501c0-7.995-6.504-14.499-14.498-14.499zm.498 76c0 .256-.242.499-.498.499h-61.502c-.256 0-.498-.242-.498-.499v-61.501c0-.256.242-.499.498-.499h61.502c.256 0 .498.242.498.499zm-8.844-48.746c2.734 2.733 2.734 7.166 0 9.899l-26.09 26.09c-1.32 1.321-3.105 2.05-4.949 2.05-.304 0-.608-.02-.913-.06-2.158-.284-4.061-1.555-5.148-3.44l-8.822-15.28c-1.934-3.348-.786-7.629 2.562-9.562 3.349-1.933 7.629-.786 9.562 2.562l4.262 7.38 19.64-19.64c2.732-2.733 7.166-2.733 9.898 0zm8.346 79.623h-61.502c-7.994 0-14.498 6.504-14.498 14.498v61.501c0 7.995 6.504 14.499 14.498 14.499h61.502c7.994 0 14.498-6.504 14.498-14.499v-61.501c0-7.994-6.504-14.498-14.498-14.498zm.498 76c0 .257-.242.499-.498.499h-61.502c-.256 0-.498-.242-.498-.499v-61.501c0-.256.242-.498.498-.498h61.502c.256 0 .498.242.498.498zm-.498 30.877h-61.502c-7.994 0-14.498 6.504-14.498 14.499v61.501c0 7.995 6.504 14.499 14.498 14.499h61.502c7.994 0 14.498-6.504 14.498-14.499v-61.501c0-7.995-6.504-14.499-14.498-14.499zm.498 76c0 .256-.242.499-.498.499h-61.502c-.256 0-.498-.242-.498-.499v-61.501c0-.256.242-.499.498-.499h61.502c.256 0 .498.242.498.499zm-8.844-155.623c2.734 2.733 2.734 7.166 0 9.899l-26.09 26.09c-1.32 1.321-3.104 2.05-4.949 2.05-.304 0-.608-.02-.914-.06-2.157-.284-4.06-1.555-5.148-3.44l-8.822-15.28c-1.933-3.348-.785-7.629 2.562-9.562 3.349-1.932 7.629-.786 9.562 2.562l4.262 7.38 19.64-19.64c2.732-2.733 7.166-2.733 9.898 0zm0 106.877c2.734 2.733 2.734 7.166 0 9.899l-26.09 26.09c-1.32 1.321-3.105 2.05-4.949 2.05-.304 0-.608-.02-.913-.06-2.158-.284-4.061-1.555-5.148-3.44l-8.822-15.28c-1.934-3.348-.786-7.629 2.562-9.562 3.349-1.933 7.629-.785 9.562 2.562l4.262 7.38 19.64-19.64c2.732-2.733 7.166-2.733 9.898 0zm183.796-69.732c0 3.866-3.134 7-7 7h-123.45c-3.866 0-7-3.134-7-7s3.134-7 7-7h123.45c3.866 0 7 3.134 7 7zm0-38.3c0 3.866-3.134 7-7 7h-123.45c-3.866 0-7-3.134-7-7s3.134-7 7-7h123.45c3.866 0 7 3.134 7 7zm-61.024 106.877c0 3.866-3.134 7-7 7h-62.426c-3.866 0-7-3.134-7-7s3.134-7 7-7h62.426c3.866 0 7 3.134 7 7zm-17.727 38.3c0 3.866-3.134 7-7 7h-44.699c-3.866 0-7-3.134-7-7s3.134-7 7-7h44.699c3.866 0 7 3.134 7 7zm-172.701-305.613c0-3.866 3.134-7 7-7h150.165c3.866 0 7 3.134 7 7s-3.134 7-7 7h-150.165c-3.866 0-7-3.134-7-7z"/></svg>