<svg id="Layer_1" enable-background="new 0 0 512 512" viewBox="0 0 512 512" xmlns="http://www.w3.org/2000/svg" width="100" height="100" fill="#6895cf"><path d="m192.198 164.57c0-3.838 3.111-6.95 6.95-6.95h152.892c3.838 0 6.95 3.111 6.95 6.95s-3.112 6.95-6.95 6.95h-152.893c-3.838-.001-6.949-3.112-6.949-6.95zm6.949 30.039h88.16c3.838 0 6.949-3.111 6.949-6.949s-3.111-6.95-6.949-6.95h-88.16c-3.838 0-6.95 3.111-6.95 6.95s3.112 6.949 6.95 6.949zm-29.848-45.745c7.282 8.637 10.765 19.58 9.809 30.817-.955 11.239-6.236 21.436-14.868 28.714-7.908 6.679-17.581 9.943-27.206 9.943-12.021.001-23.966-5.09-32.315-14.973-7.29-8.646-10.771-19.603-9.807-30.858.962-11.231 6.24-21.412 14.86-28.669 17.79-15.026 44.493-12.772 59.527 5.026zm-10.622 8.964c-5.599-6.629-13.615-10.044-21.679-10.044-6.458 0-12.948 2.19-18.255 6.673-.003.003-.007.006-.011.009-5.783 4.865-9.324 11.694-9.97 19.228-.647 7.553 1.69 14.906 6.58 20.707 10.083 11.938 28 13.451 39.935 3.371 5.799-4.888 9.342-11.73 9.982-19.269.641-7.537-1.696-14.88-6.582-20.675zm-5.182 3.769c-2.95-2.454-7.332-2.055-9.788.895l-9.931 11.928-2.639-3.18c-2.451-2.953-6.831-3.36-9.786-.91-2.954 2.451-3.361 6.832-.91 9.786l7.979 9.614c1.319 1.589 3.277 2.51 5.343 2.511h.005c2.063 0 4.021-.917 5.341-2.503l15.281-18.354c2.455-2.949 2.054-7.331-.895-9.787zm-14.383 130.873 15.281-18.381c2.454-2.952 2.05-7.333-.901-9.787s-7.333-2.049-9.787.901l-9.925 11.938-2.637-3.186c-2.447-2.957-6.828-3.371-9.785-.924s-3.371 6.828-.924 9.785l7.979 9.642c1.319 1.593 3.278 2.517 5.346 2.519h.008c2.066-.001 4.024-.919 5.345-2.507zm370.816 86.546c-1.277 4.236-4.014 7.495-7.924 9.45l-8.34 4.253 1.513 13.928c.312 2.872-1.185 5.638-3.761 6.947l-4.501 2.287 3.427 2.91c1.592 1.352 2.492 3.349 2.45 5.437l-.31 15.393c-.257 14.373-11.25 26.393-25.569 27.943l-32.082 3.425-1.389 33.847c-.153 3.725-3.216 6.665-6.944 6.665h-138.204c-2.539 0-4.876-1.385-6.096-3.612-1.219-2.227-1.127-4.942.241-7.082 4.554-7.121 8.257-14.361 11.131-21.729h-226.648c-3.838 0-6.95-3.111-6.95-6.949v-149.13l-56.89-85.681c-.005-.008-.01-.016-.015-.023-3.678-5.587-1.143-13.34 5.897-18.034l29.303-19.46c6.94-4.625 15.259-3.939 18.931 1.568l2.774 4.179v-138.414c0-3.838 3.111-6.95 6.95-6.95h62.547v-22.54c0-3.838 3.111-6.95 6.95-6.95h51.774c3.659-17.384 18.957-30.194 37.371-30.194 18.4 0 33.687 12.811 37.346 30.195h51.801c3.838 0 6.949 3.111 6.949 6.95v22.54h63.928c3.838 0 6.949 3.111 6.949 6.95v141.512c56.217 6.604 99.832 51.291 99.832 105.262 0 6.871-.712 13.728-2.12 20.426l18.337 32.517c2.125 3.755 2.591 7.964 1.342 12.164zm-366.561-282.349h164.394v-52.073h-50.987c-3.747 0-6.82-2.971-6.946-6.716-.443-13.166-11.101-23.479-24.265-23.479-13.179 0-23.85 10.313-24.292 23.479-.126 3.745-3.198 6.716-6.946 6.716h-50.959v52.073zm-17.131 208.408c9.842 4.004 20.971 2.254 29.039-4.566 5.8-4.889 9.343-11.734 9.984-19.28.641-7.542-1.695-14.88-6.578-20.66-4.888-5.798-11.734-9.341-19.279-9.982-7.539-.638-14.88 1.695-20.66 6.578-6.156 5.2-9.822 12.782-10.056 20.804-.008.282-.038.557-.079.829l17.393 26.196c.079.027.158.049.236.081zm-64.964-72.442c-.088-.123-.17-.249-.25-.377l-.81-1.22-30.974 20.547 43.271 65.169c.138.187.267.381.387.582l35.21 53.029c.087.123.171.249.25.377l.041.062 29.673 11.081 1.292-31.64zm91.679 125.496-1.385 33.905c-.091 2.226-1.243 4.273-3.099 5.505-1.154.767-2.495 1.161-3.845 1.161-.82 0-1.643-.145-2.431-.439l-33.207-12.402c.775 5.089 2.931 9.92 6.359 13.986 10.084 11.938 28 13.452 39.935 3.371 5.798-4.888 9.341-11.733 9.982-19.279.641-7.542-1.695-14.879-6.578-20.66-1.686-1.993-3.619-3.707-5.731-5.148zm-137.074-126.669 5.673 8.544 30.974-20.547-5.685-8.562c-.261.112-.556.267-.873.478l-29.303 19.46c-.319.213-.579.429-.786.627zm282.073 233.719c5.22-21.501 3.617-44.137-4.843-68.25-1.244 1.881-3.375 3.124-5.799 3.124h-88.16c-3.838 0-6.95-3.111-6.95-6.95s3.111-6.949 6.95-6.949h88.16c.581 0 1.143.079 1.682.214-1.323-3.11-2.756-6.245-4.298-9.405h-85.545c-3.838 0-6.95-3.111-6.95-6.95s3.111-6.949 6.95-6.949h77.693c-8.505-15.094-12.975-31.916-12.975-49.155 0-5.643.482-11.184 1.4-16.591h-66.117c-3.838 0-6.95-3.111-6.95-6.949s3.111-6.95 6.95-6.95h69.533c1.012-3.127 2.174-6.193 3.481-9.191h-73.014c-3.838 0-6.95-3.112-6.95-6.95s3.111-6.949 6.95-6.949h80.391c19.864-31.398 56.612-52.524 98.579-52.524.174 0 .347.005.522.006v-133.727h-56.978v29.533c0 3.838-3.111 6.95-6.949 6.95h-178.295c-3.838 0-6.95-3.111-6.95-6.95v-29.533h-55.597v152.397l24.089 36.279c2.556-6.205 6.577-11.791 11.814-16.214 8.62-7.281 19.562-10.763 30.806-9.809 11.245.956 21.446 6.236 28.724 14.868 7.277 8.615 10.76 19.555 9.805 30.801-.955 11.245-6.236 21.446-14.868 28.724-7.754 6.554-17.402 9.968-27.204 9.969-.116 0-.231-.007-.347-.008l13.487 20.313c7.446 2.445 14.016 6.863 19.121 12.902 7.283 8.621 10.766 19.562 9.811 30.808-.955 11.245-6.236 21.446-14.868 28.724-7.681 6.489-17.215 9.962-27.166 9.962-1.206 0-2.417-.051-3.633-.153-11.243-.951-21.443-6.22-28.723-14.838-7.76-9.204-11.165-21.025-9.578-32.841l-21.271-32.036v121.247zm198.535-91.49-19.656-34.855c-.862-1.53-1.114-3.328-.705-5.035 1.557-6.49 2.346-13.181 2.346-19.89 0-50.842-45.018-92.206-100.354-92.206s-100.354 41.363-100.354 92.206c0 17.392 5.284 34.315 15.281 48.94.144.212.277.43.397.656.546 1.026 1.067 2.047 1.592 3.07.08.14.153.284.223.431 19.302 37.786 24.236 73.439 14.798 106.459-.068.35-.167.687-.285 1.016-2.32 7.859-5.455 15.569-9.409 23.122h119.466l1.362-33.172c.141-3.441 2.781-6.26 6.206-6.626l38.032-4.06c7.485-.81 13.023-6.861 13.158-14.387l.244-12.108-8.874-7.534c-1.773-1.505-2.675-3.798-2.404-6.108s1.68-4.331 3.754-5.385l9.535-4.845-1.512-13.921c-.311-2.867 1.182-5.63 3.752-6.941l12.659-6.456c.457-.228.696-.44.874-1.031.186-.622.113-.918-.126-1.34zm-27.741-70.353c0 19.596-15.929 35.537-35.509 35.537-.668 0-1.336-.018-2.002-.056-1.681 15.374-14.733 27.376-30.533 27.376h-8.511c-15.82.275-15.937 1.203-16.116 7.166v25.778c0 3.839-3.112 6.949-6.95 6.949s-6.949-3.111-6.949-6.949v-21.981c-11.478-3.835-20.458-9.979-26.787-18.326-2.361.45-4.671.681-6.834.681-12.415 0-31.562-13.553-31.562-31.563 0-9.86 4.681-19.104 12.321-25.011-1.116-3.494-1.692-7.161-1.692-10.85 0-19.596 15.929-35.537 35.509-35.537 2.312 0 4.6.223 6.848.667 7.152-13.341 21.581-21.924 37.781-21.924 20.351 0 37.941 13.949 41.687 32.736 1.256-.134 2.52-.201 3.788-.201 19.581-.001 35.511 15.928 35.511 35.508zm-13.899 0c0-11.916-9.694-21.61-21.61-21.61-2.595 0-5.162.462-7.629 1.373-2.221.819-4.707.452-6.596-.973-1.889-1.428-2.922-3.718-2.74-6.079.014-.184.008-.354.008-.538 0-1.232-.089-2.454-.263-3.632-1.937-12.929-14.085-22.686-28.255-22.686-12.597 0-23.554 7.483-27.267 18.62-.608 1.822-1.943 3.312-3.687 4.115-1.745.803-3.745.847-5.524.125-2.614-1.064-5.357-1.603-8.151-1.603-11.916 0-21.61 9.707-21.61 21.638 0 3.653.875 7.121 2.601 10.307.909 1.677 1.087 3.654.495 5.467s-1.903 3.303-3.626 4.121c-6.135 2.912-10.099 9.179-10.099 15.966 0 9.487 11.847 17.664 17.663 17.664 8.246 0 20.962-5.974 20.962-13.914 0-.827-.106-1.636-.305-2.423-7.536-3.953-12.692-11.857-12.692-20.949 0-3.839 3.112-6.949 6.95-6.949s6.949 3.111 6.949 6.949c0 3.998 2.417 7.439 5.862 8.937.425.106.838.25 1.235.434.834.234 1.709.369 2.616.369 3.573 0 6.851-1.946 8.555-5.081 1.833-3.371 6.053-4.619 9.425-2.788 3.372 1.834 4.62 6.053 2.787 9.425-3.609 6.64-10.124 11.084-17.483 12.112-.016 9.824-6.239 17.23-14.203 21.915 3.903 4.013 8.872 7.158 14.996 9.492 4.724-10.439 16.844-10.659 27.803-10.848.04-.001.08-.001.119-.001h8.571c9.273 0 16.817-7.558 16.817-16.846 0-1.134-.116-2.273-.353-3.474-1.017-3.688-3.761-9.84-10.869-11.145-3.775-.693-6.273-4.314-5.58-8.09.693-3.775 4.309-6.281 8.09-5.58 9.351 1.716 16.798 8.128 20.529 17.461 1.291.236 2.594.355 3.9.355 11.915.002 21.609-9.705 21.609-21.636z"/></svg>