<svg id="Layer_1" enable-background="new 0 0 512 512" viewBox="0 0 512 512" xmlns="http://www.w3.org/2000/svg" width="100" height="100" fill="#6895cf"><path d="m432.909 150.181c39.2 0 71.091-31.891 71.091-71.09 0-39.2-31.891-71.091-71.091-71.091s-71.091 31.891-71.091 71.091c0 39.199 31.891 71.09 71.091 71.09zm0-126.181c30.378 0 55.091 24.713 55.091 55.091 0 30.377-24.713 55.09-55.091 55.09s-55.091-24.713-55.091-55.09c0-30.378 24.714-55.091 55.091-55.091zm-8 55.091v-37.484c0-4.418 3.582-8 8-8s8 3.582 8 8v32.865l23.126 13.352c3.826 2.209 5.137 7.102 2.928 10.928-1.482 2.566-4.171 4.001-6.936 4.001-1.357 0-2.732-.346-3.993-1.073l-27.126-15.661c-2.474-1.429-3.999-4.07-3.999-6.928zm-223.36 259.98 11.586-5.146c5.74 3.164 11.792 5.673 18.077 7.494l4.551 11.823c1.188 3.088 4.156 5.126 7.466 5.126h25.543c3.31 0 6.277-2.038 7.466-5.126l4.549-11.819c6.289-1.821 12.344-4.332 18.084-7.496l11.581 5.144c3.025 1.344 6.564.686 8.904-1.654l18.062-18.062c2.34-2.341 2.998-5.88 1.655-8.904l-5.146-11.587c3.165-5.739 5.674-11.792 7.495-18.077l11.822-4.551c3.089-1.188 5.126-4.156 5.126-7.466v-25.542c0-3.31-2.038-6.277-5.126-7.466l-11.818-4.549c-1.821-6.288-4.331-12.343-7.497-18.084l5.144-11.581c1.344-3.025.686-6.564-1.654-8.904l-18.062-18.062c-2.34-2.34-5.88-2.998-8.904-1.655l-11.586 5.146c-5.74-3.165-11.792-5.674-18.077-7.495l-4.551-11.823c-1.188-3.089-4.156-5.126-7.466-5.126h-25.542c-3.31 0-6.277 2.038-7.466 5.126l-4.551 11.823c-6.284 1.821-12.337 4.33-18.077 7.495l-11.586-5.146c-3.024-1.344-6.564-.687-8.904 1.654l-18.062 18.062c-2.34 2.34-2.998 5.879-1.654 8.904l5.145 11.584c-3.165 5.739-5.675 11.794-7.496 18.08l-11.821 4.55c-3.088 1.189-5.126 4.156-5.126 7.466v25.542c0 3.31 2.038 6.277 5.126 7.466l11.818 4.549c1.821 6.289 4.332 12.345 7.497 18.084l-5.144 11.581c-1.344 3.024-.686 6.563 1.654 8.904l18.062 18.062c2.34 2.342 5.878 2.997 8.903 1.656zm-7.693-44.887c-4.057-6.587-7.021-13.735-8.808-21.246-.611-2.566-2.447-4.667-4.909-5.614l-10.508-4.045v-14.557l10.511-4.046c2.461-.947 4.298-3.048 4.909-5.614 1.787-7.507 4.75-14.654 8.807-21.242 1.384-2.247 1.571-5.031.5-7.442l-4.576-10.303 10.293-10.293 10.304 4.576c2.41 1.071 5.196.884 7.441-.499 6.59-4.057 13.736-7.02 21.241-8.806 2.566-.611 4.666-2.447 5.614-4.909l4.047-10.513h14.557l4.046 10.512c.947 2.462 3.047 4.298 5.614 4.909 7.505 1.786 14.652 4.749 21.24 8.806 2.247 1.383 5.031 1.571 7.442.5l10.305-4.577 10.294 10.293-4.574 10.299c-1.071 2.412-.884 5.196.499 7.442 4.058 6.589 7.021 13.737 8.808 21.247.61 2.566 2.447 4.667 4.909 5.614l10.508 4.045v14.556l-10.512 4.047c-2.462.947-4.298 3.048-4.909 5.614-1.786 7.505-4.749 14.651-8.806 21.24-1.383 2.246-1.57 5.03-.5 7.441l4.577 10.306-10.293 10.293-10.3-4.574c-2.412-1.072-5.196-.884-7.442.5-6.587 4.057-13.735 7.02-21.246 8.808-2.566.61-4.667 2.447-5.614 4.908l-4.045 10.509h-14.557l-4.046-10.513c-.947-2.461-3.047-4.298-5.613-4.908-7.506-1.787-14.653-4.75-21.241-8.807-2.246-1.384-5.031-1.57-7.441-.499l-10.304 4.576-10.294-10.293 4.575-10.3c1.068-2.41.881-5.195-.503-7.441zm62.144 20.901c32.58 0 59.085-26.506 59.085-59.085s-26.505-59.084-59.085-59.084c-32.579 0-59.084 26.505-59.084 59.084s26.505 59.085 59.084 59.085zm0-102.169c23.757 0 43.085 19.328 43.085 43.084s-19.328 43.085-43.085 43.085-43.084-19.328-43.084-43.085 19.327-43.084 43.084-43.084zm-240-68.644h125.634c2.27 0 4.433-.964 5.95-2.653 1.517-1.688 2.246-3.941 2.004-6.198-2.857-26.699-20.149-48.542-43.646-58.188 7.877-7.301 12.82-17.726 12.82-29.287 0-22.027-17.919-39.946-39.945-39.946s-39.944 17.919-39.944 39.945c0 11.562 4.943 21.986 12.82 29.287-23.497 9.647-40.79 31.49-43.647 58.189-.242 2.257.487 4.51 2.004 6.198 1.517 1.689 3.68 2.653 5.95 2.653zm38.873-96.327c0-13.203 10.741-23.945 23.944-23.945s23.945 10.742 23.945 23.945-10.741 23.944-23.945 23.944-23.944-10.741-23.944-23.944zm23.944 39.944c25.213 0 46.699 16.833 53.185 40.382h-106.37c6.486-23.548 27.972-40.382 53.185-40.382zm424.508 275.85c-.057-.157-.108-.317-.173-.471-.119-.293-.252-.578-.403-.852-.511-.974-1.168-1.877-1.968-2.677l-16.783-16.782c-.799-.798-1.7-1.455-2.672-1.966-.277-.153-.564-.287-.859-.407-.141-.059-.286-.104-.429-.157-.07-.024-.138-.053-.208-.075-1.144-.396-2.355-.614-3.601-.614h-91.631c-6.06 0-10.989 4.93-10.989 10.989v142.284c0 6.06 4.93 10.989 10.989 10.989h108.414c6.059 0 10.989-4.93 10.989-10.989v-125.501c0-1.248-.218-2.459-.615-3.604-.019-.057-.042-.111-.061-.167zm-113.717 124.261v-132.263h79.858v9.039c0 5.235 4.259 9.495 9.495 9.495h9.039v113.729zm-301.611-143.993c-44.111 0-79.997 35.887-79.997 79.997s35.886 79.996 79.997 79.996 79.997-35.886 79.997-79.996-35.887-79.997-79.997-79.997zm0 143.993c-35.289 0-63.997-28.709-63.997-63.996 0-35.288 28.708-63.997 63.997-63.997s63.997 28.709 63.997 63.997c-.001 35.287-28.709 63.996-63.997 63.996zm30.912-48.108c.792 6.521-.972 12.491-5.1 17.265-4.09 4.729-10.48 8.079-17.812 9.489v2.917c0 4.418-3.582 8-8 8s-8-3.582-8-8v-3.051c-11.424-2.531-20.157-10.368-22.859-21.206-1.069-4.287 1.54-8.629 5.827-9.698 4.291-1.062 8.629 1.54 9.698 5.827 1.89 7.58 9.834 10.113 16.084 9.946 5.438-.129 10.646-2.015 12.961-4.691 1.158-1.339 1.564-2.841 1.318-4.869-.434-3.568-2.673-7.952-16.259-10.182-21.897-3.596-27.017-15.136-27.456-24.183-.596-12.264 7.686-22.553 20.686-25.82v-3.191c0-4.418 3.582-8 8-8s8 3.582 8 8v3.118c8.419 2.021 16.373 7.47 20.573 17.473 1.71 4.073-.205 8.763-4.279 10.473-4.075 1.711-8.763-.205-10.473-4.279-3.217-7.66-11.11-9.621-17.509-8.175-1.566.355-9.363 2.489-9.016 9.626.091 1.893.335 6.916 14.066 9.17 18.03 2.959 27.972 11.047 29.55 24.041zm239.854-6.983c0 4.418-3.582 8-8 8h-133.67l6.716 3.878c3.826 2.209 5.137 7.102 2.928 10.928-1.482 2.566-4.171 4.001-6.936 4.001-1.357 0-2.733-.346-3.993-1.073l-32.573-18.806c-2.475-1.429-4-4.069-4-6.928s1.525-5.499 4-6.928l32.573-18.806c3.826-2.209 8.719-.898 10.928 2.928s.898 8.719-2.928 10.928l-6.716 3.878h133.67c4.42 0 8.001 3.582 8.001 8zm-207.504-353.818c0-4.418 3.582-8 8-8h145.949l-6.717-3.878c-3.826-2.209-5.137-7.102-2.928-10.928 2.209-3.827 7.102-5.138 10.928-2.928l32.573 18.806c2.475 1.429 4 4.07 4 6.928s-1.525 5.499-4 6.928l-32.573 18.806c-1.26.727-2.635 1.073-3.993 1.073-2.765 0-5.454-1.435-6.936-4.001-2.209-3.826-.898-8.719 2.928-10.928l6.716-3.877h-145.947c-4.419-.001-8-3.583-8-8.001zm-80.168 244.296v-123.04l-3.878 6.717c-2.21 3.827-7.104 5.137-10.928 2.928-3.826-2.209-5.137-7.102-2.928-10.928l18.806-32.573c1.429-2.475 4.07-4 6.928-4s5.499 1.525 6.928 4l18.806 32.573c2.209 3.826.898 8.719-2.928 10.928-3.825 2.208-8.719.898-10.928-2.928l-3.878-6.717v123.04c0 4.418-3.582 8-8 8s-8-3.582-8-8zm369.819-150.108v115.422l3.878-6.717c2.209-3.827 7.103-5.139 10.928-2.928 3.826 2.209 5.137 7.102 2.928 10.928l-18.806 32.572c-1.429 2.476-4.07 4-6.928 4s-5.499-1.524-6.928-4l-18.806-32.572c-2.209-3.826-.898-8.719 2.928-10.928s8.719-.898 10.928 2.928l3.877 6.716v-115.421c0-4.418 3.582-8 8-8s8.001 3.582 8.001 8z"/></svg>