<svg xmlns="http://www.w3.org/2000/svg" version="1.1" xmlns:xlink="http://www.w3.org/1999/xlink" width="24" height="24" x="0" y="0" viewBox="0 0 512 512" style="enable-background:new 0 0 512 512" xml:space="preserve" class=""><path d="M256 276.5a85.926 85.926 0 1 0-85.925-85.926A86.023 86.023 0 0 0 256 276.5zm0-147.851a61.926 61.926 0 1 1-61.925 61.925A62 62 0 0 1 256 128.651zm-22.057 315a27.851 27.851 0 0 0 44.115 0l106.211-137.8c29.866-38.749 46.96-84.461 48.134-128.714 1.276-48.1-15.721-91.194-49.153-124.626a180.45 180.45 0 0 0-254.5 0c-33.432 33.43-50.429 76.524-49.15 124.623 1.174 44.253 18.269 89.965 48.135 128.714zM145.72 69.477a156.451 156.451 0 0 1 220.56 0c56.481 56.482 56.063 147.656-1.02 221.718L259.05 429a3.85 3.85 0 0 1-6.1 0L146.74 291.2c-57.083-74.067-57.502-165.241-1.02-221.723zm-67.044 356.6c0-23.344 17.767-44.886 50.03-60.658a12 12 0 0 1 10.541 21.561c-23.242 11.362-36.571 25.613-36.571 39.1 0 29.285 62.968 61.92 153.324 61.92s153.324-32.635 153.324-61.925c0-13.484-13.329-27.735-36.571-39.1a12 12 0 0 1 10.541-21.561c32.263 15.772 50.03 37.314 50.03 60.658 0 24.763-19.719 47.217-55.524 63.227C345.066 503.939 301.81 512 256 512s-89.067-8.061-121.8-22.7c-35.806-16.008-55.524-38.462-55.524-63.225z" fill="#0b5bc9" opacity="1" data-original="#000000" class=""></path></svg>