<svg xmlns="http://www.w3.org/2000/svg" version="1.1" xmlns:xlink="http://www.w3.org/1999/xlink" width="36" height="36" x="0" y="0" viewBox="0 0 512 512" style="enable-background:new 0 0 512 512" xml:space="preserve" class=""><g><path d="M507.313 484.687 366.538 343.911c31.291-36.463 50.227-83.824 50.227-135.528C416.765 93.479 323.285 0 208.382 0 93.48 0 0 93.479 0 208.382s93.48 208.383 208.382 208.383c51.705 0 99.065-18.936 135.529-50.227l140.775 140.776A15.948 15.948 0 0 0 496 512c4.094 0 8.19-1.563 11.313-4.686 6.249-6.248 6.249-16.379 0-22.627zM32 208.382C32 111.125 111.125 32 208.382 32s176.383 79.125 176.383 176.383-79.125 176.382-176.383 176.382S32 305.64 32 208.382zm279.642.001c0 8.836-7.164 16-16 16h-71.259v71.259c0 8.836-7.164 16-16 16s-16-7.164-16-16v-71.259h-71.259c-8.836 0-16-7.164-16-16s7.164-16 16-16h71.259v-71.259c0-8.836 7.164-16 16-16s16 7.164 16 16v71.259h71.259c8.837 0 16 7.163 16 16z" fill="#0b5bc9" opacity="1" data-original="#000000" class=""></path></g></svg>