<?xml version="1.0" encoding="UTF-8"?>
<svg id="svg8" xmlns="http://www.w3.org/2000/svg" version="1.1" xmlns:svg="http://www.w3.org/2000/svg" viewBox="0 0 100 100"  width="100" height="100">
  <!-- Generator: Adobe Illustrator 29.4.0, SVG Export Plug-In . SVG Version: 2.1.0 Build 152)  -->
  <defs>
    <style>
      .st0 {
        fill: #0b5bc9;
      }
    </style>
  </defs>
  <g id="g1312">
    <path id="rect1203" class="st0" d="M12.31,3.5C7.47,3.5,3.5,7.44,3.5,12.27v39.12c0,4.83,3.97,8.77,8.81,8.77h5.88v10.8c0,1.16.94,2.1,2.1,2.1.56,0,1.09-.22,1.48-.61l12.31-12.29h31.97c4.84,0,8.81-3.94,8.81-8.77V12.27c0-4.83-3.97-8.77-8.81-8.77H12.31ZM12.31,7.7h53.73c2.6,0,4.62,2.01,4.62,4.57v39.12c0,2.56-2.01,4.57-4.62,4.57h-32.84c-.56,0-1.09.22-1.48.61l-9.34,9.32v-7.84c0-1.16-.94-2.1-2.1-2.1h-7.98c-2.6,0-4.62-2.01-4.62-4.57V12.27c0-2.56,2.01-4.57,4.62-4.57Z" vector-effect="none"/>
    <path id="path1241" class="st0" d="M80.85,32.89c-1.16,0-2.1.94-2.1,2.1s.94,2.1,2.1,2.1h6.93c2.19,0,3.87,1.68,3.87,3.83v34.31c0,2.15-1.68,3.83-3.87,3.83h-6.62c-1.16,0-2.1.94-2.1,2.1v7.33l-8.33-8.78c-.4-.42-.95-.65-1.52-.66h-30.36c-2.19,0-3.87-1.68-3.87-3.83v-7.28c0-1.16-.94-2.1-2.1-2.1-1.16,0-2.1.94-2.1,2.1v7.28c0,4.42,3.64,8.03,8.07,8.03h29.46l11.33,11.94c.8.84,2.13.87,2.97.07.42-.4.65-.94.65-1.52v-10.49h4.53c4.43,0,8.07-3.61,8.07-8.03v-34.31c0-4.42-3.64-8.03-8.07-8.03h-6.93Z" vector-effect="none"/>
    <path id="path1250" class="st0" d="M19.54,17.05v1.84c-3.06.82-5.03,3.6-5.23,6.22-.23,2.32.7,4.59,2.47,6.11,2.43,2.04,5.2,1.78,7,3.33.71.6,1.11,1.63,1.02,2.51-.09.88-.7,1.83-1.53,2.31-.83.48-2.04.56-2.93.19-.89-.37-1.62-1.23-1.82-2.09-.27-1.13-1.4-1.83-2.53-1.56-1.13.27-1.83,1.4-1.56,2.53.92,2.84,2.86,4.6,5.1,5.23v1.88c0,1.16.94,2.1,2.1,2.1s2.1-.94,2.1-2.1v-1.84c3.08-.75,5-3.63,5.24-6.22.23-2.32-.7-4.59-2.47-6.11-1.92-1.68-5.01-1.77-7-3.33-.7-.6-1.11-1.63-1.02-2.51.09-.87.7-1.83,1.52-2.31.83-.48,2.04-.55,2.93-.19.89.37,1.62,1.23,1.82,2.09.27,1.13,1.4,1.82,2.53,1.56,1.13-.27,1.82-1.4,1.56-2.53-.95-2.91-2.59-4.37-5.1-5.23v-1.88c0-1.16-.94-2.1-2.1-2.1-1.16,0-2.1.94-2.1,2.1h0Z" vector-effect="none"/>
    <path id="path1273" class="st0" d="M35.7,16.09c-1.16,0-2.1.94-2.1,2.1s.94,2.1,2.1,2.1h17.2c1.16,0,2.1-.94,2.1-2.1s-.94-2.1-2.1-2.1h-17.2Z" vector-effect="none"/>
    <path id="path1277" class="st0" d="M35.7,28.69c-1.16,0-2.1.94-2.1,2.1s.94,2.1,2.1,2.1h27.95c1.16,0,2.1-.94,2.1-2.1s-.94-2.1-2.1-2.1h-27.95Z" vector-effect="none"/>
    <path id="path1279" class="st0" d="M35.7,41.28c-1.16,0-2.1.94-2.1,2.1s.94,2.1,2.1,2.1h17.2c1.16,0,2.1-.94,2.1-2.1s-.94-2.1-2.1-2.1h-17.2Z" vector-effect="none"/>
  </g>
</svg>