<?xml version="1.0" encoding="UTF-8"?>
<svg id="Layer_1" xmlns="http://www.w3.org/2000/svg" version="1.1" viewBox="0 0 100 100"  width="100" height="100">
  <!-- Generator: Adobe Illustrator 29.4.0, SVG Export Plug-In . SVG Version: 2.1.0 Build 152)  -->
  <defs>
    <style>
      .st0 {
        fill: #0b5bc9;
      }
    </style>
  </defs>
  <path class="st0" d="M90.72,63.8V11.98c0-4.47-3.64-8.11-8.11-8.11H22.97c-4.47,0-8.11,3.64-8.11,8.11v2.88h-2.88c-4.47,0-8.11,3.64-8.11,8.11s3.64,8.11,8.11,8.11h2.88v10.81h-2.88c-4.47,0-8.11,3.64-8.11,8.11s3.64,8.11,8.11,8.11h2.88v10.81h-2.88c-4.47,0-8.11,3.64-8.11,8.11s3.64,8.11,8.11,8.11h2.88v2.7c0,2.15.83,4.21,2.33,5.78,1.55,1.62,3.6,2.51,5.78,2.51h54.24c10.43,0,18.92-8.57,18.92-19.1,0-5.14-2.06-9.81-5.41-13.23ZM11.98,25.67c-1.49,0-2.7-1.21-2.7-2.7s1.21-2.7,2.7-2.7h5.59c1.49,0,2.7,1.21,2.7,2.7s-1.21,2.7-2.7,2.7h-5.59ZM11.98,52.7c-1.49,0-2.7-1.21-2.7-2.7s1.21-2.7,2.7-2.7h5.59c1.49,0,2.7,1.21,2.7,2.7s-1.21,2.7-2.7,2.7h-5.59ZM17.57,79.73h-5.59c-1.49,0-2.7-1.21-2.7-2.7s1.21-2.7,2.7-2.7h5.59c1.49,0,2.7,1.21,2.7,2.7s-1.21,2.7-2.7,2.7ZM22.97,90.72c-1.44,0-2.7-1.35-2.7-2.88v-3.17c3.15-1.12,5.41-4.12,5.41-7.64s-2.26-6.53-5.41-7.64v-11.74c3.15-1.12,5.41-4.12,5.41-7.64s-2.26-6.53-5.41-7.64v-11.74c3.15-1.12,5.41-4.12,5.41-7.64s-2.26-6.53-5.41-7.64v-3.35c0-1.49,1.21-2.7,2.7-2.7h59.64c1.49,0,2.7,1.21,2.7,2.7v47.96c-2.46-1.17-5.21-1.83-8.11-1.83-10.43,0-18.92,8.49-18.92,18.92,0,5.37,2.2,10.22,5.75,13.69H22.97ZM77.21,90.72c-7.45,0-13.51-6.14-13.51-13.69s6.06-13.51,13.51-13.51,13.51,6.06,13.51,13.51-6.06,13.69-13.51,13.69Z"/>
  <path class="st0" d="M77.21,25.67h-16.22c-1.49,0-2.7,1.21-2.7,2.7s1.21,2.7,2.7,2.7h16.22c1.49,0,2.7-1.21,2.7-2.7s-1.21-2.7-2.7-2.7ZM77.21,47.3h-16.22c-1.49,0-2.7,1.21-2.7,2.7s1.21,2.7,2.7,2.7h16.22c1.49,0,2.7-1.21,2.7-2.7s-1.21-2.7-2.7-2.7ZM82.61,74.33h-2.7v-2.7c0-1.49-1.21-2.7-2.7-2.7s-2.7,1.21-2.7,2.7v5.41c0,1.49,1.21,2.7,2.7,2.7h5.41c1.49,0,2.7-1.21,2.7-2.7s-1.21-2.7-2.7-2.7ZM51.91,21.06c-1.06-1.06-2.77-1.06-3.82,0l-8.9,8.9-4.25-4.25c-1.06-1.06-2.77-1.06-3.82,0s-1.06,2.77,0,3.82l6.17,6.17c.53.53,1.22.79,1.91.79s1.38-.26,1.91-.79l10.81-10.81c1.06-1.06,1.06-2.77,0-3.82ZM51.91,42.68c-1.06-1.06-2.77-1.06-3.82,0l-8.9,8.9-4.25-4.25c-1.06-1.06-2.77-1.06-3.82,0s-1.06,2.77,0,3.82l6.17,6.17c.53.53,1.22.79,1.91.79s1.38-.26,1.91-.79l10.81-10.81c1.06-1.06,1.06-2.77,0-3.82ZM51.91,64.31c-1.06-1.06-2.77-1.06-3.82,0l-8.9,8.9-4.25-4.25c-1.06-1.06-2.77-1.06-3.82,0s-1.06,2.77,0,3.82l6.17,6.17c.53.53,1.22.79,1.91.79s1.38-.26,1.91-.79l10.81-10.81c1.06-1.06,1.06-2.77,0-3.82Z"/>
</svg>