<svg xmlns="http://www.w3.org/2000/svg" version="1.1" xmlns:xlink="http://www.w3.org/1999/xlink" width="100" height="100" x="0" y="0" viewBox="0 0 64 64" style="enable-background:new 0 0 512 512" xml:space="preserve" class=""><g><path d="M15.12 46.957a1 1 0 1 0-1.882.675l.681 1.896a1 1 0 1 0 1.882-.676l-.681-1.896z" fill="#ffffff" opacity="1" data-original="#000000" class=""></path><path d="M42.674 11.149 47.096 3.5A.998.998 0 0 0 46.23 2H30.318a1 1 0 0 0-.866 1.499l4.408 7.649c-8.042 2.57-14.521 12.064-14.521 21.422 0 2.842.631 5.379 1.868 7.568l-3.98 1.429-.011-.031a1.962 1.962 0 0 0-2.507-1.184l-5.354 1.923a1.95 1.95 0 0 0-1.112 1.009 1.95 1.95 0 0 0-.072 1.499l5.718 15.924c.177.493.535.888 1.008 1.11a1.945 1.945 0 0 0 1.499.072l5.353-1.923a1.947 1.947 0 0 0 1.112-1.009 1.95 1.95 0 0 0 .072-1.499l-.049-.136 1.212-.435a2.732 2.732 0 0 1 1.703-.051l7.813 2.287a4.743 4.743 0 0 0 3.957-.597L53.81 47.783a4.764 4.764 0 0 0 2.063-3.162 4.769 4.769 0 0 0-.894-3.669c-.024-.032-.055-.056-.08-.088 1.528-2.342 2.309-5.124 2.309-8.295 0-9.359-6.489-18.854-14.535-21.421zM44.497 4l-3.838 6.64c-.196-.034-.387-.05-.58-.076-.139-.018-.28-.04-.418-.055a13.633 13.633 0 0 0-1.394-.079h-.005c-.035 0-.069.004-.104.005-.426.003-.854.03-1.283.074-.155.016-.312.04-.467.061-.178.024-.353.039-.532.07L32.049 4zM21.339 32.57c0-8.538 6.172-17.532 13.484-19.642.243-.072.487-.135.761-.193.461-.102.91-.179 1.352-.23 1.233-.142 2.443-.075 3.733.183.095.019.185.027.281.048h.008c.255.055.501.118.754.193 7.316 2.108 13.497 11.103 13.497 19.64 0 2.692-.628 5.05-1.865 7.028a4.71 4.71 0 0 0-4.674.193l-9.342 5.84a4.13 4.13 0 0 0-1.904-1.849l-9.833-4.637a4.14 4.14 0 0 0-3.191-.153l-1.278.459c-1.18-1.952-1.784-4.26-1.784-6.881zm-5.582 27.424-5.728-15.836 5.304-1.946.347.96s0 .008.002.013l.007.011 4.948 13.678c.01.061.005.123.027.184.022.062.065.107.098.161l.313.865-5.317 1.91zm38.146-15.709a2.724 2.724 0 0 1-1.195 1.831L36.467 56.859a2.746 2.746 0 0 1-2.292.345l-7.813-2.287a4.72 4.72 0 0 0-2.942.088l-1.212.435-4.305-11.99 7.174-2.575a2.157 2.157 0 0 1 1.661.079l9.833 4.637c.525.248.923.686 1.119 1.232s.167 1.136-.08 1.661a2.173 2.173 0 0 1-2.893 1.039L29.366 47a1 1 0 0 0-.853 1.809l5.351 2.523a4.153 4.153 0 0 0 3.191.153 4.148 4.148 0 0 0 2.757-3.797l9.919-6.201a2.738 2.738 0 0 1 3.272.265c.007.006.011.015.018.02.005.004.011.005.017.009.125.114.242.24.347.38a2.73 2.73 0 0 1 .518 2.125z" fill="#ffffff" opacity="1" data-original="#000000" class=""></path><path d="M40.451 32.324h-4.704c-.976 0-1.77-.794-1.77-1.77a1 1 0 1 0-2 0 3.775 3.775 0 0 0 3.77 3.77H37.1v2.148a1 1 0 1 0 2 0v-2.148h1.351c2.079 0 3.77-1.691 3.77-3.77s-1.691-3.77-3.77-3.77h-4.704c-.976 0-1.77-.794-1.77-1.77s.794-1.77 1.77-1.77h4.704c.976 0 1.77.794 1.77 1.77a1 1 0 1 0 2 0 3.775 3.775 0 0 0-3.77-3.77H39.1v-2.109a1 1 0 1 0-2 0v2.109h-1.353c-2.079 0-3.77 1.691-3.77 3.77s1.691 3.77 3.77 3.77h4.704c.976 0 1.77.794 1.77 1.77s-.794 1.77-1.77 1.77zM50.809 26.563c.964 2.464 1.208 5.058.723 7.708a1 1 0 0 0 1.968.36c.552-3.021.273-5.98-.829-8.796a1 1 0 1 0-1.862.729zM49.261 23.663a1 1 0 1 0 1.634-1.153c-.415-.589-.712-.911-.744-.946a1 1 0 0 0-1.466 1.361c.002.002.239.261.575.737z" fill="#ffffff" opacity="1" data-original="#000000" class=""></path></g></svg>