<svg id="a" viewBox="0 0 24 24" xmlns="http://www.w3.org/2000/svg" width="100" height="100" fill="#6895cf" >
  <path fill="#fff" d="m18 4.5h-1.5v-1.5c0-.2764-.2236-.5-.5-.5s-.5.2236-.5.5v1.5h-7v-1.5c0-.2764-.2236-.5-.5-.5s-.5.2236-.5.5v1.5h-1.5c-1.9297 0-3.5 1.5703-3.5 3.5v10c0 1.9297 1.5703 3.5 3.5 3.5h12c1.9297 0 3.5-1.5703 3.5-3.5v-10c0-1.9297-1.5703-3.5-3.5-3.5zm2.5 13.5c0 1.3789-1.1211 2.5-2.5 2.5h-12c-1.3789 0-2.5-1.1211-2.5-2.5v-6.5h17zm0-7.5h-17v-2.5c0-1.3789 1.1211-2.5 2.5-2.5h1.5v1.5c0 .2764.2236.5.5.5s.5-.2236.5-.5v-1.5h7v1.5c0 .2764.2236.5.5.5s.5-.2236.5-.5v-1.5h1.5c1.3789 0 2.5 1.1211 2.5 2.5zm-9.5 5.5c0-.5523.4477-1 1-1s1 .4477 1 1-.4477 1-1 1-1-.4478-1-1zm4 0c0-.5523.4477-1 1-1s1 .4477 1 1-.4477 1-1 1-1-.4478-1-1zm-8 0c0-.5523.4477-1 1-1s1 .4477 1 1-.4477 1-1 1-1-.4478-1-1z"/>
</svg>