<svg id="Layer_1" enable-background="new 0 0 512 512" viewBox="0 0 512 512" xmlns="http://www.w3.org/2000/svg" width="100" height="100" fill="#6895cf" >
  <path fill="#fff" d="m169.12 367.03-71.41-67.2c-1.67-1.57-3.49-2.89-5.4-3.97v-56.39c0-14.24-11.58-25.82-25.83-25.82-.06 0-.13.01-.19.01-1.16-6.66-4.26-12.74-9.03-17.52-6.52-6.54-15.47-10.14-25.2-10.14-9.41 0-17.06 7.65-17.06 17.06v124.6c0 7.97 2.43 14.86 7.42 21.08l80.29 99.95c1.61 2.01 2.33 4.05 2.33 6.63v35.68c0 3.31 2.69 6 6 6h72.98c3.31 0 5.99-2.68 6-5.99l.13-75.18c.03-19.21-7.04-35.63-21.03-48.8zm-88.81-127.55v52.98c-4.77-.19-9.53.93-13.68 3.37l.16-70.16c7.48.17 13.52 6.29 13.52 13.81zm97.72 245.52h-61v-29.68c0-5.28-1.68-10.04-4.98-14.15l-80.29-99.95c-3.26-4.05-4.77-8.36-4.77-13.56v-124.6c0-2.79 2.27-5.06 5.06-5.06 6.52 0 12.45 2.35 16.71 6.62 3.96 3.97 6.05 9.17 6.04 15.02l-.22 94.87c-.82 7.15 1.4 14.6 6.71 20.22l49.07 51.91c2.28 2.41 6.07 2.51 8.48.24 2.41-2.28 2.51-6.07.24-8.48l-49.06-51.9c-1.9-2.01-3.05-4.47-3.45-7.02l.01-4.19c.45-2.77 1.77-5.42 3.96-7.49 5.15-4.87 13.29-4.54 18.94.77l71.41 67.2c11.48 10.8 17.28 24.27 17.26 40.03zm301.91-299c-9.73 0-18.68 3.6-25.21 10.14-4.77 4.78-7.87 10.86-9.03 17.52-.06 0-.13-.01-.19-.01-14.24 0-25.82 11.58-25.82 25.82v56.39c-1.91 1.07-3.73 2.39-5.4 3.97l-71.41 67.2c-13.99 13.17-21.07 29.58-21.03 48.79l.13 75.18c.01 3.31 2.69 5.99 6 5.99h72.98c3.31 0 6-2.69 6-6v-35.68c0-2.58.72-4.62 2.33-6.63l80.29-99.95c4.99-6.21 7.42-13.11 7.42-21.08v-124.6c0-9.4-7.65-17.05-17.06-17.05zm-48.25 53.48c0-7.52 6.03-13.64 13.51-13.81l.16 70.16c-4.15-2.44-8.91-3.56-13.68-3.37v-52.98zm53.31 88.18c0 5.2-1.52 9.51-4.77 13.56l-80.29 99.95c-3.3 4.11-4.98 8.87-4.98 14.15v29.68h-61l-.12-69.19c-.03-15.76 5.78-29.23 17.26-40.04l71.4-67.2c5.65-5.31 13.79-5.64 18.94-.77 2.15 2.03 3.52 4.68 3.96 7.58l.01 4.02c-.39 2.66-1.58 5.12-3.45 7.09l-49.07 51.91c-2.28 2.41-2.17 6.21.24 8.48 2.41 2.28 6.21 2.17 8.48-.24l49.07-51.91c4.61-4.88 7.05-11.29 6.86-18.04-.02-.71-.07-1.41-.15-2.11l-.22-94.95c-.01-5.86 2.07-11.05 6.04-15.02 4.26-4.27 10.19-6.62 16.71-6.62 2.79 0 5.06 2.27 5.06 5.06v124.61zm-145.78-193.39c0-45.89-37.33-83.22-83.22-83.22s-83.22 37.33-83.22 83.22 37.33 83.22 83.22 83.22 83.22-37.33 83.22-83.22zm-83.22 71.22c-39.27 0-71.22-31.95-71.22-71.22s31.95-71.23 71.22-71.23 71.22 31.95 71.22 71.22-31.95 71.23-71.22 71.23zm121.19 60.82c2.23.19 4.38-.87 5.58-2.76s1.25-4.28.13-6.22l-31.3-54.21c3.01-2.51 5.59-5.59 7.69-9.22 5.08-8.79 5.99-18.45 2.65-27.93-.81-2.29-.19-4.61 1.66-6.19 7.64-6.54 11.68-15.36 11.68-25.51s-4.04-18.97-11.68-25.51c-1.85-1.58-2.47-3.89-1.66-6.19 3.34-9.48 2.43-19.14-2.65-27.93s-12.98-14.41-22.87-16.26c-2.39-.45-4.08-2.14-4.53-4.53-1.85-9.88-7.47-17.79-16.26-22.87s-18.45-5.99-27.93-2.65c-2.3.81-4.61.19-6.19-1.66-6.54-7.63-15.36-11.67-25.51-11.67s-18.97 4.04-25.51 11.67c-1.58 1.85-3.89 2.47-6.19 1.66-9.48-3.34-19.14-2.43-27.93 2.65s-14.41 12.98-16.26 22.87c-.45 2.39-2.14 4.08-4.53 4.53-9.88 1.84-17.79 7.47-22.87 16.26-5.07 8.79-5.99 18.45-2.65 27.93.81 2.29.19 4.6-1.66 6.19-7.64 6.54-11.68 15.36-11.68 25.51s4.04 18.97 11.68 25.51c1.85 1.58 2.47 3.89 1.66 6.19-3.34 9.48-2.43 19.14 2.65 27.93 2.1 3.63 4.69 6.72 7.69 9.22l-31.3 54.21c-1.12 1.94-1.07 4.33.13 6.22s3.36 2.95 5.58 2.76l47.29-4.05 20.14 42.98c.95 2.02 2.94 3.35 5.18 3.45.09 0 .17.01.26.01 2.14 0 4.12-1.14 5.2-3l31.3-54.21c3.67 1.35 7.64 2.05 11.83 2.05s8.16-.7 11.83-2.05l31.3 54.21c1.08 1.86 3.06 3 5.2 3 .08 0 .17 0 .26-.01 2.23-.09 4.23-1.42 5.18-3.45l20.14-42.98zm-168.96 23.42-17.03-36.35c-1.07-2.28-3.43-3.65-5.95-3.43l-40 3.43 25.65-44.43c1.51.5 3.06.91 4.68 1.21 2.39.45 4.08 2.14 4.53 4.53 1.84 9.88 7.47 17.79 16.26 22.87s18.45 5.99 27.93 2.65c2.29-.81 4.61-.19 6.19 1.66 1.07 1.25 2.2 2.39 3.39 3.44zm31.37-55.68c-3.44-4.01-8.32-6.19-13.36-6.19-1.98 0-3.98.33-5.93 1.02-6.16 2.17-12.2 1.59-17.94-1.72-5.74-3.32-9.26-8.25-10.46-14.68-1.35-7.23-6.89-12.77-14.12-14.12-6.42-1.2-11.36-4.72-14.68-10.46s-3.89-11.78-1.72-17.94c2.45-6.94.42-14.51-5.17-19.3-4.96-4.25-7.48-9.77-7.48-16.4s2.52-12.15 7.48-16.4c5.59-4.78 7.62-12.36 5.17-19.29-2.17-6.16-1.59-12.2 1.72-17.94 3.32-5.74 8.25-9.26 14.68-10.46 7.23-1.35 12.77-6.89 14.12-14.12 1.2-6.42 4.72-11.36 10.46-14.68 5.74-3.31 11.78-3.89 17.94-1.72 6.93 2.45 14.51.42 19.29-5.17 4.25-4.96 9.76-7.48 16.4-7.48s12.15 2.52 16.4 7.48c4.78 5.59 12.36 7.62 19.29 5.17 6.16-2.17 12.2-1.59 17.94 1.72 5.74 3.32 9.26 8.25 10.46 14.68 1.35 7.23 6.89 12.77 14.12 14.12 6.42 1.2 11.36 4.72 14.68 10.46s3.89 11.78 1.72 17.94c-2.45 6.94-.42 14.51 5.17 19.29 4.96 4.25 7.48 9.77 7.48 16.4s-2.52 12.15-7.48 16.4c-5.59 4.78-7.62 12.36-5.17 19.29 2.17 6.16 1.59 12.2-1.72 17.94-3.32 5.74-8.25 9.26-14.68 10.46-7.23 1.35-12.78 6.89-14.12 14.12-1.2 6.42-4.72 11.36-10.46 14.68-5.74 3.31-11.78 3.9-17.94 1.72-6.94-2.45-14.51-.42-19.29 5.17-4.25 4.96-9.77 7.48-16.4 7.48-6.63.01-12.15-2.5-16.4-7.47zm81.21 19.33-17.03 36.35-25.65-44.43c1.19-1.05 2.32-2.2 3.39-3.45 1.58-1.85 3.89-2.47 6.19-1.66 9.48 3.34 19.14 2.43 27.93-2.65s14.41-12.98 16.26-22.87c.45-2.39 2.14-4.08 4.53-4.53 1.62-.3 3.17-.71 4.68-1.21l25.65 44.43-40-3.43c-2.52-.2-4.89 1.17-5.95 3.45zm-13.64-156.11-.28-.28c-2.9-2.9-6.76-4.5-10.87-4.5s-7.97 1.6-10.87 4.5l-41.38 41.38-16.91-16.91c-2.9-2.9-6.76-4.5-10.87-4.5-4.11 0-7.97 1.6-10.87 4.5l-.28.28c-6 6-6 15.75 0 21.74l28.07 28.07c3 3 6.93 4.5 10.87 4.5s7.88-1.5 10.87-4.5l52.54-52.54c2.9-2.9 4.5-6.76 4.5-10.87s-1.62-7.97-4.52-10.87zm-8.48 13.26-52.54 52.54c-1.32 1.31-3.46 1.32-4.77 0l-28.07-28.07c-1.32-1.32-1.32-3.46 0-4.77l.28-.28c.63-.63 1.48-.98 2.39-.98s1.75.35 2.39.98l21.16 21.16c2.34 2.34 6.14 2.34 8.48 0l45.62-45.63c1.27-1.27 3.51-1.26 4.77 0l.28.28c.63.63.98 1.48.98 2.39s-.34 1.74-.97 2.38z"/>
</svg>