<svg xmlns="http://www.w3.org/2000/svg" version="1.1" xmlns:xlink="http://www.w3.org/1999/xlink" width="60" height="60" x="0" y="0" viewBox="0 0 510 510" style="enable-background:new 0 0 512 512" xml:space="preserve" fill-rule="evenodd" class=""><path d="M298.385 72.912H47.756v396.359h254.625c4.416 0 8 3.585 8 8 0 4.416-3.584 8-8 8H39.756a8 8 0 0 1-8-8V64.912a8 8 0 0 1 8-8h41.912V15a8 8 0 0 1 8-8h266.629c2.123 0 4.159.844 5.66 2.345l51.539 51.582a8 8 0 0 1 2.341 5.654v241.186c0 4.415-3.585 8-8 8s-8-3.585-8-8V74.581h-43.54a8 8 0 0 1-8-8V23H97.668v33.912h208.717a8 8 0 0 1 5.657 2.343l51.54 51.54a8 8 0 0 1 2.343 5.657v191.47c0 4.415-3.585 8-8 8s-8-3.585-8-8v-183.47h-43.54a8 8 0 0 1-8-8zm40.226 35.54-24.226-24.226v24.226zm49.923-49.871-24.237-24.256v24.256zM99.504 159.368h53.769c8.263 0 15.015 6.752 15.015 15.016v53.768c0 8.264-6.752 15.016-15.015 15.016H99.504c-8.264 0-15.015-6.752-15.015-15.016v-53.768c0-8.264 6.751-15.016 15.015-15.016zm.985 16v51.8h51.799v-51.8zm5.935 30.173a8.003 8.003 0 0 1-.011-11.313 8.002 8.002 0 0 1 11.313-.012l5.508 5.497 11.223-13.881c2.776-3.433 7.818-3.966 11.251-1.19s3.967 7.817 1.191 11.251L130.09 216.68a7.998 7.998 0 0 1-11.872.632zm-6.92 50.606h53.769c8.263 0 15.015 6.752 15.015 15.015v53.769c0 8.264-6.752 15.015-15.015 15.015H99.504c-8.264 0-15.015-6.751-15.015-15.015v-53.769c0-8.263 6.751-15.015 15.015-15.015zm.985 16v51.799h51.799v-51.799zm5.929 30.168c-3.122-3.122-3.122-8.192 0-11.314s8.192-3.122 11.314 0l5.507 5.507 11.218-13.873c2.776-3.434 7.818-3.967 11.251-1.191s3.967 7.818 1.191 11.251l-16.809 20.787a8 8 0 0 1-11.877.627zm-6.914 50.611h53.769c8.256 0 15.015 6.783 15.015 15.039v53.768c0 8.264-6.752 15.016-15.015 15.016H99.504c-8.264 0-15.015-6.752-15.015-15.016v-53.768c0-8.256 6.759-15.039 15.015-15.039zm.985 67.823h51.799v-51.823h-51.799zm5.935-21.626c-3.125-3.119-3.13-8.189-.011-11.314s8.188-3.13 11.313-.011l5.508 5.496 11.223-13.88c2.776-3.434 7.818-3.967 11.251-1.191s3.967 7.818 1.191 11.251l-16.809 20.787a8 8 0 0 1-11.872.632zm96.709-203.768c-4.415 0-8-3.585-8-8s3.585-8 8-8h102.059c4.416 0 8 3.585 8 8s-3.584 8-8 8zm0 27.826c-4.415 0-8-3.585-8-8s3.585-8 8-8h66.438c4.416 0 8 3.585 8 8s-3.584 8-8 8zm0 68.953c-4.415 0-8-3.585-8-8 0-4.416 3.585-8 8-8h102.059c4.416 0 8 3.584 8 8 0 4.415-3.584 8-8 8zm0 27.826c-4.415 0-8-3.585-8-8 0-4.416 3.585-8 8-8h66.438c4.416 0 8 3.584 8 8 0 4.415-3.584 8-8 8zm0 68.976c-4.415 0-8-3.585-8-8s3.585-8 8-8h77.059c4.416 0 8 3.585 8 8s-3.584 8-8 8zm0 27.826c-4.415 0-8-3.585-8-8s3.585-8 8-8h66.438c4.416 0 8 3.585 8 8s-3.584 8-8 8zM92.489 121.435c-4.416 0-8-3.585-8-8 0-4.416 3.584-8 8-8h152.172c4.415 0 8 3.584 8 8 0 4.415-3.585 8-8 8zm293.799 197.702c50.782 0 91.956 41.126 91.956 91.907 0 50.78-41.176 91.956-91.956 91.956-50.781 0-91.907-41.174-91.907-91.956s41.125-91.907 91.907-91.907zm0 16c-41.941 0-75.907 33.966-75.907 75.907 0 41.943 33.964 75.956 75.907 75.956 41.945 0 75.956-34.011 75.956-75.956 0-41.943-34.013-75.907-75.956-75.907zm-43.029 80.558c-3.122-3.122-3.122-8.192 0-11.314s8.191-3.122 11.313 0l19.962 19.962 43.519-43.519c3.122-3.122 8.192-3.122 11.314 0s3.122 8.191 0 11.314l-49.176 49.175a7.999 7.999 0 0 1-11.314 0z" fill="#ffffff" opacity="1" data-original="#000000"></path></svg>