<?xml version="1.0" encoding="UTF-8"?>
<svg id="Layer_1" xmlns="http://www.w3.org/2000/svg" version="1.1" viewBox="0 0 100 100" width="60" height="60">
  <!-- Generator: Adobe Illustrator 29.4.0, SVG Export Plug-In . SVG Version: 2.1.0 Build 152)  -->
  <defs>
    <style>
      .st0 {
        fill: #0b5bc9;
      }
    </style>
  </defs>
  <path class="st0" d="M98.59,57.65l-15.3-14.28v-16.13c0-1.1-.89-1.99-1.99-1.99h-10.62c-1.1,0-1.99.89-1.99,1.99v2.5l-9.93-9.26c-.76-.71-1.95-.71-2.71,0L16.19,57.65c-.8.75-.85,2.01-.1,2.82.38.4.9.63,1.45.63h8.63v29.88c0,1.1.89,1.99,1.99,1.99h58.43c1.1,0,1.99-.89,1.99-1.99h0v-29.88h8.63c1.1,0,1.99-.89,1.99-1.99,0-.55-.23-1.08-.63-1.46ZM86.6,57.11c-1.1,0-1.99.89-1.99,1.99v29.88H30.16v-6.64h40.5c1.1,0,1.99-.89,1.99-1.99s-.89-1.99-1.99-1.99H30.16v-6.64h35.19c1.1,0,1.99-.89,1.99-1.99s-.89-1.99-1.99-1.99H30.16v-6.64h29.88c1.1,0,1.99-.89,1.99-1.99s-.89-1.99-1.99-1.99H22.6L57.39,24.65l11.92,11.12c.81.75,2.07.7,2.82-.11.34-.37.53-.85.53-1.35v-5.09h6.65v15.01c0,.55.23,1.08.64,1.46l12.24,11.43h-5.57Z"/>
  <path class="st0" d="M37.76,21.54c-.12-.25-.43-.37-.68-.43-1.43,0-13.7-.5-13.7-14.76,0-.43-.37-.81-.81-.81s-.81.37-.81.81c0,14.26-12.28,14.76-13.64,14.76-.19,0-.37.06-.5.19-.12.06-.19.19-.25.25-.12.25-.12.56,0,.81s.43.43.74.43h.06c1.43,0,13.64.5,13.64,14.76,0,.43.37.81.81.81s.81-.37.81-.81c0-14.2,12.21-14.76,13.64-14.76.31,0,.56-.19.74-.43.12-.25.12-.56-.06-.81ZM22.57,28.19c-1.18-3.87-4.07-5.54-6.35-6.27,2.28-.73,5.17-2.4,6.35-6.27,1.18,3.87,4.07,5.54,6.35,6.27-2.28.73-5.17,2.4-6.35,6.27Z"/>
  <path class="st0" d="M66.36,42.09c-.08-.15-.27-.23-.42-.27-.89,0-8.54-.31-8.54-9.19,0-.27-.23-.5-.5-.5s-.5.23-.5.5c0,8.89-7.65,9.19-8.5,9.19-.12,0-.23.04-.31.12-.08.04-.12.12-.15.15-.08.15-.08.35,0,.5s.27.27.46.27h.04c.89,0,8.5.31,8.5,9.19,0,.27.23.5.5.5s.5-.23.5-.5c0-8.85,7.61-9.19,8.5-9.19.19,0,.35-.12.46-.27.08-.15.08-.35-.04-.5ZM56.9,46.23c-.74-2.41-2.54-3.45-3.96-3.91,1.42-.46,3.22-1.5,3.96-3.91.74,2.41,2.54,3.45,3.96,3.91-1.42.46-3.22,1.5-3.96,3.91Z"/>
</svg>