<?xml version="1.0" encoding="UTF-8"?>
<svg id="Layer_1" xmlns="http://www.w3.org/2000/svg" version="1.1" viewBox="0 0 100 100" width="60" height="60">
  <!-- Generator: Adobe Illustrator 29.4.0, SVG Export Plug-In . SVG Version: 2.1.0 Build 152)  -->
  <defs>
    <style>
      .st0 {
        fill: #0b5bc9;
      }

      .st1 {
        fill: none;
        stroke: #0b5bc9;
        stroke-miterlimit: 1.95;
        stroke-width: 3px;
      }
    </style>
  </defs>
  <g>
    <path class="st1" d="M82.06,87.54h9.52v9.48h-9.52v-9.48ZM82.06,68.15h9.52v9.75h-9.52v-9.75ZM63.02,87.54h19.05v9.48h-19.05v-9.48ZM43.97,87.54h19.05v9.48h-19.05v-9.48ZM72.54,77.9h19.05v9.64h-19.05v-9.64ZM53.49,77.9h19.05v9.64h-19.05v-9.64ZM63.02,68.15h19.05v9.75h-19.05v-9.75ZM72.54,58.45h19.05v9.7h-19.05v-9.7ZM77.84,35.06v-8.8h11.07v17.84"/>
    <path class="st1" d="M91.54,57.53v39.54H26.39v-39.54M20.87,49.88v7.51h6.35l31.74-23.34,31.09,23.34h7v-7.12l-38.09-28.81-38.09,28.42Z"/>
  </g>
  <path class="st0" d="M30.26,25.43H11.95c-3.62,0-6.57-3.25-6.57-7.24,0-3.48,2.23-6.37,5.17-7.07.14-4.14,3.24-7.47,7.04-7.47,2.85,0,5.25,1.84,6.37,4.46,3.65-1.2,7.29,1.87,7.24,6.04,2.4.49,4.22,2.81,4.22,5.59,0,3.14-2.32,5.69-5.16,5.69ZM17.59,5.72c-3.02,0-5.41,2.85-5.14,6.2.05.57-.34,1.08-.86,1.12-2.42.21-4.32,2.47-4.32,5.15,0,2.85,2.11,5.17,4.69,5.17h18.3c1.81,0,3.29-1.62,3.29-3.62,0-1.88-1.33-3.62-3.38-3.62-.59,0-1.04-.6-.92-1.24.63-3.4-2.61-6.08-5.39-4.51-.52.29-1.16,0-1.33-.62-.65-2.38-2.69-4.03-4.94-4.03ZM23.69,33.18c-.69,0-1.15-.8-.84-1.5l1.88-4.14c.23-.51.8-.72,1.26-.46.46.26.65.88.42,1.39l-1.88,4.14c-.16.36-.5.57-.84.57ZM32.13,33.18c-.69,0-1.15-.8-.84-1.5l1.88-4.14c.23-.51.8-.72,1.26-.46.46.26.65.88.42,1.39l-1.88,4.14c-.16.36-.5.57-.84.57ZM15.24,33.18c-.69,0-1.15-.8-.84-1.5l1.88-4.14c.23-.51.8-.72,1.26-.46.46.26.65.88.42,1.39l-1.88,4.14c-.16.36-.5.57-.84.57ZM6.79,33.18c-.69,0-1.15-.8-.84-1.5l1.88-4.14c.23-.51.8-.72,1.26-.46.46.26.65.88.42,1.39l-1.88,4.14c-.16.36-.5.57-.84.57ZM18.06,36.8c-.69,0-1.15-.8-.84-1.5l1.88-4.14c.23-.51.8-.72,1.26-.46.46.26.65.88.42,1.39l-1.88,4.14c-.16.36-.5.57-.84.57ZM26.5,36.8c-.69,0-1.15-.8-.84-1.5l1.88-4.14c.23-.51.8-.72,1.26-.46.46.26.65.88.42,1.39l-1.88,4.14c-.16.36-.5.57-.84.57ZM9.61,36.8c-.69,0-1.15-.8-.84-1.5l1.88-4.14c.23-.51.8-.72,1.26-.46.46.26.65.88.42,1.39l-1.88,4.14c-.16.36-.5.57-.84.57Z"/>
</svg>