<svg id="Capa_1" enable-background="new 0 0 512.006 512.006" height="512" viewBox="0 0 512.006 512.006" width="512" xmlns="http://www.w3.org/2000/svg">
  <g>
  <path d="m478.943 222.782-320.746-216.072c-10.926-7.346-24.727-8.753-36.913-3.764-18.367 7.517-28.123 27.47-23.586 46.355l-25.417-17.122c-10.062-6.763-22.774-8.061-34-3.466-18.594 7.61-27.605 29.056-20.082 47.82l72.291 179.454-71.695 177.976c-5.268 11.655-4.221 24.949 2.817 35.615 5.417 8.212 13.688 13.792 23.288 15.712 2.394.479 4.796.715 7.182.715 7.146 0 14.135-2.122 20.209-6.214l25.349-17.076c-2.585 10.71-.674 22.028 5.545 31.454 5.883 8.917 14.862 14.976 25.286 17.061 2.598.52 5.205.776 7.795.776 7.758 0 15.345-2.304 21.939-6.746l320.206-215.711c4.598-2.987 8.47-6.839 11.509-11.448 12.07-18.294 7.146-43.11-10.977-55.319zm-417.827 240.421c-3.642 2.454-8.01 3.333-12.294 2.476-4.325-.865-8.061-3.392-10.517-7.115-3.252-4.929-3.714-11.088-1.234-16.477.067-.146.132-.295.191-.444l73.284-181.919c.966-2.397.966-5.075 0-7.473l-73.789-183.176c-3.443-8.587.64-18.39 9.101-21.853 5.038-2.063 10.749-1.483 15.259 1.55l49.271 33.193 70.103 174.021-70.104 174.026zm412.11-196.115c-1.524 2.312-3.46 4.234-5.753 5.717-.054.034-.106.069-.158.104l-320.284 215.763c-4.335 2.922-9.536 3.965-14.639 2.946-5.148-1.03-9.593-4.036-12.515-8.463-3.862-5.855-4.411-13.172-1.467-19.57.067-.146.132-.295.191-.444l81.944-203.418c.966-2.397.966-5.075 0-7.473l-82.51-204.824c-4.09-10.203.767-21.853 10.825-25.97 2.377-.973 4.876-1.452 7.363-1.452 3.796 0 7.562 1.117 10.808 3.299l320.739 216.067c9.063 6.106 11.511 18.54 5.456 27.718z" fill="#09428a"/>
  <path clip-rule="evenodd" d="m201.211 391.886 201.733-135.899-201.733-135.899 54.746 135.899z" fill="#6895cf" fill-rule="evenodd"/>
</g>
</svg>