<svg id="Layer_1" enable-background="new 0 0 512 512" viewBox="0 0 512 512" xmlns="http://www.w3.org/2000/svg" width="100" height="100" fill="#6895cf">
  <path d="m195.35 124.11h158.1v90.43l-100.91 89.68c-1.86 1.65-2.51 4.29-1.62 6.62s3.12 3.87 5.61 3.87h205.85c2.49 0 4.72-1.54 5.61-3.87s.24-4.96-1.62-6.62l-23.1-20.53v-65.4c0-3.31-2.69-6-6-6h-38.4c-3.31 0-6 2.69-6 6v20.61l-27.42-24.37v-90.43h103.72c3.53 0 6.68-1.83 8.42-4.91 1.74-3.07 1.7-6.71-.12-9.75l-18.58-31.01c-1.08-1.81-3.04-2.92-5.15-2.92h-320.47v-20.49c0-8-6.51-14.51-14.51-14.51h-7.81v-19.51c0-3.31-2.69-6-6-6s-6 2.69-6 6v19.51h-7.81c-8 0-14.51 6.51-14.51 14.51v20.51h-24.47c-2.11 0-4.06 1.11-5.15 2.92l-18.58 31.01c-1.81 3.03-1.86 6.67-.12 9.75 1.74 3.07 4.89 4.91 8.42 4.91h39.9v99.78h-4.87c-3.31 0-6 2.69-6 6s2.69 6 6 6h4.87v25.45h-4.87c-3.31 0-6 2.69-6 6s2.69 6 6 6h4.87v25.45h-4.87c-3.31 0-6 2.69-6 6s2.69 6 6 6h4.87v25.45h-4.87c-3.31 0-6 2.69-6 6s2.69 6 6 6h4.87v25.45h-4.87c-3.31 0-6 2.69-6 6s2.69 6 6 6h4.87v25.45h-4.87c-3.31 0-6 2.69-6 6s2.69 6 6 6h4.87v15.04h-42.4c-5.84 0-10.59 4.75-10.59 10.59v37.63c0 5.84 4.75 10.59 10.59 10.59h141.44c5.84 0 10.59-4.75 10.59-10.59v-37.63c0-5.84-4.75-10.59-10.59-10.59h-42.4v-15.04h4.87c3.31 0 6-2.69 6-6s-2.69-6-6-6h-4.87v-25.45h4.87c3.31 0 6-2.69 6-6s-2.69-6-6-6h-4.87v-25.45h4.87c3.31 0 6-2.69 6-6s-2.69-6-6-6h-4.87v-25.45h4.87c3.31 0 6-2.69 6-6s-2.69-6-6-6h-4.87v-25.45h4.87c3.31 0 6-2.69 6-6s-2.69-6-6-6h-4.87v-25.45h4.87c3.31 0 6-2.69 6-6s-2.69-6-6-6h-4.87v-20.15l71.89.65h.15c5.35 0 10.13-2.55 13.12-7 3.02-4.5 3.55-9.94 1.45-14.93zm76.96 178.6 87.14-77.45 87.14 77.45zm132.56-78.42h26.4v48.74l-26.4-23.46zm-316.23-169.27c0-1.36 1.15-2.51 2.51-2.51h27.61c1.36 0 2.51 1.15 2.51 2.51v20.51h-32.63zm-33.08 32.51h394.79l14.73 24.58h-424.25zm118.7 397.47h-138.62v-34.81h138.62zm-52.99-46.81h-32.63v-15.04h32.63zm0-27.05h-32.63v-25.45h32.63zm0-37.45h-32.63v-25.45h32.63zm0-37.45h-32.63v-25.45h32.63zm0-37.45h-32.63v-25.45h32.63zm0-37.45h-32.63v-25.45h32.63zm-32.63-37.45v-99.78h32.63v99.78zm119.82-33.19c-.76 1.13-1.79 1.69-3.15 1.69-.01 0-.03 0-.04 0l-71.99-.65v-67.63h49.07l26.47 62.99c.52 1.28.41 2.45-.36 3.6zm273.9 294.3h-13.99v-131.93c0-3.31-2.69-6-6-6h-205.84c-3.31 0-6 2.69-6 6v131.93h-13.99c-3.31 0-6 2.69-6 6s2.69 6 6 6h245.81c3.31 0 6-2.69 6-6s-2.68-6-5.99-6zm-219.83-125.93h193.84v125.93h-60.71v-73.92c0-3.31-2.69-6-6-6h-60.41c-3.31 0-6 2.69-6 6v73.92h-60.71v-125.93zm121.13 125.93h-48.41v-67.92h48.41z"/>
</svg>