<svg id="Layer_1" enable-background="new 0 0 64 64" height="512" viewBox="0 0 64 64" width="512" xmlns="http://www.w3.org/2000/svg">
  <path class="st0" fill="#0b5bc9" d="m2.0400391 56.0644531c0 .5522461.4477539 1 1 1h57.9199219c.5522461 0 1-.4477539 1-1v-13.3769531c0-.005249-.0029297-.0095215-.0029907-.0147705-.0016479-.1164551-.0267334-.2304688-.0687866-.3406372-.0106201-.027771-.0241089-.0522461-.0371094-.0787354-.0178833-.0368652-.0296021-.0758667-.0522461-.1107788l-8.2706909-12.7339478c.003418-.0336914.0197144-.0629883.0197144-.0975952v-13.3769531c0-.0128784-.0068359-.0236206-.0073242-.036377-.0042725-.1173096-.0241699-.2329712-.0692139-.3425903-.0068359-.0165405-.0183105-.029541-.0259399-.0456543-.0303345-.0640259-.0611572-.1281738-.1055298-.18573l-6.1640625-7.9985352c-.1894531-.2456055-.4819336-.3896484-.7919922-.3896484h-28.7675783c-.3100586 0-.6025391.144043-.7919922.3896484l-6.1640625 7.9985352c-.0443726.0575562-.0751953.1217041-.1055298.18573-.0076294.0161133-.019104.0291138-.0259399.0456543-.0450439.1096191-.0649414.2252808-.0692139.3425903-.0004883.0127563-.0073242.0234985-.0073242.036377v13.3769531c0 .0346069.0162964.0639038.0197144.0975952l-8.2706909 12.7339478c-.022644.0349121-.0343628.0739136-.0522461.1107788-.0130005.0264893-.0264893.0509644-.0371094.0787354-.0420532.1101685-.0671387.2241821-.0687866.3406372-.000061.005249-.0029907.0095215-.0029907.0147705zm57.9199218-1h-55.9199218v-11.3769531h55.9199219v11.3769531zm-47.5078125-38.1303711h39.0957031v11.3769531h-39.0957031zm5.6557618-7.9985351h27.7841797l4.6225586 5.9985352h-37.0292969zm-5.8369141 21.3754883h39.4580078l7.3891602 11.3764648h-54.2363282z"/>
</svg>