<svg xmlns="http://www.w3.org/2000/svg" version="1.1" xmlns:xlink="http://www.w3.org/1999/xlink" width="100" height="100" x="0" y="0" viewBox="0 0 500 500" style="enable-background:new 0 0 512 512" xml:space="preserve" class=""><g><path d="M295.065 417.947H40.385a9.185 9.185 0 0 1 0-18.37h245.496V148.293a9.185 9.185 0 0 1 18.37 0v260.469a9.186 9.186 0 0 1-9.186 9.185z" fill="#0b5bc9" opacity="1" data-original="#000000" class=""></path><path d="M232.223 360.893H40.385a9.185 9.185 0 0 1 0-18.369h182.654v-194.23a9.185 9.185 0 0 1 18.369 0V351.71c0 5.069-4.111 9.183-9.185 9.183z" fill="#0b5bc9" opacity="1" data-original="#000000" class=""></path><path d="M169.379 303.834H40.385a9.185 9.185 0 0 1 0-18.37h119.809V148.293a9.185 9.185 0 0 1 18.37 0v146.356c0 5.07-4.112 9.185-9.185 9.185z" fill="#0b5bc9" opacity="1" data-original="#000000" class=""></path><path d="M106.536 246.78H40.385a9.185 9.185 0 0 1 0-18.369h56.967v-80.117a9.185 9.185 0 0 1 18.37 0v89.303c0 5.069-4.112 9.183-9.186 9.183z" fill="#0b5bc9" opacity="1" data-original="#000000" class=""></path><path d="M357.908 475H40.385a9.185 9.185 0 0 1-9.185-9.185V148.293a9.185 9.185 0 0 1 9.185-9.185h317.523a9.185 9.185 0 0 1 9.185 9.185v317.523c0 5.07-4.112 9.184-9.185 9.184zM49.57 456.63h299.152V157.477H49.57zM182.058 118.615c-5.074 0-9.184-4.115-9.184-9.185V70.016c0-5.071 4.111-9.184 9.184-9.184s9.185 4.114 9.185 9.184v39.413a9.186 9.186 0 0 1-9.185 9.186zM227.535 118.615c-5.074 0-9.185-4.115-9.185-9.185V70.016a9.185 9.185 0 0 1 18.37 0v39.413a9.186 9.186 0 0 1-9.185 9.186zM273.015 118.615c-5.074 0-9.185-4.115-9.185-9.185V70.016a9.185 9.185 0 0 1 18.37 0v39.413c0 5.071-4.111 9.186-9.185 9.186zM318.494 118.615c-5.074 0-9.185-4.115-9.185-9.185V70.016a9.185 9.185 0 0 1 18.37 0v39.413a9.186 9.186 0 0 1-9.185 9.186zM363.974 118.615c-5.074 0-9.185-4.115-9.185-9.185V70.016c0-5.071 4.111-9.184 9.185-9.184s9.184 4.114 9.184 9.184v39.413a9.185 9.185 0 0 1-9.184 9.186zM409.451 317.342c-5.074 0-9.185-4.115-9.185-9.185V70.016a9.185 9.185 0 0 1 18.37 0v238.141a9.186 9.186 0 0 1-9.185 9.185z" fill="#0b5bc9" opacity="1" data-original="#000000" class=""></path><path d="M459.615 360.893H357.908a9.185 9.185 0 0 1-9.185-9.184V157.477h-206.63a9.185 9.185 0 0 1-9.185-9.184V34.185A9.185 9.185 0 0 1 142.093 25h317.523a9.185 9.185 0 0 1 9.185 9.185v317.523a9.186 9.186 0 0 1-9.186 9.185zm-92.522-18.37h83.338V43.37H151.278v95.737h206.63a9.185 9.185 0 0 1 9.185 9.185z" fill="#0b5bc9" opacity="1" data-original="#000000" class=""></path></g></svg>