<svg xmlns="http://www.w3.org/2000/svg" version="1.1" viewBox="0 0 100 100" width="100" height="100" fill="#0b5bc9">
  <path class="cls-1" d="M10.4,44.4c1.4.2,2.7-.1,3.8-.9l35.8-26,8,5.8-16.3,11.8c-2.3,1.7-2.8,4.9-1.1,7.2,1.7,2.3,4.8,2.8,7.1,1.1l19-13.8,19,13.8c2.3,1.7,5.5,1.3,7.2-1,1.7-2.3,1.3-5.5-1-7.2,0,0-.1,0-.2-.1L53,7c-1.8-1.3-4.3-1.3-6.1,0l-17.9,13s0-5.5,0-5.4c1.8,0,3.2-1.4,3.2-3.2v-2.8c0-1.8-1.4-3.2-3.2-3.2h-14.5c-1.8,0-3.2,1.4-3.2,3.2v2.8c0,1.8,1.4,3.2,3.2,3.2,0,0,0,0,0,0v15.9l-6.5,4.7c-2.3,1.7-2.8,5-1,7.3.8,1.1,2,1.8,3.3,2h0ZM14.6,8.5h14.5v2.8s-14.5,0-14.5,0v-2.8ZM17.9,14.5h8v7.8l-8,5.8v-13.6ZM10,37.7L48.8,9.5c.7-.5,1.6-.5,2.3,0l38.8,28.2c.9.6,1.1,1.8.5,2.7s-1.8,1.1-2.7.5c0,0,0,0,0,0l-19.9-14.5c-.6-.4-1.3-.4-1.9,0l-19.9,14.5c-.9.6-2.1.4-2.7-.5-.6-.9-.4-2,.4-2.7l18.1-13.1c.7-.5.9-1.5.4-2.2,0-.1-.2-.3-.4-.4l-10.7-7.8c-.6-.4-1.3-.4-1.9,0L12.3,40.9c-.9.6-2.1.4-2.7-.5-.6-.9-.4-2,.4-2.7h0ZM88.8,84.4h-1.6v-35.7c0-.9-.7-1.6-1.6-1.6s-1.6.7-1.6,1.6v28.5h-5.5c0,0,0-17.5,0-17.6,0-6.3-5.1-11.3-11.3-11.3h-2.2c-6.3,0-11.3,5.1-11.3,11.3,0,0,0,17.6,0,17.6H15.9v-28.5c0-.9-.7-1.6-1.6-1.6s-1.6.7-1.6,1.6v35.7h-1.6c-2.8,0-5.2,2.3-5.2,5.2v3.6c0,.9.7,1.6,1.6,1.6h68.1c.9,0,1.6-.7,1.6-1.6s-.7-1.6-1.6-1.6H9.2v-2c0-1.1.9-2,2-2,20.6,0,57.3,0,77.6,0,1.1,0,2,.9,2,2v2h-8.6c-.9,0-1.6.7-1.6,1.6s.7,1.6,1.6,1.6h10.2c.9,0,1.6-.7,1.6-1.6v-3.6c0-2.8-2.3-5.2-5.2-5.2ZM84.1,80.4v4h-5.5v-4h5.5ZM56.9,84.4v-24.7c0-4.5,3.6-8.1,8.1-8.1h2.2c4.5,0,8.1,3.7,8.1,8.1v24.7h-18.5ZM15.9,80.4h37.7v4H15.9v-4Z"/>
 <path class="cls-1" d="M43.6,68.2c-.9,0-1.6.7-1.6,1.6s.7,1.6,1.6,1.6h2.9c1.8,0,3.2-1.4,3.2-3.2v-14.7c0-1.8-1.4-3.2-3.2-3.2h-23.3c-1.8,0-3.2,1.4-3.2,3.2v14.7c0,1.8,1.4,3.2,3.2,3.2h14c.9,0,1.6-.7,1.6-1.6s-.7-1.6-1.6-1.6h-14v-14.7h23.3v14.7h-2.9ZM61.3,66.2c-1,0-1.8.8-1.8,1.8,0,1,.8,1.8,1.8,1.8,1,0,1.8-.8,1.8-1.8,0-1-.8-1.8-1.8-1.8Z"/>
 <path class="cls-1" d="M30,58.1c.6-.6.6-1.6,0-2.3-.6-.6-1.6-.6-2.2,0l-1.7,1.7c-.6.6-.6,1.6,0,2.3.6.6,1.6.6,2.2,0l1.7-1.7ZM28.9,66.3c.4,0,.8-.2,1.1-.5l5.9-5.9c.6-.6.6-1.6,0-2.3-.6-.6-1.6-.6-2.2,0l-5.9,5.9c-.6.6-.6,1.7,0,2.3.3.3.7.4,1.1.5Z"/>
</svg>