<svg id="Layer_1" enable-background="new 0 0 500 500" viewBox="0 0 500 500" xmlns="http://www.w3.org/2000/svg" width="100" height="100" fill="#0b5bc9">
    <path fill="#0b5bc9" clip-rule="evenodd" d="m426.38 283.91c-3.577-7.67-8.423-14.052-14.178-18.596 5.755-4.549 10.601-10.941 14.178-18.601 3.582 7.67 8.433 14.052 14.188 18.601-5.756 4.544-10.606 10.926-14.188 18.596zm29.25-24.648c-11.753-3.825-20.968-18.81-22.917-37.295-.791-7.521-11.863-7.53-12.662 0-1.954 18.475-11.169 33.47-22.922 37.295-5.832 1.89-5.834 10.195 0 12.098 11.753 3.83 20.968 18.815 22.922 37.294.799 7.536 11.87 7.527 12.662 0 1.949-18.48 11.164-33.464 22.917-37.294 5.85-1.909 5.819-10.22 0-12.098zm-347.983-89.22c4.827 11.728 11.947 21.294 20.594 27.52-8.647 6.236-15.767 15.802-20.594 27.525-4.826-11.723-11.957-21.289-20.604-27.525 8.647-6.226 15.778-15.791 20.604-27.52zm-36.332 33.572c15.417 5.026 27.472 24.463 30.004 48.381.794 7.528 11.856 7.532 12.652 0 2.537-23.918 14.596-43.356 30.004-48.381 5.831-1.898 5.835-10.194 0-12.098-15.408-5.026-27.467-24.468-30.004-48.381-.34-3.228-3.072-5.692-6.324-5.692-3.256 0-5.988 2.464-6.328 5.692-2.537 23.914-14.596 43.356-30.004 48.381-5.853 1.909-5.831 10.209 0 12.098zm120.322-116.03c3.582 7.67 8.433 14.052 14.188 18.601-5.755 4.545-10.606 10.926-14.188 18.596-3.582-7.67-8.423-14.052-14.178-18.596 5.754-4.549 10.596-10.941 14.178-18.601zm-29.251 24.648c11.753 3.83 20.968 18.815 22.922 37.294.799 7.533 11.868 7.528 12.661 0 1.959-18.479 11.165-33.464 22.917-37.294 5.835-1.903 5.832-10.206 0-12.098-11.753-3.83-20.958-18.82-22.917-37.295-.793-7.522-11.863-7.527-12.661 0-1.954 18.475-11.169 33.465-22.922 37.295-5.832 1.892-5.834 10.192 0 12.098zm107.218 317.843h-17.473v-17.478h17.473zm1.56-30.209h-20.594c-6.163 0-11.17 5.006-11.17 11.165v20.604c0 6.154 5.006 11.17 11.17 11.17h20.594c6.158 0 11.165-5.016 11.165-11.17v-20.604c0-6.158-5.007-11.165-11.165-11.165zm-57.66-25.891h-17.478v-17.478h17.478zm1.56-30.204h-20.604c-6.149 0-11.165 5.001-11.165 11.165v20.594c0 6.163 5.016 11.174 11.165 11.174h20.604c6.163 0 11.169-5.011 11.169-11.174v-20.594c.001-6.163-5.006-11.165-11.169-11.165zm54.54 30.204h-17.473v-17.478h17.473zm1.56-30.204h-20.594c-6.163 0-11.17 5.001-11.17 11.165v20.594c0 6.163 5.006 11.174 11.17 11.174h20.594c6.158 0 11.165-5.011 11.165-11.174v-20.594c0-6.163-5.007-11.165-11.165-11.165zm-57.66 86.304h-17.478v-17.478h17.478zm1.56-30.209h-20.604c-6.149 0-11.165 5.006-11.165 11.165v20.604c0 6.154 5.016 11.17 11.165 11.17h20.604c6.163 0 11.169-5.016 11.169-11.17v-20.604c.001-6.158-5.006-11.165-11.169-11.165zm197.852 14.728v-24.759l-180.101-180.092-180.092 180.091v24.759h28.468l147.127-147.118c2.484-2.489 6.516-2.486 8.997 0l147.123 147.118h28.478zm-82.998-221.153h18.261v113.663l-18.261-18.271zm-31.093-42.014h-38.539c-5.142 0-18.033.919-29.649 4.277 7.101-15.359 17.26-21.143 34.806-21.143h94.979c2.027 11.884 10.863 18.086 19.277 18.086 8.428 0 17.264-6.202 19.291-18.086h14.183l.044 46.151h-14.227c-2.027-11.889-10.863-18.081-19.291-18.081-8.414 0-17.25 6.192-19.277 18.081h-46.068v-13.755c.001-8.56-6.964-15.53-15.529-15.53zm62.084 168.406v-126.392h2.858c4.788 0 8.729-3.742 8.977-8.52.661-12.787 13.272-12.762 13.925 0 .243 4.778 4.185 8.52 8.968 8.52h17.581c6.994 0 12.686-5.687 12.686-12.686v-46.238c0-6.994-5.692-12.686-12.686-12.686h-17.581c-4.783 0-8.725 3.742-8.968 8.52-.653 12.768-13.264 12.793-13.925 0-.248-4.778-4.19-8.52-8.977-8.52h-98.323c-34.68 0-45.694 22.183-51.896 43.871-1.654 5.77 4.961 10.414 9.823 6.921 9.011-6.465 30.213-8.467 36.916-8.467h38.539c1.546 0 2.8 1.254 2.8 2.8v20.118c0 3.524 2.853 6.367 6.362 6.367h9.201v82.663l-79.873-79.863c-2.484-2.484-6.518-2.484-8.997 0l-186.459 186.458c-1.196 1.196-1.866 2.809-1.866 4.496v33.766c0 3.514 2.848 6.363 6.362 6.363h37.474c1.687 0 3.31-.671 4.496-1.867l144.488-144.483 144.493 144.483c1.191 1.196 2.809 1.867 4.501 1.867h37.47c3.514 0 6.362-2.848 6.362-6.363v-33.766c0-1.687-.671-3.3-1.866-4.496z" fill-rule="evenodd"/>
</svg>