<svg xmlns="http://www.w3.org/2000/svg" version="1.1" xmlns:xlink="http://www.w3.org/1999/xlink" width="100" height="100" x="0" y="0" viewBox="0 0 512 512" style="enable-background:new 0 0 512 512" xml:space="preserve" class=""><g><path d="M385.64 186.77a87.19 87.19 0 0 0 23.83 3.3c48.27 0 87.53-39.27 87.53-87.53S457.73 15 409.47 15s-87.53 39.27-87.53 87.53c0 6.92.81 13.66 2.34 20.13H21c-2.11 0-4.06 1.11-5.14 2.91a5.958 5.958 0 0 0-.69 4.47l85.66 362.34a6 6 0 0 0 5.84 4.62h326.9c1.83 0 3.57-.84 4.71-2.28s1.56-3.32 1.13-5.1l-20.37-86.18H491a5.996 5.996 0 0 0 5.29-8.82zM409.47 27C451.12 27 485 60.88 485 102.53s-33.88 75.53-75.53 75.53-75.53-33.88-75.53-75.53S367.82 27 409.47 27zM37.52 172.45l55.44 104.14 41.08 173.79a6 6 0 0 0 5.84 4.62h145.28l-18.42 30H111.41zm326.02 230.99L372.9 443h-66.28l24.29-39.56zm-71 39.56h-147.9l-29.49-124.75 43.66 82.01a5.995 5.995 0 0 0 5.3 3.18h152.73zm133.44 42H280.83l18.42-30h81.23c1.83 0 3.57-.84 4.71-2.28s1.56-3.32 1.13-5.1l-10.45-44.18h30.82zM167.7 391.44 30.99 134.66h297.05c7.67 19.37 22.06 35.37 40.28 45.11l112.69 211.67zm162.47-226.42a5.995 5.995 0 0 0-5.3-3.18H85.74a5.996 5.996 0 0 0-5.29 8.82l101.38 190.43a5.995 5.995 0 0 0 5.3 3.18h239.14a5.996 5.996 0 0 0 5.29-8.82zM190.72 352.27l-95-178.43h130.43l-27.39 36.07c-2 2.64-1.49 6.4 1.15 8.41a5.998 5.998 0 0 0 8.4-1.15l32.9-43.32h39.68l-74.21 97.72c-2 2.64-1.49 6.4 1.15 8.41a5.998 5.998 0 0 0 8.4-1.15l79.73-104.98h25.3l95 178.43H190.72zm178.47-244.01c-2.34-2.34-2.34-6.14 0-8.49 2.34-2.34 6.14-2.34 8.49 0l18.79 18.79 44.8-44.8c2.34-2.34 6.14-2.34 8.48 0s2.34 6.14 0 8.48l-49.04 49.04a5.991 5.991 0 0 1-8.48 0z" fill="#0b5bc9" opacity="1" data-original="#000000"></path></g></svg>