<?xml version="1.0" encoding="UTF-8"?>
<svg id="Layer_1" xmlns="http://www.w3.org/2000/svg" viewBox="0 0 82.93 92.15" width="100" height="100"><defs><style>.cls-1{fill:#6895cf;}</style></defs><g id="Icons"><path class="cls-1" d="M34.4,23.06c-5.55-1.72-11.45,1.34-13.25,6.86-5.59,1.83-8.63,7.85-6.79,13.43,1.43,4.36,5.49,7.31,10.08,7.32h32.35c6.82-.01,12.33-5.55,12.32-12.37-.01-5.86-4.15-10.91-9.89-12.07-2.58-7.3-10.59-11.12-17.88-8.54-2.82,1-5.25,2.88-6.93,5.36ZM46.01,19.97c4.93,0,9.24,3.3,10.55,8.05.17.61.68,1.05,1.31,1.12,5.08.61,8.71,5.22,8.1,10.31-.56,4.65-4.49,8.15-9.17,8.17H24.44c-4.18-.02-7.56-3.42-7.54-7.6.01-3.51,2.43-6.54,5.85-7.34.57-.13,1.02-.58,1.15-1.15.93-4.06,4.98-6.6,9.04-5.67.5.12.99.28,1.46.5.74.34,1.61.05,2-.66,1.91-3.52,5.6-5.71,9.61-5.72Z"/><path class="cls-1" d="M43.07.47c-.98-.62-2.23-.62-3.21,0C28.67,6.98,15.97,10.43,3.03,10.48c-1.67.03-3.02,1.39-3.03,3.07v20.32c0,25.77,15.22,47.97,39.73,57.94,1.12.45,2.36.45,3.48,0,24.5-9.97,39.73-32.17,39.73-57.94V13.55c-.01-1.68-1.35-3.04-3.03-3.07-12.94-.05-25.64-3.5-36.83-10.01ZM79.86,33.87c0,24.49-14.49,45.61-37.81,55.1-.37.15-.79.15-1.16,0C17.56,79.48,3.07,58.36,3.07,33.87V13.56c20.7-.38,34.64-8.12,38.37-10.48,11.66,6.8,24.9,10.41,38.4,10.48h.01v20.31Z"/><path class="cls-1" d="M73.97,16.33c-10.84-.87-21.4-3.88-31.06-8.88-.9-.48-1.98-.48-2.88,0-9.66,4.99-20.22,8.01-31.06,8.88-1.6.12-2.83,1.45-2.82,3.05v14.49c0,22.42,13.05,42.14,34.06,51.47.81.36,1.73.36,2.53,0,21-9.33,34.06-29.05,34.06-51.47v-14.49c0-1.6-1.23-2.93-2.82-3.05ZM73.72,33.87c0,21.19-12.35,39.83-32.23,48.66h-.04c-19.88-8.83-32.23-27.47-32.23-48.66v-14.48c11.26-.9,22.22-4.04,32.25-9.22,10.03,5.18,20.99,8.32,32.25,9.21v14.49Z"/><path class="cls-1" d="M60.58,53.91c-.76-.38-1.68-.07-2.06.69,0,0,0,0,0,0l-1.54,3.07c-.38.76-.07,1.68.69,2.06.76.38,1.68.07,2.06-.69l1.54-3.07c.38-.76.07-1.68-.69-2.06,0,0,0,0,0,0Z"/><path class="cls-1" d="M51.37,53.91c-.76-.38-1.68-.07-2.06.69,0,0,0,0,0,0l-1.54,3.07c-.38.76-.07,1.68.69,2.06.76.38,1.68.07,2.06-.69l1.54-3.07c.38-.76.07-1.68-.69-2.06,0,0,0,0,0,0Z"/><path class="cls-1" d="M41.31,59.05l1.54-3.07c.38-.76.07-1.68-.69-2.06-.76-.38-1.68-.07-2.06.69h0l-1.54,3.07c-.38.76-.07,1.68.69,2.06.76.38,1.68.07,2.06-.69Z"/><path class="cls-1" d="M32.94,53.91c-.76-.38-1.68-.07-2.06.69h0s-1.54,3.07-1.54,3.07c-.38.76-.07,1.68.69,2.06.76.38,1.68.07,2.06-.69l1.54-3.07c.38-.76.07-1.68-.69-2.06,0,0,0,0,0,0Z"/><path class="cls-1" d="M23.72,53.91c-.76-.38-1.68-.07-2.06.69h0s-1.54,3.07-1.54,3.07c-.38.76-.07,1.68.69,2.06.76.38,1.68.07,2.06-.69l1.54-3.07c.38-.76.07-1.68-.69-2.06,0,0,0,0,0,0Z"/><path class="cls-1" d="M57.51,63.13c-.76-.38-1.68-.07-2.06.69,0,0,0,0,0,0l-1.54,3.07c-.38.76-.07,1.68.69,2.06.76.38,1.68.07,2.06-.69l1.54-3.07c.38-.76.07-1.68-.69-2.06,0,0,0,0,0,0Z"/><path class="cls-1" d="M48.29,63.13c-.76-.38-1.68-.07-2.06.69,0,0,0,0,0,0l-1.54,3.07c-.38.76-.07,1.68.69,2.06.76.38,1.68.07,2.06-.69l1.54-3.07c.38-.76.07-1.68-.69-2.06,0,0,0,0,0,0Z"/><path class="cls-1" d="M43.69,72.35c-.76-.38-1.68-.07-2.06.69h0s-1.54,3.07-1.54,3.07c-.38.76-.07,1.68.69,2.06.76.38,1.68.07,2.06-.69h0l1.54-3.07c.38-.76.07-1.68-.69-2.06,0,0,0,0,0,0Z"/><path class="cls-1" d="M39.08,63.13c-.76-.38-1.68-.07-2.06.69h0s-1.54,3.07-1.54,3.07c-.38.76-.07,1.68.69,2.06.76.38,1.68.07,2.06-.69l1.54-3.07c.38-.76.07-1.68-.69-2.06,0,0,0,0,0,0Z"/><path class="cls-1" d="M29.87,63.13c-.76-.38-1.68-.07-2.06.69h0s-1.54,3.07-1.54,3.07c-.38.76-.07,1.68.69,2.06.76.38,1.68.07,2.06-.69l1.54-3.07c.38-.76.07-1.68-.69-2.06,0,0,0,0,0,0Z"/></g></svg>