<?xml version="1.0" encoding="UTF-8"?>
<svg id="svg8"  viewBox="0 0 48 48"  width="100" height="100" fill="#6895cf" xmlns="http://www.w3.org/2000/svg" xmlns:svg="http://www.w3.org/2000/svg"><g id="g1312" transform="translate(-240 .001)"><path id="rect1203" d="m246.19922 2c-2.30601 0-4.19922 1.8782076-4.19922 4.1796875v18.6406245c0 2.30148 1.89321 4.179688 4.19922 4.179688h2.80078v5.146484a1.000105 1.000105 0 0 0 1.70703.707032l5.86328-5.853516h15.23047c2.30601 0 4.19922-1.878208 4.19922-4.179688v-18.6406245c0-2.3014799-1.89321-4.1796875-4.19922-4.1796875zm0 2h25.60156c1.23959 0 2.19922.9586534 2.19922 2.1796875v18.6406245c0 1.221033-.95963 2.179688-2.19922 2.179688h-15.64453a1.000105 1.000105 0 0 0 -.70703.292969l-4.44922 4.441406v-3.734375a1.000105 1.000105 0 0 0 -1-1h-3.80078c-1.23958 0-2.19922-.958655-2.19922-2.179688v-18.6406245c0-1.2210341.95964-2.1796875 2.19922-2.1796875z" font-variant-ligatures="normal" font-variant-position="normal" font-variant-caps="normal" font-variant-numeric="normal" font-variant-alternates="normal" font-variant-east-asian="normal" font-feature-settings="normal" font-variation-settings="normal" text-indent="0" text-align="start" text-decoration-line="none" text-decoration-style="solid" text-decoration-color="rgb(0,0,0)" text-transform="none" text-orientation="mixed" white-space="normal" shape-padding="0" shape-margin="0" inline-size="0" isolation="auto" mix-blend-mode="normal" solid-color="rgb(0,0,0)" solid-opacity="1" vector-effect="none"/><path id="path1241" d="m278.85352 16a1.000005 1.000005 0 0 0 -1 1 1.000005 1.000005 0 0 0 1 1h3.30273c1.04213 0 1.84375.800958 1.84375 1.826172v16.347656c0 1.025212-.80162 1.826172-1.84375 1.826172h-3.15625a1.000105 1.000105 0 0 0 -1 1v3.494141l-3.9668-4.181641a1.000105 1.000105 0 0 0 -.72461-.3125h-14.46484c-1.04213 0-1.84375-.80096-1.84375-1.826172v-3.466797a1.000005 1.000005 0 0 0 -1-1 1.000005 1.000005 0 0 0 -1 1v3.466797c0 2.105513 1.73506 3.826172 3.84375 3.826172h14.03516l5.39648 5.6875a1.000105 1.000105 0 0 0 1.72461-.6875v-5h2.15625c2.10869 0 3.84375-1.720659 3.84375-3.826172v-16.347656c0-2.105514-1.73506-3.826172-3.84375-3.826172z" font-variant-ligatures="normal" font-variant-position="normal" font-variant-caps="normal" font-variant-numeric="normal" font-variant-alternates="normal" font-variant-east-asian="normal" font-feature-settings="normal" font-variation-settings="normal" text-indent="0" text-align="start" text-decoration-line="none" text-decoration-style="solid" text-decoration-color="rgb(0,0,0)" text-transform="none" text-orientation="mixed" white-space="normal" shape-padding="0" shape-margin="0" inline-size="0" isolation="auto" mix-blend-mode="normal" solid-color="rgb(0,0,0)" solid-opacity="1" vector-effect="none"/><path id="path1250" d="m249.64062 128.45703v.87891c-1.46003.39285-2.3965 1.71668-2.49414 2.96484-.10972 1.10362.33281 2.18705 1.17579 2.91016 1.15994.97179 2.47761.84883 3.33598 1.5857.33591.28812.52978.77824.48828 1.19531-.0414.41699-.3342.87227-.72851 1.09961-.39429.22732-.97265.26574-1.39453.0918-.42193-.17396-.77235-.58776-.86914-.99609-.1266-.53783-.66538-.87107-1.20313-.74414-.53799.12745-.87046.66728-.74219 1.20508.44041 1.35475 1.36433 2.19339 2.43164 2.49023v.89453c0 .55228.44772 1 1 1s1-.44772 1-1v-.8789c1.46902-.35729 2.38054-1.72759 2.4961-2.96485.1098-1.10369-.33476-2.18707-1.17774-2.91015-.91361-.79925-2.38573-.84474-3.33398-1.58618-.33588-.28812-.52976-.77817-.48828-1.19531.0421-.41666.33275-.87257.72656-1.09961.39431-.22733.97265-.2638 1.39453-.0898.42191.17396.77235.58776.86914.9961.12749.53704.66598.86923 1.20313.74219.53704-.12749.86923-.66598.74219-1.20313-.45363-1.38484-1.23368-2.08287-2.43165-2.49219v-.89453c0-.55228-.44772-1-1.00002-.99979-.55231.00021-1.00003.44793-1.00003 1.00021z" transform="translate(0 -120)" font-variant-ligatures="normal" font-variant-position="normal" font-variant-caps="normal" font-variant-numeric="normal" font-variant-alternates="normal" font-variant-east-asian="normal" font-feature-settings="normal" font-variation-settings="normal" text-indent="0" text-align="start" text-decoration-line="none" text-decoration-style="solid" text-decoration-color="rgb(0,0,0)" text-transform="none" text-orientation="mixed" white-space="normal" shape-padding="0" shape-margin="0" inline-size="0" isolation="auto" mix-blend-mode="normal" solid-color="rgb(0,0,0)" solid-opacity="1" vector-effect="none"/><path id="path1273" d="m257.3418 8a1 1 0 0 0 -1 1 1 1 0 0 0 1 1h8.19531a1 1 0 0 0 1-1 1 1 0 0 0 -1-1z" font-variant-ligatures="normal" font-variant-position="normal" font-variant-caps="normal" font-variant-numeric="normal" font-variant-alternates="normal" font-variant-east-asian="normal" font-feature-settings="normal" font-variation-settings="normal" text-indent="0" text-align="start" text-decoration-line="none" text-decoration-style="solid" text-decoration-color="rgb(0,0,0)" text-transform="none" text-orientation="mixed" white-space="normal" shape-padding="0" shape-margin="0" inline-size="0" isolation="auto" mix-blend-mode="normal" solid-color="rgb(0,0,0)" solid-opacity="1" vector-effect="none"/><path id="path1277" d="m257.3418 14a1 1 0 0 0 -1 1 1 1 0 0 0 1 1h13.3164a1 1 0 0 0 1-1 1 1 0 0 0 -1-1z" font-variant-ligatures="normal" font-variant-position="normal" font-variant-caps="normal" font-variant-numeric="normal" font-variant-alternates="normal" font-variant-east-asian="normal" font-feature-settings="normal" font-variation-settings="normal" text-indent="0" text-align="start" text-decoration-line="none" text-decoration-style="solid" text-decoration-color="rgb(0,0,0)" text-transform="none" text-orientation="mixed" white-space="normal" shape-padding="0" shape-margin="0" inline-size="0" isolation="auto" mix-blend-mode="normal" solid-color="rgb(0,0,0)" solid-opacity="1" vector-effect="none"/><path id="path1279" d="m257.3418 20a1 1 0 0 0 -1 1 1 1 0 0 0 1 1h8.19531a1 1 0 0 0 1-1 1 1 0 0 0 -1-1z" font-variant-ligatures="normal" font-variant-position="normal" font-variant-caps="normal" font-variant-numeric="normal" font-variant-alternates="normal" font-variant-east-asian="normal" font-feature-settings="normal" font-variation-settings="normal" text-indent="0" text-align="start" text-decoration-line="none" text-decoration-style="solid" text-decoration-color="rgb(0,0,0)" text-transform="none" text-orientation="mixed" white-space="normal" shape-padding="0" shape-margin="0" inline-size="0" isolation="auto" mix-blend-mode="normal" solid-color="rgb(0,0,0)" solid-opacity="1" vector-effect="none"/></g></svg>
