<svg clip-rule="evenodd" fill-rule="evenodd" image-rendering="optimizeQuality" shape-rendering="geometricPrecision" text-rendering="geometricPrecision" viewBox="0 0 173.397 173.397" xmlns="http://www.w3.org/2000/svg" width="100" height="100" fill="#6895cf"><g id="Layer_x0020_1"><g id="_41144952"><path id="_41147664" d="m49.8792 106.842c-.9346 0-1.6934-.7584-1.6934-1.6932v-3.355c0-.9349.7584-1.6933 1.6933-1.6933.9352 0 1.6933.7584 1.6933 1.6933l.0003 3.3549c0 .9349-.7587 1.6933-1.6935 1.6933z"/><path id="_41147688" d="m59.0621 109.305c-.2857 0-.5788-.0742-.8433-.2294-.8113-.4657-1.0866-1.5028-.621-2.3142l1.6758-2.9034c.4692-.8078 1.5028-1.0865 2.3142-.6173.8116.4657 1.0865 1.5028.6209 2.3107l-1.6754 2.9033c-.3143.5433-.8858.8503-1.4712.8503z"/><path id="_41147928" d="m65.7895 116.025c-.5857 0-1.1537-.3033-1.4677-.8466-.4654-.8079-.1905-1.845.6209-2.3107l2.9034-1.6793c.8117-.4656 1.845-.1869 2.3142.621.466.8114.187 1.845-.6209 2.3142l-2.9033 1.6757c-.2679.1552-.5574.2257-.8466.2257z"/><path id="_41146680" d="m71.6034 125.211h-3.3548c-.9351 0-1.6937-.7584-1.6937-1.6934.0002-.9348.7585-1.6932 1.6933-1.6932h3.3552c.935 0 1.6931.7584 1.6931 1.6932.0003.9349-.7585 1.6934-1.6931 1.6934z"/><path id="_41146584" d="m68.6895 136.073c-.2857 0-.5788-.074-.8434-.2292l-2.9031-1.6757c-.8116-.4657-1.0869-1.5029-.6212-2.3143.4692-.8078 1.5029-1.0866 2.3142-.6173l2.9036 1.6757c.8077.4692 1.0864 1.5028.6207 2.3142-.3139.5432-.8855.8466-1.4708.8466z"/><path id="_41146488" d="m60.7449 144.025c-.5858 0-1.1574-.307-1.4714-.8502l-1.6755-2.9034c-.4655-.8078-.1906-1.8451.6208-2.3107.808-.4692 1.845-.1905 2.3142.6174l1.6759 2.9033c.4656.8114.1903 1.8486-.6211 2.3142-.2679.1553-.5574.2294-.8429.2294z"/><path id="_41146824" d="m49.8792 146.932c-.9346 0-1.6934-.7549-1.6934-1.6933v-3.3514c0-.9348.7584-1.6933 1.6933-1.6933.9352-.0001 1.6933.7585 1.6933 1.6933l.0003 3.3514c0 .9384-.7587 1.6933-1.6935 1.6933z"/><path id="_41146632" d="m39.0171 144.025c-.2857 0-.5786-.0741-.8432-.2294-.8113-.4656-1.09-1.5027-.6209-2.3142l1.6761-2.9033c.4691-.8079 1.5025-1.0866 2.3139-.6174.8079.4656 1.0865 1.5029.6173 2.3107l-1.6755 2.9034c-.3139.5432-.8821.8502-1.4677.8502z"/><path id="_41146608" d="m31.0693 136.073c-.5858 0-1.1539-.3034-1.4679-.8466-.4656-.8114-.1905-1.845.6209-2.3142l2.9036-1.6757c.8112-.4693 1.8448-.1905 2.314.6173.4657.8114.187 1.8486-.6209 2.3143l-2.9031 1.6756c-.2683.1553-.5576.2293-.8466.2293z"/><path id="_41147088" d="m31.5103 125.211h-3.3517c-.9346 0-1.6934-.7584-1.6934-1.6934.0004-.9348.7585-1.6932 1.6933-1.6932h3.3518c.9346 0 1.693.7584 1.693 1.6932 0 .9349-.7585 1.6934-1.693 1.6934z"/><path id="_41146800" d="m33.9689 116.025c-.2858 0-.5786-.0705-.8432-.2257l-2.9033-1.6757c-.8112-.4692-1.0866-1.5028-.621-2.3142.4694-.8079 1.5029-1.0866 2.3143-.6209l2.9033 1.6792c.808.4657 1.0865 1.5028.6209 2.3107-.3137.5433-.8855.8466-1.471.8466z"/><path id="_41146896" d="m40.6963 109.305c-.5854 0-1.1536-.307-1.4676-.8503l-1.6756-2.9033c-.4691-.8079-.1906-1.845.6208-2.3107.8079-.4692 1.8451-.1905 2.3107.6173l1.6758 2.9034c.4691.8114.1904 1.8486-.6174 2.3142-.268.1552-.5575.2294-.8467.2294z"/><path id="_41147160" d="m42.3017 129.589c-.5858 0-1.1539-.3034-1.4678-.8467-.469-.8114-.1905-1.845.6209-2.3142l6.731-3.8877v-11.2994c0-.9349.7584-1.6933 1.6933-1.6933.9352 0 1.6933.7584 1.6933 1.6933l.0003 12.2766c0 .6034-.3213 1.1642-.8469 1.4677l-7.5776 4.3744c-.2679.1552-.561.2293-.8465.2293z"/><path id="_41146104" d="m49.8792 95.7157c-15.3281 0-27.799 12.4742-27.799 27.8023.0003 15.3283 12.4707 27.8025 27.7989 27.8025 15.3318 0 27.8024-12.4742 27.8024-27.8025 0-15.3282-12.4707-27.8023-27.8023-27.8023zm0 58.9915c-17.1942 0-31.1856-13.9912-31.1856-31.1892 0-17.1979 13.9911-31.189 31.1855-31.189 17.1979 0 31.1891 13.9911 31.1891 31.189.0002 17.198-13.9912 31.1892-31.189 31.1892z"/><path id="_41145960" d="m49.8792 86.1624c-20.595 0-37.3522 16.757-37.3522 37.3556.0003 20.5953 16.7569 37.3522 37.3521 37.3522 20.5987 0 37.3556-16.7569 37.3556-37.3522.0004-20.5987-16.7569-37.3556-37.3555-37.3556zm0 78.0944c-22.4647 0-40.7389-18.2738-40.7389-40.7388.0001-22.4649 18.2739-40.7423 40.7388-40.7423 22.4652 0 40.7423 18.2775 40.7423 40.7423.0002 22.465-18.2774 40.7388-40.7422 40.7388z"/><path id="_41146368" d="m46.655 30.8291c-4.2227 0-7.6627 3.4397-7.6627 7.6624.0002 4.2263 3.4397 7.666 7.6624 7.666 4.2266-.0001 7.6624-3.4396 7.6624-7.666 0-4.2227-3.4361-7.6623-7.6621-7.6624zm0 18.7114c-6.0924 0-11.0493-4.9565-11.0493-11.049.0003-6.0924 4.9565-11.0489 11.049-11.0489 6.0927-.0001 11.049 4.9565 11.049 11.0489.0003 6.0924-4.9565 11.0491-11.0487 11.049z"/><path id="_41146320" d="m41.0035 64.456h11.303v-6.717c0-.7019.4336-1.3334 1.0898-1.5839 1.8733-.7161 3.616-1.7215 5.1787-2.995.547-.4446 1.3089-.5045 1.9157-.1517l5.8247 3.3619 5.6515-9.7896-5.821-3.3619c-.6068-.3493-.9351-1.0407-.8257-1.7321.1554-.9878.2363-1.9932.2363-2.9952.0001-1.0018-.0811-2.0073-.2363-2.9915-.1093-.6951.2187-1.3829.8255-1.7321l5.8212-3.362-5.6515-9.7896-5.8245 3.362c-.6069.3527-1.369.2893-1.9159-.1517-1.5624-1.2736-3.3055-2.2789-5.1787-2.9951-.656-.2505-1.0901-.8819-1.0901-1.5839l.0003-6.7206h-11.303v6.7205c0 .7021-.4342 1.3336-1.0904 1.584-1.8731.7161-3.616 1.7216-5.1787 2.9951-.5433.4409-1.3054.5045-1.9156.1517l-5.8242-3.362-5.6515 9.7896 5.821 3.3619c.6064.3492.938 1.0372.8251 1.7322-.1552.9842-.2363 1.9897-.2363 2.9915.0001 1.0055.0811 2.0109.2363 2.9952.1131.6914-.2187 1.3829-.8254 1.7321l-5.8207 3.3619 5.6515 9.7896 5.8242-3.362c.6103-.3527 1.3722-.2927 1.9156.1518 1.5665 1.2735 3.3055 2.2789 5.1787 2.995.6562.2504 1.0901.8785 1.0901 1.5805zm12.9961 3.3867h-14.6896c-.935 0-1.6934-.755-1.6934-1.6933v-7.2814c-1.4391-.6385-2.8082-1.4287-4.0852-2.3601l-6.3074 3.6407c-.8116.4692-1.8453.1905-2.3145-.6173l-7.3446-12.7248c-.4691-.8079-.1907-1.845.6206-2.3142l6.308-3.6407c-.0849-.7831-.1273-1.5733-.1273-2.3601.0003-.7867.0423-1.5769.127-2.3565l-6.3076-3.6441c-.8112-.4658-1.0901-1.5029-.6209-2.3107l7.3451-12.7249c.2258-.388.5924-.6736 1.0262-.7901.4343-.1129.8961-.0529 1.2877.1693l6.3078 3.6442c1.2772-.9313 2.6457-1.7215 4.0851-2.3635v-7.2814c0-.9349.7584-1.6934 1.6933-1.6934h14.6897c.935 0 1.6933.7586 1.6933 1.6934l.0001 7.2813c1.4431.642 2.8115 1.4323 4.085 2.3637l6.3116-3.6443c.3877-.2222.8498-.2822 1.2838-.1693.4339.1164.8043.4021 1.0265.7902l7.3484 12.7247c.2223.388.2857.8502.1693 1.2841-.1161.4339-.4021.8044-.7902 1.0267l-6.3073 3.6441c.0809.7796.1231 1.5698.1231 2.3565.0003.7868-.0423 1.577-.1235 2.3602l6.3079 3.6406c.3882.2258.6736.5962.79 1.0302.1165.4338.053.896-.1693 1.284l-7.3481 12.7247c-.4659.8079-1.5031 1.0866-2.311.6174l-6.3111-3.6408c-1.2736.9314-2.6424 1.7217-4.0852 2.3637l.0001 7.2778c0 .9384-.7586 1.6934-1.6934 1.6934z"/><path id="_41146032" d="m143.493 154.277h-36.0541c-.9346 0-1.6934-.7585-1.6934-1.6933l.0003-24.0948c0-.9383.7582-1.6933 1.693-1.6933.9351-.0001 1.6934.755 1.6934 1.6933l.0002 22.4014h34.3606c.9346 0 1.693.7584 1.693 1.6934.0001.9348-.7585 1.6933-1.693 1.6933z"/><path id="_41145696" d="m118.66 154.277c-.935 0-1.6935-.7585-1.6935-1.6933l.0001-10.1177c0-.9349.7583-1.6933 1.6932-1.6933s1.6933.7584 1.6933 1.6933v10.1176c0 .9349-.7585 1.6934-1.6931 1.6934z"/><path id="_41145816" d="m128.408 154.277c-.9351 0-1.6936-.7585-1.6936-1.6933l.0001-13.4268c0-.9348.7584-1.6933 1.6932-1.6933.9349-.0001 1.6934.7585 1.6934 1.6933v13.4267c0 .9349-.7585 1.6934-1.6931 1.6934z"/><path id="_41146416" d="m138.159 154.277c-.935 0-1.6936-.7585-1.6936-1.6933l.0001-17.8224c0-.9348.7584-1.6933 1.6933-1.6933.9348 0 1.6932.7585 1.6932 1.6933l.0001 17.8223c0 .9349-.7586 1.6934-1.6931 1.6934z"/><path id="_41145768" d="m118.431 133.777c-.5857 0-1.1537-.3033-1.4677-.8466-.469-.8114-.1905-1.8485.6209-2.3142l17.8402-10.3011c.8077-.4657 1.8448-.1905 2.314.6209.4657.8078.187 1.845-.6209 2.3141l-17.8399 10.2977c-.2679.1552-.5574.2292-.8466.2292z"/><path id="_41145984" d="m134.394 130.475c-.1444 0-.2928-.0177-.4375-.0565-.9031-.2434-1.4393-1.1712-1.1994-2.0743l1.4393-5.3657-5.3657-1.4359c-.9029-.2434-1.4394-1.1712-1.1959-2.0743.2402-.9031 1.1677-1.4393 2.0743-1.1994l6.9991 1.8767c.4342.1164.8043.4022 1.0301.7903.2225.388.2822.8501.1658 1.284l-1.8729 7.0027c-.2048.7549-.8893 1.2524-1.6372 1.2524z"/><path id="_41145744" d="m65.3911 89.3657c-.9351 0-1.6937-.7585-1.6937-1.6934l.0002-29.8803c0-.9384.7583-1.6933 1.6931-1.6933.935 0 1.6933.7549 1.6933 1.6934l.0001 29.8802c0 .9348-.7585 1.6934-1.693 1.6934zm97.1724 74.8911h-112.684c-.9346 0-1.6934-.7549-1.6934-1.6932 0-.935.7584-1.6934 1.6933-1.6934h110.991v-110.483h-88.1698c-.9346 0-1.6933-.7585-1.6933-1.6933.0003-.935.7584-1.6933 1.6933-1.6933l89.8632-.0001c.9351 0 1.6932.7585 1.6932 1.6934l.0003 113.87c0 .9383-.7588 1.6932-1.6935 1.6932z"/><path id="_41145672" d="m144.893 50.3872c-.9351 0-1.6937-.7585-1.6937-1.6933l.0002-15.9739h-68.9185c-.9351 0-1.6937-.7583-1.6937-1.6932.0002-.9384.7585-1.6934 1.6933-1.6934h70.6124c.4512 0 .8816.1764 1.1991.494.3177.3174.4938.7478.4938 1.1994l.0001 17.6671c0 .9348-.7585 1.6934-1.693 1.6933zm-97.1729 35.8352c-.9346 0-1.6934-.7585-1.6934-1.6934v-18.3797c0-.9349.7585-1.6933 1.6933-1.6933.9352 0 1.6933.7585 1.6933 1.6934l.0003 18.3796c0 .9349-.7587 1.6934-1.6935 1.6934z"/><path id="_41145432" d="m150.245 82.5182h-67.6346c-.9346 0-1.6934-.7584-1.6934-1.6933.0003-.9349.7585-1.6933 1.6933-1.6933h67.6347c.9351 0 1.6932.7584 1.6932 1.6933.0003.9349-.7585 1.6933-1.6932 1.6933z"/><path id="_41145192" d="m150.245 92.2373h-67.6346c-.9346 0-1.6934-.7585-1.6934-1.6934.0003-.9348.7585-1.6933 1.6933-1.6933l67.6347-.0001c.9351 0 1.6932.7586 1.6932 1.6934.0003.9349-.7585 1.6934-1.6932 1.6934z"/><path id="_41145480" d="m150.245 101.953h-56.561c-.9346 0-1.6933-.7585-1.6933-1.6934.0002-.9348.7585-1.6933 1.6933-1.6933h56.561c.9351 0 1.6932.7585 1.6932 1.6933.0003.9349-.7585 1.6934-1.6932 1.6934z"/><path id="_41145624" d="m150.245 111.668h-56.561c-.9346 0-1.6933-.7585-1.6933-1.6934.0002-.9348.7585-1.6933 1.6933-1.6933h56.561c.9351 0 1.6932.7585 1.6932 1.6933.0003.9348-.7585 1.6934-1.6932 1.6934z"/><path id="_41145168" d="m123.01 61.8596h-18.0658c-.935 0-1.6935-.755-1.6935-1.6933.0001-.935.7584-1.6934 1.6933-1.6934h18.066c.9346 0 1.6931.7584 1.6931 1.6934.0003.9383-.7585 1.6933-1.6931 1.6933z"/><path id="_41145144" d="m133.735 69.5571h-39.5144c-.9351 0-1.6937-.7584-1.6937-1.6933.0002-.9348.7585-1.6932 1.6933-1.6932l39.5148-.0001c.9351 0 1.6932.7585 1.6932 1.6933.0003.9349-.7584 1.6934-1.6932 1.6933z"/></g></g></svg>