<svg id="icons" height="100" viewBox="0 0 48 48" width="100" fill="#fff" xmlns="http://www.w3.org/2000/svg"><path d="m16 33.93v1.07h-1v2h15v2h-15v2h1v4h16v-4h1v-2h-1v-2h1v-2h-1v-1.07a16.5 16.5 0 1 0 -16 0zm14 9.07h-12v-2h12zm-6-38a14.5 14.5 0 0 1 6.55 27.44l-.55.28v2.28h-5v-8h2a8 8 0 0 0 8-8v-1h-4a8 8 0 0 0 -6.43 3.29 8 8 0 0 0 -7.57-5.29h-3-1v1a8 8 0 0 0 8 8h2v10h-5v-2.28l-.55-.28a14.5 14.5 0 0 1 6.55-27.44zm1.08 20a6 6 0 0 1 5.92-5h2a6 6 0 0 1 -6 5zm-2.16-2h-1.92a6 6 0 0 1 -5.88-5h2a6 6 0 0 1 5.8 5z" /></svg>