<svg enable-background="new 0 0 512 512" viewBox="0 0 512 512" xmlns="http://www.w3.org/2000/svg" width="100" height="100" fill="#6895cf">
  <g id="_x31_6_Performance">
    <g>
    <path fill="#fff" d="m480.332 69.433-35.72-5.221c-1.668-.243-3.115-1.304-3.865-2.837l-15.978-32.56c-3.351-6.825-10.14-11.066-17.722-11.061-7.58 0-14.367 4.241-17.715 11.061l-15.978 32.565c-.75 1.528-2.197 2.589-3.86 2.832l-35.728 5.221c-7.473 1.09-13.574 6.245-15.923 13.446-2.361 7.235-.457 15.031 4.967 20.352l25.854 25.345c1.223 1.195 1.78 2.927 1.49 4.626l-6.102 35.792c-1.283 7.515 1.749 14.959 7.91 19.419 6.132 4.44 14.092 4.986 20.761 1.461l31.958-16.896c1.485-.79 3.256-.79 4.741 0l31.956 16.896c6.675 3.527 14.633 2.975 20.761-1.461 6.161-4.46 9.193-11.904 7.91-19.419l-6.102-35.792c-.29-1.699.267-3.432 1.49-4.626l25.852-25.345c5.423-5.321 7.327-13.117 4.969-20.347-2.349-7.207-8.453-12.362-15.926-13.451zm.719 23.355-25.852 25.345c-4.643 4.555-6.761 11.104-5.664 17.525l6.102 35.792c.495 2.908-1.285 4.55-2.073 5.121-.771.557-2.82 1.713-5.352.376l-31.953-16.896c-5.766-3.041-12.649-3.051-18.415 0l-31.956 16.896c-2.532 1.328-4.583.176-5.352-.376-.788-.571-2.568-2.213-2.073-5.121l6.102-35.792c1.097-6.421-1.021-12.97-5.664-17.525l-25.854-25.345c-2.092-2.047-1.609-4.441-1.304-5.374.3-.919 1.302-3.098 4.136-3.513l35.732-5.221c6.44-.947 11.996-5.007 14.869-10.861l15.978-32.565c1.278-2.599 3.636-2.88 4.591-2.88.954-.005 3.315.281 4.593 2.884l15.978 32.555c2.872 5.859 8.429 9.919 14.874 10.866l35.725 5.221c2.837.414 3.839 2.594 4.138 3.513.305.934.786 3.323-1.306 5.375z"/>
    <path fill="#fff" d="m39.89 476.408h64.354c9.534 0 17.744-5.416 22.006-13.287 30.984 20.38 66.74 31.126 103.98 31.126h122.958c20.592 0 38.253-15.488 40.206-35.259 1.035-10.471-1.954-20.542-8.436-28.595h9.474c20.592 0 38.253-15.488 40.206-35.259 1.095-11.066-2.308-21.694-9.586-29.961 18.594-5.063 30.475-22.774 28.679-41.708-1.74-18.377-17.001-33.069-35.659-35.164 5.566-6.787 8.917-15.459 8.917-24.859 0-21.642-17.522-39.247-39.05-39.247l-108.073-.186c9.188-16.235 16.135-32.798 21.121-50.304 9.467-33.26-5.926-68.485-36.599-83.768-11.939-5.947-26.345.929-29.369 14.045-4.629 20.057-11.175 39.771-19.457 58.6-15.813 35.947-49.204 60.972-87.918 66.377-3.639-9.45-12.722-16.197-23.401-16.197h-64.353c-13.865 0-25.142 11.328-25.142 25.249v213.152c-.001 13.922 11.277 25.245 25.142 25.245zm90.586-233.028c43.376-6.335 80.717-34.559 98.47-74.911 8.65-19.662 15.488-40.256 20.319-61.203.901-3.899 5.136-5.979 8.605-4.241 24.376 12.142 36.594 40.185 29.052 66.677-5.742 20.181-14.291 39.043-26.132 57.672-3.087 4.867.416 11.222 6.159 11.233l120.978.209c13.477 0 24.44 11.047 24.44 24.626 0 13.393-10.818 24.431-24.119 24.602h-66.374c-4.038 0-7.311 3.275-7.311 7.311s3.272 7.311 7.311 7.311h91.612c13.227 0 24.512 9.743 25.69 22.18 1.42 14.972-10.285 27.077-24.324 27.077-34.711 0-37.92 0-96.945 0-4.038 0-7.311 3.275-7.311 7.311s3.272 7.311 7.311 7.311h78.19c13.908.175 25.466 12.239 23.991 27.153-1.223 12.38-12.494 22.075-25.656 22.075-27.513 0-52.506 0-75.201 0-4.038 0-7.311 3.275-7.311 7.311s3.272 7.311 7.311 7.311h35.616c13.883.175 25.471 12.205 23.998 27.158-1.223 12.38-12.494 22.075-25.656 22.075h-122.96c-35.892 0-70.301-10.799-99.753-31.27zm-101.107-5.369c0-5.859 4.719-10.628 10.521-10.628h64.354c5.802 0 10.521 4.769 10.521 10.628v213.152c0 5.859-4.719 10.623-10.521 10.623h-64.354c-5.802 0-10.521-4.764-10.521-10.623z"/>
  </g>
</g>
<g id="Layer_1"/>
</svg>