<svg id="Capa_1" enable-background="new 0 0 511.897 511.897" height="512" viewBox="0 0 511.897 511.897" width="512" xmlns="http://www.w3.org/2000/svg">
  <g>
  <g id="Layer_2_00000017476938438131308260000003637416059032889222_">
    <g id="Layer_1-2_00000032616720192549340150000005209808511419967888_">
      <g id="local_seo" fill="rgb(0,0,0)">
        <path fill="#6895cf" d="m511.421 497.523-77.583-202.97c-1.153-3.002-4.037-4.983-7.253-4.981h-91.192c28.275-48.796 53.915-105.826 53.915-152.361 0-73.65-59.705-133.354-133.354-133.354s-133.354 59.705-133.354 133.355c0 46.535 25.598 103.565 53.916 152.361h-91.236c-3.212.003-6.091 1.983-7.242 4.981l-77.551 202.969c-1.496 4.044.569 8.535 4.613 10.032.842.312 1.732.476 2.629.485h496.449c4.323-.061 7.778-3.615 7.717-7.938-.011-.881-.172-1.753-.474-2.579zm-213.486-5.002v-63.76c13.522-3.305 25.506-11.137 33.96-22.195 20.702.009 41.32-2.614 61.36-7.807h.128.117c19.604-4.743 37.817-14.03 53.169-27.112l16.905 44.22c-83.097 7.573-111.468 59.387-118.678 76.708zm-166.515-92.654c14.586-2.991 29.387-4.814 44.263-5.45 1.141 31.283 65.978 46.865 106.732 38.055v60.048h-171.89zm118.508-2.944c2.76 3.328 7.695 3.789 11.024 1.029.374-.31.719-.655 1.029-1.029 1.291-1.611 9.919-12.298 22.099-29.032 65.765 15.551 33.811 50.865-28.147 51.292-61.936-.469-93.859-35.752-28.147-51.302 12.212 16.745 20.841 27.411 22.142 29.042zm190.693-41.159c-12.075 12.161-27.098 20.981-43.602 25.598l-19.198-76.314h43.431zm-78.734-50.684 20.19 80.484c-15.029 3.278-30.344 5.064-45.724 5.333-.736-16.425-17.332-29.96-42.439-36.744 9.866-14.036 21.065-30.781 32.253-49.063zm-105.954-285.714c65.049.064 117.773 52.765 117.867 117.814 0 83.694-93.027 210.02-117.846 242.252-24.83-32.136-117.846-158.483-117.846-242.252.088-65.035 52.79-117.732 117.825-117.814zm-37.97 334.798c-15.595 2.97-29.476 11.764-38.823 24.595-14.773.46-29.492 2.004-44.039 4.618l17.673-78.297h32.925c11.231 18.302 22.441 35.058 32.285 49.084zm-127.35-49.084h46.268l-42.268 187.44h-75.61zm271.508 187.441c9.706-18.462 38.109-56.529 107.276-61.456l23.465 61.456z"/>
        <path fill="#6895cf" d="m263.708 224.426v-12.052c34.934-3.71 62.535-31.311 66.245-66.245 6.783-.448 19.465 2.709 19.796-7.754-.32-10.463-13.023-7.317-19.796-7.754-3.718-34.931-31.314-62.528-66.245-66.245-.437-6.783 2.72-19.465-7.754-19.806-10.463.331-7.317 13.044-7.754 19.806-34.934 3.71-62.535 31.311-66.245 66.245-6.794.448-19.476-2.72-19.806 7.754.32 10.463 13.044 7.306 19.806 7.754 3.702 34.938 31.307 62.543 66.245 66.245v12.052c.009 4.282 3.488 7.747 7.771 7.737 4.269-.009 7.728-3.468 7.737-7.737zm-66.128-78.298c6.655-.309 18.537 2.357 18.825-7.754-.288-10.111-12.18-7.466-18.825-7.754 3.541-26.325 24.251-47.031 50.577-50.566.309 6.655-2.368 18.526 7.754 18.814 10.122-.288 7.466-12.17 7.754-18.814 26.322 3.54 47.026 24.244 50.566 50.566-6.655.299-18.516-2.357-18.814 7.754.288 10.111 12.18 7.466 18.814 7.754-3.536 26.326-24.241 47.036-50.566 50.577-.299-6.655 2.357-18.537-7.754-18.825-10.111.288-7.466 12.18-7.754 18.825-26.313-3.554-47.002-24.261-50.534-50.577z"/>
      </g>
    </g>
  </g>
</g>
</svg>