<?xml version="1.0" encoding="iso-8859-1"?>
<!-- Generator: Adobe Illustrator 19.0.0, SVG Export Plug-In . SVG Version: 6.00 Build 0)  -->
<svg version="1.1" id="Capa_1" xmlns="http://www.w3.org/2000/svg" xmlns:xlink="http://www.w3.org/1999/xlink" x="0px" y="0px"
	 viewBox="0 0 512 512" style="enable-background:new 0 0 512 512;" xml:space="preserve">
<g>
	<g>
		<g>
			<path style="fill:#fff;" d="M511.963,477.045l-25.6-272.971c-0.271-2.879-1.979-5.429-4.542-6.767l-98.133-51.283
				c-0.182-0.095-0.393-0.075-0.58-0.156c-0.559-0.242-1.153-0.356-1.768-0.475c-0.592-0.116-1.152-0.251-1.752-0.241
				c-0.135,0.002-0.251-0.061-0.388-0.053c-0.484,0.03-0.89,0.254-1.347,0.361c-0.464,0.107-0.948,0.061-1.394,0.247l-30.379,12.629
				c-4.354,1.808-6.412,6.804-4.604,11.154c1.812,4.358,6.8,6.417,11.154,4.604l19.332-8.036l15.93,254.663l-123.358,44.928V288.478
				c0-4.713-3.821-8.533-8.533-8.533c-4.713,0-8.533,3.821-8.533,8.533v177.171l-123.358-44.928l15.93-254.663l19.332,8.036
				c4.358,1.812,9.35-0.246,11.154-4.604c1.808-4.35-0.25-9.346-4.604-11.154l-30.379-12.629c-0.444-0.184-0.926-0.139-1.388-0.245
				c-0.459-0.107-0.868-0.332-1.354-0.363c-0.136-0.007-0.252,0.056-0.387,0.055c-0.62-0.011-1.198,0.132-1.809,0.256
				c-0.572,0.117-1.127,0.219-1.651,0.443c-0.207,0.088-0.439,0.067-0.64,0.171l-98.133,51.283
				c-2.562,1.338-4.271,3.888-4.542,6.767l-25.6,272.971c-0.288,3.063,1.096,6.042,3.621,7.8c2.517,1.754,5.808,2.021,8.571,0.688
				l103.429-49.725l137.421,50.05c1.883,0.692,3.958,0.692,5.842,0l137.421-50.05l103.429,49.725
				c1.171,0.562,2.438,0.842,3.696,0.842c1.712,0,3.421-0.517,4.875-1.529C510.867,483.086,512.25,480.107,511.963,477.045z
				 M106.989,421.036l-88.552,42.575l23.758-253.325l80.611-42.128L106.989,421.036z M405.01,421.036l-15.817-252.878l80.611,42.128
				l23.758,253.325L405.01,421.036z"/>
			<path style="fill:#fff;" d="M180.812,146.641l67.858,113.725c1.542,2.583,4.325,4.162,7.329,4.162
				c3.004,0,5.787-1.579,7.329-4.162l68.042-114.05c3.275-6.083,5.467-11.237,6.892-16.229c2.037-7.129,3.071-14.533,3.071-22
				c0-11.171-2.271-22.008-6.754-32.221c-4.317-9.829-10.496-18.654-18.354-26.221c-7.833-7.546-16.958-13.471-27.113-17.608
				c-21-8.55-45.225-8.55-66.225,0c-10.154,4.137-19.279,10.063-27.108,17.608c-7.863,7.567-14.042,16.392-18.358,26.225
				c-4.483,10.208-6.754,21.046-6.754,32.217c0,7.467,1.033,14.871,3.071,22.004C175.162,135.078,177.354,140.232,180.812,146.641z
				 M193.046,82.732c3.417-7.783,8.321-14.779,14.571-20.796c6.267-6.037,13.571-10.779,21.704-14.092
				c8.45-3.442,17.425-5.183,26.679-5.183c9.254,0,18.229,1.742,26.679,5.183c8.133,3.312,15.438,8.054,21.708,14.092
				c6.246,6.017,11.15,13.012,14.567,20.792c3.525,8.033,5.313,16.563,5.313,25.358c0,5.883-0.812,11.708-2.412,17.313
				c-1.079,3.775-2.829,7.85-5.325,12.5L256,239.341l-60.346-101.117c-2.679-4.975-4.429-9.05-5.508-12.821
				c-1.6-5.608-2.412-11.433-2.412-17.317C187.733,99.291,189.521,90.761,193.046,82.732z"/>
			<path style="fill:#fff;" d="M256,153.62c23.525,0,42.667-19.142,42.667-42.667S279.525,68.286,256,68.286
				s-42.667,19.142-42.667,42.667S232.475,153.62,256,153.62z M256,85.353c14.117,0,25.6,11.483,25.6,25.6s-11.483,25.6-25.6,25.6
				c-14.117,0-25.6-11.483-25.6-25.6S241.883,85.353,256,85.353z"/>
		</g>
	</g>
</g>

</svg>
