<svg id="Layer_1" enable-background="new 0 0 512 512" height="512" viewBox="0 0 512 512" width="512" xmlns="http://www.w3.org/2000/svg">
  <path fill="#6895cf" d="m434.8 211.39c-8.51-1.67-19.46 2.87-24.66 20.62l-17.45 59.61c-4.44.46-9.18 2.5-13.73 6.75-5.16 4.81-10.34 9.46-15.36 13.96-32.77 29.39-63.73 57.15-64.6 112.26v.13 18.74c0 .1.01.2.02.3 0 .1-.02.2-.02.3v12.3h-2.58c-6.69 0-12.13 5.44-12.13 12.13v31.38c0 6.69 5.44 12.13 12.13 12.13h83.93c6.69 0 12.13-5.44 12.13-12.13v-31.38c0-6.69-5.44-12.13-12.13-12.13h-2.28l.09-6.92c.08-4.46 1.68-8.14 4.88-11.23l30.96-29.68c14.86-14.27 23.13-31.18 25.26-51.72l12.19-119c1.33-12.74-6-24.33-16.65-26.42zm-58.29 284.61h-76.22v-23.67h76.22zm59.06-259.84-12.19 118.99c-1.73 16.61-8.41 30.29-20.43 41.83l-30.97 29.7c-6.25 6.03-9.64 13.81-9.79 22.51l-.09 7.16h-47.1v-12.3c0-.1-.01-.2-.02-.3 0-.1.02-.2.02-.3v-18.67c.78-48.09 26.6-71.24 59.28-100.55 5.07-4.55 10.32-9.25 15.59-14.17 1.75-1.64 4.03-2.95 5.75-2.39.03.01.06.03.1.04.88.33 1.28 1.18 1.47 1.85.47 1.64.12 3.7-.9 5.82-.39.62-.87 1.25-1.44 1.89l-42.46 46.77c-2.97 3.27-2.72 8.32.54 11.29 3.27 2.97 8.32 2.72 11.29-.54l40.49-44.6c.89-.51 1.7-1.19 2.37-2.05 1.19-1.54 2.21-3.13 3.07-4.75 6.06-9.96 3.83-20.45-2.3-26.49-.01-.01-.03-.02-.04-.04l17.66-60.36c2.01-6.86 4.9-9.69 6.24-9.42 1.65.32 4.41 3.72 3.86 9.08zm-220.01 220.19h-2.58v-31.63c0-.04 0-.08 0-.13-.87-55.1-31.8-82.85-64.55-112.24-5.02-4.51-10.21-9.16-15.38-13.99-4.56-4.25-9.31-6.28-13.75-6.74l-17.45-59.61c-5.2-17.74-16.14-22.28-24.66-20.62-10.66 2.09-17.98 13.68-16.68 26.4l12.22 119c2.1 20.54 10.37 37.46 25.26 51.72l30.91 29.67c3.22 3.11 4.82 6.79 4.9 11.22l.09 6.95h-2.28c-6.69 0-12.13 5.44-12.13 12.13v31.38c0 6.69 5.44 12.13 12.13 12.13h83.93c6.69 0 12.13-5.44 12.13-12.13v-31.38c.03-6.69-5.42-12.13-12.11-12.13zm-65.76-7.2c-.15-8.68-3.53-16.45-9.8-22.5l-30.93-29.68c-12.04-11.54-18.72-25.21-20.42-41.82l-12.22-119c-.55-5.36 2.21-8.76 3.85-9.08 1.34-.27 4.23 2.56 6.24 9.42l17.66 60.36c-.01.01-.03.03-.05.04-6.55 6.45-8.64 17.98-.93 28.52.04.06.08.12.13.17.24.32.48.63.73.95.08.1.17.21.25.32.32.39.65.77.99 1.15l42.46 46.77c2.97 3.27 8.02 3.51 11.29.54s3.51-8.02.54-11.29l-42.46-46.76c-.03-.03-.06-.07-.08-.1-.21-.23-.4-.46-.58-.7-.11-.14-.22-.28-.32-.42-.08-.11-.16-.22-.23-.33-1.28-1.89-1.75-3.68-1.6-5.11.02-.16.04-.31.07-.47.01-.06.02-.11.04-.17.07-.26.15-.51.26-.73 0 0 0 0 0-.01.35-.73.91-1.28 1.57-1.53.02-.01.03-.01.05-.02 1.74-.61 4.06.71 5.83 2.37 5.28 4.92 10.53 9.64 15.61 14.19 32.66 29.3 58.46 52.45 59.24 100.53v31.57h-47.1zm61.91 46.85h-76.22v-23.67h76.22zm111.77-11.39c0 4.42-3.58 7.99-7.99 7.99h-.79c-4.42 0-7.99-3.58-7.99-7.99s3.58-7.99 7.99-7.99h.79c4.41 0 7.99 3.57 7.99 7.99zm-118.18 0c0 4.42-3.58 7.99-7.99 7.99h-.79c-4.42 0-7.99-3.58-7.99-7.99s3.58-7.99 7.99-7.99h.79c4.41 0 7.99 3.57 7.99 7.99zm88.41-195.61c1.22 4.45 4.97 7.62 9.56 8.07.37.04.74.05 1.11.05 4.16 0 7.94-2.31 9.83-6.1l10.39-20.79 19.42 12.81c3.87 2.55 8.79 2.43 12.54-.29 3.74-2.72 5.37-7.36 4.16-11.77l-21.59-80.63 8.8-2.04c5-1.15 9.18-4.2 11.78-8.59s3.26-9.53 1.85-14.48l-5.05-17.75c-.28-.98-.05-1.8.72-2.52l12.64-11.82c3.7-3.46 5.84-8.34 5.88-13.4.04-5.03-2-9.92-5.61-13.4l-13.21-12.81c-.77-.75-.98-1.57-.67-2.59l5.05-16.56c1.49-4.9.93-10.04-1.56-14.47-2.5-4.44-6.61-7.59-11.63-8.87l-17.86-4.47c-1-.25-1.6-.87-1.83-1.88l-3.91-16.86c-1.14-4.94-4.29-9.25-8.64-11.81-4.34-2.56-9.62-3.22-14.45-1.83l-17.71 5.02c-1.03.29-1.82.08-2.56-.71l-11.79-12.63c-3.42-3.67-8.26-5.81-13.28-5.87-.07 0-.14 0-.21 0-4.98 0-9.81 2.04-13.29 5.61l-12.89 13.24c-.71.74-1.52.94-2.51.64l-16.56-5.05c-4.92-1.5-10.08-.93-14.53 1.58-4.44 2.51-7.57 6.63-8.81 11.59l-4.51 17.86c-.26 1.02-.85 1.61-1.88 1.85l-16.86 3.91c-5 1.15-9.18 4.2-11.77 8.59-2.6 4.39-3.26 9.53-1.86 14.48l5.05 17.75c.28.98.05 1.8-.72 2.52l-12.64 11.82c-3.7 3.46-5.84 8.34-5.88 13.39-.04 5.03 2 9.92 5.61 13.4l13.21 12.81c.77.75.98 1.57.67 2.59l-5.05 16.56c-1.49 4.89-.93 10.02 1.56 14.45 2.5 4.45 6.61 7.6 11.63 8.89l8.93 2.24-21.5 80.19c-1.22 4.46.41 9.1 4.15 11.82 3.75 2.72 8.68 2.84 12.55.29l19.41-12.8 10.39 20.79c1.89 3.79 5.67 6.1 9.83 6.1.37 0 .74-.02 1.11-.05 4.59-.45 8.34-3.62 9.58-8.12l16.92-63.2 7.4 7.92c3.42 3.68 8.27 5.83 13.3 5.89h.21c4.98 0 9.81-2.04 13.29-5.61l7.49-7.7zm35.08-35.15c-2.62-1.75-5.86-2.29-8.9-1.5-3.05.8-5.62 2.87-7.08 5.73l-7.05 14.1-13.33-49.79 8.9 2.71c4.91 1.52 10.06.97 14.51-1.54 4.4-2.47 7.63-6.72 8.86-11.63l1.78-7.05 15.43 57.61zm-122.55 18.34-7.07-14.15c-1.43-2.81-4-4.88-7.05-5.68-3.04-.79-6.28-.25-8.87 1.47l-13.15 8.67 15.63-58.29 1.73 7.52c1.15 5 4.21 9.19 8.61 11.79s9.54 3.27 14.49 1.86l8.89-2.53zm51.73-49.38c-.67.69-1.46.78-1.86.78-.49-.01-1.19-.15-1.79-.8l-11.79-12.61c-2.93-3.17-6.66-5.11-10.68-5.72-.03-.01-.07-.01-.1-.02-.86-.13-1.73-.21-2.62-.21-1.72 0-3.48.24-5.23.74l-17.7 5.04c-.88.25-1.57 0-1.99-.24-.42-.25-.97-.73-1.17-1.62l-3.9-16.93c-1.64-6.86-6.68-11.99-13.51-13.72l-17.84-4.47c-.95-.25-1.43-.87-1.63-1.23-.24-.42-.46-1.11-.2-1.97l5.04-16.54c2.07-6.74.29-13.73-4.8-18.71l-13.25-12.85c-.62-.6-.75-1.3-.74-1.79 0-.41.11-1.2.81-1.85l12.64-11.81c5.18-4.83 7.12-11.78 5.18-18.58l-5.04-17.73c-.25-.88-.01-1.57.24-1.98.24-.41.72-.95 1.62-1.15l16.85-3.91c6.9-1.59 12.05-6.64 13.78-13.52l4.51-17.87c.22-.88.77-1.34 1.18-1.58.43-.24 1.12-.47 2-.2l16.58 5.05c6.79 2.05 13.77.23 18.64-4.83l12.84-13.21c.67-.69 1.5-.77 1.86-.78.49.01 1.19.15 1.78.78l.02.02 11.82 12.64c4.83 5.17 11.78 7.11 18.59 5.19l17.75-5.03c.87-.25 1.54-.01 1.96.23.42.25.96.73 1.17 1.63l3.91 16.86c1.59 6.89 6.63 12.03 13.5 13.77l17.84 4.47c.91.23 1.38.79 1.62 1.21s.46 1.11.2 1.98l-5.04 16.54c-2.07 6.74-.29 13.73 4.8 18.71l13.25 12.85c.62.6.75 1.3.74 1.79 0 .41-.11 1.2-.81 1.85l-12.64 11.81c-5.18 4.83-7.12 11.78-5.18 18.58l5.04 17.74c.25.88.01 1.56-.24 1.98-.24.41-.72.95-1.62 1.15l-16.85 3.91c-.06.01-.13.04-.19.05-.03.01-.06.01-.08.02-.03.01-.05.02-.08.02-6.72 1.68-11.73 6.67-13.43 13.42l-4.51 17.87c-.22.89-.78 1.36-1.2 1.6-.42.23-1.09.46-1.98.18l-16.58-5.05c-6.8-2.05-13.78-.23-18.64 4.83zm62.9-103.02c0-35.78-29.09-64.89-64.86-64.89-35.78 0-64.89 29.11-64.89 64.89s29.11 64.88 64.89 64.88c35.77 0 64.86-29.1 64.86-64.88zm-64.86 48.9c-26.96 0-48.9-21.94-48.9-48.9s21.94-48.9 48.9-48.9c26.95 0 48.87 21.94 48.87 48.9s-21.92 48.9-48.87 48.9zm36.58-60.71-34.89 34.92c-1.5 1.5-3.53 2.34-5.65 2.34-2.12 0-4.15-.84-5.65-2.34l-26.99-26.99c-3.12-3.12-3.12-8.18 0-11.3s8.18-3.12 11.3 0l21.33 21.33 29.24-29.27c3.12-3.12 8.18-3.13 11.3 0 3.13 3.12 3.14 8.19.01 11.31z"/>
</svg>