<?xml version="1.0" encoding="UTF-8"?>
<svg id="Layer_1" xmlns="http://www.w3.org/2000/svg" version="1.1" viewBox="0 0 512 512" width="60" height="60">
  <!-- Generator: Adobe Illustrator 29.4.0, SVG Export Plug-In . SVG Version: 2.1.0 Build 152)  -->
  <defs>
    <style>
      .st0 {
        fill-rule: evenodd;
      }

      .st0, .st1 {
        fill: #ffffff;
      }
    </style>
  </defs>
  <path class="st0" d="M57.3,190.2l-4.43-.58c-3.83-.5-6.54-4.01-6.06-7.84l18.12-144.42c.33-2.61,2.08-4.81,4.55-5.72l53.23-19.58c1.1-.4,2.29-.53,3.45-.36l333.1,48.98c2.86.42,5.17,2.55,5.82,5.37.12.53.18,422.19.18,422.19,0,3.46-2.52,6.41-5.94,6.94,0,0-34.42,5.29-35.11,5.19l-369.12-53.85c-3.75-.55-6.39-3.97-5.97-7.73l13.59-122.2-7.52-.99c-3.68-.48-6.35-3.75-6.09-7.46l8.21-117.95ZM77.97,46.23l-16.36,130.36,356.57,46.64v-126.95L77.97,46.23ZM418.19,237.4l-346.93-45.38-7.69,110.5,354.62,46.61v-111.74ZM451.2,80.95l-18.95,12.96v391.29l18.95-2.97V80.95ZM418.19,485.29v-121.97l-341.55-44.89-12.81,115.17,354.36,51.69ZM439.43,71.97L125.87,25.87l-25.64,9.43,323.29,47.56,15.91-10.88Z"/>
  <g>
    <path class="st1" d="M224.19,317.84l81.79-131h-45.49l29.11-58.22h-54.33l-24.26,101.89h35.66l-22.48,87.34Z"/>
    <path class="st1" d="M131.79,237.55l2.53,14.33,44.1-7.58-2.53-14.33-44.1,7.58Z"/>
    <path class="st1" d="M333.58,202.16l2.53,14.33,44.1-7.58-2.53-14.33-44.1,7.58Z"/>
    <path class="st1" d="M183.03,256.96l-38.3,21.83,7.28,12.61,38.3-21.83-7.28-12.61Z"/>
    <path class="st1" d="M367.28,167.67l-7.28-12.61-38.3,21.83,7.28,12.61,38.3-21.83Z"/>
    <path class="st1" d="M190.31,176.9l-38.3-21.83-7.28,12.61,38.3,21.83,7.28-12.61Z"/>
    <path class="st1" d="M367.28,278.79l-38.3-21.83-7.28,12.61,38.3,21.83,7.28-12.61Z"/>
    <path class="st1" d="M131.79,208.91l44.1,7.58,2.53-14.33-44.1-7.58-2.53,14.33Z"/>
    <path class="st1" d="M333.58,244.3l44.1,7.58,2.53-14.33-44.1-7.58-2.53,14.33Z"/>
  </g>
</svg>