<?xml version="1.0" encoding="UTF-8"?>
<svg xmlns="http://www.w3.org/2000/svg" version="1.1" viewBox="0 0 60 60" width="60" height="60">
  <defs>
    <style>
      .cls-1 {
        fill: #0b5bc9;
      }

      .cls-2 {
        fill: #fff;
      }
    </style>
  </defs>
  <!-- Generator: Adobe Illustrator 28.7.6, SVG Export Plug-In . SVG Version: 1.2.0 Build 188)  -->
  <g>
    <g id="Layer_1">
      <g id="Layer_1-2" data-name="Layer_1">
        <path class="cls-1" d="M1.8,26.4l6.8-5.4v-11.7c0-.8.6-1.4,1.4-1.4h7.3c.8,0,1.4.6,1.4,1.4v3.7l10.6-8.3c.5-.4,1.2-.4,1.7,0l27.4,21.7c.3.3.5.7.5,1.1v28.9c0,.8-.6,1.4-1.4,1.4H2.6c-.8,0-1.4-.6-1.4-1.4v-28.9c0-.4.2-.8.5-1.1h0ZM3.9,54.9h52.2v-4.5H20.9c-.8,0-1.4-.6-1.4-1.4s.6-1.4,1.4-1.4h35.2v-4.5h-31.6c-.8,0-1.4-.6-1.4-1.4s.6-1.4,1.4-1.4h31.6v-4.5h-27.9c-.8,0-1.4-.6-1.4-1.4s.6-1.4,1.4-1.4h27.9v-5.2L30.1,7.4l-12,9.5c-.6.5-1.5.4-1.9-.2-.2-.3-.3-.6-.3-.9v-5.1h-4.6v10.9c0,.4-.2.8-.5,1.1l-6.8,5.4v26.9h0Z"/>
      </g>
      <path class="cls-1" d="M1.3,16.2c0,.3.4.6.7.6h3.7v14c0,1.7,1.1,2.9,2.7,2.9h11.1c1.4,0,2.7-1.4,2.7-2.9v-14h3.7c.4,0,.9-.5.9-.9s0-.5-.3-.6L14.7,1c-.3-.3-.9-.5-1.1,0h0L1.5,15.1c-.3.3-.3.6-.1,1.1h0Z"/>
      <path class="cls-2" d="M13.2,16.3h0v-1.1c0-.5.4-.9.9-.9s.9.5.9.9v1.1h1c.4,0,.9.5.9.9s-.4.9-.9.9h-2.7c-.6,0-1,.5-1,1.1s.4,1.1,1,1.1h1.9c1.6,0,2.7,1.4,2.7,2.9s-1.1,2.9-2.7,2.9h0v1.1c0,.5-.4.9-.9.9s-.9-.5-.9-.9v-1.1h-1c-.4,0-.9-.5-.9-.9s.4-.9.9-.9h2.7c.6,0,1-.5,1-1.1s-.4-1.1-1-1.1h-1.9c-1.4,0-2.7-1.2-2.7-2.9s1.1-2.9,2.7-2.9Z"/>
    </g>
  </g>
</svg>