<svg xmlns="http://www.w3.org/2000/svg" version="1.1" xmlns:xlink="http://www.w3.org/1999/xlink" width="100" height="100" x="0" y="0" viewBox="0 0 64 64" style="enable-background:new 0 0 512 512" xml:space="preserve" class=""><g><path d="M54 1H40c-1.654 0-3 1.346-3 3v2c-2.206 0-4 1.794-4 4s1.794 4 4 4v5h8v-2c0-1.103.897-2 2-2s2 .897 2 2v2h5c1.654 0 3-1.346 3-3V4c0-1.654-1.346-3-3-3zm1 15c0 .551-.448 1-1 1h-3c0-2.206-1.794-4-4-4s-4 1.794-4 4h-4v-5h-2c-1.103 0-2-.897-2-2s.897-2 2-2h2V4c0-.551.448-1 1-1h14c.552 0 1 .449 1 1z" fill="#2c3043" opacity="1" data-original="#000000" class=""></path><path d="M37 21c-2.206 0-4 1.794-4 4h-4v-5h-2c-1.103 0-2-.897-2-2s.897-2 2-2h2V7h-2.681C15.667 7 7 15.667 7 26.319a19.248 19.248 0 0 0 7.086 14.952L18 44.474v2.711a2.996 2.996 0 0 0-2 2.816c0 1.383.945 2.539 2.22 2.884-.139.345-.22.72-.22 1.115 0 1.322.865 2.434 2.054 2.833C20.468 60.301 23.423 63 27 63s6.532-2.699 6.946-6.167A2.995 2.995 0 0 0 36 54c0-.395-.081-.77-.22-1.116A2.995 2.995 0 0 0 38 50a2.996 2.996 0 0 0-2-2.816v-2.711l3.914-3.203A19.244 19.244 0 0 0 47 26.319V25h-6c0-2.206-1.794-4-4-4zM26.319 9H27v5c-2.206 0-4 1.794-4 4s1.794 4 4 4v3h-4c0-2.206-1.794-4-4-4s-4 1.794-4 4H9.05c.676-8.936 8.163-16 17.269-16zM15.352 39.723A17.244 17.244 0 0 1 9.014 27H17v-2c0-1.103.897-2 2-2s2 .897 2 2v2h6v4c-2.206 0-4 1.794-4 4s1.794 4 4 4v8h-7v-3.474zM27 61a5.01 5.01 0 0 1-4.899-4h9.798A5.01 5.01 0 0 1 27 61zm6-6H21a1.001 1.001 0 0 1 0-2h12a1.001 1.001 0 0 1 0 2zm2-4H19a1.001 1.001 0 0 1 0-2h16a1.001 1.001 0 0 1 0 2zm3.648-11.277L34 43.526V47h-5V37h-2c-1.103 0-2-.897-2-2s.897-2 2-2h2v-6h6v-2c0-1.103.897-2 2-2s2 .897 2 2v2h5.986a17.244 17.244 0 0 1-6.338 12.723z" fill="#2c3043" opacity="1" data-original="#000000" class=""></path></g></svg>