<svg id="Layer_1" enable-background="new 0 0 512 512" viewBox="0 0 512 512" xmlns="http://www.w3.org/2000/svg" width="100" height="100" fill="#6895cf">
  <path fill="#fff" d="m458.82 252.16c1.06.83 2.36 1.27 3.69 1.27.24 0 .49-.01.73-.04 1.58-.19 3.02-1.01 4-2.26l28.48-36.46c2.04-2.61 1.58-6.38-1.03-8.42-18.75-14.65-164.61-128.62-215.77-168.58-12.73-9.94-29.95-10.09-42.86-.37l-67.31 50.72v-46.83c0-3.31-2.69-6-6-6h-76.15c-3.31 0-6 2.69-6 6v113.25l-63.21 47.63c-2.65 1.99-3.18 5.76-1.18 8.4l27.84 36.95c.96 1.27 2.38 2.11 3.96 2.33s3.17-.19 4.45-1.15l28.14-21.2v204.62h-23.11c-3.31 0-6 2.69-6 6v37.85c0 3.31 2.69 6 6 6h234.38 43.9c5.84 0 10.59-4.75 10.59-10.59v-1.24c2.4.34 4.83 1.07 6.81 2.5 7.33 5.29 13.75 9.33 23.97 9.33h54.48c10.67 0 19.35-8.68 19.35-19.35 0-3.22-.8-6.25-2.2-8.93 6.89-2.97 11.73-9.82 11.73-17.78 0-3.68-1.05-7.11-2.84-10.04 5.72-3.37 9.57-9.57 9.57-16.67 0-5.68-2.47-10.78-6.38-14.32 2.81-3.36 4.5-7.68 4.5-12.39 0-10.67-8.68-19.36-19.35-19.36h-14.6v-132.3zm-366.22-204.97h64.15v49.87l-64.15 48.34zm-42.58 188.23-20.62-27.37 213.89-161.17c8.5-6.41 19.86-6.31 28.25.24 48.07 37.55 179.78 140.46 211.04 164.89l-21.1 27-200.72-156.82c-1.08-.85-2.39-1.27-3.69-1.27-1.27 0-2.54.4-3.61 1.21zm13.47 208.61h217.8v25.85h-217.8zm159.45-12h-83.88v-158.82h83.88zm70.35 37.85v-92.37h41.07v3.92.03 88.41h-41.07zm160.08-87.49c0 4.06-3.3 7.36-7.35 7.36h-19.9c-3.31 0-6 2.69-6 6s2.69 6 6 6h19.9 1.88c4.06 0 7.35 3.3 7.35 7.35s-3.3 7.36-7.35 7.36h-21.78c-3.31 0-6 2.69-6 6s2.69 6 6 6h15.04c4.06 0 7.36 3.3 7.36 7.36s-3.3 7.36-7.36 7.36h-15.04c-3.31 0-6 2.69-6 6s2.69 6 6 6h5.51c4.06 0 7.35 3.3 7.35 7.36s-3.3 7.35-7.35 7.35h-54.48c-6.67 0-10.86-2.67-16.95-7.06-3.8-2.74-8.44-4.35-13.83-4.86v-72.1c8.5-3.19 15.38-8.07 20.47-14.57 9.15-11.69 9.84-21.51 9.84-35.15v-18.71h8.39c10.24 0 18.58 8.33 18.58 18.58v33.03c0 3.31 2.69 6 6 6h36.38c4.04-.01 7.34 3.29 7.34 7.34zm-33.97-19.35h-3.77v-27.03c0-16.86-13.72-30.58-30.58-30.58h-8.54c-6.54 0-11.85 5.32-11.85 11.85v18.86c0 11.78-.34 18.88-7.29 27.76-2.99 3.82-6.8 6.83-11.48 9.12-1.32-4.34-5.36-7.5-10.13-7.5h-43.9c-5.84 0-10.59 4.75-10.59 10.59v55.93h-46.35v-164.83c0-3.31-2.69-6-6-6h-95.88c-3.31 0-6 2.69-6 6v164.82h-34.44v-213.67l164.4-123.88 162.4 126.88zm-105 74.71c-8.22 0-14.91 6.69-14.91 14.91s6.69 14.91 14.91 14.91 14.91-6.69 14.91-14.91-6.69-14.91-14.91-14.91zm0 17.82c-1.6 0-2.91-1.3-2.91-2.91 0-1.6 1.3-2.91 2.91-2.91s2.91 1.3 2.91 2.91c-.01 1.6-1.31 2.91-2.91 2.91zm-37.48-141.72-3.25 24c-.41 3.04.88 6.06 3.36 7.87 1.45 1.06 3.17 1.59 4.9 1.59 1.23 0 2.47-.27 3.62-.83l21.82-10.51 21.82 10.51c2.77 1.33 6.03 1.04 8.53-.77 2.48-1.81 3.77-4.82 3.36-7.87l-3.25-24 16.74-17.5c2.12-2.22 2.85-5.42 1.9-8.34s-3.42-5.08-6.44-5.62l-23.83-4.32-11.47-21.33c-1.46-2.71-4.27-4.39-7.34-4.39s-5.89 1.68-7.35 4.39l-11.47 21.33-23.82 4.32c-3.03.55-5.5 2.7-6.45 5.63-.95 2.92-.22 6.12 1.9 8.34zm16.62-24.5c1.8-.33 3.35-1.45 4.21-3.06l9.62-17.88 9.62 17.88c.87 1.61 2.42 2.74 4.21 3.06l19.98 3.62-14.03 14.67c-1.26 1.32-1.85 3.14-1.61 4.95l2.73 20.12-18.29-8.81c-1.65-.79-3.56-.79-5.21 0l-18.29 8.81 2.73-20.12c.25-1.81-.35-3.63-1.61-4.95l-14.03-14.67zm-129.79 83.28c8.71 0 15.8-7.09 15.8-15.79 0-8.71-7.09-15.8-15.8-15.8s-15.8 7.09-15.8 15.8c0 8.7 7.09 15.79 15.8 15.79zm0-19.59c2.09 0 3.8 1.7 3.8 3.8s-1.7 3.79-3.8 3.79-3.8-1.7-3.8-3.79 1.71-3.8 3.8-3.8z"/>
</svg>