<?xml version="1.0" encoding="UTF-8"?>
<svg id="Capa_1" xmlns="http://www.w3.org/2000/svg" version="1.1" viewBox="0 0 251.48 251.48" width="100" height="100">  
  <path fill="#0b5bc9" d="M207.18,135.3c-4.04,0-7.31,3.27-7.31,7.31v74.13H51.61v-74.13c0-4.03-3.27-7.31-7.31-7.31s-7.31,3.27-7.31,7.31v81.44c0,4.03,3.27,7.31,7.31,7.31h162.88c4.04,0,7.31-3.27,7.31-7.31v-81.44c0-4.03-3.27-7.31-7.31-7.31Z"/>
  <path fill="#0b5bc9" d="M246.07,137.44L130.9,22.27c-2.85-2.85-7.48-2.85-10.33,0L5.41,137.44c-2.85,2.85-2.85,7.48,0,10.33,1.43,1.43,3.3,2.14,5.17,2.14s3.74-.71,5.17-2.14L125.73,37.77l110.01,110c2.85,2.85,7.48,2.85,10.33,0,2.85-2.85,2.85-7.48,0-10.33Z"/>
  <path fill="#0b5bc9" d="M183.83,144.1c0-32.58-26.5-59.08-59.08-59.08s-59.08,26.5-59.08,59.08,26.5,59.08,59.08,59.08,59.08-26.5,59.08-59.08Z"/>
  <path fill="#ffffff" d="M82.75,136.35l7.09-6.59c.33-.31.78-.48,1.25-.48h1.77v-1.65c0-.44.19-.86.52-1.17l14.17-13.18c2.84-2.64,7.6-7.07,17.2-7.07s13.98,4.09,17.2,7.07c.51.47.66,1.18.38,1.8-.27.62-.92,1.02-1.64,1.02-14.29,0-15.94,5.64-15.94,9.88,0,3.53,2.15,6.21,3.52,7.58l-11.58,10.76c-3.13-1.97-7.58-4.3-9.66-4.12v2.26c0,.44-.19.86-.52,1.17l-8.86,8.24c-.33.31-.78.48-1.25.48h-.06c-.49-.01-.95-.22-1.27-.56l-12.4-13.18c-.62-.65-.58-1.64.08-2.25h0ZM164.59,167.29c1.73,1.6,2.68,3.74,2.68,6.2,0,4.69-4.1,8.5-9.14,8.5-2.57,0-5.03-1.01-6.76-2.78l-31.99-32.72,11.42-10.62,33.79,31.42Z"/>
</svg>