<svg xmlns="http://www.w3.org/2000/svg" version="1.1" xmlns:xlink="http://www.w3.org/1999/xlink" width="100" height="100" x="0" y="0" viewBox="0 0 682.667 682.667" style="enable-background:new 0 0 512 512" xml:space="preserve" class="">
  <g>
  <defs>
    <clipPath id="a" clipPathUnits="userSpaceOnUse">
      <path d="M0 512h512V0H0Z" fill="#fff" opacity="1" data-original="#000000">
      </path>
    </clipPath>
  </defs>
  <g clip-path="url(#a)" transform="matrix(1.33333 0 0 -1.33333 0 682.667)">
    <path d="m0 0 98.913 51.998c35.58 18.705 79.592 6.939 99.692-27.87l.291-.503L-10.67-108.093c-10.42-6.549-22.474-5.312-33.127.851l-115.167 66.626h-38.042" style="stroke-width:30;stroke-linecap:round;stroke-linejoin:round;stroke-miterlimit:22.926;stroke-dasharray:none;stroke-opacity:1" transform="translate(298.065 127.465)" fill="none" stroke="#fff" stroke-width="30" stroke-linecap="round" stroke-linejoin="round" stroke-miterlimit="22.926" stroke-dasharray="none" stroke-opacity="" data-original="#000000" opacity="1">
    </path>
    <path d="M0 0h93.001c7.969 0 15.362-2.59 21.382-6.969l61.895-35.735c41.819-24.143 5.319-87.363-36.5-63.219L82.753-73H57.5" style="stroke-width:30;stroke-linecap:round;stroke-linejoin:round;stroke-miterlimit:22.926;stroke-dasharray:none;stroke-opacity:1" transform="translate(108.537 219.648)" fill="none" stroke="#fff" stroke-width="30" stroke-linecap="round" stroke-linejoin="round" stroke-miterlimit="22.926" stroke-dasharray="none" stroke-opacity="" data-original="#000000" opacity="1">
    </path>
    <path d="M15.038 250.823h86.021V41.95H15.038Z" style="stroke-width:30;stroke-linecap:round;stroke-linejoin:round;stroke-miterlimit:22.926;stroke-dasharray:none;stroke-opacity:1" fill="none" stroke="#fff" stroke-width="30" stroke-linecap="round" stroke-linejoin="round" stroke-miterlimit="22.926" stroke-dasharray="none" stroke-opacity="" data-original="#000000" opacity="1">
    </path>
    <path d="M0 0c12.448-.335 19.956-16.084 31.984-19.307 10.174-2.726 22.539 7.802 31.516 2.292 10.613-6.514 9.241-23.907 18.047-32.713 7.447-7.447 23.419-4.512 28.438-13.772 5.934-10.949-3.951-25.324-.727-37.354C111.983-111.027 127.283-116.472 127-127c-.335-12.449-16.084-19.957-19.307-31.985-2.726-10.174 7.802-22.539 2.292-31.516-6.514-10.613-23.907-9.241-32.713-18.046-7.447-7.448-4.512-23.42-13.772-28.439-10.948-5.934-25.324 3.951-37.354.728C15.973-238.984 10.528-254.284 0-254.001c-12.449.335-19.956 16.084-31.985 19.307-10.174 2.726-22.538-7.802-31.516-2.292-10.612 6.514-9.24 23.907-18.046 32.713-7.448 7.447-23.42 4.512-28.438 13.772-5.935 10.949 3.95 25.324.727 37.354-2.725 10.173-18.026 15.618-17.743 26.147.335 12.448 16.084 19.956 19.308 31.984 2.725 10.174-7.802 22.539-2.292 31.516 6.513 10.613 23.906 9.241 32.712 18.046 7.448 7.448 4.512 23.42 13.772 28.439 10.949 5.934 25.324-3.951 37.354-.728C-15.974-15.017-10.529.283 0 0Z" style="stroke-width:30;stroke-linecap:round;stroke-linejoin:round;stroke-miterlimit:22.926;stroke-dasharray:none;stroke-opacity:1" transform="translate(356 496.998)" fill="none" stroke="#fff" stroke-width="30" stroke-linecap="round" stroke-linejoin="round" stroke-miterlimit="22.926" stroke-dasharray="none" stroke-opacity="" data-original="#000000" opacity="1">
    </path>
    <path d="m0 0-46-79.674" style="stroke-width:30;stroke-linecap:round;stroke-linejoin:round;stroke-miterlimit:22.926;stroke-dasharray:none;stroke-opacity:1" transform="translate(379 409.835)" fill="none" stroke="#fff" stroke-width="30" stroke-linecap="round" stroke-linejoin="round" stroke-miterlimit="22.926" stroke-dasharray="none" stroke-opacity="" data-original="#000000" opacity="1">
    </path>
    <path d="M0 0c7.175-4.142 9.633-13.316 5.49-20.49C1.349-27.665-7.825-30.123-15-25.981c-7.174 4.143-9.632 13.316-5.49 20.491C-16.348 1.684-7.174 4.142 0 0" style="fill-opacity:1;fill-rule:evenodd;stroke:none" transform="translate(327.368 420.49)" fill="#fff" data-original="#000000" opacity="1">
    </path>
    <path d="M0 0c7.174-4.142 9.632-13.316 5.49-20.491-4.142-7.174-13.316-9.632-20.49-5.49-7.175 4.143-9.633 13.316-5.49 20.49C-16.349 1.684-7.175 4.142 0 0" style="fill-opacity:1;fill-rule:evenodd;stroke:none" transform="translate(402.632 350.986)" fill="#fff" data-original="#000000" opacity="1">
    </path>
  </g>
</g>
</svg> 