<svg xmlns="http://www.w3.org/2000/svg" version="1.1" xmlns:xlink="http://www.w3.org/1999/xlink" width="100" height="100" x="0" y="0" viewBox="0 0 32 32" style="enable-background:new 0 0 512 512" xml:space="preserve" class=""><g><path d="M9.754 6.62a.9.9 0 0 0-1.273 0l-.689.688-.689-.688A.9.9 0 1 0 5.83 7.892l.689.689-.69.69a.898.898 0 0 0 .637 1.536.897.897 0 0 0 .637-.264l.689-.689.689.689a.897.897 0 0 0 1.274 0 .898.898 0 0 0 0-1.272l-.69-.69.689-.689a.9.9 0 0 0 0-1.272z" fill="#fff" opacity="1" data-original="#000000" class=""></path><path d="M14.483 12.373V4.79c0-1.599-1.302-2.9-2.9-2.9H4a2.903 2.903 0 0 0-2.9 2.9v7.583c0 1.599 1.302 2.9 2.9 2.9h7.583c1.599 0 2.9-1.301 2.9-2.9zm-11.583 0V4.79c0-.606.493-1.1 1.1-1.1h7.583c.606 0 1.1.494 1.1 1.1v7.583c0 .606-.493 1.1-1.1 1.1H4c-.606 0-1.1-.494-1.1-1.1zM23.248 10.768a.895.895 0 0 0 .667-.193l2.827-2.278a.9.9 0 1 0-1.129-1.401l-2.117 1.706-.549-.7a.9.9 0 1 0-1.416 1.111l1.111 1.417c.149.188.367.31.606.338z" fill="#fff" opacity="1" data-original="#000000" class=""></path><path d="M28 1.89h-7.58a2.903 2.903 0 0 0-2.9 2.9v4.23a.9.9 0 0 0 1.8 0V4.79c0-.606.493-1.1 1.1-1.1H28c.606 0 1.1.494 1.1 1.1v7.58c0 .606-.493 1.1-1.1 1.1h-3.69a.9.9 0 0 0 0 1.8H28c1.599 0 2.9-1.301 2.9-2.9V4.79c0-1.6-1.301-2.9-2.9-2.9z" fill="#fff" opacity="1" data-original="#000000" class=""></path><path d="m25.744 18.862-4.032-.494v-3.97c0-1.55-1.262-2.811-2.812-2.811s-2.812 1.261-2.812 2.811v5.907l-1.303-.807a2.752 2.752 0 0 0-3.634.658 2.763 2.763 0 0 0 .111 3.51l4.857 5.514c.52.591 1.27.93 2.057.93h6.104a2.753 2.753 0 0 0 2.634-1.982l1.503-5.223a3.185 3.185 0 0 0-2.673-4.043zm.944 3.545-1.503 5.223a.944.944 0 0 1-.903.68h-6.104a.936.936 0 0 1-.705-.319l-4.857-5.514a.96.96 0 0 1 .719-1.593.96.96 0 0 1 .505.144l2.677 1.657a.898.898 0 0 0 1.374-.765v-7.523a1.011 1.011 0 0 1 2.022 0v4.766c0 .455.34.838.791.894l4.823.591a1.382 1.382 0 0 1 1.161 1.759z" fill="#fff" opacity="1" data-original="#000000" class=""></path></g></svg> 