<svg xmlns="http://www.w3.org/2000/svg" version="1.1" xmlns:xlink="http://www.w3.org/1999/xlink" width="100" height="100" x="0" y="0" viewBox="0 0 512 512" style="enable-background:new 0 0 512 512" xml:space="preserve" class=""><g><path d="M511.844 231.773c-5.93-63.18-35.18-121.652-82.36-164.671C382.012 23.832 320.402 0 256 0S129.988 23.832 82.516 67.102c-47.18 43.02-76.43 101.492-82.36 164.671-.941 9.97 2.399 19.95 9.149 27.372a36.033 36.033 0 0 0 26.57 11.73h80.254c17.629 0 32.879-13.133 35.469-30.543 3.672-24.629 16.152-47.25 35.14-63.687C205.93 160.023 230.531 150.87 256 150.87c12.73 0 25.191 2.262 36.902 6.613l-41.472 25.54c-15.63 1.03-30.95 7.46-42.871 19.32-12.66 12.601-19.63 29.36-19.63 47.191 0 17.84 6.97 34.598 19.63 47.2 13.05 12.992 30.18 19.48 47.32 19.48 17.133 0 34.273-6.488 47.312-19.48 11.579-11.52 18.38-26.532 19.461-42.641l27.891-44.91c4.887 9.78 8.238 20.289 9.86 31.148 2.59 17.41 17.84 30.543 35.468 30.543h80.254a36.033 36.033 0 0 0 26.57-11.73c6.75-7.422 10.09-17.403 9.149-27.372zm-389.914 4.141c-.434 2.871-2.871 4.961-5.801 4.961H35.875a5.85 5.85 0 0 1-4.379-1.93c-.64-.703-1.68-2.203-1.469-4.37 4.59-48.942 25.078-94.712 58.22-130.852l64.722 64.441c-16.461 19.168-27.301 42.637-31.04 67.75zM241 121.704a135.741 135.741 0 0 0-66.07 25.98l-64.993-64.692c37.04-31.043 82.82-49.34 131.063-52.5zm14.879 164.53c-20.27 0-36.7-16.43-36.7-36.699 0-20.273 16.43-36.703 36.7-36.703 20.27 0 36.703 16.43 36.703 36.703 0 20.27-16.434 36.7-36.703 36.7zm89.691-125.921a.5.5 0 0 1-.07.109c0 .008-.008.008-.008.02-.012.011-.012.011-.012.019-.02.02-.027.05-.05.082l-.008.008c0 .012-.012.02-.012.031-.008.008-.02.008-.02.02 0 0 0 .011-.007.011a.27.27 0 0 1-.051.078c-1.11 1.801-7.02 11.309-32.941 53.063-5.192-8.102-12.032-15.05-20.48-20.434l53.702-33.07c-.023.023-.031.043-.043.063zm-22.199-21.59A135.16 135.16 0 0 0 271 121.69V30.492c48.21 3.16 93.953 21.438 130.992 52.43l-19.43 19.34zm157.133 100.222a5.85 5.85 0 0 1-4.379 1.93h-80.254c-2.93 0-5.367-2.09-5.8-4.96-2.958-19.872-10.41-38.852-21.68-55.481l35.34-56.91 19.96-19.872c33.184 36.149 53.684 81.942 58.282 130.922.21 2.168-.828 3.668-1.47 4.371zM412.133 345.625H99.867c-8.285 0-15 6.715-15 15s6.715 15 15 15h312.27c8.281 0 15-6.715 15-15s-6.719-15-15.004-15zM334.008 405.004H177.75c-8.285 0-15 6.715-15 15 0 8.281 6.715 15 15 15h156.258c8.281 0 15-6.719 15-15 0-8.285-6.715-15-15-15zm0 0" fill="#fff" opacity="1" data-original="#000000"></path></g></svg> 