<?xml version="1.0" encoding="UTF-8"?>
<svg id="Layer_1" xmlns="http://www.w3.org/2000/svg" version="1.1" viewBox="0 0 128 128" width="100" height="100" fill="#0b5bc9">  
  <path d="M113.32,19.47l-48.38-15.12c-.43-.13-.89-.13-1.32,0L15.23,19.47c-.93.29-1.57,1.16-1.57,2.14v38.32c.09,24.11,13.8,46.08,35.38,56.65l14.26,6.93c.61.3,1.33.3,1.94,0l14.26-6.93c21.58-10.58,35.29-32.54,35.38-56.65V21.61c0-.98-.64-1.85-1.58-2.14ZM110.43,59.93c-.08,22.4-12.82,42.8-32.86,52.63l-13.29,6.46-13.29-6.46c-20.04-9.83-32.78-30.23-32.86-52.63V23.26l46.16-14.42,46.16,14.42v36.68Z"/>
  <path d="M47.86,45.25v3.71c-3.68.07-6.63,3.09-6.63,6.78v20.93c0,3.75,3.03,6.79,6.77,6.79h32.55c3.74,0,6.76-3.04,6.77-6.79v-20.93c0-3.7-2.95-6.71-6.63-6.78v-3.71c.08-9.1-7.2-16.54-16.27-16.62-9.06-.08-16.48,7.23-16.56,16.33,0,.1,0,.19,0,.29h0ZM82.86,55.73v20.94c0,1.28-1.04,2.32-2.31,2.32h-32.55c-1.28,0-2.31-1.04-2.31-2.32v-20.93c0-1.28,1.04-2.32,2.31-2.32h32.55c1.28,0,2.31,1.04,2.31,2.32h0ZM76.23,45.25v3.69h-23.91v-3.69c-.07-6.63,5.23-12.06,11.83-12.13,6.6-.07,12.01,5.25,12.08,11.88,0,.08,0,.17,0,.25h0Z"/>
  <path d="M64,60.52c-1.92,0-3.47,1.54-3.48,3.46,0,1.24.66,2.39,1.73,3.01v2.54c0,.97.78,1.75,1.75,1.75s1.75-.78,1.75-1.75v-2.54c1.66-.96,2.22-3.08,1.26-4.74-.62-1.07-1.77-1.73-3.01-1.73Z"/>
</svg>