<?xml version="1.0" encoding="UTF-8"?>
<svg xmlns="http://www.w3.org/2000/svg" version="1.1" viewBox="0 0 100 100" width="100" height="100">
  <defs>
    <style>
      .cls-1 {
        fill: #0b5bc9;
      }
    </style>
  </defs>
  <!-- Generator: Adobe Illustrator 28.7.6, SVG Export Plug-In . SVG Version: 1.2.0 Build 188)  -->
  <g>
    <g id="Layer_1">
      <path class="cls-1" d="M35.8,50.9c-.5-.5-.5-1.2,0-1.7.5-.5,1.3-.5,1.9,0l6.9,6.4,12.7-11.8c.5-.5,1.3-.5,1.9,0,.5.5.5,1.2,0,1.7l-13.7,12.7c-.5.5-1.3.5-1.9,0,0,0,0,0,0,0l-7.8-7.2ZM99.5,90.7c0,1.4-.6,2.7-1.7,3.7l-3.2,3c-1.1,1-2.6,1.5-4,1.5s-2.9-.5-4-1.5l-14.7-13.6H15.7c-2.5,0-4.6-1.9-4.6-4.2v-37.4H3.4c-1.2,0-2.3-.7-2.8-1.8-.4-1.1-.1-2.3.8-3L46.6,1.3c.5-.4,1.2-.4,1.7,0l15.2,12.2v-7.4c0-.7.6-1.2,1.3-1.2h16c.7,0,1.3.5,1.3,1.2v22.3l11.3,9c.9.8,1.3,1.9.8,3s-1.5,1.8-2.8,1.8h-7.7v31.8l14,13c1.1,1,1.7,2.3,1.7,3.7ZM15.7,81.4h54c-.6-1.2-.7-2.6-.3-3.8l-6.7-6.2c-2.5,1.6-5.3,2.8-8.3,3.6-2.3.6-4.6.8-6.9.8-11.8,0-22.7-7.3-25.9-18.4-1.9-6.4-.9-13.1,2.7-18.8,3.6-5.7,9.4-9.9,16.3-11.6,6.9-1.7,14.1-.8,20.4,2.5,6.2,3.3,10.6,8.7,12.5,15.1,2.1,7.2.5,14.6-3.7,20.3l6.7,6.2c1.6-.5,3.4-.3,4.8.6v-30.8c0-.7.6-1.2,1.3-1.2h9c.1,0,.2,0,.3-.2s0-.2,0-.3l-11.7-9.4c-.3-.2-.5-.6-.5-.9V7.3h-13.4v8.8c0,.5-.3.9-.8,1.1s-1,.1-1.4-.2L47.5,3.8,3.2,39.2c-.1,0-.1.2,0,.3,0,.1.1.2.3.2h9c.7,0,1.3.5,1.3,1.2v38.6c0,1,.9,1.8,1.9,1.8ZM74,72.4s0,0,0,0l-6-5.5c-1,1.1-2.1,2.1-3.2,3l6,5.5s0,0,0,0l3.3-3ZM26.5,39.8c-3.2,5.2-4.1,11.2-2.4,17,3.5,11.9,16.7,19,29.6,15.8,12.9-3.2,20.6-15.5,17.1-27.4-1.7-5.8-5.7-10.6-11.3-13.6-5.6-3-12.1-3.8-18.4-2.2-6.2,1.5-11.5,5.3-14.7,10.4ZM96.9,90.7c0-.8-.3-1.5-.9-2l-15.8-14.6c-1.2-1.1-3.1-1.1-4.3,0l-3.2,3c-1.2,1.1-1.2,2.9,0,4l15.8,14.6c1.2,1.1,3.1,1.1,4.3,0l3.2-3c.6-.5.9-1.2.9-2ZM30.2,41.7c2.7-4.3,7-7.3,12.1-8.6,5.1-1.3,10.5-.6,15.1,1.8s7.9,6.5,9.3,11.2c1.4,4.8.7,9.7-2,14s-7,7.3-12.1,8.6c-1.7.4-3.4.6-5.2.6-8.8,0-16.9-5.5-19.3-13.7-1.4-4.8-.7-9.7,2-14ZM32.5,42.9c-2.3,3.7-2.9,8-1.7,12.2,2.1,7.2,9.1,11.9,16.7,11.9s3-.2,4.5-.5c4.5-1.1,8.2-3.8,10.5-7.5,2.3-3.7,2.9-8,1.7-12.2s-4.1-7.6-8.1-9.7c-2.7-1.4-5.6-2.2-8.6-2.2s-3,.2-4.5.6c-4.5,1.1-8.2,3.8-10.5,7.5Z"/>
    </g>
  </g>
</svg>