<svg clip-rule="evenodd" fill-rule="evenodd" stroke-linejoin="round" stroke-miterlimit="2" viewBox="0 0 510 510" xmlns="http://www.w3.org/2000/svg" width="100" height="100" fill="#0b5bc9" ><path d="m45.91 65.535c56.901-4.512 106.465-29.469 143.938-56.231 1.187-.848 2.609-1.304 4.068-1.304h122.168c1.459 0 2.881.456 4.068 1.304 37.473 26.762 87.037 51.719 143.938 56.231 3.64.288 6.447 3.326 6.447 6.978v182.204c0 60.594-30.542 116.441-72.785 160.127-41.93 43.361-95.308 74.679-140.939 86.917-1.188.319-2.439.319-3.627 0-45.616-12.238-98.994-43.556-140.927-86.917-42.247-43.685-72.796-99.533-72.796-160.127v-182.204c0-3.652 2.807-6.69 6.447-6.978zm7.553 13.36v175.822c0 56.981 29.132 109.314 68.86 150.395 39.487 40.832 89.525 70.607 132.677 82.631 43.166-12.024 93.203-41.799 132.687-82.631 39.725-41.081 68.85-93.414 68.85-150.395v-175.822c-56.042-5.922-105.056-30.353-142.684-56.895h-117.705c-37.63 26.542-86.643 50.973-142.685 56.895zm147.595-34.521c.075-.202.12-.312.12-.313.778-.48 1.613-.789 2.463-.939.263-.05.555-.083.88-.097.12-.006.242-.008.365-.008.179 0 1.154.001 2.779.001h97.507c1.392 0 2.752.414 3.906 1.191 36.7 24.681 77.504 43.307 120.824 51.853 3.678.725 5.631 2.83 5.645 6.913v4.204 147.538c0 37.436-15.172 74.473-38.895 107.136-35.095 48.321-88.893 87.052-139.509 103.329-1.394.448-2.893.448-4.286 0-50.617-16.278-104.414-55.019-139.509-103.342-23.723-32.663-38.895-69.699-38.895-107.123v-151.788c0-3.344 2.364-6.22 5.645-6.867 43.321-8.546 84.126-27.173 120.853-51.854zm220.489 64.252c-42.347-9.211-82.323-27.551-118.5-51.608-12.904 0-80.694 0-95.382 0h-.686c-36.201 24.058-76.179 42.397-118.526 51.608v146.091c0 34.585 14.299 68.71 36.223 98.896 32.842 45.222 82.874 81.682 130.324 97.538 47.45-15.855 97.482-52.306 130.325-97.526 21.923-30.184 36.222-64.312 36.222-98.908 0 0 0-118.491 0-146.091zm-200.842 17.93c40.976-11.812 86.978-2.035 119.862 29.66 39.741 38.305 48.194 96.934 24.77 143.862-1.726 3.457-5.933 4.863-9.39 3.137-3.456-1.725-4.862-5.932-3.137-9.389 20.765-41.601 13.271-93.574-21.958-127.53-28.664-27.627-68.571-36.466-104.431-26.801l4.379.589c3.829.515 6.519 4.042 6.004 7.871s-4.042 6.519-7.871 6.004l-30.621-4.12c-2.478-.333-4.591-1.964-5.541-4.277s-.595-4.958.933-6.937l18.879-24.459c2.361-3.058 6.76-3.625 9.818-1.264 3.059 2.361 3.625 6.76 1.265 9.818zm63.088 223.877-4.602-.635c-3.827-.527-6.506-4.063-5.978-7.89.527-3.827 4.063-6.506 7.89-5.979l30.607 4.22c2.478.342 4.585 1.979 5.528 4.295.943 2.317.578 4.96-.956 6.935l-18.958 24.397c-2.371 3.05-6.772 3.602-9.823 1.232-3.051-2.371-3.603-6.772-1.232-9.823l2.887-3.716c-40.941 11.75-86.877 1.96-119.723-29.7-39.741-38.304-48.194-96.934-24.77-143.862 1.726-3.457 5.933-4.862 9.39-3.137 3.456 1.725 4.862 5.933 3.137 9.389-20.765 41.601-13.271 93.574 21.958 127.53 28.721 27.682 68.73 36.501 104.645 26.744zm-42.608-103.757 48.643-39.207c8.68-6.997 21.408-5.63 28.405 3.051s5.63 21.409-3.051 28.406l-65.744 52.99c-4.399 3.546-10.083 5.088-15.672 4.25-5.588-.838-10.57-3.978-13.737-8.658l-23.937-35.38c-6.248-9.234-3.823-21.804 5.412-28.052 9.234-6.247 21.804-3.823 28.051 5.412zm-1.184 17.076c-.439-.001-.406-.011-.406-.011-1.796-.091-4.304-.792-6.186-3.574l-15.449-22.834c-1.918-2.835-5.776-3.579-8.611-1.661s-3.579 5.776-1.661 8.611l23.937 35.38c.972 1.437 2.501 2.401 4.217 2.658 1.715.257 3.46-.216 4.81-1.305l65.744-52.991c2.665-2.147 3.085-6.055.937-8.719-2.148-2.665-6.055-3.085-8.72-.937l-54.568 43.983c-.645.484-1.366.886-2.171 1.188 0 0-.756.216-1.873.212z"/></svg>