<svg xmlns="http://www.w3.org/2000/svg" version="1.1" xmlns:xlink="http://www.w3.org/1999/xlink" width="512" height="512" x="0" y="0" viewBox="0 0 505 505" style="enable-background:new 0 0 512 512" xml:space="preserve" class=""><g><path d="M76.503 142.269a7.5 7.5 0 0 0 7.5-7.5v-84.5h65v12.5c0 4.142 3.357 7.5 7.5 7.5s7.5-3.358 7.5-7.5v-20a7.5 7.5 0 0 0-7.5-7.5h-80a7.5 7.5 0 0 0-7.5 7.5v92a7.5 7.5 0 0 0 7.5 7.5zM431.5 241.269a7.5 7.5 0 0 0-7.5 7.5V490H274.38v-69.033c10.909-27.222 13.144-55.579 6.415-82.113-6.234-24.585-20.193-46.996-39.306-63.105-3.567-3.007-14.604-11.879-19.494-14.985a7.5 7.5 0 0 0-10.168 2.036l-4.992 7.144c-15.811-5.755-61.152-20.395-93.636-12.261a7.501 7.501 0 0 0-5.428 5.35c-6.239 23.489-5.368 48.074 2.518 71.099a7.5 7.5 0 0 0 14.191-4.86c-6.426-18.759-7.545-38.698-3.291-57.949 34.434-5.895 85.089 14.442 85.616 14.657a7.5 7.5 0 0 0 8.975-2.651l3.992-5.713c4.289 3.261 9.374 7.347 12.049 9.602 25.037 21.103 47.013 61.918 34.031 111.901-10.646-24.135-26.141-55.344-68.687-76.178a7.5 7.5 0 0 0-10.034 3.438 7.5 7.5 0 0 0 3.437 10.034c38.174 18.693 51.7 46.343 61.854 69.427-15.186-4.891-27.552-6.058-38.807-7.113-19.039-1.785-34.077-3.195-56.886-22.42-9.355-7.885-17.208-17.18-23.342-27.627a7.5 7.5 0 0 0-12.936 7.594c6.997 11.919 15.95 22.519 26.61 31.503 26.399 22.251 45.223 24.017 65.152 25.885 13.779 1.292 28.001 2.633 47.165 10.779V490H81V248.769c0-4.142-3.357-7.5-7.5-7.5s-7.5 3.358-7.5 7.5V497.5a7.5 7.5 0 0 0 7.5 7.5h358a7.5 7.5 0 0 0 7.5-7.5V248.769a7.5 7.5 0 0 0-7.5-7.5z" fill="#0b5bc9" opacity="1" data-original="#000000" class=""></path><path d="m502.411 214.104-100.443-87.026a7.498 7.498 0 0 0-10.579.757 7.5 7.5 0 0 0 .757 10.58L490 223.198v36.866L257.411 58.545a7.5 7.5 0 0 0-9.822 0L15 260.064v-36.866L252.5 17.424l119.021 103.122a7.5 7.5 0 0 0 10.579-.757 7.5 7.5 0 0 0-.757-10.58L257.411 1.832a7.5 7.5 0 0 0-9.822 0l-245 212.272A7.499 7.499 0 0 0 0 219.773v56.712a7.5 7.5 0 0 0 12.411 5.668L252.5 74.136l240.089 208.017A7.498 7.498 0 0 0 505 276.485v-56.712a7.499 7.499 0 0 0-2.589-5.669zM282.234 413.404a7.503 7.503 0 0 0 7.312 5.864c.542 0 1.093-.059 1.645-.183 7.07-1.582 13.422-2.177 19.564-2.753 16.185-1.517 31.473-2.95 52.953-21.056 29.202-24.615 41.73-64.39 31.918-101.333a7.501 7.501 0 0 0-6.666-5.552c-42.486-3.317-80.094 11.013-105.886 40.346a7.5 7.5 0 0 0 .68 10.585 7.499 7.499 0 0 0 10.584-.68c21.503-24.453 52.597-36.985 88.001-35.616 5.897 29.829-4.887 61.047-28.299 80.78-17.889 15.079-29.714 16.187-44.686 17.591-6.301.59-13.441 1.26-21.439 3.05a7.502 7.502 0 0 0-5.681 8.957z" fill="#0b5bc9" opacity="1" data-original="#000000" class=""></path><path d="M293.684 384.728a7.47 7.47 0 0 0 5.272-2.167c23.057-22.792 53.495-40.889 53.8-41.069a7.5 7.5 0 0 0-7.628-12.916c-1.308.772-32.309 19.188-56.717 43.318a7.5 7.5 0 0 0 5.273 12.834z" fill="#0b5bc9" opacity="1" data-original="#000000" class=""></path></g></svg>