<?xml version="1.0" encoding="UTF-8"?>
<svg xmlns="http://www.w3.org/2000/svg" id="Layer_2" data-name="Layer 2" viewBox="0 0 100 100"  width="100" height="100" fill="#6895cf">
<path fill="#0b5bc9" id="Home_Fence" data-name="Home Fence" d="M50,35.11A7,7,0,0,1,57,42a7.08,7.08,0,0,1-7,7,7,7,0,0,1-6.91-7A6.9,6.9,0,0,1,50,35.11ZM84.51,90.74V81.28a1.77,1.77,0,0,1,1.8-1.71A1.68,1.68,0,0,1,88,81.28v9.46a.92.92,0,0,0,.85.86h1.81a.92.92,0,0,0,.85-.86V72.13a1.11,1.11,0,0,0-.21-.64l-4.15-6.38a1.08,1.08,0,0,0-1.8,0l-4.15,6.38a1.19,1.19,0,0,0-.21.64V90.74a.92.92,0,0,0,.85.86h1.81a.84.84,0,0,0,.85-.86Zm-24.13,0V81.28a1.7,1.7,0,0,1,3.4,0v9.46a.92.92,0,0,0,.85.86h1.81a.84.84,0,0,0,.85-.86V72.13a1.12,1.12,0,0,0-.11-.64l-4.25-6.38a1,1,0,0,0-1.7,0L57,71.49a1.12,1.12,0,0,0-.11.64V90.74a.84.84,0,0,0,.85.86h1.81a.92.92,0,0,0,.85-.86Zm-24.13,0V80.43a1.76,1.76,0,0,1,3.51,0V90.74a.84.84,0,0,0,.85.86h1.7a.92.92,0,0,0,.85-.86V72.13c0-.22,0-.32-.11-.32a.41.41,0,0,0-.1-.32L38.8,65.11a1.09,1.09,0,0,0-1.81,0l-4.14,6.38a1.11,1.11,0,0,0-.21.64V90.74a.92.92,0,0,0,.85.86H35.4a.92.92,0,0,0,.85-.86Zm40.5-2.55h-5.1a.84.84,0,0,0-.85.85V91.6A3.46,3.46,0,0,1,69.73,94a3.36,3.36,0,0,1-2.44,1H56.87a3.33,3.33,0,0,1-2.44-1,3.46,3.46,0,0,1-1.07-2.44V89a.78.78,0,0,0-.85-.85h-5.1a.84.84,0,0,0-.85.85V91.6a3.28,3.28,0,0,1-3.4,3.4H32.64a3.29,3.29,0,0,1-3.41-3.4V89a.86.86,0,0,0-.95-.85h-5a.78.78,0,0,0-.85.85V91.6A3.45,3.45,0,0,1,21.37,94a3.37,3.37,0,0,1-2.45,1H8.51a3.2,3.2,0,0,1-2.45-1A3.49,3.49,0,0,1,5,91.6V72.13a4.28,4.28,0,0,1,.74-2.56l4.15-6.38a4.57,4.57,0,0,1,7.55,0l4.25,6.38a5.21,5.21,0,0,1,.74,2.56v1.59a.87.87,0,0,0,.85,1h5a1,1,0,0,0,.95-1V72.13A4.28,4.28,0,0,1,30,69.57l4.14-6.38a4.52,4.52,0,0,1,7.55,0l4.15,6.38c.32.43.42.86.63,1.17a5.52,5.52,0,0,1,.11,1.39v1.59a.94.94,0,0,0,.85,1h5.1a.87.87,0,0,0,.85-1V72.13a5.11,5.11,0,0,1,.75-2.56l4.25-6.38a4.52,4.52,0,0,1,7.55,0l4.14,6.38a4.28,4.28,0,0,1,.75,2.56v1.59a.93.93,0,0,0,.85,1h5.1a.94.94,0,0,0,.85-1V72.13a4.28,4.28,0,0,1,.74-2.56l4.15-6.38a4.51,4.51,0,0,1,7.54,0l4.15,6.38a4.28,4.28,0,0,1,.74,2.56V91.6a3.35,3.35,0,0,1-3.4,3.4H81a3.36,3.36,0,0,1-3.4-3.4V89a.84.84,0,0,0-.85-.85Zm-5.1-3.51h5.1a.91.91,0,0,0,.85-.85V78.94a.91.91,0,0,0-.85-.85h-5.1a.91.91,0,0,0-.85.85v4.89a.91.91,0,0,0,.85.85Zm-24.24,0h5.1a.84.84,0,0,0,.85-.85V78.94a.84.84,0,0,0-.85-.85h-5.1a.91.91,0,0,0-.85.85v4.89a.91.91,0,0,0,.85.85Zm-24.13,0h5a.93.93,0,0,0,.95-.85V78.94a.93.93,0,0,0-.95-.85h-5a.84.84,0,0,0-.85.85v4.89a.84.84,0,0,0,.85.85Zm-4.36,6.06V72.13a1.22,1.22,0,0,0-.1-.64l-4.25-6.38a1,1,0,0,0-1.7,0L8.61,71.49a1.22,1.22,0,0,0-.1.64V90.74a.84.84,0,0,0,.85.86H11a1,1,0,0,0,1-.86V81.28a1.7,1.7,0,0,1,3.4,0v9.46a.92.92,0,0,0,.85.86h1.91a.92.92,0,0,0,.85-.86ZM84.19,55.32a1.75,1.75,0,0,1-3.51,0V48.4a5,5,0,0,0-1.81-4L53.36,21.7a5,5,0,0,0-6.69,0L21.05,44.36a5.34,5.34,0,0,0-1.81,4v6.92a1.7,1.7,0,1,1-3.4,0V48.4a8.47,8.47,0,0,1,2.87-6.59L44.33,19A8.45,8.45,0,0,1,55.6,19L81.21,41.81a8.53,8.53,0,0,1,3,6.59Zm10.2-14.58a1.7,1.7,0,0,1-2.23,2.56L53.36,9.68a5.17,5.17,0,0,0-6.8,0l-14.88,13a1.72,1.72,0,0,1-2.87-1.38V16.6a.84.84,0,0,0-.85-.86H20.09a.84.84,0,0,0-.85.86V32.66A1.71,1.71,0,0,1,18.61,34L7.87,43.3a1.7,1.7,0,0,1-2.23-2.56l9.88-8.61a.91.91,0,0,0,.32-.64V15.74a3.45,3.45,0,0,1,3.4-3.51h9.57a3.45,3.45,0,0,1,3.4,3.51,1,1,0,0,0,1.49.64L44.33,7.13A8.1,8.1,0,0,1,50,5,8.56,8.56,0,0,1,55.7,7.13ZM50,38.51A3.51,3.51,0,1,0,53.47,42,3.55,3.55,0,0,0,50,38.51Z"/>
</svg>
