<svg id="Layer_1" viewBox="0 0 64 64" xmlns="http://www.w3.org/2000/svg" data-name="Layer 1" width="100" height="100" fill="#6895cf">
  <path fill="#0b5bc9" d="m3.9697266 33.9301758h4.5302734v25.9399414c0 .5522461.4477539 1 1 1h45.0097656c.5522461 0 1-.4477539 1-1v-25.9399414h4.5c.8208008 0 1.5463867-.4887695 1.8491211-1.2446289.3032227-.7568359.1152344-1.6123047-.4765625-2.1772461l-28.0048828-26.8344727c-.769043-.7285156-1.9760742-.7285156-2.7490234.0039062l-28.0302735 26.8398438c-.5810547.5717773-.7558594 1.4296875-.4462891 2.1855469.3051758.7456055 1.019043 1.2270508 1.8178711 1.2270508zm28.0283203-28.8081055 28.0239258 26.8071289s-.0039062.0009766-.012207.0009766h-5.5c-.5522461 0-1 .4477539-1 1v25.9399414h-43.0097657v-25.9399414c0-.5522461-.4477539-1-1-1l-5.5087891.0219727z"/>
  <path fill="#0b5bc9" d="m27.2602539 38.3706055h7.0268555l-6.4414062 6.2998047c-.3950195.3862305-.4018555 1.019043-.015625 1.4140625.1958008.2001953.4550781.3007812.7148438.3007812.2524414 0 .5048828-.0947266.6992188-.2851562l8.1948242-8.0146484c.2905273-.2841797.3803711-.7158203.2265625-1.0922852-.1533203-.3764648-.5195312-.6225586-.9257812-.6225586h-7.0268555l6.4414062-6.300293c.3950195-.3862305.4018555-1.019043.015625-1.4140625-.3867188-.3950195-1.0205078-.402832-1.4140625-.015625l-8.1948242 8.0151367c-.2905273.2841797-.3803711.7158203-.2265625 1.0922852.1533203.3764648.5195312.6225586.9257812.6225586z"/>
  <path fill="#0b5bc9" d="m32 52.0742188c8.1074219 0 14.7036133-6.5961914 14.7036133-14.7036133 0-8.1079102-6.5961914-14.7041016-14.7036133-14.7041016s-14.7036133 6.5961914-14.7036133 14.7041016c0 8.1074219 6.5961914 14.7036133 14.7036133 14.7036133zm0-27.4077148c7.0048828 0 12.7036133 5.6992188 12.7036133 12.7041016s-5.6987305 12.7036133-12.7036133 12.7036133-12.7036133-5.6987305-12.7036133-12.7036133 5.6987305-12.7041016 12.7036133-12.7041016z"/>
</svg>