<svg xmlns="http://www.w3.org/2000/svg" version="1.1" xmlns:xlink="http://www.w3.org/1999/xlink" width="100" height="100" x="0" y="0" viewBox="0 0 512 512" style="enable-background:new 0 0 512 512" xml:space="preserve" class="" fill="#fff">
  <path d="M237.335 100.884a8 8 0 0 1 8-8h91a70.749 70.749 0 0 1 70.669 70.669v31.91l27.741-35.178a8 8 0 0 1 12.564 9.908l-42.023 53.288a8 8 0 0 1-12.563 0L350.7 170.192a8 8 0 1 1 12.564-9.906l27.738 35.176v-31.909a54.73 54.73 0 0 0-54.669-54.669h-91a8 8 0 0 1-7.998-8zm7.42 288.4h-81.2a54.732 54.732 0 0 1-54.669-54.672v-74.591l27.74 35.177a8 8 0 0 0 12.564-9.908L107.166 232a8 8 0 0 0-12.566 0l-42.019 53.291a8 8 0 1 0 12.564 9.909l27.739-35.176v74.586a70.75 70.75 0 0 0 70.669 70.672h81.2a8 8 0 1 0 0-16zM512 322.146v121.236a8 8 0 0 1-4 6.928l-104.994 60.618a8 8 0 0 1-8 0L290.013 450.31a8 8 0 0 1-4-6.928V322.146a8 8 0 0 1 4-6.928L395.006 254.6a8 8 0 0 1 8 0L508 315.218a8 8 0 0 1 4 6.928zm-201.987 0 88.993 51.38L488 322.146l-88.994-51.381zm-8 116.617 88.993 51.381V387.382L302.013 336zm193.987 0V336l-88.994 51.381v102.763zM108.884 157.62v-5.279c9.367-1.476 17.558-5.556 22.66-11.455a25.1 25.1 0 0 0 5.887-19.978c-1.847-15.212-13.679-24.714-35.169-28.242C83.6 89.6 83.237 82.2 83.1 79.406c-.394-8.1 6.331-12.54 12.755-14a24.409 24.409 0 0 1 4.947-.593h.08c.056 0 .11-.007.166-.008 7.48-.056 15.258 3.366 18.854 11.931a8 8 0 0 0 14.752-6.193 34.5 34.5 0 0 0-25.772-20.934v-5.462a8 8 0 0 0-16 0v5.541c-.188.04-.379.075-.566.118-15.78 3.579-25.906 15.787-25.2 30.377.511 10.544 6.573 24.007 32.549 28.272 18.206 2.988 21.256 9.256 21.878 14.381a9.147 9.147 0 0 1-2.106 7.583c-3.273 3.785-10.173 6.346-17.578 6.521-8.478.211-19.346-3.307-21.981-13.874a8 8 0 1 0-15.525 3.872c3.3 13.223 14.272 22.655 28.526 25.276v5.406a8 8 0 0 0 16 0zm-8 44.148a100.884 100.884 0 1 1 100.885-100.884 101 101 0 0 1-100.885 100.884zm0-16A84.884 84.884 0 1 0 16 100.884a84.982 84.982 0 0 0 84.884 84.884z" opacity="1" data-original="#000000">
  </path>
</svg>