<svg xmlns="http://www.w3.org/2000/svg" version="1.1" xmlns:xlink="http://www.w3.org/1999/xlink" width="100" height="100" x="0" y="0" viewBox="0 0 512 512" style="enable-background:new 0 0 512 512" xml:space="preserve" class="" fill="#fff"><path d="m432.43 221.73-13.68-8.68c-5.21-3.29-6.97-9.88-4.08-15.35l7.45-14.2c4.52-8.61 4.33-18.35-.51-26.68-4.83-8.42-13.16-13.48-22.86-13.88l-16.18-.65c-6.14-.25-10.97-5.09-11.22-11.23l-.62-16.03c-.36-9.69-5.38-18.04-13.82-22.94-8.38-4.8-18.1-5-26.7-.54l-14.36 7.52c-5.44 2.86-12.02 1.09-15.31-4.14l-8.55-13.54c-5.16-8.19-13.68-12.91-23.4-12.95-9.71 0-18.24 4.69-23.43 12.88l-8.63 13.67c-3.31 5.21-9.91 6.97-15.35 4.1l-14.21-7.49c-8.56-4.5-18.3-4.31-26.75.53-8.38 4.86-13.42 13.2-13.81 22.85l-.68 16.16c-.25 6.16-5.08 10.98-11.23 11.22l-16.06.63c-9.69.4-18.02 5.43-22.86 13.81-4.87 8.39-5.07 18.13-.56 26.71l7.51 14.33c2.85 5.46 1.07 12.05-4.12 15.34l-13.58 8.56c-8.21 5.17-12.92 13.71-12.92 23.43 0 9.69 4.69 18.22 12.87 23.39l13.68 8.68c5.2 3.28 6.95 9.88 4.08 15.35l-7.44 14.17c-4.55 8.59-4.36 18.34.5 26.71 3.54 6.18 8.97 10.54 15.44 12.58-2.46 2.28-5.08 4.5-7.78 6.78-5.27 4.45-10.72 9.06-15.32 14.65-2.26 2.76-5.16 4.26-8.61 4.51-1.61-8.42-9.03-14.8-17.92-14.8H48.25c-10.05 0-18.23 8.18-18.23 18.23v118.32c0 10.07 8.18 18.26 18.23 18.26h33.14c8.9 0 16.33-6.41 17.93-14.85h2.71c1.62 0 2.84.22 4.37.8l13.54 5.07c3.29 1.24 6.47 1.82 10.01 1.82h92.52c13.04 0 23.64-10.62 23.64-23.67 0-4.5-1.26-8.7-3.45-12.29 5.82-4.31 9.6-11.23 9.6-19.01 0-5.45-1.86-10.48-4.97-14.49 4.34-4.29 7.04-10.24 7.04-16.81 0-.22-.02-.44-.03-.66 4.2 2.54 9.08 3.93 14.31 3.95 9.68 0 18.22-4.7 23.42-12.9l8.64-13.65c3.31-5.21 9.91-6.97 15.35-4.1l14.21 7.49c8.56 4.5 18.3 4.31 26.75-.53 8.38-4.86 13.42-13.2 13.81-22.85l.68-16.16c.25-6.16 5.08-10.98 11.23-11.22l16.06-.62c9.69-.4 18.02-5.43 22.86-13.81 4.87-8.39 5.07-18.13.56-26.71l-7.51-14.33c-2.85-5.46-1.07-12.05 4.12-15.34l13.59-8.57c8.2-5.19 12.9-13.73 12.9-23.42.02-9.71-4.67-18.24-12.85-23.41zM83.65 493.74c0 1.23-1.04 2.27-2.27 2.27H48.25c-1.21 0-2.24-1.04-2.24-2.27V375.42c0-1.21 1.03-2.24 2.24-2.24h33.14c1.23 0 2.27 1.02 2.27 2.24v118.32zm147.01-67.52h-13.83c-4.42 0-7.99 3.58-7.99 7.99s3.58 7.99 7.99 7.99h11.79c4.22 0 7.65 3.43 7.65 7.65s-3.43 7.65-7.65 7.65h-11.79c-4.42 0-7.99 3.58-7.99 7.99s3.58 7.99 7.99 7.99h5.64c4.22 0 7.65 3.43 7.65 7.65 0 4.24-3.43 7.68-7.65 7.68h-92.52c-1.62 0-2.89-.23-4.4-.8l-13.54-5.07c-3.29-1.24-6.47-1.82-9.99-1.82h-2.38V388c8.13-.37 15.42-4.01 20.63-10.36 3.67-4.47 8.34-8.41 13.29-12.58 6.5-5.49 13.76-11.63 19.44-19.97.56-.62 1.01-1.32 1.36-2.09 5.35-8.63 8.96-19.54 8.52-34.25-.01-.3-.04-.6-.08-.9-.75-5.19.89-8.28 2.73-8.96 1.73-.64 4.64.55 7.24 4.65 8.93 14.13 9.24 48.35.58 64.25-1.35 2.48-1.29 5.48.15 7.91s4.05 3.91 6.87 3.91H234c4.22 0 7.65 3.43 7.65 7.65s-3.43 7.65-7.65 7.65h-3.34c-.1 0-.19.01-.28.01-.1 0-.19-.01-.28-.01h-13.27c-4.42 0-7.99 3.58-7.99 7.99s3.58 7.99 7.99 7.99h13.27c.1 0 .19-.01.28-.01.1 0 .19.01.28.01 4.24 0 7.68 3.45 7.68 7.68 0 4.14-3.52 7.65-7.68 7.65zm193.2-171.2-13.58 8.56c-12.29 7.77-16.49 23.35-9.76 36.26l7.52 14.35c1.96 3.73 1.88 7.62-.24 11.28-2.11 3.65-5.45 5.67-9.66 5.85l-16.04.62c-14.55.56-25.98 11.97-26.59 26.53l-.68 16.17c-.17 4.21-2.2 7.56-5.82 9.66-3.68 2.11-7.6 2.19-11.32.23l-14.21-7.48c-12.88-6.78-28.48-2.62-36.3 9.69l-8.64 13.65c-2.27 3.58-5.7 5.47-9.89 5.47-4.24-.02-7.66-1.91-9.91-5.49l-2.77-4.39c1.08-2.71 1.68-5.66 1.68-8.75 0-13.04-10.61-23.64-23.64-23.64h-41.88c6.39-22.03 4.33-52.52-5.85-68.62-6.48-10.24-16.79-14.6-26.28-11.1-7.84 2.89-14.88 11.96-13.09 25.75.22 9.11-1.46 16.09-4.37 21.89l-3.46-.14c-4.21-.17-7.54-2.2-9.65-5.89-2.11-3.64-2.19-7.53-.21-11.27l7.46-14.2c6.78-12.92 2.61-28.52-9.68-36.29l-13.67-8.68c-3.56-2.25-5.44-5.67-5.44-9.88 0-4.23 1.88-7.66 5.45-9.91l13.58-8.56c12.29-7.77 16.49-23.35 9.76-36.26l-7.52-14.35c-1.96-3.73-1.88-7.62.24-11.28 2.11-3.65 5.45-5.67 9.66-5.85l16.04-.62c14.56-.56 25.99-11.97 26.59-26.53l.68-16.17c.17-4.21 2.2-7.56 5.82-9.66 3.68-2.11 7.6-2.19 11.32-.23l14.21 7.48c12.88 6.78 28.48 2.62 36.31-9.69l8.64-13.68c2.25-3.56 5.68-5.44 9.88-5.44 4.23.02 7.66 1.91 9.91 5.49l8.55 13.54c7.78 12.36 23.38 16.55 36.27 9.77l14.31-7.5c3.76-1.95 7.69-1.87 11.33.21 3.66 2.12 5.68 5.47 5.83 9.7l.62 16.07c.6 14.54 12.01 25.96 26.54 26.56l16.18.65c4.21.17 7.54 2.19 9.66 5.89 2.1 3.62 2.17 7.52.2 11.27l-7.45 14.19c-6.81 12.91-2.65 28.52 9.67 36.3l13.67 8.68c3.56 2.25 5.44 5.67 5.44 9.88.03 4.23-1.86 7.65-5.42 9.91zM268.59 151.94c-51.39 0-93.2 41.81-93.2 93.2s41.81 93.2 93.2 93.2c51.41 0 93.23-41.81 93.23-93.2s-41.83-93.2-93.23-93.2zm0 170.42c-42.58 0-77.22-34.64-77.22-77.22s34.64-77.22 77.22-77.22c42.59 0 77.24 34.64 77.24 77.22s-34.65 77.22-77.24 77.22zm31.89-57.83c0 12.76-10.28 23.51-24.15 26.55v9.45c0 4.42-3.58 7.99-7.99 7.99s-7.99-3.58-7.99-7.99v-9.44c-12.24-2.63-21.72-11.21-23.74-22.3a7.99 7.99 0 0 1 6.43-9.29c4.35-.79 8.51 2.09 9.29 6.43 1.02 5.62 8.05 10.02 16 10.02 8.76 0 16.16-5.23 16.16-11.42 0-6.18-7.4-11.4-16.16-11.4-.06 0-.13-.01-.19-.01-17.5-.21-31.67-12.4-31.67-27.37 0-12.76 10.27-23.51 24.12-26.55v-9.45c0-4.41 3.58-7.99 7.99-7.99s7.99 3.58 7.99 7.99v9.44c12.23 2.63 21.71 11.2 23.76 22.27.8 4.34-2.07 8.51-6.41 9.31s-8.51-2.07-9.31-6.41c-1.04-5.63-8.08-10.04-16.04-10.04-8.74 0-16.13 5.23-16.13 11.42 0 6.18 7.39 11.4 16.13 11.4.06 0 .13.01.19.01 17.54.21 31.72 12.41 31.72 27.38zm-39.89-229.6V8c0-4.42 3.58-7.99 7.99-7.99s7.99 3.58 7.99 7.99v26.93c0 4.42-3.58 7.99-7.99 7.99s-7.99-3.58-7.99-7.99zm106.19 24.14 13.49-23.3c2.21-3.82 7.1-5.12 10.92-2.91s5.12 7.1 2.91 10.92l-13.49 23.3a7.994 7.994 0 0 1-10.93 2.91c-3.81-2.21-5.12-7.1-2.9-10.92zm111.2 74.42-23.33 13.46a7.917 7.917 0 0 1-3.99 1.07c-2.76 0-5.45-1.43-6.93-4-2.21-3.82-.9-8.71 2.93-10.92l23.33-13.46c3.83-2.21 8.71-.9 10.92 2.93 2.2 3.83.89 8.72-2.93 10.92zM143.09 43.77c-2.21-3.82-.9-8.71 2.92-10.92 3.83-2.21 8.71-.9 10.92 2.92l13.46 23.3c2.21 3.82.9 8.71-2.92 10.92a7.943 7.943 0 0 1-3.99 1.07c-2.76 0-5.45-1.43-6.93-4zm-86.8 78.8c2.21-3.82 7.09-5.14 10.92-2.93l23.33 13.46c3.82 2.21 5.13 7.1 2.93 10.92-1.48 2.57-4.17 4-6.93 4a8.02 8.02 0 0 1-3.99-1.07l-23.33-13.46c-3.82-2.2-5.13-7.09-2.93-10.92z" opacity="1" data-original="#000000"></path></svg>