<?xml version="1.0" encoding="UTF-8"?>
<svg xmlns="http://www.w3.org/2000/svg" version="1.1" viewBox="0 0 100 100">
  <defs>
    <style>
      .cls-1 {
        fill: #6895cf;
      }
    </style>
  </defs>
  <!-- Generator: Adobe Illustrator 28.7.5, SVG Export Plug-In . SVG Version: 1.2.0 Build 176)  -->
  <g>
    <g id="Layer_1">
      <path class="cls-1" d="M51.3,53.6c-.2,0-.4,0-.6,0-1.9-.2-3.3-1.8-3.3-3.7,0-.9-.7-1.6-1.6-1.6s-1.6.7-1.6,1.6c0,3.2,2.1,5.9,5.2,6.8v1.6c0,.9.7,1.6,1.6,1.6s1.6-.7,1.6-1.6v-1.5c3.5-.7,5.9-4,5.5-7.6-.4-3.6-3.4-6.3-7-6.3-2.1,0-3.7-1.7-3.7-3.7s1.7-3.7,3.7-3.7,3.7,1.7,3.7,3.7.7,1.6,1.6,1.6,1.6-.7,1.6-1.6c0-3.3-2.3-6.2-5.6-6.9v-1.5c0-.9-.7-1.6-1.6-1.6s-1.6.7-1.6,1.6v1.6c-3.4.9-5.6,4.2-5.1,7.7s3.4,6.1,6.9,6.1c2,0,3.7,1.6,3.7,3.7,0,2-1.6,3.7-3.6,3.8Z"/>
      <path class="cls-1" d="M27.4,44.6c0,13.1,10.6,23.8,23.8,23.8s23.8-10.6,23.8-23.8-10.6-23.8-23.8-23.8c-13.1,0-23.8,10.7-23.8,23.8ZM51.2,24.1c11.3,0,20.5,9.2,20.5,20.5s-9.2,20.5-20.5,20.5-20.5-9.2-20.5-20.5c0-11.3,9.2-20.5,20.5-20.5Z"/>
      <path class="cls-1" d="M85.3,71.5l-13.4,6.1c-1.8-3.3-5.4-5.4-9.3-5.5l-12.4-.3c-2,0-3.9-.5-5.6-1.4l-1.3-.6c-6.4-3.2-14.1-3.2-20.6,0v-2.7c.1-.9-.6-1.7-1.6-1.7l-13.6-.4c-.9,0-1.7.7-1.8,1.6l-.8,28.5c0,.9.7,1.7,1.7,1.7l13.6.4h0c.9,0,1.7-.7,1.7-1.6v-1.4s3.6-1.8,3.6-1.8c1.4-.7,3-.9,4.5-.5l21,5.7s0,0,.1,0c1.5.3,3.1.5,4.6.5,3.3,0,6.5-.7,9.5-2,0,0,.1,0,.2-.1l30.5-18.9c.8-.5,1-1.4.6-2.2-2.3-3.9-7.3-5.3-11.4-3.3ZM8.5,93.5l.7-25.3,10.1.3-.7,25.3-10.1-.3ZM63.9,93.1c-3.7,1.6-7.9,2.1-11.9,1.3l-21-5.6c-2.4-.6-4.9-.4-7,.7l-1.8.9.5-16.8c5.7-3.6,13-4,19.1-1l1.3.6c2.2,1.1,4.6,1.7,7.1,1.8l12.4.3c3.5,0,6.4,2.5,7.1,5.7l-18.4-.5c-.9,0-1.7.7-1.8,1.6,0,.9.7,1.7,1.7,1.7l20.3.5h0c.9,0,1.7-.7,1.7-1.6,0-.7,0-1.4-.2-2.1l13.7-6.2s0,0,0,0c1.9-.9,4.3-.6,5.9.8l-28.8,17.9Z"/>
      <path class="cls-1" d="M52.8,17.2V1.6c0-.9-.7-1.6-1.6-1.6s-1.6.7-1.6,1.6v15.6c0,.9.7,1.6,1.6,1.6s1.6-.7,1.6-1.6Z"/>
      <path class="cls-1" d="M65.1,17.2v-7.4c0-.9-.7-1.6-1.6-1.6s-1.6.7-1.6,1.6v7.4c0,.9.7,1.6,1.6,1.6s1.6-.7,1.6-1.6Z"/>
      <path class="cls-1" d="M40.5,17.2v-7.4c0-.9-.7-1.6-1.6-1.6s-1.6.7-1.6,1.6v7.4c0,.9.7,1.6,1.6,1.6s1.6-.7,1.6-1.6Z"/>
    </g>
  </g>
</svg>