<?xml version="1.0" encoding="UTF-8"?>
<svg xmlns="http://www.w3.org/2000/svg" version="1.1" viewBox="0 0 100 100">
  <defs>
    <style>
      .cls-1 {
        fill: #6895cf;
        fill-rule: evenodd;
      }
    </style>
  </defs>
  <!-- Generator: Adobe Illustrator 28.7.5, SVG Export Plug-In . SVG Version: 1.2.0 Build 176)  -->
  <g>
    <g id="Layer_1">
      <path class="cls-1" d="M11.4,15c10.5-.8,19.7-5.4,26.6-10.4.2-.2.5-.2.8-.2h22.6c.3,0,.5,0,.8.2,6.9,4.9,16.1,9.6,26.6,10.4.7,0,1.2.6,1.2,1.3v33.7c0,11.2-5.6,21.5-13.4,29.6-7.7,8-17.6,13.8-26,16.1-.2,0-.5,0-.7,0-8.4-2.3-18.3-8-26-16.1-7.8-8.1-13.4-18.4-13.4-29.6V16.3c0-.7.5-1.2,1.2-1.3ZM12.8,17.5v32.5c0,10.5,5.4,20.2,12.7,27.8,7.3,7.5,16.5,13,24.5,15.3,8-2.2,17.2-7.7,24.5-15.3,7.3-7.6,12.7-17.3,12.7-27.8V17.5c-10.4-1.1-19.4-5.6-26.4-10.5h-21.7c-7,4.9-16,9.4-26.4,10.5ZM40,11.1s0,0,0,0c.1,0,.3-.1.5-.2,0,0,.1,0,.2,0,0,0,0,0,0,0,0,0,.2,0,.5,0h18c.3,0,.5,0,.7.2,6.8,4.6,14.3,8,22.3,9.6.7.1,1,.5,1,1.3v28c0,6.9-2.8,13.8-7.2,19.8-6.5,8.9-16.4,16.1-25.8,19.1-.3,0-.5,0-.8,0-9.4-3-19.3-10.2-25.8-19.1-4.4-6-7.2-12.9-7.2-19.8v-28c0-.6.4-1.1,1-1.3,8-1.6,15.5-5,22.3-9.6h0ZM80.8,23c-7.8-1.7-15.2-5.1-21.9-9.5h-17.7c-6.7,4.4-14.1,7.8-21.9,9.5v27c0,6.4,2.6,12.7,6.7,18.3,6.1,8.4,15.3,15.1,24.1,18,8.8-2.9,18-9.7,24.1-18,4.1-5.6,6.7-11.9,6.7-18.3v-27ZM43.7,26.3c7.6-2.2,16.1-.4,22.1,5.5,7.3,7.1,8.9,17.9,4.6,26.6-.3.6-1.1.9-1.7.6-.6-.3-.9-1.1-.6-1.7,3.8-7.7,2.5-17.3-4.1-23.6-5.3-5.1-12.7-6.7-19.3-5h.8c.7.2,1.2.9,1.1,1.6s-.7,1.2-1.5,1.1l-5.7-.8c-.5,0-.8-.4-1-.8s-.1-.9.2-1.3l3.5-4.5c.4-.6,1.2-.7,1.8-.2.6.4.7,1.2.2,1.8l-.5.7ZM55.3,67.6h-.9c-.7-.2-1.2-.9-1.1-1.6,0-.7.8-1.2,1.5-1.1l5.7.8c.5,0,.8.4,1,.8.2.4.1.9-.2,1.3l-3.5,4.5c-.4.6-1.3.7-1.8.2-.6-.4-.7-1.3-.2-1.8l.5-.7c-7.6,2.2-16.1.4-22.1-5.5-7.3-7.1-8.9-17.9-4.6-26.6.3-.6,1.1-.9,1.7-.6.6.3.9,1.1.6,1.7-3.8,7.7-2.5,17.3,4.1,23.6,5.3,5.1,12.7,6.7,19.3,4.9ZM47.4,48.5l9-7.2c1.6-1.3,4-1,5.2.6s1,4-.6,5.2l-12.1,9.8c-.8.7-1.9.9-2.9.8-1-.2-2-.7-2.5-1.6l-4.4-6.5c-1.2-1.7-.7-4,1-5.2,1.7-1.2,4-.7,5.2,1l2.1,3.2ZM47.2,51.6c0,0,0,0,0,0-.3,0-.8-.1-1.1-.7l-2.9-4.2c-.4-.5-1.1-.7-1.6-.3s-.7,1.1-.3,1.6l4.4,6.5c.2.3.5.4.8.5.3,0,.6,0,.9-.2l12.1-9.8c.5-.4.6-1.1.2-1.6-.4-.5-1.1-.6-1.6-.2l-10.1,8.1c-.1,0-.3.2-.4.2,0,0-.1,0-.3,0Z"/>
    </g>
  </g>
</svg>