<svg id="Layer_1" enable-background="new 0 0 80 80" viewBox="0 0 80 80" xmlns="http://www.w3.org/2000/svg" width="100" height="100" fill="#6895cf" ><g><g><path d="m39.283 17.931c-.212-.441-.649-.714-1.138-.714h-4.356l3.151-10.379c.154-.506-.078-1.044-.552-1.28-.473-.233-1.042-.094-1.351.334l-10.22 14.102c-.28.386-.32.89-.103 1.316s.649.69 1.126.69h4.86l-3.984 9.526c-.21.504-.019 1.07.452 1.345.173.101.362.149.548.149.319 0 .63-.143.84-.412l10.58-13.342c.303-.383.36-.895.147-1.335zm-8.376 8.593 1.971-4.712c.163-.391.121-.834-.114-1.187s-.628-.563-1.052-.563h-4.551l6.437-8.883-1.927 6.347c-.115.38-.043.799.195 1.118.237.32.616.511 1.015.511h3.87z"/><path d="m52.051 45.804c-.443-.766-1.235-1.223-2.12-1.223h-7.071c-2.167 0-4.108 1.12-5.191 2.997-1.021 1.768-1.067 3.857-.163 5.663l-4.544 2.624v-3.466c.006-.041-.001-.081 0-.123v-14.862c9.602-.508 17.263-8.456 17.263-18.182 0-10.053-8.179-18.232-18.232-18.232s-18.232 8.179-18.232 18.232c0 9.726 7.661 17.674 17.263 18.182v13.157l-4.53-2.616c.904-1.806.858-3.895-.163-5.664-1.083-1.877-3.024-2.997-5.191-2.997h-7.072c-.885 0-1.677.457-2.12 1.223-.442.766-.442 1.681 0 2.447l3.536 6.125c1.084 1.877 3.024 2.997 5.191 2.997 1.95 0 3.711-.913 4.834-2.462l5.514 3.184v8.254h-9.855c-.535 0-.969.433-.969.969s.435.969.97.969h21.648c.535 0 .969-.433.969-.969s-.434-.969-.969-.969h-9.855v-2.961l5.528-3.192c1.124 1.55 2.884 2.463 4.835 2.463 2.167 0 4.107-1.12 5.191-2.997l3.536-6.125c.442-.765.442-1.68-.001-2.446zm-31.376 4.346c-1.466 0-2.779-.759-3.513-2.028l-3.536-6.125c-.133-.23-.044-.433 0-.51s.175-.254.441-.254h7.072c1.466 0 2.78.758 3.513 2.028.671 1.162.72 2.529.163 3.726l-4.869-2.811c-.465-.268-1.056-.11-1.324.355-.267.464-.109 1.056.355 1.324l4.842 2.796c-.762.945-1.895 1.499-3.144 1.499zm-4.976-30.918c0-8.985 7.31-16.295 16.294-16.295s16.294 7.31 16.294 16.295-7.31 16.294-16.294 16.294-16.294-7.309-16.294-16.294zm34.674 28.05-3.536 6.125c-.733 1.27-2.046 2.028-3.513 2.028-1.248 0-2.382-.554-3.145-1.501l4.842-2.796c.464-.268.622-.86.355-1.324-.268-.465-.861-.623-1.324-.355l-4.869 2.811c-.557-1.197-.508-2.563.163-3.725.733-1.271 2.047-2.028 3.513-2.028h7.072c.266 0 .397.178.441.254.046.078.134.282.001.511z"/></g></g></svg>