<svg xviewBox="0 0 128 128" xmlns="http://www.w3.org/2000/svg" width="128" height="128" fill="#6895cf" ><g><path d="m102.811 29.159-38.017-11.83a1.756 1.756 0 0 0 -1.04 0l-38.016 11.83a1.751 1.751 0 0 0 -1.23 1.671v29.989a49.53 49.53 0 0 0 27.8 44.332l11.208 5.424a1.749 1.749 0 0 0 1.525 0l11.208-5.424a49.53 49.53 0 0 0 27.8-44.332v-29.989a1.751 1.751 0 0 0 -1.238-1.671zm-2.27 31.66a46.011 46.011 0 0 1 -25.821 41.181l-10.446 5.055-10.445-5.055a46.012 46.012 0 0 1 -25.821-41.181v-28.7l36.266-11.286 36.267 11.285z"/><path d="m51.38 49.33v2.9a5.319 5.319 0 0 0 -5.212 5.307v16.376a5.322 5.322 0 0 0 5.317 5.316h25.579a5.322 5.322 0 0 0 5.317-5.316v-16.378a5.318 5.318 0 0 0 -5.212-5.307v-2.9a12.895 12.895 0 1 0 -25.789 0zm27.5 8.2v16.383a1.818 1.818 0 0 1 -1.817 1.816h-25.578a1.818 1.818 0 0 1 -1.817-1.816v-16.378a1.819 1.819 0 0 1 1.817-1.817h25.579a1.819 1.819 0 0 1 1.817 1.817zm-5.212-8.2v2.888h-18.788v-2.888a9.395 9.395 0 1 1 18.789 0z"/><path d="m64 60.521a3.468 3.468 0 0 0 -1.75 6.469v2.539a1.75 1.75 0 0 0 3.5 0v-2.539a3.468 3.468 0 0 0 -1.75-6.469z"/></g></svg>