<svg id="Capa_1" enable-background="new 0 0 512 512" viewBox="0 0 512 512" xmlns="http://www.w3.org/2000/svg" width="100" height="100" fill="#6895cf" ><g><path d="m191.224 57.742c0-12.975-10.555-23.53-23.53-23.53s-23.53 10.556-23.53 23.53 10.556 23.53 23.53 23.53 23.53-10.555 23.53-23.53zm-23.529 8.53c-4.704 0-8.53-3.826-8.53-8.53s3.827-8.53 8.53-8.53 8.53 3.826 8.53 8.53-3.827 8.53-8.53 8.53z"/><path d="m226.565 34.212c-12.975 0-23.53 10.556-23.53 23.53s10.556 23.53 23.53 23.53 23.53-10.556 23.53-23.53-10.556-23.53-23.53-23.53zm0 32.06c-4.704 0-8.53-3.826-8.53-8.53s3.827-8.53 8.53-8.53 8.53 3.826 8.53 8.53-3.827 8.53-8.53 8.53z"/><path d="m285.434 34.212c-12.974 0-23.529 10.556-23.529 23.53s10.556 23.53 23.529 23.53c12.975 0 23.53-10.556 23.53-23.53s-10.555-23.53-23.53-23.53zm0 32.06c-4.703 0-8.529-3.826-8.529-8.53s3.826-8.53 8.529-8.53 8.53 3.826 8.53 8.53-3.827 8.53-8.53 8.53z"/><path d="m367.835 57.742c0-12.975-10.556-23.53-23.53-23.53s-23.529 10.556-23.529 23.53 10.556 23.53 23.529 23.53c12.974 0 23.53-10.555 23.53-23.53zm-32.06 0c0-4.704 3.826-8.53 8.529-8.53 4.704 0 8.53 3.826 8.53 8.53s-3.826 8.53-8.53 8.53c-4.703 0-8.529-3.826-8.529-8.53z"/><path d="m220.659 111.633c0-12.974-10.556-23.529-23.53-23.529-12.975 0-23.53 10.556-23.53 23.529 0 12.975 10.556 23.53 23.53 23.53 12.975 0 23.53-10.556 23.53-23.53zm-23.529 8.53c-4.704 0-8.53-3.826-8.53-8.53 0-4.703 3.827-8.529 8.53-8.529s8.53 3.826 8.53 8.529c-.001 4.704-3.827 8.53-8.53 8.53z"/><path d="m232.469 111.633c0 12.975 10.556 23.53 23.53 23.53s23.53-10.556 23.53-23.53-10.556-23.529-23.53-23.529-23.53 10.555-23.53 23.529zm32.061 0c0 4.704-3.826 8.53-8.53 8.53s-8.53-3.826-8.53-8.53c0-4.703 3.827-8.529 8.53-8.529 4.704 0 8.53 3.826 8.53 8.529z"/><path d="m291.34 111.633c0 12.975 10.556 23.53 23.53 23.53s23.53-10.556 23.53-23.53-10.556-23.529-23.53-23.529-23.53 10.555-23.53 23.529zm32.06 0c0 4.704-3.826 8.53-8.53 8.53s-8.53-3.826-8.53-8.53c0-4.703 3.826-8.529 8.53-8.529s8.53 3.826 8.53 8.529z"/><path d="m250.094 165.524c0-12.975-10.555-23.53-23.53-23.53s-23.53 10.556-23.53 23.53 10.556 23.529 23.53 23.529 23.53-10.555 23.53-23.529zm-23.529 8.53c-4.704 0-8.53-3.826-8.53-8.529s3.827-8.53 8.53-8.53 8.53 3.827 8.53 8.53-3.827 8.529-8.53 8.529z"/><path d="m261.905 165.524c0 12.974 10.556 23.529 23.529 23.529 12.975 0 23.53-10.556 23.53-23.529 0-12.975-10.556-23.53-23.53-23.53-12.973 0-23.529 10.556-23.529 23.53zm32.06 0c0 4.703-3.827 8.529-8.53 8.529s-8.529-3.826-8.529-8.529 3.826-8.53 8.529-8.53 8.53 3.827 8.53 8.53z"/><path d="m256 242.945c12.975 0 23.53-10.556 23.53-23.53s-10.556-23.53-23.53-23.53-23.53 10.556-23.53 23.53 10.555 23.53 23.53 23.53zm0-32.06c4.704 0 8.53 3.826 8.53 8.53s-3.826 8.53-8.53 8.53-8.53-3.826-8.53-8.53 3.826-8.53 8.53-8.53z"/><path d="m479.886 95.242c-4.143 0-7.5 3.357-7.5 7.5v371.758c0 4.143 3.357 7.5 7.5 7.5s7.5-3.357 7.5-7.5v-371.758c0-4.142-3.357-7.5-7.5-7.5z"/><path d="m474.886 0h-437.772c-6.893 0-12.5 5.607-12.5 12.5v462c0 4.143 3.358 7.5 7.5 7.5s7.5-3.357 7.5-7.5v-459.5h60.465v331.621c0 4.143 3.358 7.5 7.5 7.5s7.5-3.357 7.5-7.5v-331.621h281.843v169.241c-18.505 5.672-32.001 22.914-32.001 43.254s13.496 37.582 32.001 43.254v203.751c0 4.143 3.357 7.5 7.5 7.5s7.5-3.357 7.5-7.5v-201.816c24.124-.934 43.464-20.84 43.464-45.188s-19.34-44.254-43.464-45.188v-167.308h60.465v52.742c0 4.143 3.357 7.5 7.5 7.5s7.5-3.357 7.5-7.5v-55.242c-.001-6.893-5.608-12.5-12.501-12.5zm-34.501 227.495c0 16.671-13.562 30.233-30.232 30.233s-30.232-13.562-30.232-30.233c0-16.67 13.562-30.232 30.232-30.232s30.232 13.562 30.232 30.232z"/><path d="m107.579 374.121c-4.142 0-7.5 3.357-7.5 7.5v92.879c0 4.143 3.358 7.5 7.5 7.5s7.5-3.357 7.5-7.5v-92.879c0-4.142-3.358-7.5-7.5-7.5z"/><path d="m350.187 271.331-58.614 6.535c-4.324.481-7.905 3.331-9.345 7.437-1.439 4.106-.423 8.568 2.653 11.645l9.427 9.428-37.613 37.608c-15.603 15.6-24.195 36.342-24.195 58.405v102.111c0 4.143 3.358 7.5 7.5 7.5s7.5-3.357 7.5-7.5v-102.111c0-18.057 7.032-35.031 19.801-47.798l40.289-40.283c4.373-4.374 4.373-11.491 0-15.864l-6.54-6.541 46.099-5.14-5.14 46.099-6.533-6.534c-2.119-2.118-4.937-3.285-7.933-3.285-2.997 0-5.814 1.167-7.933 3.285l-40.29 40.285c-9.557 9.556-14.82 22.261-14.82 35.775v102.112c0 4.143 3.357 7.5 7.5 7.5s7.5-3.357 7.5-7.5v-102.112c0-9.508 3.703-18.445 10.426-25.168l37.616-37.612 9.422 9.423c3.077 3.075 7.539 4.093 11.644 2.654s6.956-5.02 7.438-9.345l6.534-58.614c.38-3.407-.792-6.751-3.215-9.176-2.424-2.425-5.764-3.597-9.178-3.219z"/></g></svg>