<svg id="Layer_1" viewBox="0 0 256 256" xmlns="http://www.w3.org/2000/svg" width="100" height="100" fill="#6895cf" ><g><path d="m167.97 144.25c-.91 0-1.83-.37-2.51-1.09-1.29-1.38-1.22-3.55.16-4.85l2.62-2.45c1.38-1.29 3.55-1.22 4.85.16 1.29 1.38 1.22 3.55-.16 4.85l-2.62 2.45c-.66.62-1.5.92-2.34.92z"/><path d="m157.27 58.68c-.89 0-1.77-.34-2.44-1.02-1.33-1.35-1.32-3.52.03-4.85l1.74-1.72c1.35-1.33 3.52-1.31 4.85.04s1.32 3.52-.03 4.85l-1.74 1.72c-.67.66-1.54.99-2.41.99z"/><path d="m227.24 56.37c-.31-1.18-1.22-2.1-2.39-2.43-1.17-.32-2.43-.01-3.31.84l-38.15 36.86c-9.32-1.35-17.45-6.72-22.39-14.72l16.54-15.91c.67-.65 1.05-1.54 1.05-2.47v-15.61c0-1.35-.79-2.57-2.02-3.13l-53.09-23.91c-1.74-.78-3.76 0-4.54 1.72-.78 1.73 0 3.76 1.72 4.54l51.07 23v11.93l-62.92 60.52-.19-9.6 44.31-43.66c1.35-1.33 1.36-3.5.03-4.85s-3.5-1.36-4.85-.04l-43.64 42.99-67.83-32.95c-1.71-.83-3.76-.12-4.58 1.59-.83 1.7-.12 3.76 1.59 4.58l68.11 33.09.23 11.29-69.71-32.76c-1.72-.8-3.76-.07-4.57 1.65-.8 1.72-.07 3.76 1.64 4.56l9.76 4.59s-.02.07-.02.11v138.78c0 1.89 1.53 3.43 3.43 3.43s3.43-1.54 3.43-3.43v-135.67l58.12 27.31s.05 0 .07.02c.43.19.89.31 1.39.31h.07c.15 0 .28-.07.43-.1.28-.04.56-.07.83-.19.22-.09.39-.24.58-.37.16-.11.33-.17.47-.31l48.03-46.19c5.12 7.63 12.74 13.11 21.52 15.58l-16.72 16.15c1.37-7.12 1.4-12.52 1.4-13.01 0-.8-.32-1.51-.78-2.09 0-.01-.01-.02-.02-.03-.17-.21-.36-.39-.58-.55-.79-.68-1.84-1.04-2.95-.8-1.07.24-26.26 5.98-37.18 23.83-4.75 7.78-6.02 16.62-3.85 26.28l-4.68 5.83c-1.19 1.48-.95 3.64.53 4.82.63.51 1.39.76 2.14.76 1 0 2-.44 2.68-1.28l4.67-5.81s.07 0 .11 0c9.86 0 18.15-3.19 24.69-9.49 2.79-2.69 5.06-5.76 6.92-9v.08s0 0 0 0l-.08 1.38c0 17.5-14.23 31.73-31.73 31.73s-31.73-14.23-31.73-31.73c0-1.89-1.53-3.43-3.43-3.43s-3.43 1.54-3.43 3.43c0 13.89 7.4 26.05 18.44 32.85l-.16 11.17c0 .23.02.46.06.68.8 4.24-4.99 6.47-5.11 6.52-2.69.88-4.01 1.1-6.89 1.57-3.21.53-8.06 1.34-18.16 3.58-17.58 3.91-17.83 26.07-17.83 27.02v19.17c0 1.89 1.53 3.43 3.43 3.43s3.43-1.54 3.43-3.43v-19.15c0-.18.25-17.62 12.46-20.34 9.92-2.21 14.66-2.99 17.8-3.51 3.03-.5 4.7-.78 8-1.85 3.92-1.43 10.89-6.15 9.68-13.9l.11-7.63c4.16 1.54 8.64 2.43 13.34 2.43 4.22 0 8.27-.7 12.07-1.96v15.65c.67 9.79-8.73 12.83-9.08 12.94-.21.06-21.28 6.06-29.08 7.21-13.12 1.93-15.23 14.67-14.51 21.33v8.8c0 1.89 1.53 3.43 3.43 3.43s3.43-1.54 3.43-3.43v-9c0-.13-.01-.27-.02-.4-.14-1.28-1.12-12.51 8.67-13.95 8.25-1.22 29.08-7.15 30-7.41 5.21-1.55 14.84-7.73 14.02-19.76v-18.45c11.72-6.62 19.66-19.13 19.66-33.39l.07-1.17s0 0 0 0l.64-10.96 60.19-58.17c.63 7.84-.07 21.49-10.35 31.37l-35.34 33.07c-1.38 1.29-1.45 3.46-.16 4.85 1.3 1.39 3.47 1.45 4.85.16l35.37-33.1c18.15-17.45 11.63-43.22 11.34-44.31zm-85.07 80.65c-3.9 3.76-8.63 6.1-14.13 7.06l10.64-13.25c1.19-1.48.95-3.64-.53-4.82s-3.63-.95-4.82.53l-10.66 13.28c-.26-5.58.99-10.73 3.81-15.35 6.91-11.33 21.35-17.18 28.54-19.5-.7 7.51-3.28 22.83-12.85 32.06z"/><path d="m108.01 86.13-4.92-5.67c1.77-9.72.16-18.48-4.88-26.06-11.6-17.41-37-22.17-38.07-22.36-1.13-.21-2.17.2-2.93.92-.2.17-.38.35-.54.56 0 .01-.02.03-.03.04-.44.6-.73 1.32-.7 2.12.04 1.09 1.2 26.9 16.82 40.83 6.38 5.68 14.21 8.56 23.31 8.56.61 0 1.25-.05 1.87-.07l4.89 5.63c.68.78 1.63 1.18 2.59 1.18.8 0 1.6-.28 2.25-.84 1.43-1.24 1.58-3.41.34-4.84zm-30.67-14.72c-9.91-8.82-13.11-24.06-14.11-31.55 7.28 2.04 21.92 7.33 29.27 18.38 2.99 4.49 4.44 9.56 4.4 15.12l-11.13-12.82c-1.24-1.43-3.41-1.58-4.84-.34s-1.58 3.41-.34 4.84l11.17 12.86c-5.54-.74-10.38-2.88-14.43-6.48z"/><path d="m75.78 214.13c-5.01 0-8.59-2.61-9.99-4.29-1.21-1.46-1.02-3.62.44-4.83 1.45-1.2 3.58-1.02 4.8.4.14.16 2.12 2.2 5.6 1.82 1.91-.2 3.58 1.16 3.78 3.05.2 1.88-1.16 3.57-3.05 3.78-.54.06-1.07.09-1.58.09z"/></g></svg>