<svg id="Layer_1" enable-background="new 0 0 500 500" viewBox="0 0 500 500" xmlns="http://www.w3.org/2000/svg" width="100" height="100" fill="#6895cf" ><g><path d="m391.875 55.715h-358.076c-4.858 0-8.799-3.938-8.799-8.798 0-4.861 3.941-8.799 8.799-8.799h358.076c4.858 0 8.799 3.938 8.799 8.799 0 4.86-3.941 8.798-8.799 8.798z"/><path d="m391.875 99.435h-358.076c-4.858 0-8.799-3.938-8.799-8.799s3.941-8.799 8.799-8.799h358.076c4.858 0 8.799 3.938 8.799 8.799s-3.941 8.799-8.799 8.799z"/><path d="m444.669 203.6h-31.26c-4.858 0-8.799-3.938-8.799-8.799v-70.977l-19.911-28.101c-2.813-3.965-1.873-9.457 2.09-12.264 3.97-2.816 9.458-1.876 12.265 2.09l21.533 30.386c1.054 1.486 1.621 3.265 1.621 5.087v64.98h13.662v-64.98c0-1.821.567-3.601 1.621-5.087l19.912-28.101v-40.917c0-4.861 3.941-8.799 8.799-8.799s8.798 3.938 8.798 8.799v43.719c0 1.821-.567 3.601-1.621 5.087l-19.912 28.101v70.977c0 4.861-3.941 8.799-8.798 8.799z"/><path d="m400.617 335.528c-4.858 0-8.799-3.939-8.799-8.799v-131.928c0-4.86 3.941-8.799 8.799-8.799h59.025c4.858 0 8.799 3.939 8.799 8.799v72.905c0 37.398-30.424 67.822-67.824 67.822zm8.799-131.928v113.559c23.514-4.173 41.428-24.76 41.428-49.453v-64.106z"/><path d="m400.617 335.528h-185.377c-4.858 0-8.799-3.939-8.799-8.799v-59.023c0-4.861 3.941-8.799 8.799-8.799h185.377c4.858 0 8.799 3.938 8.799 8.799v59.023c0 4.86-3.941 8.799-8.799 8.799zm-176.578-17.598h167.779v-41.425h-167.779z"/><path d="m215.24 461.882h-59.02c-4.858 0-8.799-3.938-8.799-8.799v-126.354c0-37.398 30.424-67.822 67.819-67.822 4.858 0 8.799 3.938 8.799 8.799v185.377c0 4.861-3.941 8.799-8.799 8.799zm-50.22-17.598h41.422v-167.008c-23.509 4.173-41.422 24.76-41.422 49.453z"/><path d="m141.407 185.238h-64.926c-4.858 0-8.798-3.938-8.798-8.799v-42.299c0-4.86 3.94-8.798 8.798-8.798h64.926c4.858 0 8.798 3.938 8.798 8.798v42.299c0 4.86-3.94 8.799-8.798 8.799zm-56.127-17.598h47.328v-24.701h-47.328z"/><path d="m206.333 185.238h-64.926c-4.858 0-8.799-3.938-8.799-8.799v-42.299c0-4.86 3.941-8.798 8.799-8.798s8.798 3.938 8.798 8.798v33.5h47.328v-33.5c0-4.86 3.941-8.798 8.799-8.798s8.798 3.938 8.798 8.798v42.299c.001 4.86-3.94 8.799-8.797 8.799z"/><path d="m271.258 185.238h-64.926c-4.858 0-8.799-3.938-8.799-8.799v-42.299c0-4.86 3.941-8.798 8.799-8.798h64.926c4.858 0 8.798 3.938 8.798 8.798v42.299c.001 4.86-3.94 8.799-8.798 8.799zm-56.127-17.598h47.328v-24.701h-47.328z"/><path d="m336.184 185.238h-64.926c-4.858 0-8.799-3.938-8.799-8.799v-42.299c0-4.86 3.941-8.798 8.799-8.798h64.926c4.858 0 8.799 3.938 8.799 8.798 0 4.861-3.941 8.799-8.799 8.799h-56.127v24.701h56.127c4.858 0 8.799 3.938 8.799 8.799 0 4.86-3.941 8.799-8.799 8.799z"/><path d="m124.359 227.539h-64.926c-4.858 0-8.799-3.938-8.799-8.799 0-4.86 3.941-8.798 8.799-8.798h56.127v-24.704h-56.127c-4.858 0-8.799-3.938-8.799-8.799s3.941-8.799 8.799-8.799h64.926c4.858 0 8.799 3.938 8.799 8.799v42.301c0 4.861-3.941 8.799-8.799 8.799z"/><path d="m189.285 227.539h-64.926c-4.858 0-8.799-3.938-8.799-8.799v-42.301c0-4.861 3.941-8.799 8.799-8.799h64.926c4.858 0 8.799 3.938 8.799 8.799v42.301c0 4.861-3.941 8.799-8.799 8.799zm-56.127-17.598h47.328v-24.704h-47.328z"/><path d="m254.21 227.539h-64.926c-4.858 0-8.799-3.938-8.799-8.799v-42.301c0-4.861 3.941-8.799 8.799-8.799h64.926c4.858 0 8.799 3.938 8.799 8.799v42.301c0 4.861-3.941 8.799-8.799 8.799zm-56.126-17.598h47.328v-24.704h-47.328z"/><path d="m319.136 227.539h-64.926c-4.858 0-8.799-3.938-8.799-8.799v-42.301c0-4.861 3.941-8.799 8.799-8.799h64.926c4.858 0 8.799 3.938 8.799 8.799s-3.941 8.799-8.799 8.799h-56.127v24.704h56.127c4.858 0 8.799 3.938 8.799 8.798 0 4.861-3.941 8.799-8.799 8.799z"/><path d="m107.306 269.837h-64.926c-4.858 0-8.799-3.938-8.799-8.799v-42.298c0-4.86 3.941-8.798 8.799-8.798h64.926c4.858 0 8.799 3.938 8.799 8.798v42.299c0 4.86-3.942 8.798-8.799 8.798zm-56.127-17.598h47.328v-24.701h-47.328z"/><path d="m172.231 269.837c-4.858 0-8.799-3.938-8.799-8.799v-33.5h-47.328v33.5c0 4.861-3.941 8.799-8.799 8.799s-8.799-3.938-8.799-8.799v-42.298c0-4.86 3.941-8.798 8.799-8.798h64.926c4.858 0 8.799 3.938 8.799 8.798v42.299c0 4.86-3.941 8.798-8.799 8.798z"/></g></svg>