<svg id="Layer_1" enable-background="new 0 0 500 500" viewBox="0 0 500 500" xmlns="http://www.w3.org/2000/svg" width="100" height="100" fill="#6895cf" ><g><path d="m249.998 282.891c-99.638 0-181.243-78.711-185.908-177.216h-5.187c-18.695 0-33.903-15.208-33.903-33.903s15.208-33.903 33.903-33.903h48.981c4.92 0 8.907 3.987 8.907 8.907v49.992c0 73.454 59.757 133.211 133.208 133.211 73.454 0 133.212-59.757 133.212-133.211v-49.992c0-4.921 3.987-8.907 8.907-8.907h48.977c18.695 0 33.905 15.207 33.905 33.903 0 18.695-15.21 33.903-33.906 33.903h-5.187c-4.665 98.505-86.27 177.216-185.909 177.216zm-191.095-227.208c-8.872 0-16.088 7.217-16.088 16.088 0 8.873 7.217 16.089 16.088 16.089h13.883c4.921 0 8.907 3.987 8.907 8.907 0 92.805 75.501 168.309 168.306 168.309s168.306-75.504 168.306-168.309c0-4.921 3.987-8.907 8.907-8.907h13.882c8.873 0 16.092-7.216 16.092-16.089 0-8.872-7.22-16.088-16.092-16.088h-40.069v41.085c0 83.274-67.751 151.025-151.026 151.025-83.274 0-151.022-67.751-151.022-151.025v-41.085z"/><path d="m350.336 322.451h-200.672c-4.92 0-8.906-3.987-8.906-8.907v-70.717c0-4.921 3.986-8.907 8.906-8.907 4.921 0 8.907 3.987 8.907 8.907v61.81h182.858v-61.81c0-4.921 3.987-8.907 8.907-8.907 4.921 0 8.907 3.987 8.907 8.907v70.717c0 4.92-3.986 8.907-8.907 8.907z"/><path d="m280.837 462.131h-61.677c-4.393 0-8.13-3.201-8.803-7.541l-11.49-74.096h-25.669c-4.92 0-8.906-3.987-8.906-8.906v-58.044c0-4.92 3.987-8.906 8.906-8.906h153.6c4.921 0 8.907 3.987 8.907 8.906v58.044c0 4.92-3.987 8.906-8.907 8.906h-25.665l-11.493 74.096c-.675 4.34-4.411 7.541-8.803 7.541zm-54.045-17.814h46.414l11.493-74.095c.675-4.34 4.41-7.541 8.802-7.541h24.39v-40.23h-135.785v40.23h24.393c4.393 0 8.13 3.201 8.802 7.541z"/><path d="m293.502 380.494h-52.381c-4.921 0-8.907-3.987-8.907-8.906 0-4.921 3.987-8.907 8.907-8.907h52.381c4.921 0 8.907 3.987 8.907 8.907s-3.987 8.906-8.907 8.906z"/><path d="m390.41 126.128h-281.062c-4.921 0-8.907-3.987-8.907-8.907s3.987-8.906 8.907-8.906h281.062c4.92 0 8.907 3.987 8.907 8.906-.001 4.92-3.988 8.907-8.907 8.907z"/><path d="m206.673 166.728h-17.695c-4.92 0-8.907-3.987-8.907-8.906 0-4.921 3.987-8.907 8.907-8.907h17.695c4.921 0 8.907 3.987 8.907 8.907 0 4.919-3.987 8.906-8.907 8.906z"/><path d="m316.387 162.008h-25.01c-4.921 0-8.907-3.987-8.907-8.907s3.987-8.907 8.907-8.907h25.01c4.921 0 8.907 3.987 8.907 8.907s-3.987 8.907-8.907 8.907z"/><path d="m261.176 197.401h-17.222c-4.921 0-8.907-3.987-8.907-8.906 0-4.921 3.987-8.907 8.907-8.907h17.222c4.921 0 8.907 3.987 8.907 8.907 0 4.919-3.987 8.906-8.907 8.906z"/></g></svg>