<svg id="Layer_1" enable-background="new 0 0 512 512" viewBox="0 0 512 512" xmlns="http://www.w3.org/2000/svg" width="100" height="100" fill="#6895cf" ><path d="m405.24 172.82c-22.731 0-43.678 7.781-60.323 20.817l-123.805-81.671c-2.333-1.538-5.355-1.537-7.685 0l-209.411 138.196c-1.957 1.291-3.135 3.479-3.135 5.824v52.346c0 2.567 1.41 4.927 3.671 6.144 1.035.558 2.172.834 3.307.834 1.342 0 2.681-.387 3.842-1.153l23.559-15.544v205.91c0 3.853 3.124 6.977 6.978 6.977h118.676 112.743 118.675c3.854 0 6.978-3.124 6.978-6.977v-135.81c1.963.118 3.94.185 5.932.185 54.051 0 98.026-43.974 98.026-98.025-.002-54.066-43.976-98.053-98.028-98.053zm-390.403 86.921 202.434-133.591 116.983 77.171c-6.847 7.196-12.611 15.431-17.038 24.437l-96.103-63.417c-2.331-1.538-5.355-1.539-7.685 0l-198.591 131.027zm153.054 237.804v-150.201h98.787v150.201zm217.462 0h-104.719v-157.179c0-3.853-3.124-6.977-6.978-6.977h-112.743c-3.854 0-6.978 3.124-6.978 6.977v157.179h-104.719v-208.141l168.054-110.88 94.616 62.436c-3.028 9.435-4.67 19.485-4.67 29.913 0 47.239 33.589 86.779 78.137 95.996zm19.887-142.602c-46.356 0-84.069-37.714-84.069-84.07 0-46.372 37.713-84.098 84.069-84.098 46.357 0 84.07 37.726 84.07 84.098 0 46.356-37.713 84.07-84.07 84.07zm-20.63-110.315c-1.762 2.013-2.774 4.917-2.774 7.969 0 5.213 2.888 11.299 11.031 11.299h3.361 18.023 3.361c16.404 0 24.986 12.705 24.986 25.254 0 6.48-2.212 12.575-6.231 17.163-4.57 5.218-11.231 8.092-18.756 8.092h-5.396v13.56c0 3.853-3.124 6.977-6.978 6.977s-6.978-3.124-6.978-6.977v-13.56h-23.389c-3.854 0-6.978-3.124-6.978-6.977s3.124-6.977 6.978-6.977h42.741c3.543 0 6.322-1.121 8.258-3.331 1.763-2.013 2.774-4.917 2.774-7.969 0-5.213-2.889-11.299-11.031-11.299h-3.361-18.023-3.361c-16.404 0-24.986-12.705-24.986-25.254 0-6.48 2.212-12.575 6.23-17.163 4.57-5.218 11.231-8.092 18.756-8.092h5.395v-13.588c0-3.853 3.124-6.977 6.978-6.977s6.978 3.124 6.978 6.977v13.588h23.418c3.854 0 6.978 3.124 6.978 6.977s-3.124 6.977-6.978 6.977h-42.769c-3.543-.001-6.321 1.12-8.257 3.331zm-11.658-197.291h11.186v47.77c0 3.853 3.124 6.977 6.978 6.977h28.249c3.854 0 6.978-3.124 6.978-6.977v-47.77h11.186c2.811 0 5.347-1.686 6.434-4.278 1.088-2.592.514-5.583-1.455-7.589l-32.289-32.881c-1.313-1.336-3.107-2.089-4.979-2.089s-3.667.753-4.979 2.089l-32.288 32.881c-1.969 2.006-2.543 4.997-1.455 7.589 1.087 2.592 3.623 4.278 6.434 4.278zm32.288-29.901 15.658 15.946h-1.533c-3.854 0-6.978 3.124-6.978 6.977v47.77h-14.294v-47.77c0-3.853-3.124-6.977-6.978-6.977h-1.534zm103.88 84.844-32.288-32.882c-1.312-1.336-3.107-2.089-4.979-2.089s-3.666.753-4.979 2.089l-32.289 32.882c-1.969 2.005-2.543 4.996-1.455 7.589 1.087 2.592 3.623 4.278 6.434 4.278h11.186v47.741c0 3.853 3.124 6.977 6.978 6.977h28.278c3.854 0 6.978-3.124 6.978-6.977v-47.741h11.158c2.811 0 5.347-1.686 6.434-4.278s.513-5.583-1.456-7.589zm-23.115-2.088c-3.854 0-6.978 3.124-6.978 6.977v47.741h-14.322v-47.741c0-3.853-3.124-6.977-6.978-6.977h-1.533l15.658-15.946 15.658 15.946zm-179.665 13.954h11.186v47.741c0 3.853 3.124 6.977 6.978 6.977h28.249c3.854 0 6.978-3.124 6.978-6.977v-47.741h11.186c2.811 0 5.347-1.686 6.434-4.278 1.088-2.592.514-5.583-1.455-7.589l-32.289-32.882c-1.313-1.336-3.106-2.089-4.979-2.089s-3.667.753-4.979 2.089l-32.288 32.882c-1.969 2.006-2.543 4.997-1.455 7.589s3.624 4.278 6.434 4.278zm32.289-29.9 15.658 15.946h-1.533c-3.854 0-6.978 3.124-6.978 6.977v47.741h-14.294v-47.741c0-3.853-3.124-6.977-6.978-6.977h-1.534z"/></svg>