<?xml version="1.0" encoding="UTF-8"?><svg id="Layer_1" xmlns="http://www.w3.org/2000/svg" viewBox="0 0 93 93" width="100" height="100"><defs><style>.cls-1{fill:#6895cf;}</style></defs><path class="cls-1" d="M3.11,46.51C3.11,22.57,22.57,3.1,46.51,3.1c10.6,0,20.6,3.77,28.51,10.67l-5.55.79c-.85.12-1.44.91-1.32,1.75.11.78.78,1.33,1.53,1.33.07,0,.14,0,.22-.02l8.77-1.24c.07,0,.12-.05.19-.07.08-.02.16-.05.24-.09.11-.05.21-.12.31-.2.04-.03.08-.04.12-.07.02-.02.03-.06.06-.08.08-.09.15-.19.21-.3.04-.07.08-.14.1-.22.04-.1.05-.21.07-.32.01-.1.02-.18.02-.28,0-.04.01-.08,0-.13l-1.24-8.77c-.12-.85-.91-1.44-1.75-1.32s-1.44.91-1.32,1.75l.64,4.5C67.96,3.81,57.53,0,46.51,0,20.87,0,0,20.87,0,46.51c0,7.04,1.52,13.79,4.54,20.06.26.55.82.88,1.4.88.22,0,.45-.05.67-.15.78-.37,1.1-1.3.73-2.07-2.81-5.85-4.23-12.15-4.23-18.72h.01Z"/><path class="cls-1" d="M86.41,25.71c-.78.37-1.1,1.3-.73,2.07,2.81,5.85,4.23,12.15,4.23,18.72,0,23.93-19.48,43.41-43.41,43.41-10.6,0-20.6-3.77-28.51-10.67l5.55-.79c.85-.12,1.44-.91,1.32-1.75s-.91-1.44-1.75-1.32l-8.77,1.24c-.07,0-.13.05-.19.07-.08.02-.16.05-.24.08-.11.05-.21.12-.31.2-.04.03-.08.04-.12.07-.02.02-.03.06-.06.08-.08.09-.15.19-.21.3-.04.07-.08.14-.1.22-.04.1-.05.21-.07.32-.01.1-.02.18-.02.28,0,.04-.01.08,0,.13l1.24,8.77c.11.78.78,1.33,1.53,1.33.07,0,.14,0,.22-.02.85-.12,1.44-.91,1.32-1.75l-.64-4.5c8.35,6.99,18.77,10.8,29.8,10.8,25.65,0,46.51-20.87,46.51-46.5,0-7.04-1.52-13.79-4.54-20.06-.37-.77-1.29-1.1-2.07-.73h.01Z"/><path class="cls-1" d="M72.38,52.14c.77-.11,1.34-.77,1.34-1.53v-8.2c0-.78-.57-1.43-1.34-1.53l-5.34-.74c-.39-1.26-.9-2.48-1.5-3.64l3.26-4.29c.46-.61.4-1.48-.14-2.04l-5.8-5.8c-.54-.54-1.41-.6-2.04-.14l-4.29,3.26c-1.16-.61-2.38-1.12-3.64-1.5l-.75-5.34c-.1-.77-.77-1.34-1.53-1.34h-8.2c-.78,0-1.43.57-1.53,1.34l-.75,5.34c-1.26.39-2.48.9-3.64,1.5l-4.29-3.26c-.61-.46-1.48-.4-2.04.14l-5.8,5.8c-.54.54-.6,1.41-.14,2.04l3.26,4.29c-.61,1.16-1.12,2.38-1.5,3.64l-5.34.74c-.77.11-1.34.77-1.34,1.53v8.2c0,.78.57,1.43,1.34,1.53l5.34.74c.39,1.26.9,2.48,1.5,3.64l-3.26,4.29c-.46.61-.4,1.48.14,2.04l5.8,5.8c.54.55,1.41.6,2.04.14l4.29-3.26c1.16.61,2.38,1.12,3.64,1.51l.75,5.34c.1.77.77,1.34,1.53,1.34h8.2c.78,0,1.43-.57,1.53-1.34l.75-5.34c1.26-.39,2.48-.9,3.64-1.51l4.29,3.26c.61.46,1.48.41,2.04-.14l5.8-5.8c.54-.54.6-1.41.14-2.04l-3.26-4.29c.61-1.16,1.12-2.38,1.5-3.64,0,0,5.34-.74,5.34-.74ZM64.33,51.1c-.43,1.68-1.1,3.29-1.97,4.77-.32.54-.28,1.22.1,1.72l3.04,4.03-3.89,3.89-4.03-3.04c-.5-.38-1.19-.41-1.72-.1-1.48.88-3.08,1.54-4.77,1.98-.6.16-1.06.67-1.15,1.29l-.7,5.01h-5.49l-.7-5.01c-.09-.62-.54-1.13-1.15-1.29-1.67-.43-3.28-1.1-4.77-1.98-.54-.32-1.22-.28-1.72.1l-4.03,3.04-3.89-3.89,3.04-4.03c.38-.5.42-1.18.1-1.72-.88-1.48-1.54-3.08-1.97-4.77-.16-.6-.67-1.06-1.29-1.15l-5.01-.7v-5.49l5.01-.7c.63-.09,1.13-.54,1.29-1.15.43-1.68,1.1-3.29,1.97-4.76.32-.54.28-1.22-.1-1.72l-3.04-4.03,3.89-3.89,4.03,3.04c.5.38,1.19.42,1.72.1,1.48-.88,3.08-1.54,4.77-1.98.6-.16,1.06-.67,1.15-1.29l.7-5.01h5.49l.7,5.01c.09.62.54,1.13,1.15,1.29,1.68.43,3.29,1.1,4.77,1.98.53.32,1.22.28,1.72-.1l4.03-3.04,3.89,3.89-3.04,4.03c-.38.5-.42,1.18-.1,1.72.88,1.48,1.54,3.08,1.97,4.76.16.6.67,1.06,1.29,1.15l5.01.7v5.49l-5.01.7c-.63.09-1.13.54-1.29,1.15Z"/><path class="cls-1" d="M46.51,34.27c-6.74,0-12.23,5.48-12.23,12.23s5.48,12.23,12.23,12.23,12.23-5.48,12.23-12.23-5.48-12.23-12.23-12.23ZM46.51,55.63c-5.03,0-9.13-4.09-9.13-9.13s4.09-9.13,9.13-9.13,9.13,4.09,9.13,9.13-4.09,9.13-9.13,9.13Z"/></svg>