<svg id="Layer_1" viewBox="0 0 512 512" xmlns="http://www.w3.org/2000/svg" data-name="Layer 1" width="100" height="100" fill="#6895cf" >
  <path d="m405.569 93.61a331.784 331.784 0 0 0 25.321 44.273c9.657 14.679 15.815 24.04 15.815 38.421a46.491 46.491 0 0 1 -3.068 16.664c8.177 17.834 12.937 34.157 16.353 53.618a6.039 6.039 0 0 1 -6.552 7.12 140.405 140.405 0 0 0 -56.938 5.566 89.433 89.433 0 0 0 -25.24 12.52 118.927 118.927 0 0 0 -18.878 17.162 6.005 6.005 0 0 1 -7.68 1.661 211.676 211.676 0 0 0 -42.173-12.933 234.554 234.554 0 0 0 -30.748-3.991v181.378a45.469 45.469 0 0 1 -90.937 0c0-14.008 17.018-21.075 26.936-11.157a15.732 15.732 0 0 1 4.622 11.157 13.922 13.922 0 0 0 23.748 9.837 13.623 13.623 0 0 0 4.074-9.837v-181.163c-26.572 2.36-50.336 10.288-74.045 21.012a6.049 6.049 0 0 1 -7.489-2.119 93.817 93.817 0 0 0 -21.865-19.638c-22.487-14.793-51.586-21.578-78.463-19.961a6.091 6.091 0 0 1 -6.371-7 208.431 208.431 0 0 1 60.009-115.528 46.473 46.473 0 0 1 -13.752-33.054c0-14.381 6.158-23.742 15.815-38.421a331.872 331.872 0 0 0 25.325-44.28 6.049 6.049 0 0 1 10.932.007 331.911 331.911 0 0 0 25.32 44.276c6.04 9.18 10.711 16.28 13.363 23.829a206.052 206.052 0 0 1 51.221-10.557v-2.161c0-14.008 17.017-21.075 26.935-11.157a15.73 15.73 0 0 1 4.622 11.157v2.162a204.718 204.718 0 0 1 111.252 43.427c3.669-6.395 7.564-13.725 11.6-22.293a6.049 6.049 0 0 1 10.932.007zm-251.091-5.125a28.514 28.514 0 0 1 1.786 9.814 6.032 6.032 0 0 0 12.064-.048 40.613 40.613 0 0 0 -2.544-13.977 6.032 6.032 0 1 0 -11.306 4.211zm273.071 94.015a41.032 41.032 0 0 0 -1.961-12.536 6.037 6.037 0 1 0 -11.5 3.691 28.563 28.563 0 0 1 1.393 8.845 6.032 6.032 0 0 0 12.064 0zm-305.859-44.433a196.682 196.682 0 0 0 -56.456 102.844c34.14-.216 69.806 11.295 94.428 35.093 10.395-64.233 31.1-154.511 66.413-189.751a191.5 191.5 0 0 0 -34.69 8.754 46.617 46.617 0 0 1 -69.695 43.06zm43.874-72.247a361.335 361.335 0 0 1 -20.712-34.689 361.543 361.543 0 0 1 -20.712 34.689c-8.414 12.791-13.781 20.947-13.781 31.8a34.493 34.493 0 1 0 68.985 0c0-10.851-5.366-19.007-13.78-31.8zm94.106 207.4-7.335.017v181.832a25.947 25.947 0 0 1 -35.944 24 25.633 25.633 0 0 1 -16.1-24c0-4.829-7.335-4.829-7.335 0a33.358 33.358 0 0 0 66.715 0v-181.848zm-7.335-201.32h7.335c0-1.62.182-2.93-1.074-4.186a3.672 3.672 0 0 0 -6.261 2.594zm183.742 134.03a46.6 46.6 0 0 1 -82.577-29.63c0-14.381 6.158-23.742 15.815-38.421 2.284-3.472 4.781-7.267 7.45-11.536a192.309 192.309 0 0 0 -90.912-40.075c34.764 34.716 55.334 122.849 65.8 186.159 11.72-11.157 24.692-19.459 41.212-24.7a152.252 152.252 0 0 1 53.836-6.661 199.3 199.3 0 0 0 -10.617-35.136zm-46.077-78.08c-1.78 3.352-8.99 14.191-10.611 16.656-8.415 12.791-13.781 20.947-13.781 31.8a34.493 34.493 0 1 0 68.985 0c0-10.851-5.366-19.007-13.781-31.8a361.751 361.751 0 0 1 -20.712-34.689c-3.524 6.808-6.911 12.75-10.1 18.033zm-181.25 8.65c-15.05 34.5-27.886 83.7-37.387 142.974 26.849-11.176 54.6-18.389 84.832-18.389a240.4 240.4 0 0 1 83.725 14.629c-9.542-58.226-22.337-106.512-37.293-140.362-30.562-69.167-63.679-68.078-93.877 1.148z" fill-rule="evenodd"/>
</svg>