<svg id="Layer_1" enable-background="new 0 0 500 500" viewBox="0 0 500 500" xmlns="http://www.w3.org/2000/svg" width="100" height="100" fill="#6895cf" > <g display="none"><g display="inline"><path d="m288.37 270.17h-149.33c-5.57 0-10.09-4.52-10.09-10.09s4.52-10.09 10.09-10.09h149.32c38.69 0 52.42-23.59 52.42-43.79 0-14.52-11.6-26.33-25.86-26.33-8.5 0-15.41 7.06-15.41 15.74 0 2.47 1.06 4.79 2.92 6.36 4.25 3.6 4.77 9.97 1.17 14.22s-9.97 4.77-14.22 1.17c-6.39-5.41-10.05-13.34-10.05-21.75 0-19.81 15.96-35.92 35.58-35.92 25.38 0 46.03 20.86 46.03 46.51.02 30.81-22.7 63.97-72.57 63.97z" /></g><g display="inline"><path d="m187.49 219.74h-149.32c-5.57 0-10.09-4.52-10.09-10.09s4.52-10.09 10.09-10.09h149.32c38.69 0 52.42-23.59 52.42-43.79 0-14.52-11.6-26.33-25.86-26.33-8.5 0-15.41 7.06-15.41 15.74 0 2.47 1.06 4.79 2.92 6.36 4.25 3.6 4.77 9.97 1.17 14.22s-9.97 4.77-14.22 1.17c-6.39-5.41-10.05-13.34-10.05-21.75 0-19.81 15.96-35.92 35.58-35.92 25.38 0 46.03 20.86 46.03 46.51.02 30.81-22.7 63.97-72.58 63.97z" /></g><g display="inline"><path d="m214.06 411.39c-19.62 0-35.58-16.11-35.58-35.92 0-8.41 3.66-16.34 10.05-21.75 4.25-3.6 10.61-3.08 14.22 1.17 3.6 4.25 3.08 10.61-1.17 14.22-1.86 1.57-2.92 3.89-2.92 6.36 0 8.68 6.91 15.75 15.41 15.75 14.26 0 25.86-11.81 25.86-26.33 0-20.2-13.73-43.79-52.42-43.79h-149.34c-5.57 0-10.09-4.52-10.09-10.09s4.52-10.09 10.09-10.09h149.32c49.88 0 72.59 33.16 72.59 63.97.01 25.64-20.64 46.5-46.02 46.5z" /></g><g display="inline"><path d="m401.31 492.09c-1.84 0-3.68-.51-5.3-1.51-2.97-1.84-4.78-5.08-4.78-8.58v-433.74c0-3.82 2.16-7.31 5.58-9.02l60.52-30.26c3.13-1.56 6.84-1.4 9.81.44s4.78 5.08 4.78 8.58v433.75c0 3.82-2.16 7.31-5.58 9.02l-60.52 30.26c-1.42.71-2.97 1.06-4.51 1.06zm10.09-437.6v411.19l40.35-20.17v-411.19zm50.43 397.25h.01z" /></g></g><g display="none"><g display="inline"><path d="m399.32 209.65h-149.32c-5.57 0-10.09-4.52-10.09-10.09s4.52-10.09 10.09-10.09h149.32c38.69 0 52.42-23.59 52.42-43.79 0-15.26-9.99-26.33-23.75-26.33-9 0-17.52 7.65-17.52 15.74 0 2.47 1.06 4.79 2.92 6.36 4.25 3.6 4.77 9.97 1.17 14.22s-9.97 4.77-14.22 1.17c-6.39-5.41-10.05-13.34-10.05-21.75 0-19.47 17.26-35.92 37.69-35.92 25.04 0 43.92 19.99 43.92 46.51.02 30.81-22.7 63.97-72.58 63.97z" /></g><g display="inline"><path d="m296.68 391.16c-20.33 0-37.51-15.1-37.51-32.97 0-8.03 3.83-15.52 10.5-20.55 4.45-3.35 10.77-2.46 14.13 1.99 3.35 4.45 2.46 10.77-1.99 14.13-.92.69-2.47 2.19-2.47 4.43 0 6.58 8.43 12.8 17.34 12.8 14.78 0 23.93-12.84 23.93-24.73 0-21.74-20.09-35.24-52.42-35.24-.09 0-.18 0-.27 0l-18.19-.48c-5.57-.15-9.96-4.78-9.82-10.35.15-5.57 4.8-9.99 10.35-9.82l18.06.48c53.48.05 72.46 29.88 72.46 55.42 0 24.74-19.78 44.89-44.1 44.89z" /></g><g display="inline"><path d="m421.48 260.09h-171.48c-5.57 0-10.09-4.52-10.09-10.09s4.52-10.09 10.09-10.09h171.48c5.57 0 10.09 4.52 10.09 10.09s-4.52 10.09-10.09 10.09z" /></g><g display="inline"><path d="m179.39 209.65h-70.61c-5.57 0-10.09-4.52-10.09-10.09s4.52-10.09 10.09-10.09h70.61c5.57 0 10.09 4.52 10.09 10.09 0 5.58-4.52 10.09-10.09 10.09z" /></g><g display="inline"><path d="m179.39 310.52h-70.61c-5.57 0-10.09-4.52-10.09-10.09s4.52-10.09 10.09-10.09h70.61c5.57 0 10.09 4.52 10.09 10.09s-4.52 10.09-10.09 10.09z" /></g><g display="inline"><path d="m179.39 260.09h-141.22c-5.57 0-10.09-4.52-10.09-10.09s4.52-10.09 10.09-10.09h141.22c5.57 0 10.09 4.52 10.09 10.09s-4.52 10.09-10.09 10.09z" /></g><g display="inline"><path d="m219.74 492.09c-2.06 0-4.1-.63-5.83-1.85-2.67-1.89-4.26-4.96-4.26-8.23v-403.49c0-4.28 2.7-8.09 6.73-9.51l171.48-60.53c3.09-1.09 6.51-.61 9.18 1.28s4.26 4.96 4.26 8.23v60.52c0 5.57-4.52 10.09-10.09 10.09s-10.09-4.52-10.09-10.09v-46.26l-151.31 53.4v382.09l151.31-53.4v-103.82c0-5.57 4.52-10.09 10.09-10.09s10.09 4.52 10.09 10.09v110.96c0 4.28-2.7 8.09-6.73 9.51l-171.47 60.53c-1.1.38-2.23.57-3.36.57z" /></g></g><g display="none"><g display="inline"><path d="m323.67 199.56h-149.32c-5.57 0-10.09-4.52-10.09-10.09s4.52-10.09 10.09-10.09h149.32c38.69 0 52.42-23.59 52.42-43.79 0-15.26-9.99-26.33-23.75-26.33-9 0-17.52 7.65-17.52 15.74 0 2.47 1.06 4.79 2.92 6.36 4.25 3.6 4.78 9.97 1.17 14.22-3.6 4.25-9.97 4.78-14.22 1.17-6.39-5.41-10.05-13.34-10.05-21.75 0-19.47 17.26-35.92 37.69-35.92 25.04 0 43.92 19.99 43.92 46.51.01 30.81-22.7 63.97-72.58 63.97z" /></g><g display="inline"><path d="m281.55 381.07c-20.33 0-37.51-15.1-37.51-32.97 0-8.03 3.83-15.52 10.5-20.55 4.45-3.35 10.77-2.46 14.13 1.99 3.35 4.45 2.46 10.77-1.99 14.13-.92.69-2.47 2.19-2.47 4.43 0 6.58 8.43 12.8 17.34 12.8 14.78 0 23.93-12.84 23.93-24.73 0-21.74-20.09-35.24-52.42-35.24l-129.19-.48c-5.57-.02-10.07-4.55-10.05-10.12.02-5.56 4.53-10.05 10.09-10.05h.04l129.15.48c53.54 0 72.56 29.85 72.56 55.42-.01 24.74-19.79 44.89-44.11 44.89z" /></g><g display="inline"><path d="m355.92 250h-282.45c-5.57 0-10.09-4.52-10.09-10.09s4.52-10.09 10.09-10.09h282.44c5.57 0 10.09 4.52 10.09 10.09s-4.51 10.09-10.08 10.09z" /></g><g display="inline"><path d="m426.52 492.09c-1.13 0-2.26-.19-3.36-.58l-171.48-60.52c-4.03-1.42-6.73-5.24-6.73-9.51v-20.17c0-5.57 4.52-10.09 10.09-10.09s10.09 4.52 10.09 10.09v13.04l151.31 53.4v-382.1l-151.31-53.4v116.88c0 5.57-4.52 10.09-10.09 10.09s-10.09-4.52-10.09-10.09v-131.14c0-3.27 1.59-6.34 4.26-8.23s6.1-2.37 9.18-1.28l171.48 60.52c4.03 1.42 6.73 5.24 6.73 9.51v403.49c0 3.27-1.59 6.34-4.26 8.23-1.71 1.23-3.76 1.86-5.82 1.86z" /></g></g><g display="none"><g display="inline"><path d="m250 425.51c-1.34 0-2.68-.27-3.93-.8l-231-97.84c-3.73-1.58-6.15-5.24-6.15-9.29s2.42-7.71 6.15-9.29l139.2-58.96c5.13-2.17 11.05.22 13.22 5.35s-.22 11.05-5.35 13.22l-117.27 49.68 205.13 86.89 205.13-86.89-119.67-50.69c-5.13-2.17-7.53-8.09-5.35-13.22 2.17-5.13 8.09-7.53 13.22-5.35l141.6 59.98c3.73 1.58 6.15 5.24 6.15 9.29s-2.42 7.71-6.15 9.29l-230.99 97.84c-1.26.53-2.6.79-3.94.79z" /></g><g display="inline"><path d="m250 486.04c-1.34 0-2.68-.27-3.93-.8l-231-97.85c-3.73-1.58-6.15-5.24-6.15-9.29s2.42-7.71 6.15-9.29l33.11-14.02c5.13-2.17 11.05.22 13.22 5.35s-.22 11.05-5.35 13.22l-11.18 4.74 205.13 86.89 205.13-86.89-11.18-4.74c-5.13-2.17-7.53-8.09-5.35-13.22s8.09-7.53 13.22-5.35l33.11 14.02c3.73 1.58 6.15 5.24 6.15 9.29s-2.42 7.71-6.15 9.29l-230.99 97.84c-1.26.54-2.6.81-3.94.81z" /></g><g display="inline"><path d="m248.99 356.93c-38.94 0-70.61-31.68-70.61-70.61 0-24.94 10.94-45.8 30.26-58.17v-173.84c0-22.25 18.1-40.35 40.35-40.35s40.35 18.1 40.35 40.35v173.84c19.32 12.37 30.26 33.23 30.26 58.17 0 38.93-31.68 70.61-70.61 70.61zm0-322.79c-11.12 0-20.17 9.05-20.17 20.17v179.65c0 3.77-2.1 7.22-5.44 8.95-16.01 8.3-24.82 23.72-24.82 43.41 0 27.81 22.63 50.44 50.44 50.44s50.44-22.63 50.44-50.44c0-19.69-8.82-35.1-24.82-43.41-3.34-1.73-5.44-5.19-5.44-8.95v-179.65c-.02-11.12-9.07-20.17-20.19-20.17z" /></g><g display="inline"><path d="m178.38 84.58h-40.35c-5.57 0-10.09-4.52-10.09-10.09s4.52-10.09 10.09-10.09h40.35c5.57 0 10.09 4.52 10.09 10.09s-4.52 10.09-10.09 10.09z" /></g><g display="inline"><path d="m178.38 135.01h-40.35c-5.57 0-10.09-4.52-10.09-10.09s4.52-10.09 10.09-10.09h40.35c5.57 0 10.09 4.52 10.09 10.09s-4.52 10.09-10.09 10.09z" /></g><g display="inline"><path d="m178.38 185.45h-40.35c-5.57 0-10.09-4.52-10.09-10.09s4.52-10.09 10.09-10.09h40.35c5.57 0 10.09 4.52 10.09 10.09s-4.52 10.09-10.09 10.09z" /></g></g><g><g><path d="m305.48 476.89c-1 0-2-.15-2.96-.44-4.8-1.47-33.67-13.77-66.71-34.2-43.4-26.84-74.1-55.13-91.25-84.08-2.84-4.79-1.25-10.98 3.54-13.82s10.98-1.25 13.82 3.54c19.2 32.42 56.33 59.74 84.09 76.95 27.24 16.88 50.98 27.64 59.39 31.13 10.89-4.83 47.07-22.82 81.8-47.23 48.83-34.31 74.63-66.51 74.63-93.11v-202.27c-22.91-2.25-54.92-11.48-88.3-25.65-15.76-6.69-49.94-22.34-68.03-39.22-18.31 16.72-53.31 32.47-69.49 39.24-26.51 11.09-61.56 22.84-86.89 25.57v51.03c0 5.57-4.52 10.09-10.09 10.09s-10.09-4.52-10.09-10.09v-60.53c0-5.57 4.52-10.09 10.09-10.09 18.44 0 53.45-9.66 89.2-24.6 40.41-16.89 63.64-32.86 68.73-41.18 1.83-3 5.09-4.82 8.6-4.82s6.77 1.83 8.61 4.82c13.16 21.51 112.83 65.79 157.75 65.79 5.57 0 10.09 4.52 10.09 10.09v211.83c0 34.12-28.28 71.2-84.06 110.21-40.62 28.41-83.22 48.67-89.5 50.6-.97.3-1.97.44-2.97.44z" /></g><g><path d="m278.28 214.76h-189.68c-5.57 0-10.09-4.52-10.09-10.09s4.52-10.09 10.09-10.09h189.67c38.69 0 52.42-23.59 52.42-43.79 0-15.26-9.99-26.33-23.75-26.33-9 0-17.52 7.65-17.52 15.74 0 2.47 1.06 4.79 2.92 6.36 4.25 3.6 4.78 9.97 1.17 14.22-3.6 4.25-9.97 4.77-14.22 1.17-6.39-5.41-10.05-13.34-10.05-21.75 0-19.47 17.26-35.92 37.69-35.92 25.04 0 43.92 19.99 43.92 46.51.02 30.81-22.7 63.97-72.57 63.97z" /></g><g><path d="m256.34 396.27c-20.33 0-37.51-15.1-37.51-32.97 0-8.03 3.83-15.52 10.5-20.55 4.45-3.35 10.78-2.46 14.13 1.99s2.46 10.77-1.99 14.13c-.92.69-2.47 2.19-2.47 4.43 0 6.58 8.42 12.8 17.34 12.8 14.78 0 23.93-12.84 23.93-24.73 0-21.74-20.09-35.24-52.42-35.24l-159.45-.5c-5.57-.02-10.07-4.55-10.06-10.12.02-5.56 4.53-10.06 10.09-10.06h.03l159.41.48c53.55 0 72.56 29.85 72.56 55.42.01 24.77-19.78 44.92-44.09 44.92z" /></g><g><path d="m310.52 265.2h-282.44c-5.57 0-10.09-4.52-10.09-10.09s4.52-10.09 10.09-10.09h282.44c5.57 0 10.09 4.52 10.09 10.09s-4.52 10.09-10.09 10.09z" /></g></g><g display="none"><g display="inline"><path d="m239.91 184.43c-27.81 0-50.44-22.63-50.44-50.44s22.63-50.44 50.44-50.44 50.44 22.63 50.44 50.44-22.63 50.44-50.44 50.44zm0-80.69c-16.69 0-30.26 13.58-30.26 30.26s13.58 30.26 30.26 30.26 30.26-13.58 30.26-30.26-13.57-30.26-30.26-30.26z" /></g><g display="inline"><path d="m239.91 73.47c-5.57 0-10.09-4.52-10.09-10.09v-30.25c0-5.57 4.52-10.09 10.09-10.09s10.09 4.52 10.09 10.09v30.26c0 5.57-4.52 10.08-10.09 10.08z" /></g><g display="inline"><path d="m239.91 244.96c-5.57 0-10.09-4.52-10.09-10.09v-30.26c0-5.57 4.52-10.09 10.09-10.09s10.09 4.52 10.09 10.09v30.26c0 5.57-4.52 10.09-10.09 10.09z" /></g><g display="inline"><path d="m340.78 144.08h-30.26c-5.57 0-10.09-4.52-10.09-10.09s4.52-10.09 10.09-10.09h30.26c5.57 0 10.09 4.52 10.09 10.09s-4.51 10.09-10.09 10.09z" /></g><g display="inline"><path d="m169.3 144.08h-30.26c-5.57 0-10.09-4.52-10.09-10.09s4.52-10.09 10.09-10.09h30.26c5.57 0 10.09 4.52 10.09 10.09s-4.52 10.09-10.09 10.09z" /></g><g display="inline"><path d="m311.24 215.41c-2.58 0-5.16-.98-7.13-2.95l-18.44-18.44c-3.94-3.94-3.94-10.33 0-14.27s10.33-3.94 14.27 0l18.44 18.44c3.94 3.94 3.94 10.33 0 14.27-1.98 1.97-4.56 2.95-7.14 2.95z" /></g><g display="inline"><path d="m187.03 91.2c-2.58 0-5.16-.98-7.13-2.95l-18.44-18.44c-3.94-3.94-3.94-10.33 0-14.27s10.33-3.94 14.27 0l18.44 18.44c3.94 3.94 3.94 10.33 0 14.27-1.98 1.97-4.56 2.95-7.14 2.95z" /></g><g display="inline"><path d="m168.59 215.41c-2.58 0-5.16-.98-7.13-2.95-3.94-3.94-3.94-10.33 0-14.27l18.44-18.44c3.94-3.94 10.33-3.94 14.27 0s3.94 10.33 0 14.27l-18.44 18.44c-1.98 1.97-4.56 2.95-7.14 2.95z" /></g><g display="inline"><path d="m292.8 91.2c-2.58 0-5.16-.98-7.13-2.95-3.94-3.94-3.94-10.33 0-14.27l18.44-18.44c3.94-3.94 10.33-3.94 14.27 0s3.94 10.33 0 14.27l-18.44 18.44c-1.98 1.97-4.56 2.95-7.14 2.95z" /></g><g display="inline"><path d="m451.74 295.39c-5.57 0-10.09-4.52-10.09-10.09v-30.26h-30.25c-5.57 0-10.09-4.52-10.09-10.09s4.52-10.09 10.09-10.09h40.35c5.57 0 10.09 4.52 10.09 10.09v40.35c-.01 5.58-4.53 10.09-10.1 10.09z" /></g><g display="inline"><path d="m290.35 416.44c-2.58 0-5.16-.99-7.13-2.95l-20.17-20.17c-3.94-3.94-3.94-10.33 0-14.27s10.33-3.94 14.27 0l13.04 13.04 154.26-154.26c3.94-3.94 10.33-3.94 14.27 0s3.94 10.33 0 14.27l-161.4 161.4c-1.98 1.95-4.56 2.94-7.14 2.94z" /></g><g display="inline"><path d="m219.74 345.83c-2.58 0-5.16-.99-7.13-2.95l-70.61-70.61c-3.94-3.94-3.94-10.33 0-14.27s10.33-3.94 14.27 0l70.61 70.61c3.94 3.94 3.94 10.33 0 14.27-1.98 1.96-4.56 2.95-7.14 2.95z" /></g><g display="inline"><path d="m360.96 295.39c-5.57 0-10.09-4.52-10.09-10.09v-30.26h-30.26c-5.57 0-10.09-4.52-10.09-10.09s4.52-10.09 10.09-10.09h40.35c5.57 0 10.09 4.52 10.09 10.09v40.35c0 5.58-4.52 10.09-10.09 10.09z" /></g><g display="inline"><path d="m199.56 416.44c-2.58 0-5.16-.99-7.13-2.95l-141.22-141.23c-3.94-3.94-3.94-10.33 0-14.27s10.33-3.94 14.27 0l134.09 134.09 154.26-154.26c3.94-3.94 10.33-3.94 14.27 0s3.94 10.33 0 14.27l-161.4 161.4c-1.97 1.96-4.55 2.95-7.14 2.95z" /></g><g display="inline"><path d="m482.01 476.96h-464.02c-3.29 0-6.37-1.6-8.26-4.3s-2.34-6.14-1.22-9.24l40.35-110.96c1.45-3.99 5.24-6.64 9.48-6.64h40.35c5.57 0 10.09 4.52 10.09 10.09s-4.52 10.09-10.09 10.09h-33.28l-33.01 90.79h435.2l-33.01-90.79h-33.28c-5.57 0-10.09-4.52-10.09-10.09s4.52-10.09 10.09-10.09h40.35c4.24 0 8.03 2.65 9.48 6.64l40.35 110.96c1.12 3.09.67 6.54-1.22 9.24s-4.97 4.3-8.26 4.3z" /></g></g><g display="none"><g display="inline"><path d="m91.86 481.39c-.68 0-1.36-.07-2.03-.21-3.35-.69-6.12-3.03-7.36-6.21l-73.87-189.19c-1.45-3.71-.58-7.92 2.21-10.75 23.27-23.61 60.51-36.08 107.72-36.08h.35c5.57.01 10.08 4.53 10.07 10.1s-4.52 10.07-10.09 10.07c-.08 0-.22 0-.33 0-27.35 0-64.03 4.61-88.66 25.69l66.14 169.41c45.99-35.08 112.8-26.24 183.22-16.92 67.94 8.99 138.09 18.27 190.37-13.16l-66.44-170.18c-8.94 5.09-18.56 9.34-28.73 12.69-5.3 1.74-10.99-1.14-12.73-6.43s1.14-10.99 6.43-12.73c12.52-4.12 24.04-9.78 34.26-16.84 2.54-1.75 5.74-2.25 8.68-1.35 2.95.9 5.32 3.1 6.44 5.98l73.87 189.2c1.7 4.36.18 9.31-3.66 11.97-59.29 40.94-136.48 30.73-211.14 20.85-71.32-9.43-138.69-18.35-177.55 21.09-1.9 1.94-4.49 3-7.17 3z" /></g><g display="inline"><path d="m142.61 339.83c-.03 0-.06 0-.09 0-5.57-.05-10.05-4.61-10-10.18.5-54.99 16.73-109.35 46.95-157.2 1.67-2.64 4.47-4.36 7.58-4.66 3.11-.29 6.18.87 8.32 3.15 12.41 13.27 18.28 34.23 20.21 41.12 1.5 5.36-1.63 10.93-6.99 12.43-5.37 1.5-10.93-1.63-12.43-6.99-2.29-8.17-4.84-15.12-7.64-20.8-23.06 41.27-35.4 86.99-35.82 133.13-.06 5.54-4.57 10-10.09 10z" /></g><g display="inline"><path d="m195.33 377.88c-5.2 0-9.62-4-10.04-9.28-.45-5.55 3.69-10.42 9.24-10.86 42.22-3.4 73.52-25.17 89.68-41.7-5.71-1.98-11.37-3.26-17.6-4.04-5.53-.69-9.45-5.73-8.76-11.26s5.73-9.46 11.26-8.76c12.91 1.61 23.72 4.94 36.15 11.13 2.64 1.32 4.58 3.73 5.29 6.59.71 2.87.13 5.9-1.58 8.3-13.33 18.63-54.05 55.11-112.8 59.84-.29.03-.57.04-.84.04z" /></g><g display="inline"><path d="m286.08 316.1c-2.87 0-5.72-1.22-7.71-3.58-3.59-4.26-3.05-10.62 1.2-14.21 22.89-19.31 44.29-44.81 60.26-71.81 10.14-17.14 15.36-30.13 17.58-37.9-6.93 1.6-16.48 5.84-24 11.65-4.41 3.4-10.74 2.59-14.15-1.82-3.4-4.41-2.59-10.74 1.82-14.15 11.4-8.8 35.31-20.65 50.91-14.98 3.11 1.13 5.47 3.71 6.31 6.91 4.08 15.5-14.28 48.83-20 58.67-9.97 17.15-31.76 50.19-65.72 78.84-1.89 1.6-4.2 2.38-6.5 2.38z" /></g><g display="inline"><path d="m199.95 207.52c-.71 0-1.43-.08-2.16-.23-5.44-1.19-8.9-6.56-7.71-12 8.31-38.14 17.63-62.39 30.22-78.63 12.33-15.9 26.78-23.1 43.5-31.44 21.67-10.8 48.64-24.25 85.39-63.42 2.49-2.65 6.22-3.76 9.76-2.9s6.33 3.57 7.31 7.08l.45 1.61c13.2 47.07 25.66 91.54-1.56 155.04-2.19 5.12-8.12 7.49-13.25 5.3-5.12-2.19-7.49-8.13-5.3-13.25 21.66-50.52 15.45-87.1 4.89-126.42-33.21 32.34-59.17 45.29-78.7 55.02-31.39 15.65-47.15 23.51-63.01 96.3-1.02 4.72-5.19 7.94-9.83 7.94z" /></g><g display="inline"><path d="m107.75 410.9c-3.3 0-6.53-1.61-8.46-4.58-3.04-4.67-1.73-10.92 2.94-13.96 77.36-50.44 152.92-182.09 182.06-244.65 2.35-5.05 8.36-7.24 13.4-4.88 5.05 2.35 7.24 8.35 4.88 13.4-7.18 15.41-33.8 70.36-75.08 130.49-39.63 57.72-78.06 98.95-114.24 122.54-1.7 1.11-3.61 1.64-5.5 1.64z" /></g></g><g display="none"><g display="inline"><path d="m235.81 300.44c-50.06 0-90.79-40.21-90.79-89.64 0-39 22.68-69.75 44.62-99.49 16.24-22.02 31.58-42.82 36.3-65.14.99-4.66 5.1-8 9.87-8s8.88 3.34 9.87 8c4.72 22.31 20.06 43.11 36.3 65.14 21.93 29.74 44.62 60.5 44.62 99.49-.01 49.42-40.73 89.63-90.79 89.64zm0-222.84c-8.01 15.95-19.09 30.98-29.93 45.68-20.92 28.36-40.68 55.16-40.68 87.52 0 38.3 31.68 69.46 70.61 69.46s70.61-31.16 70.61-69.46c0-32.36-19.76-59.15-40.68-87.52-10.84-14.7-21.93-29.73-29.93-45.68z" /></g><g display="inline"><path d="m245.9 260.09c-4 0-7.78-2.39-9.36-6.33-2.08-5.17.43-11.04 5.6-13.12 11.69-4.7 20.37-14.62 23.22-26.53 1.3-5.42 6.74-8.76 12.16-7.47 5.42 1.3 8.76 6.74 7.47 12.16-4.37 18.27-17.57 33.43-35.32 40.56-1.25.5-2.52.73-3.77.73z" /></g><g display="inline"><path d="m235.81 461.83c-107.89 0-197.39-49.64-217.65-120.72-.74-2.59-.41-5.37.91-7.72s3.53-4.07 6.13-4.78l102.03-27.83c3.03-.83 6.28-.19 8.78 1.72s3.96 4.87 3.96 8.02c0 37.08 26.8 71.84 53.27 87.01 4.83 2.77 6.51 8.93 3.74 13.77-2.77 4.83-8.93 6.51-13.77 3.74-33.34-19.11-57.7-55.42-62.54-91.55l-79.78 21.76c10.49 25.69 32.93 48.8 64.19 65.86 23.76 12.97 52 22.1 82.27 26.83 38.57-6.24 73.37-19.99 100.68-39.82 23.95-17.38 40.62-38.34 48.68-61.06l-30.01-11.26c-3.54-1.33-6.04-4.53-6.48-8.28-.43-3.76 1.27-7.44 4.41-9.54l136.75-91.45c2.85-1.91 6.47-2.23 9.62-.87 3.14 1.36 5.38 4.23 5.94 7.61l25.14 152.2c.59 3.55-.77 7.15-3.55 9.44s-6.57 2.92-9.95 1.65l-33.18-12.45c-36.92 53.54-114.1 87.72-199.59 87.72zm122.89-127.66c-12.01 45.98-52.06 84.73-107.74 107.11 76.06-3.82 142.45-36.21 171.77-84.7 1.42-2.35 3.73-4.02 6.41-4.62 2.06-.46 4.2-.27 6.12.54l24.08 9.04-19.74-119.55-107.4 71.82 20.26 7.6c.2.07.4.15.6.23 4.88 2.08 7.31 7.56 5.64 12.53z" /></g></g><g display="none"><g display="inline"><path d="m91.86 472.1c-.68 0-1.36-.07-2.03-.21-3.35-.69-6.12-3.03-7.36-6.21l-73.87-189.2c-1.45-3.71-.58-7.92 2.21-10.75 33.5-33.99 80.76-36.48 118.18-34.86 5.57.24 9.88 4.95 9.64 10.52s-4.95 9.88-10.52 9.64c-45.97-2-76.65 5.57-98.25 24.45l66.16 169.45c45.99-35.08 112.8-26.24 183.22-16.92 67.94 8.99 138.09 18.27 190.37-13.16l-66.44-170.17c-20.2 11.54-43.57 18.57-71.02 21.43-5.55.58-10.5-3.45-11.08-8.99s3.45-10.5 8.99-11.08c28.99-3.02 52.65-11.09 72.34-24.69 2.54-1.75 5.74-2.25 8.68-1.34 2.95.9 5.32 3.1 6.44 5.98l73.87 189.2c1.7 4.36.18 9.31-3.66 11.97-59.29 40.94-136.49 30.73-211.14 20.85-71.32-9.43-138.69-18.35-177.55 21.09-1.91 1.93-4.5 3-7.18 3z" /></g><g display="inline"><path d="m325.65 159.04c-25.03 0-45.39-20.59-45.39-45.91 0-19.52 10.89-35.19 20.49-49.01 6.78-9.75 13.18-18.97 15.01-28.11.94-4.71 5.08-8.11 9.89-8.11s8.95 3.39 9.89 8.11c1.83 9.15 8.23 18.36 15.01 28.11 9.6 13.82 20.49 29.48 20.49 49 .01 25.32-20.36 45.92-45.39 45.92zm0-95.87c-2.63 4.26-5.5 8.39-8.33 12.47-8.68 12.49-16.88 24.29-16.88 37.49 0 14.19 11.31 25.73 25.22 25.73 13.9 0 25.22-11.54 25.22-25.73 0-13.2-8.2-25-16.88-37.49-2.85-4.08-5.72-8.21-8.35-12.47z" /></g><g display="inline"><path d="m113.82 199.39c-25.03 0-45.39-20.59-45.39-45.91 0-19.52 10.89-35.19 20.49-49.01 6.78-9.75 13.18-18.97 15.01-28.11.94-4.71 5.08-8.11 9.89-8.11s8.95 3.39 9.89 8.11c1.83 9.15 8.23 18.36 15.01 28.11 9.6 13.82 20.49 29.48 20.49 49 0 25.32-20.36 45.92-45.39 45.92zm0-95.88c-2.63 4.26-5.5 8.39-8.33 12.47-8.68 12.49-16.88 24.29-16.88 37.49 0 14.19 11.31 25.73 25.22 25.73 13.9 0 25.22-11.54 25.22-25.73 0-13.2-8.2-25-16.88-37.49-2.85-4.07-5.72-8.21-8.35-12.47z" /></g><g display="inline"><path d="m230.44 360.78c-21.79 0-42.3-9.18-57.76-25.83-15.19-16.37-23.55-37.85-23.55-60.49 0-37.27 20.02-66.73 39.38-95.21 14.35-21.11 27.9-41.05 32.03-62.47.92-4.75 5.07-8.18 9.9-8.18s8.99 3.43 9.9 8.18c4.13 21.41 17.42 41.33 31.48 62.41 19.02 28.51 38.7 58 38.7 95.28 0 47.59-35.92 86.31-80.08 86.31zm-.05-211.38c-6.95 14.32-16.17 27.89-25.2 41.18-18.46 27.16-35.89 52.81-35.89 83.87 0 35.85 28 66.15 61.14 66.15 33.03 0 59.91-29.68 59.91-66.15 0-31.17-17.15-56.87-35.3-84.08-8.83-13.22-17.84-26.72-24.66-40.97z" /></g></g><g display="none"><g display="inline"><path d="m78.52 451.75c-5.57 0-10.09-4.52-10.09-10.09v-60.52c0-5.57 4.52-10.09 10.09-10.09h60.52c5.57 0 10.09 4.52 10.09 10.09s-4.52 10.09-10.09 10.09h-50.44v50.44c0 5.56-4.51 10.08-10.08 10.08z" /></g><g display="inline"><path d="m247.27 471.92c-56.54 0-102.68-16.83-145.03-52.84-7.04-5.99-28.58-28.44-31.01-30.98-3.85-4.02-3.71-10.41.31-14.26s10.41-3.71 14.26.31c6.41 6.7 24.21 25.06 29.51 29.57 39.67 33.74 81.19 48.59 134.59 48.02 54.37-.53 104.84-21.35 142.11-58.62 38.63-38.63 59.85-89.45 59.74-143.1-.06-27.7-6.32-56.02-18.12-81.9-2.31-5.07-.08-11.05 4.99-13.36s11.05-.08 13.36 4.99c12.98 28.48 19.88 59.68 19.94 90.23.12 59.05-23.19 114.96-65.65 157.41-41.02 41.02-96.49 63.94-156.17 64.53-.94 0-1.89 0-2.83 0z" /></g><g display="inline"><path d="m57.21 346.16c-3.83 0-7.49-2.19-9.18-5.9-12.98-28.48-19.88-59.68-19.94-90.23-.12-59.06 23.19-114.96 65.65-157.41 41.03-41.03 96.49-63.94 156.17-64.53 57.85-.56 104.81 16.22 147.85 52.83 7.04 5.99 28.58 28.44 31.01 30.98 3.85 4.02 3.71 10.41-.31 14.26s-10.41 3.71-14.26-.31c-6.41-6.7-24.21-25.06-29.51-29.57-39.67-33.74-81.2-48.52-134.59-48.02-54.37.53-104.84 21.35-142.11 58.62-38.63 38.63-59.85 89.45-59.74 143.1.06 27.7 6.32 56.02 18.12 81.9 2.31 5.07.08 11.05-4.99 13.36-1.35.63-2.77.92-4.17.92z" /></g><g display="inline"><path d="m421.48 128.96h-60.52c-5.57 0-10.09-4.52-10.09-10.09s4.52-10.09 10.09-10.09h50.44v-50.43c0-5.57 4.52-10.09 10.09-10.09s10.09 4.52 10.09 10.09v60.52c-.01 5.57-4.53 10.09-10.1 10.09z" /></g><g display="inline"><path d="m260.09 411.4c-38.93 0-70.61-31.68-70.61-70.61 0-24.94 10.94-45.8 30.26-58.17v-153.66c0-22.25 18.1-40.35 40.35-40.35s40.35 18.1 40.35 40.35v153.66c19.32 12.37 30.26 33.23 30.26 58.17 0 38.94-31.68 70.61-70.61 70.61zm0-302.62c-11.12 0-20.17 9.05-20.17 20.17v159.47c0 3.77-2.1 7.22-5.44 8.95-16.01 8.3-24.82 23.72-24.82 43.41 0 27.81 22.63 50.44 50.44 50.44s50.44-22.63 50.44-50.44c0-19.69-8.81-35.1-24.82-43.41-3.34-1.73-5.44-5.19-5.44-8.95v-159.46c-.02-11.13-9.07-20.18-20.19-20.18z" /></g><g display="inline"><path d="m189.48 159.22h-40.35c-5.57 0-10.09-4.52-10.09-10.09s4.52-10.09 10.09-10.09h40.35c5.57 0 10.09 4.52 10.09 10.09s-4.52 10.09-10.09 10.09z" /></g><g display="inline"><path d="m189.48 209.66h-40.35c-5.57 0-10.09-4.52-10.09-10.09s4.52-10.09 10.09-10.09h40.35c5.57 0 10.09 4.52 10.09 10.09s-4.52 10.09-10.09 10.09z" /></g><g display="inline"><path d="m189.48 260.09h-40.35c-5.57 0-10.09-4.52-10.09-10.09s4.52-10.09 10.09-10.09h40.35c5.57 0 10.09 4.52 10.09 10.09s-4.52 10.09-10.09 10.09z" /></g></g><g display="none"><g display="inline"><path d="m219.07 464.09c-.04 0-.08 0-.12 0-38.19-.03-72.3-13.42-93.59-36.73-3.76-4.12-3.47-10.49.65-14.25s10.5-3.46 14.25.65c17.22 18.86 46.65 30.14 78.71 30.16h.11c32.14 0 61.66-11.28 78.97-30.17 3.76-4.11 10.14-4.39 14.25-.63s4.39 10.14.63 14.25c-21.08 22.99-56.15 36.72-93.86 36.72z" /></g><g display="inline"><path d="m144.66 479.66c-4.55 0-8.68-3.1-9.8-7.72l-11.86-49.02c-.63-2.6-.2-5.34 1.19-7.63 1.39-2.28 3.64-3.92 6.24-4.55l49.02-11.86c5.41-1.32 10.87 2.02 12.18 7.43s-2.02 10.87-7.43 12.18l-39.22 9.49 9.49 39.22c1.31 5.41-2.02 10.87-7.43 12.18-.79.19-1.59.28-2.38.28z" /></g><g display="inline"><path d="m356.79 191.63c-3.07 0-6.09-1.39-8.07-4.03-16.76-22.32-45.2-35.66-76.08-35.69-.03 0-.06 0-.08 0-30.95 0-59.47 13.34-76.31 35.7-3.35 4.45-9.68 5.34-14.13 1.99s-5.34-9.68-1.99-14.13c20.63-27.39 55.18-43.74 92.43-43.74h.1c37.19.03 71.66 16.38 92.2 43.75 3.34 4.46 2.44 10.78-2.01 14.12-1.83 1.38-3.95 2.03-6.06 2.03z" /></g><g display="inline"><path d="m356.77 191.63c-2.11 0-4.23-.66-6.05-2.02-4.46-3.34-5.36-9.67-2.01-14.12 20.87-27.8 56.59-43.75 97.99-43.75 5.57 0 10.09 4.52 10.09 10.09s-4.52 10.09-10.09 10.09c-34.99 0-64.83 13.01-81.85 35.69-1.99 2.63-5.01 4.02-8.08 4.02z" /></g><g display="inline"><path d="m227.59 363.75c-37.25 0-71.8-16.35-92.43-43.74-3.35-4.45-2.46-10.77 1.99-14.13 4.45-3.35 10.77-2.46 14.13 1.99 16.84 22.36 45.36 35.7 76.31 35.7h.08c30.88-.02 59.32-13.36 76.08-35.69 3.34-4.46 9.67-5.36 14.12-2.01 4.46 3.34 5.36 9.67 2.01 14.12-20.55 27.37-55.01 43.72-92.2 43.75-.03.01-.06.01-.09.01z" /></g><g display="inline"><path d="m401.74 363.75c-41.4 0-77.11-15.95-97.99-43.75-3.34-4.46-2.44-10.78 2.01-14.12 4.46-3.35 10.78-2.44 14.12 2.01 17.03 22.68 46.86 35.69 81.85 35.69 5.57 0 10.09 4.52 10.09 10.09s-4.51 10.08-10.08 10.08z" /></g><g display="inline"><path d="m53.3 363.75c-5.57 0-10.09-4.52-10.09-10.09s4.52-10.09 10.09-10.09c34.99 0 64.83-13.01 81.85-35.69 3.34-4.46 9.67-5.36 14.12-2.01 4.46 3.34 5.36 9.67 2.01 14.12-20.87 27.81-56.58 43.76-97.98 43.76z" /></g><g display="inline"><path d="m188.19 191.63c-3.07 0-6.09-1.39-8.07-4.03-17.03-22.68-46.86-35.69-81.85-35.69-5.57 0-10.09-4.52-10.09-10.09s4.52-10.09 10.09-10.09c41.4 0 77.11 15.95 97.99 43.75 3.34 4.46 2.44 10.78-2.01 14.12-1.83 1.38-3.95 2.03-6.06 2.03z" /></g><g display="inline"><path d="m162.39 267.57c-1.08 0-2.17-.17-3.24-.54-5.28-1.79-8.1-7.52-6.31-12.79l25.79-75.94c1.79-5.28 7.52-8.1 12.79-6.31 5.28 1.79 8.1 7.52 6.31 12.79l-25.79 75.94c-1.42 4.21-5.35 6.85-9.55 6.85z" /></g><g display="inline"><path d="m143.22 324.03c-1.08 0-2.17-.17-3.24-.54-5.28-1.79-8.1-7.52-6.31-12.79l5.66-16.68c1.79-5.28 7.52-8.1 12.79-6.31 5.28 1.79 8.1 7.52 6.31 12.79l-5.66 16.68c-1.42 4.2-5.35 6.85-9.55 6.85z" /></g><g display="inline"><path d="m350.83 209.17c-1.08 0-2.17-.17-3.24-.54-5.28-1.79-8.1-7.52-6.31-12.79l5.95-17.53c1.79-5.28 7.52-8.09 12.79-6.31 5.28 1.79 8.1 7.52 6.31 12.79l-5.95 17.53c-1.43 4.2-5.35 6.85-9.55 6.85z" /></g><g display="inline"><path d="m311.82 324.03c-1.08 0-2.17-.17-3.24-.54-5.28-1.79-8.1-7.52-6.31-12.79l24.19-71.25c1.79-5.28 7.52-8.09 12.79-6.31 5.28 1.79 8.1 7.52 6.31 12.79l-24.19 71.25c-1.42 4.2-5.35 6.85-9.55 6.85z" /></g><g display="inline"><path d="m366.01 89.53c-2.74 0-5.46-1.11-7.45-3.29-17.22-18.86-46.64-30.14-78.71-30.16-.04 0-.07 0-.11 0-32.14 0-61.66 11.28-78.97 30.17-3.76 4.11-10.14 4.39-14.25.63s-4.39-10.14-.63-14.25c21.06-23 56.14-36.72 93.84-36.72h.12c38.19.03 72.3 13.42 93.59 36.73 3.76 4.12 3.47 10.49-.65 14.25-1.92 1.77-4.36 2.64-6.78 2.64z" /></g><g display="inline"><path d="m316.97 101.39c-4.55 0-8.68-3.1-9.8-7.72-1.31-5.41 2.02-10.87 7.43-12.18l39.22-9.49-9.49-39.22c-1.31-5.41 2.02-10.87 7.43-12.18 5.41-1.32 10.87 2.02 12.18 7.43l11.86 49.02c.63 2.6.2 5.34-1.19 7.63-1.39 2.28-3.64 3.92-6.24 4.55l-49.02 11.86c-.79.21-1.59.3-2.38.3z" /></g></g><g display="none"><g display="inline"><path d="m189.48 448.72c-3.67 0-7.22-2.01-9-5.51-2.53-4.96-.55-11.04 4.41-13.57 51-25.96 85.27-98.09 85.27-179.5v-.28c0-81.41-34.27-153.54-85.27-179.5-4.96-2.53-6.94-8.6-4.41-13.57 2.53-4.96 8.6-6.94 13.57-4.41 57.6 29.31 96.3 108.68 96.3 197.48v.28c0 88.8-38.7 168.17-96.3 197.48-1.46.75-3.03 1.1-4.57 1.1z" /></g><g display="inline"><path d="m300.43 470.91c-1.73 0-3.49-.45-5.09-1.39-4.81-2.82-6.42-9-3.6-13.8 15.07-25.71 38.97-104.25 38.97-205.57v-.31c0-101.32-23.9-179.86-38.97-205.57-2.82-4.81-1.2-10.99 3.6-13.8 4.81-2.82 10.99-1.21 13.8 3.6 20.23 34.52 41.74 121.88 41.74 215.77v.31c0 93.89-21.5 181.24-41.74 215.77-1.88 3.21-5.25 4.99-8.71 4.99z" /></g><g display="inline"><path d="m391.22 482.01c-5.57 0-10.09-4.52-10.09-10.09v-443.84c0-5.57 4.52-10.09 10.09-10.09s10.09 4.52 10.09 10.09v443.84c0 5.57-4.52 10.09-10.09 10.09z" /></g><g display="inline"><path d="m179.39 310.52c-2.58 0-5.16-.99-7.13-2.95-3.94-3.94-3.94-10.33 0-14.27l43.3-43.3-43.3-43.3c-3.94-3.94-3.94-10.33 0-14.27s10.33-3.94 14.27 0l50.44 50.44c3.94 3.94 3.94 10.33 0 14.27l-50.44 50.44c-1.98 1.96-4.56 2.94-7.14 2.94z" /></g><g display="inline"><path d="m229.83 260.09h-121.05c-5.57 0-10.09-4.52-10.09-10.09s4.52-10.09 10.09-10.09h121.05c5.57 0 10.09 4.52 10.09 10.09s-4.52 10.09-10.09 10.09z" /></g></g><g display="none"><g display="inline"><path d="m118.88 452.04c-3.47 0-6.85-1.8-8.73-5.01-2.8-4.81-1.17-10.99 3.64-13.79 21.15-12.31 40.24-36.47 53.76-68.02 14.34-33.48 21.93-73.22 21.93-114.92v-.28c0-41.7-7.58-81.44-21.93-114.92-13.52-31.55-32.61-55.71-53.76-68.02-4.81-2.8-6.45-8.98-3.64-13.79 2.8-4.81 8.98-6.44 13.79-3.64 51.27 29.85 85.71 110.37 85.71 200.38v.28c0 90.01-34.44 170.53-85.71 200.38-1.59.91-3.34 1.35-5.06 1.35z" /></g><g display="inline"><path d="m381.12 452.04c-1.72 0-3.47-.44-5.07-1.37-51.26-29.85-85.71-110.37-85.71-200.38v-.28c0-90.01 34.44-170.53 85.71-200.38 4.82-2.8 10.99-1.17 13.79 3.64s1.17 10.99-3.64 13.79c-21.15 12.31-40.24 36.47-53.76 68.02-14.35 33.48-21.93 73.22-21.93 114.92v.28c0 41.7 7.58 81.44 21.93 114.92 13.52 31.55 32.61 55.71 53.76 68.02 4.81 2.8 6.44 8.98 3.64 13.79-1.86 3.23-5.24 5.03-8.72 5.03z" /></g><g display="inline"><path d="m250 482.01c-5.57 0-10.09-4.52-10.09-10.09v-443.84c0-5.57 4.52-10.09 10.09-10.09s10.09 4.52 10.09 10.09v443.84c0 5.57-4.52 10.09-10.09 10.09z" /></g><g display="inline"><path d="m98.69 310.52c-2.58 0-5.16-.99-7.13-2.95-3.94-3.94-3.94-10.33 0-14.27l43.3-43.3-43.3-43.3c-3.94-3.94-3.94-10.33 0-14.27s10.33-3.94 14.27 0l50.44 50.44c3.94 3.94 3.94 10.33 0 14.27l-50.44 50.44c-1.97 1.96-4.56 2.94-7.14 2.94z" /></g><g display="inline"><path d="m149.13 260.09h-110.96c-5.57 0-10.09-4.52-10.09-10.09s4.52-10.09 10.09-10.09h110.96c5.57 0 10.09 4.52 10.09 10.09s-4.52 10.09-10.09 10.09z" /></g><g display="inline"><path d="m401.31 310.52c-2.58 0-5.16-.99-7.13-2.95l-50.44-50.44c-3.94-3.94-3.94-10.33 0-14.27l50.44-50.44c3.94-3.94 10.33-3.94 14.27 0s3.94 10.33 0 14.27l-43.3 43.3 43.3 43.3c3.94 3.94 3.94 10.33 0 14.27-1.98 1.98-4.56 2.96-7.14 2.96z" /></g><g display="inline"><path d="m461.83 260.09h-110.96c-5.57 0-10.09-4.52-10.09-10.09s4.52-10.09 10.09-10.09h110.96c5.57 0 10.09 4.52 10.09 10.09s-4.52 10.09-10.09 10.09z" /></g></g><g display="none"><g display="inline"><path d="m347.31 364.37c-8.95 0-21.07-3.26-31.71-8.76-12.51-6.47-28.71-18.79-34.88-40.79l-16.54-52.47-5.29-11.24c-24.56-24.28-54.56-51.64-61.21-54.37-6.34-2.29-12.74.28-30.34 8.04-2.37 1.05-4.89 2.16-7.58 3.32-1.6 1.59-3.91 4.63-3.55 7 2.11 14.14 7.96 24.35 13.13 33.37 3.5 6.11 6.81 11.89 8.63 18.18 5.81 20.12 4.75 36.79-3.17 49.53-4 6.44-10.41 10.13-18.06 10.38-10.52.32-22.35-6.06-29.44-15.95-5.4-7.53-67.93-99.9-86.96-128.03-3.37-4.98-5.54-10.54-6.44-16.53l-4.55-30.08c-.56-3.72-2.15-7.2-4.59-10.06l-13.69-16.07c-3.61-4.24-3.1-10.61 1.14-14.22s10.61-3.1 14.22 1.14l13.69 16.07c4.88 5.73 8.05 12.69 9.17 20.13l4.55 30.08c.45 2.99 1.53 5.77 3.2 8.24 39.15 57.86 82.48 121.76 86.65 127.58 3.33 4.64 9.11 7.61 12.38 7.54.98-.03 1.21-.26 1.58-.86 4.77-7.69 5.08-18.89.92-33.29-1.15-3.96-3.74-8.5-6.75-13.75-5.75-10.03-12.9-22.52-15.58-40.41-2.25-15.06 10.37-25.42 11.82-26.55.68-.53 1.43-.98 2.22-1.32 3.19-1.38 6.15-2.68 8.91-3.89 18.71-8.25 31.07-13.7 45.37-8.54 12.84 4.63 53.08 43.68 69.78 60.25.83.83 1.52 1.8 2.02 2.86l6.35 13.47c.19.41.36.83.49 1.27l16.79 53.27c.03.11.07.22.1.33 6.04 21.77 28.17 31.5 40.72 34.18l-21.31-85.85-48.03-102.01c-3.43-7.29-8.91-13.33-15.83-17.46l-128.64-76.76c-4.78-2.86-6.35-9.05-3.49-13.83s9.05-6.35 13.83-3.49l128.65 76.77c10.38 6.19 18.59 15.25 23.74 26.19l48.46 102.91c.28.6.5 1.23.66 1.87l24.25 97.71c.07.28.13.56.17.84.84 5.25-2.03 11.72-10.3 13.52-1.67.36-3.58.54-5.66.54z" /></g><g display="inline"><path d="m225.81 321.67c-1.87 0-3.74-.52-5.39-1.56-5.74-3.63-19.17-12.13-21.8-27.02-1.72-9.74 1.49-19.97 9.53-30.39 5.92-7.68 14.08-14.36 19.23-18.21l-1.68-28.88c-.33-5.56 3.92-10.33 9.48-10.66 5.55-.34 10.33 3.92 10.66 9.48l2.01 34.46c.21 3.61-1.53 7.06-4.56 9.04-.11.07-12.18 8.02-19.16 17.08-4.43 5.75-6.33 10.65-5.64 14.56.65 3.68 3.76 6.95 6.96 9.49l45.88-35.86c4.39-3.43 10.73-2.65 14.16 1.74s2.65 10.73-1.74 14.16l-51.73 40.42c-1.82 1.44-4.01 2.15-6.21 2.15z" /></g><g display="inline"><path d="m340.03 406.98c-27.37 0-43.92-8.2-59.92-16.13-14.66-7.27-28.5-14.13-51.46-14.13h-181.15c-5.57 0-10.09-4.52-10.09-10.09s4.52-10.09 10.09-10.09h181.15c27.69 0 44.33 8.25 60.42 16.23 14.56 7.22 28.31 14.03 50.96 14.03 30.31 0 43.67-7.99 56.59-15.72 11.5-6.88 23.39-13.99 44.01-14.54 30.44-.82 41-.01 41.43.03 5.55.45 9.69 5.31 9.25 10.86-.45 5.55-5.3 9.71-10.85 9.25-.36-.03-10.67-.74-39.28.03-15.34.41-23.66 5.39-34.2 11.69-13.84 8.28-31.07 18.58-66.95 18.58z" /></g><g display="inline"><path d="m340.03 457.41c-28.47 0-50.03-9.86-69.06-18.56-13.74-6.28-25.61-11.71-36.86-11.71h-186.61c-5.57 0-10.09-4.52-10.09-10.09s4.52-10.09 10.09-10.09h186.61c15.65 0 30.03 6.57 45.25 13.53 17.99 8.22 36.59 16.73 60.67 16.73 24.07 0 42.68-8.5 60.67-16.73 15.22-6.96 29.6-13.53 45.25-13.53h35.31c5.57 0 10.09 4.52 10.09 10.09s-4.52 10.09-10.09 10.09h-35.31c-11.25 0-23.12 5.43-36.86 11.71-19.03 8.71-40.59 18.56-69.06 18.56z" /></g></g><g display="none"><g display="inline"><path d="m211.96 464.56c-3.87 0-7.44-2.23-9.12-5.78-1.81-3.83-3.74-8.19-5.79-12.81-11.24-25.33-26.64-60.02-54.82-88.2s-62.87-43.58-88.2-54.82c-4.61-2.05-8.97-3.98-12.8-5.79-3.87-1.82-6.17-5.89-5.73-10.15s3.51-7.78 7.67-8.78c42.42-10.25 104.32-37.76 150.81-84.26 46.5-46.5 74.02-108.39 84.26-150.81 1-4.16 4.52-7.23 8.78-7.67 4.25-.42 8.32 1.86 10.15 5.73 1.81 3.83 3.74 8.19 5.79 12.81 11.24 25.33 26.64 60.02 54.82 88.2s62.87 43.58 88.19 54.82c4.62 2.05 8.98 3.98 12.81 5.79 3.87 1.82 6.17 5.89 5.73 10.15s-3.51 7.77-7.67 8.78c-42.42 10.25-104.31 37.76-150.81 84.26-46.5 46.5-74.02 108.39-84.26 150.81-1 4.16-4.52 7.23-8.78 7.67-.35.03-.69.05-1.03.05zm-137.49-174.55c24.37 11.15 55.85 27.32 82.03 53.5s42.35 57.66 53.5 82.03c11.5-33.66 35.57-87.57 81.77-133.77s100.11-70.27 133.77-81.77c-24.37-11.15-55.85-27.32-82.03-53.5s-42.35-57.66-53.5-82.03c-11.5 33.66-35.57 87.57-81.77 133.77s-100.11 70.27-133.77 81.77zm224.43 8.89h.01z" /></g><g display="inline"><path d="m43.21 461.83c-2.58 0-5.16-.99-7.13-2.95-3.94-3.94-3.94-10.33 0-14.27l60.52-60.52c3.94-3.94 10.33-3.94 14.27 0s3.94 10.33 0 14.27l-60.52 60.52c-1.97 1.97-4.56 2.95-7.14 2.95z" /></g><g display="inline"><path d="m93.65 461.83h-50.44c-5.57 0-10.09-4.52-10.09-10.09v-50.44c0-5.57 4.52-10.09 10.09-10.09s10.09 4.52 10.09 10.09v40.35h40.35c5.57 0 10.09 4.52 10.09 10.09s-4.52 10.09-10.09 10.09z" /></g><g display="inline"><path d="m396.26 118.87c-2.58 0-5.16-.99-7.13-2.95-3.94-3.94-3.94-10.33 0-14.27l60.52-60.52c3.94-3.94 10.33-3.94 14.27 0s3.94 10.33 0 14.27l-60.52 60.52c-1.97 1.96-4.55 2.95-7.14 2.95z" /></g><g display="inline"><path d="m456.79 108.78c-5.57 0-10.09-4.52-10.09-10.09v-40.35h-40.35c-5.57 0-10.09-4.52-10.09-10.09s4.52-10.09 10.09-10.09h50.44c5.57 0 10.09 4.52 10.09 10.09v50.44c-.01 5.57-4.52 10.09-10.09 10.09z" /></g></g><g display="none"><g display="inline"><path d="m366 239.91c-1.61 0-3.23-.39-4.71-1.17-3.3-1.75-5.37-5.18-5.37-8.92v-30.26h-110.96c-5.57 0-10.09-4.52-10.09-10.09s4.52-10.09 10.09-10.09h121.04c5.57 0 10.09 4.52 10.09 10.09v21.26l82.97-56.57-82.97-56.56v21.26c0 5.57-4.52 10.09-10.09 10.09h-121.04c-5.57 0-10.09-4.52-10.09-10.09s4.52-10.09 10.09-10.09h110.96v-30.25c0-3.74 2.07-7.17 5.37-8.92 3.31-1.75 7.31-1.52 10.4.58l110.96 75.65c2.76 1.88 4.4 5 4.4 8.33 0 3.34-1.65 6.45-4.4 8.33l-110.96 75.65c-1.71 1.18-3.7 1.77-5.69 1.77z" /></g><g display="inline"><path d="m134 431.57c-1.99 0-3.98-.59-5.68-1.75l-110.96-75.66c-2.76-1.88-4.4-5-4.4-8.33s1.65-6.45 4.4-8.33l110.96-75.65c3.09-2.11 7.09-2.33 10.4-.58 3.3 1.75 5.37 5.18 5.37 8.92v30.26h20.17c5.57 0 10.09 4.52 10.09 10.09s-4.52 10.09-10.09 10.09h-30.26c-5.57 0-10.09-4.52-10.09-10.09v-21.26l-82.97 56.57 82.97 56.57v-21.26c0-5.57 4.52-10.09 10.09-10.09h30.26c5.57 0 10.09 4.52 10.09 10.09s-4.52 10.09-10.09 10.09h-20.17v30.26c0 3.74-2.07 7.17-5.37 8.92-1.49.75-3.11 1.14-4.72 1.14z" /></g><g display="inline"><path d="m194.52 492.09c-2.04 0-4.07-.62-5.79-1.82-2.7-1.89-4.3-4.97-4.3-8.26v-464.01c0-3.29 1.6-6.37 4.3-8.26 2.69-1.89 6.14-2.34 9.24-1.22l110.96 40.35c3.99 1.45 6.64 5.24 6.64 9.48v30.26c0 5.57-4.52 10.09-10.09 10.09s-10.09-4.52-10.09-10.09v-23.2l-90.78-33.01v435.2l90.78-33.01v-23.2c0-5.57 4.52-10.09 10.09-10.09s10.09 4.52 10.09 10.09v30.26c0 4.24-2.65 8.03-6.64 9.48l-110.96 40.35c-1.12.41-2.29.61-3.45.61z" /></g><g display="inline"><path d="m164.26 128.95h-100.87c-5.57 0-10.09-4.52-10.09-10.09s4.52-10.09 10.09-10.09h100.87c5.57 0 10.09 4.52 10.09 10.09 0 5.58-4.52 10.09-10.09 10.09z" /></g><g display="inline"><path d="m164.26 199.56h-50.44c-5.57 0-10.09-4.52-10.09-10.09s4.52-10.09 10.09-10.09h50.44c5.57 0 10.09 4.52 10.09 10.09s-4.52 10.09-10.09 10.09z" /></g><g display="inline"><path d="m406.35 320.61h-161.4c-5.57 0-10.09-4.52-10.09-10.09s4.52-10.09 10.09-10.09h161.4c5.57 0 10.09 4.52 10.09 10.09s-4.52 10.09-10.09 10.09z" /></g><g display="inline"><path d="m366 391.22h-121.04c-5.57 0-10.09-4.52-10.09-10.09s4.52-10.09 10.09-10.09h121.04c5.57 0 10.09 4.52 10.09 10.09s-4.52 10.09-10.09 10.09z" /></g><g display="inline"><path d="m305.48 290.35c-5.57 0-10.09-4.52-10.09-10.09v-60.52c0-5.57 4.52-10.09 10.09-10.09s10.09 4.52 10.09 10.09v60.52c0 5.57-4.52 10.09-10.09 10.09z" /></g></g><g display="none"><g display="inline"><path d="m482.01 310.52h-464.02c-3.29 0-6.37-1.6-8.26-4.3s-2.34-6.14-1.22-9.24l40.35-110.96c1.45-3.99 5.24-6.64 9.48-6.64h80.7c5.57 0 10.09 4.52 10.09 10.09s-4.52 10.09-10.09 10.09h-73.63l-33.01 90.79h435.2l-33.01-90.78h-53.46c-5.57 0-10.09-4.52-10.09-10.09s4.52-10.09 10.09-10.09h60.52c4.24 0 8.03 2.65 9.48 6.64l40.35 110.96c1.12 3.09.67 6.54-1.22 9.24-1.88 2.69-4.96 4.29-8.25 4.29z" /></g><g display="inline"><path d="m147.05 280.14c-.99 0-1.99-.15-2.98-.45-5.32-1.65-8.3-7.3-6.66-12.62 2.12-6.85 4.6-13.91 7.39-20.97 35.06-88.99 5.7-143.77-23.79-181.55-3.43-4.39-2.65-10.73 1.74-14.16s10.73-2.65 14.16 1.74c22.02 28.2 34.97 54.76 40.78 83.59 7.35 36.47 2.73 75-14.12 117.77-2.6 6.59-4.91 13.17-6.88 19.54-1.34 4.33-5.33 7.11-9.64 7.11z" /></g><g display="inline"><path d="m179.4 451.74c-3 0-5.97-1.33-7.96-3.88-18.87-24.17-43.99-62.53-44.3-116.27-.03-5.57 4.46-10.11 10.03-10.14h.06c5.54 0 10.05 4.48 10.09 10.03.21 36.71 12.55 68.78 40.03 103.97 3.43 4.39 2.65 10.73-1.74 14.16-1.86 1.44-4.04 2.13-6.21 2.13z" /></g><g display="inline"><path d="m237.84 280.14c-.99 0-1.99-.15-2.98-.45-5.32-1.65-8.3-7.3-6.66-12.62 2.12-6.85 4.6-13.91 7.39-20.97 35.06-88.99 5.7-143.77-23.79-181.55-3.43-4.39-2.65-10.73 1.74-14.16s10.73-2.65 14.16 1.74c22.02 28.2 34.97 54.76 40.78 83.59 7.35 36.47 2.73 75-14.12 117.77-2.6 6.59-4.91 13.17-6.88 19.54-1.35 4.33-5.34 7.11-9.64 7.11z" /></g><g display="inline"><path d="m270.18 451.74c-3 0-5.97-1.33-7.96-3.88-18.87-24.17-43.99-62.53-44.3-116.27-.03-5.57 4.46-10.11 10.03-10.14h.06c5.54 0 10.05 4.48 10.09 10.03.21 36.71 12.55 68.78 40.03 103.97 3.43 4.39 2.65 10.73-1.74 14.16-1.85 1.44-4.04 2.13-6.21 2.13z" /></g><g display="inline"><path d="m328.62 280.14c-.99 0-1.99-.15-2.98-.45-5.32-1.65-8.3-7.3-6.66-12.62 2.12-6.85 4.6-13.91 7.39-20.97 35.06-88.99 5.7-143.77-23.79-181.55-3.43-4.39-2.65-10.73 1.74-14.16s10.73-2.65 14.16 1.74c22.02 28.2 34.97 54.76 40.78 83.59 7.35 36.47 2.73 75-14.12 117.77-2.6 6.59-4.91 13.17-6.88 19.54-1.35 4.33-5.33 7.11-9.64 7.11z" /></g><g display="inline"><path d="m360.97 451.74c-3 0-5.97-1.33-7.96-3.88-18.87-24.17-43.99-62.53-44.3-116.27-.03-5.57 4.46-10.11 10.03-10.14h.06c5.54 0 10.05 4.48 10.09 10.03.21 36.71 12.55 68.78 40.03 103.97 3.43 4.39 2.65 10.73-1.74 14.16-1.86 1.44-4.04 2.13-6.21 2.13z" /></g><g display="inline"><path d="m229.83 199.56h-30.26c-5.57 0-10.09-4.52-10.09-10.09s4.52-10.09 10.09-10.09h30.26c5.57 0 10.09 4.52 10.09 10.09s-4.52 10.09-10.09 10.09z" /></g><g display="inline"><path d="m320.61 199.56h-30.26c-5.57 0-10.09-4.52-10.09-10.09s4.52-10.09 10.09-10.09h30.26c5.57 0 10.09 4.52 10.09 10.09s-4.52 10.09-10.09 10.09z" /></g></g><g display="none"><g display="inline"><path d="m441.66 310.52h-50.44c-5.57 0-10.09-4.52-10.09-10.09s4.52-10.09 10.09-10.09h43.37l33.01-90.78h-435.2l33.01 90.78h43.37c5.57 0 10.09 4.52 10.09 10.09s-4.52 10.09-10.09 10.09h-50.44c-4.24 0-8.03-2.65-9.48-6.64l-40.35-110.95c-1.12-3.09-.67-6.54 1.22-9.24s4.97-4.3 8.26-4.3h464.01c3.29 0 6.37 1.6 8.26 4.3s2.34 6.14 1.22 9.24l-40.35 110.96c-1.44 3.98-5.23 6.63-9.47 6.63z" /></g><g display="inline"><path d="m219.74 310.52h-50.44c-5.57 0-10.09-4.52-10.09-10.09s4.52-10.09 10.09-10.09h50.44c5.57 0 10.09 4.52 10.09 10.09s-4.52 10.09-10.09 10.09z" /></g><g display="inline"><path d="m330.7 310.52h-50.44c-5.57 0-10.09-4.52-10.09-10.09s4.52-10.09 10.09-10.09h50.44c5.57 0 10.09 4.52 10.09 10.09s-4.52 10.09-10.09 10.09z" /></g><g display="inline"><path d="m139.04 431.57c-5.57 0-10.09-4.52-10.09-10.09v-171.48c0-5.57 4.52-10.09 10.09-10.09s10.09 4.52 10.09 10.09v171.48c0 5.57-4.52 10.09-10.09 10.09z" /></g><g display="inline"><path d="m250 431.57c-5.57 0-10.09-4.52-10.09-10.09v-171.48c0-5.57 4.52-10.09 10.09-10.09s10.09 4.52 10.09 10.09v171.48c0 5.57-4.52 10.09-10.09 10.09z" /></g><g display="inline"><path d="m360.96 431.57c-5.57 0-10.09-4.52-10.09-10.09v-171.48c0-5.57 4.52-10.09 10.09-10.09s10.09 4.52 10.09 10.09v171.48c0 5.57-4.52 10.09-10.09 10.09z" /></g><g display="inline"><path d="m139.04 169.3c-5.57 0-10.09-4.52-10.09-10.09v-80.7c0-5.57 4.52-10.09 10.09-10.09s10.09 4.52 10.09 10.09v80.7c0 5.58-4.52 10.09-10.09 10.09z" /></g><g display="inline"><path d="m250 169.3c-5.57 0-10.09-4.52-10.09-10.09v-80.7c0-5.57 4.52-10.09 10.09-10.09s10.09 4.52 10.09 10.09v80.7c0 5.58-4.52 10.09-10.09 10.09z" /></g><g display="inline"><path d="m360.96 169.3c-5.57 0-10.09-4.52-10.09-10.09v-80.7c0-5.57 4.52-10.09 10.09-10.09s10.09 4.52 10.09 10.09v80.7c0 5.58-4.52 10.09-10.09 10.09z" /></g><g display="inline"><path d="m139.04 431.57c-2.58 0-5.16-.99-7.13-2.95l-30.26-30.26c-3.94-3.94-3.94-10.33 0-14.27s10.33-3.94 14.27 0l23.13 23.13 23.13-23.13c3.94-3.94 10.33-3.94 14.27 0s3.94 10.33 0 14.27l-30.26 30.26c-1.99 1.97-4.57 2.95-7.15 2.95z" /></g><g display="inline"><path d="m250 431.57c-2.58 0-5.16-.99-7.13-2.95l-30.26-30.26c-3.94-3.94-3.94-10.33 0-14.27s10.33-3.94 14.27 0l23.12 23.13 23.13-23.13c3.94-3.94 10.33-3.94 14.27 0s3.94 10.33 0 14.27l-30.26 30.26c-1.98 1.97-4.56 2.95-7.14 2.95z" /></g><g display="inline"><path d="m360.96 431.57c-2.58 0-5.16-.99-7.13-2.95l-30.26-30.26c-3.94-3.94-3.94-10.33 0-14.27s10.33-3.94 14.27 0l23.13 23.13 23.13-23.13c3.94-3.94 10.33-3.94 14.27 0s3.94 10.33 0 14.27l-30.26 30.26c-1.99 1.97-4.57 2.95-7.15 2.95z" /></g></g><g display="none"><g display="inline"><path d="m482.01 355.92h-464.02c-3.29 0-6.37-1.6-8.26-4.3s-2.34-6.14-1.22-9.24l40.35-110.96c1.45-3.99 5.24-6.64 9.48-6.64h30.69c5.57 0 10.09 4.52 10.09 10.09s-4.52 10.09-10.09 10.09h-23.62l-33.01 90.78h435.2l-33.01-90.78h-23.2c-5.57 0-10.09-4.52-10.09-10.09s4.52-10.09 10.09-10.09h30.26c4.24 0 8.03 2.65 9.48 6.64l40.35 110.96c1.12 3.09.67 6.54-1.22 9.24-1.88 2.69-4.96 4.3-8.25 4.3z" /></g><g display="inline"><path d="m199.56 315.57c-5.57 0-10.09-4.52-10.09-10.09v-110.96c0-5.57 4.52-10.09 10.09-10.09h21.26l-56.57-82.97-56.57 82.97h21.26c5.57 0 10.09 4.52 10.09 10.09v110.96c0 5.57-4.52 10.09-10.09 10.09s-10.09-4.52-10.09-10.09v-100.87h-30.25c-3.74 0-7.17-2.07-8.92-5.37-1.75-3.31-1.52-7.31.58-10.4l75.65-110.96c1.88-2.76 5-4.4 8.33-4.4 3.34 0 6.46 1.65 8.33 4.4l75.65 110.96c2.11 3.09 2.33 7.09.58 10.4-1.75 3.3-5.18 5.37-8.92 5.37h-30.26v100.87c.03 5.57-4.48 10.09-10.06 10.09z" /></g><g display="inline"><path d="m381.13 285.31c-5.57 0-10.09-4.52-10.09-10.09v-141.22c0-5.57 4.52-10.09 10.09-10.09h21.26l-56.57-82.97-56.57 82.97h21.26c5.57 0 10.09 4.52 10.09 10.09v141.22c0 5.57-4.52 10.09-10.09 10.09s-10.09-4.52-10.09-10.09v-131.14h-30.26c-3.74 0-7.17-2.07-8.92-5.37-1.75-3.31-1.52-7.31.58-10.4l75.65-110.96c1.88-2.76 5-4.4 8.33-4.4 3.34 0 6.46 1.65 8.33 4.4l75.65 110.96c2.11 3.09 2.33 7.09.58 10.4-1.75 3.3-5.18 5.37-8.92 5.37h-30.26v131.13c.04 5.58-4.48 10.1-10.05 10.1z" /></g><g display="inline"><path d="m280.26 244.96h-50.44c-5.57 0-10.09-4.52-10.09-10.09s4.52-10.09 10.09-10.09h50.44c5.57 0 10.09 4.52 10.09 10.09s-4.52 10.09-10.09 10.09z" /></g><g display="inline"><path d="m128.95 487.05c-5.57 0-10.09-4.52-10.09-10.09v-100.87c0-5.57 4.52-10.09 10.09-10.09s10.09 4.52 10.09 10.09v100.87c0 5.57-4.52 10.09-10.09 10.09z" /></g><g display="inline"><path d="m199.56 456.79c-5.57 0-10.09-4.52-10.09-10.09v-70.61c0-5.57 4.52-10.09 10.09-10.09s10.09 4.52 10.09 10.09v70.61c0 5.57-4.51 10.09-10.09 10.09z" /></g><g display="inline"><path d="m310.52 426.53c-5.57 0-10.09-4.52-10.09-10.09v-40.35c0-5.57 4.52-10.09 10.09-10.09s10.09 4.52 10.09 10.09v40.35c0 5.57-4.52 10.09-10.09 10.09z" /></g><g display="inline"><path d="m381.13 406.35c-5.57 0-10.09-4.52-10.09-10.09v-20.17c0-5.57 4.52-10.09 10.09-10.09s10.09 4.52 10.09 10.09v20.17c0 5.57-4.52 10.09-10.09 10.09z" /></g></g><g display="none"><g display="inline"><path d="m17.99 461.83c-4.59 0-8.74-3.16-9.82-7.82-1.25-5.43 2.13-10.84 7.56-12.1 39.26-9.06 73.6-28.17 102.07-56.78 3.93-3.95 10.31-3.97 14.27-.04 3.95 3.93 3.97 10.32.04 14.27-31.18 31.35-68.81 52.28-111.84 62.21-.77.18-1.53.26-2.28.26z" /></g><g display="inline"><path d="m169.22 341.56c-1.59 0-3.19-.38-4.7-1.17-4.93-2.6-6.82-8.7-4.22-13.63 18.27-34.65 29.17-74.67 29.17-107.03v-10.09h-50.44c-3.8 0-7.28-2.14-9-5.53s-1.38-7.46.86-10.52l110.98-151.3c1.9-2.59 4.92-4.12 8.13-4.12s6.23 1.53 8.13 4.12l110.96 151.31c2.25 3.06 2.58 7.13.86 10.52s-5.2 5.53-9 5.53h-50.44v10.09c0 32.2 10.81 72.04 28.93 106.57 2.59 4.93.69 11.03-4.25 13.62-4.93 2.59-11.03.69-13.62-4.25-19.56-37.29-31.24-80.63-31.24-115.94v-20.17c0-5.57 4.52-10.09 10.09-10.09h40.62l-91.04-124.17-91.05 124.16h40.62c5.57 0 10.09 4.52 10.09 10.09v20.17c0 35.49-11.78 79.02-31.5 116.44-1.81 3.44-5.32 5.39-8.94 5.39z" /></g><g display="inline"><path d="m482.01 461.83c-.75 0-1.51-.08-2.28-.26-43.03-9.93-80.65-30.86-111.84-62.22-3.93-3.95-3.91-10.34.04-14.27s10.34-3.91 14.27.04c28.46 28.62 62.81 47.72 102.07 56.79 5.43 1.25 8.81 6.67 7.56 12.1-1.07 4.67-5.22 7.82-9.82 7.82z" /></g><g display="inline"><path d="m482.01 371.05h-464.02c-3.29 0-6.37-1.6-8.26-4.3s-2.34-6.14-1.22-9.24l40.35-110.96c1.45-3.99 5.24-6.64 9.48-6.64h100.87c5.57 0 10.09 4.52 10.09 10.09s-4.52 10.09-10.09 10.09h-93.8l-33.01 90.78h435.2l-33.01-90.78h-93.81c-5.57 0-10.09-4.52-10.09-10.09s4.52-10.09 10.09-10.09h100.87c4.24 0 8.03 2.65 9.48 6.64l40.35 110.96c1.12 3.09.67 6.54-1.22 9.24-1.88 2.69-4.96 4.3-8.25 4.3z" /></g><g display="inline"><path d="m270.17 260.09h-40.35c-5.57 0-10.09-4.52-10.09-10.09s4.52-10.09 10.09-10.09h40.35c5.57 0 10.09 4.52 10.09 10.09s-4.51 10.09-10.09 10.09z" /></g></g></svg>