<?xml version="1.0" encoding="UTF-8"?>
<svg xmlns="http://www.w3.org/2000/svg" version="1.1" viewBox="0 0 512 512"  width="80" height="80">
  <defs>
    <style>
      .cls-1 {
        fill: #0b5bc9;
      }
    </style>
  </defs>
  <!-- Generator: Adobe Illustrator 28.7.6, SVG Export Plug-In . SVG Version: 1.2.0 Build 188)  -->
  <g>
    <g id="Layer_1">
      <g>
        <path class="cls-1" d="M263,396.5c-101.9,0-184.8-82.9-184.8-184.8,0-4.8,4-8.7,8.8-8.6,4.7,0,8.6,3.9,8.6,8.6,0,92.3,75.1,167.4,167.3,167.4s167.4-75.1,167.4-167.4,3.9-8.7,8.7-8.7h13.8c8.9,0,16.1-7.2,16.1-16.1s-7.2-16.1-16.1-16.1h-39.9v40.9c0,82.7-67.3,149.9-149.9,149.9s-149.9-67.3-149.9-149.9v-49.7c0-4.8,4-8.7,8.8-8.6,4.7,0,8.6,3.9,8.6,8.6v49.7c0,73,59.4,132.5,132.5,132.5s132.5-59.4,132.5-132.5v-49.7c0-4.8,3.9-8.7,8.7-8.7h48.7c18.5,0,33.6,15.1,33.6,33.6s-15.1,33.6-33.6,33.6h-5.3c-4.6,97.9-85.6,176.1-184.6,176.1h0Z"/>
        <path class="cls-1" d="M97.6,222.1c-1,0-2.1-.2-3.1-.6l-63.3-23.8c-4.5-1.7-6.8-6.7-5.1-11.2,1.7-4.5,6.7-6.8,11.2-5.1l63.3,23.8c4.5,1.7,6.8,6.7,5.1,11.2-1.3,3.4-4.5,5.7-8.2,5.7ZM179.9,187.6c-1,0-2.1-.2-3.1-.6L31.3,132.5c-4.5-1.7-6.8-6.7-5.1-11.2,1.7-4.5,6.7-6.8,11.2-5.1l145.5,54.6c4.5,1.7,6.8,6.7,5.1,11.2-1.3,3.4-4.5,5.7-8.2,5.7ZM391.7,276.8H133.5c-4.8,0-8.7-4-8.6-8.8,0-4.7,3.9-8.6,8.6-8.6h258.2c4.8,0,8.7,4,8.6,8.8,0,4.7-3.9,8.6-8.6,8.6ZM211.6,307.3h-7.3c-4.8,0-8.7-4-8.6-8.8,0-4.7,3.9-8.6,8.6-8.6h7.3c4.8,0,8.7,4,8.6,8.8,0,4.7-3.9,8.6-8.6,8.6ZM250.5,331.8h-6.8c-4.8,0-8.7-4-8.6-8.8,0-4.7,3.9-8.6,8.6-8.6h6.8c4.8,0,8.7,4,8.6,8.8,0,4.7-3.9,8.6-8.6,8.6ZM269.6,303.4h-8.2c-4.8,0-8.7-3.9-8.7-8.7s3.9-8.7,8.7-8.7h8.2c4.8,0,8.7,3.9,8.7,8.7s-3.9,8.7-8.7,8.7ZM301.7,327.1h-7c-4.8,0-8.7-4-8.6-8.8,0-4.7,3.9-8.6,8.6-8.6h7c4.8,0,8.7,4,8.6,8.8,0,4.7-3.9,8.6-8.6,8.6ZM328.4,304.2h-9.7c-4.8,0-8.7-4-8.6-8.8,0-4.7,3.9-8.6,8.6-8.6h9.7c4.8,0,8.7,4,8.6,8.8,0,4.7-3.9,8.6-8.6,8.6Z"/>
      </g>
      <path class="cls-1" d="M243.8,98.3c-.2-3.5-.2-6.8-.2-10.1s-2-4.7-4.7-4.7c-19.7,0-34.6-5.7-47-17.8-1.9-1.7-4.7-1.7-6.6,0-12.4,12.1-27.4,17.8-47,17.8s-4.7,2-4.7,4.7,0,6.6-.2,10.1c-.6,33-1.6,78.3,53.6,97.3l1.6.3,1.6-.3c55-19,54.3-64.2,53.6-97.3ZM184.8,144.1c-.9.8-2,1.3-3.3,1.3h-.2c-1.3,0-2.5-.6-3.3-1.6l-14.6-16.2,7.1-6.3,11.5,12.7,25.5-24.2,6.4,6.9-29.1,27.4Z"/>
    </g>
  </g>
</svg>