<?xml version="1.0" encoding="UTF-8"?>
<svg id="Layer_1" xmlns="http://www.w3.org/2000/svg" version="1.1" viewBox="0 0 512 512" width="100" height="100">
  <!-- Generator: Adobe Illustrator 29.4.0, SVG Export Plug-In . SVG Version: 2.1.0 Build 152)  -->
  <defs>
    <style>
      .st0 {
        fill-rule: evenodd;
      }

      .st0, .st1 {
        fill: #ffffff;
      }
    </style>
  </defs>
  <g>
    <path class="st1" d="M452.45,449.04h-74.96V87.12c0-3.2-1.83-6.08-4.8-7.36l-125.92-54.72c-2.48-1.04-5.36-.8-7.6.64-2.24,1.52-3.6,4-3.6,6.72v8.4H71.41c-4.4,0-8,3.6-8,8v400.24H16.45c-4.4,0-8,3.6-8,8s3.6,8,8,8h219.12v14.56c-.02,4.4,3.52,7.98,7.92,8,.02,0,.05,0,.07,0,.41,0,.88,0,1.28-.08l125.92-20.72c1.68-.24,3.12-1.04,4.24-2.16.72.24,1.51.4,2.32.4h75.12c4.4,0,8-3.6,8-8,0-4.4-3.59-8-7.99-8h0ZM235.57,449.04h-122.64V90.32h122.64v358.72ZM235.57,74.32H104.93c-4.4,0-8,3.6-8,8v366.32c0,.16,0,.24.08.4h-17.6V56.8h156.16v17.52ZM361.49,452.08l-109.92,18.08V44.56l109.92,47.84v359.68Z"/>
    <path class="st1" d="M284.93,235.04c-12.4,0-22.48,10.08-22.48,22.48s10.08,22.48,22.48,22.48c12.41,0,22.47-10.07,22.49-22.48-.02-12.41-10.08-22.47-22.49-22.48ZM284.93,264c-3.59,0-6.48-2.88-6.48-6.48s2.88-6.48,6.48-6.48,6.49,2.88,6.49,6.48c0,3.57-2.88,6.47-6.45,6.48-.01,0-.03,0-.04,0Z"/>
  </g>
  <path class="st0" d="M441.59,379.7l-40.23-55.13c-.75-1.03-.91-2.4-.42-3.63s1.49-1.97,2.65-1.97h18.74v-121.46c0-3.74,2.63-6.8,5.84-6.8h4.09l-1.93,19.28c-.36,3.58,1.35,7,4.21,8.39,2.85,1.4,6.16.44,8.1-2.37l17.54-25.25c2.88.41,5.13,3.28,5.13,6.75v121.46h18.74c1.16,0,2.16.74,2.65,1.97.49,1.23.33,2.59-.42,3.63l-40.23,55.13c-.58.79-1.34,1.2-2.23,1.2s-1.65-.41-2.23-1.2ZM448.08,126.68c.04-.85-.38-1.61-1.07-1.91-.69-.3-1.43-.06-1.89.62l-31.91,47.54c-.4.59-.47,1.35-.18,2.03.28.68.84,1.08,1.49,1.08h24.49l-3.42,34.1c-.09.86.31,1.66,1,2,.69.34,1.46.11,1.93-.56l33.59-48.36c.41-.59.49-1.35.21-2.04s-.84-1.1-1.49-1.1h-24.42l1.67-33.4Z"/>
</svg>