<svg xmlns="http://www.w3.org/2000/svg" version="1.1" xmlns:xlink="http://www.w3.org/1999/xlink" width="100" height="100" x="0" y="0" viewBox="0 0 512 512" style="enable-background:new 0 0 512 512" xml:space="preserve" class=""><g><path d="M256 0c-84.693 0-153.6 68.907-153.6 153.6v349.867a8.53 8.53 0 0 0 8.533 8.533h290.133a8.53 8.53 0 0 0 8.533-8.533V153.6C409.6 68.907 340.693 0 256 0zm136.533 494.933H119.467V153.6c0-75.281 61.244-136.533 136.533-136.533S392.533 78.319 392.533 153.6v341.333z" fill="#ffffff" opacity="1" data-original="#000000"></path><path d="M366.933 145.067H145.067a8.53 8.53 0 0 0-8.533 8.533v349.867a8.53 8.53 0 0 0 8.533 8.533h221.867a8.53 8.53 0 0 0 8.533-8.533V153.6a8.53 8.53 0 0 0-8.534-8.533zM358.4 494.933H153.6v-332.8h204.8v332.8z" fill="#ffffff" opacity="1" data-original="#000000"></path><path d="M209.067 179.2c-21.171 0-38.4 17.229-38.4 38.4v140.8a8.53 8.53 0 0 0 8.533 8.533h59.733a8.53 8.53 0 0 0 8.533-8.533V217.6c.001-21.171-17.228-38.4-38.399-38.4zM230.4 349.867h-42.667V217.6c0-11.768 9.574-21.333 21.333-21.333 11.759 0 21.333 9.566 21.333 21.333v132.267zM302.933 179.2c-21.171 0-38.4 17.229-38.4 38.4v140.8a8.53 8.53 0 0 0 8.533 8.533H332.8a8.53 8.53 0 0 0 8.533-8.533V217.6c0-21.171-17.228-38.4-38.4-38.4zm21.334 170.667H281.6V217.6c0-11.768 9.574-21.333 21.333-21.333s21.333 9.566 21.333 21.333v132.267zM238.933 384H179.2a8.53 8.53 0 0 0-8.533 8.533v76.8a8.53 8.53 0 0 0 8.533 8.533h59.733a8.53 8.53 0 0 0 8.533-8.533v-76.8a8.53 8.53 0 0 0-8.533-8.533zm-8.533 76.8h-42.667v-59.733H230.4V460.8zM332.8 384h-59.733a8.53 8.53 0 0 0-8.533 8.533v76.8a8.53 8.53 0 0 0 8.533 8.533H332.8a8.53 8.53 0 0 0 8.533-8.533v-76.8A8.53 8.53 0 0 0 332.8 384zm-8.533 76.8H281.6v-59.733h42.667V460.8zM256 34.133c-65.877 0-119.467 53.589-119.467 119.467a8.53 8.53 0 0 0 8.533 8.533h221.867a8.53 8.53 0 0 0 8.533-8.533C375.467 87.723 321.877 34.133 256 34.133zM153.95 145.067C158.302 92.587 202.411 51.2 256 51.2s97.698 41.387 102.042 93.867H153.95z" fill="#ffffff" opacity="1" data-original="#000000"></path><path d="M256 34.133a8.53 8.53 0 0 0-8.533 8.533V153.6c0 4.719 3.823 8.533 8.533 8.533s8.533-3.814 8.533-8.533V42.667A8.531 8.531 0 0 0 256 34.133z" fill="#ffffff" opacity="1" data-original="#000000"></path><path d="M338.833 70.767a8.523 8.523 0 0 0-12.066 0l-76.8 76.8a8.523 8.523 0 0 0 0 12.066 8.51 8.51 0 0 0 6.033 2.5 8.509 8.509 0 0 0 6.033-2.5l76.8-76.8a8.523 8.523 0 0 0 0-12.066z" fill="#ffffff" opacity="1" data-original="#000000"></path><path d="m262.033 147.567-76.8-76.8a8.523 8.523 0 0 0-12.066 0 8.523 8.523 0 0 0 0 12.066l76.8 76.8a8.51 8.51 0 0 0 6.033 2.5 8.509 8.509 0 0 0 6.033-2.5 8.523 8.523 0 0 0 0-12.066zM273.067 426.667h-34.133c-4.71 0-8.533 3.814-8.533 8.533s3.823 8.533 8.533 8.533h34.133c4.71 0 8.533-3.814 8.533-8.533s-3.823-8.533-8.533-8.533zM59.733 494.933h-51.2A8.53 8.53 0 0 0 0 503.466 8.53 8.53 0 0 0 8.533 512h51.2a8.53 8.53 0 0 0 8.533-8.533 8.53 8.53 0 0 0-8.533-8.534zM503.467 494.933h-102.4a8.53 8.53 0 0 0-8.533 8.533 8.53 8.53 0 0 0 8.533 8.533h102.4a8.53 8.53 0 0 0 8.533-8.533 8.531 8.531 0 0 0-8.533-8.533z" fill="#ffffff" opacity="1" data-original="#000000"></path></g></svg>