<svg id="Layer_2" enable-background="new 0 0 512 512" viewBox="0 0 512 512" xmlns="http://www.w3.org/2000/svg">
  <g transform="translate(-1124 -1124)">
    <g transform="matrix(.98 0 0 .98 28.165 28.165)">
      <g id="Icons_00000108993403940273102790000012649532599862765997_">
        <path fill="#6895cf" clip-rule="evenodd" d="m1164.996 1140v360.152c0 2.76 2.24 5 5 5h227.404s-1.46 20.741-1.46 20.741c-.34 4.76 1.49 9.411 4.96 12.671 3.48 3.26 8.24 4.78 12.961 4.13 21.308-2.991 41.577-8.281 60.854-15.781l7.961 17.631c-2.554 13.643 3.459 35.545 12.581 51.383 9.159 15.412 23.148 33.515 39.402 27.873 14.996-8.462 10.668-30.913 5.171-47.984-5.87-17.342-18.286-36.294-30.223-43.433l-7.99-17.701c5.67-2.97 11.251-6.15 16.731-9.531h71.655c2.76 0 5-2.24 5-5v-75.875c0-2.76-2.24-5-5-5h-83.695l-10.691-8.171c4.122.088 9.307.598 9.61-5.001v-75.874c0-2.76-2.24-5-5-5h-51.933c-1.446-3.727-3.949-7.542-6.591-10.311h148.299c2.76 0 5-2.24 5-5v-75.875c0-2.76-2.24-5-5-5h-196.642c-2.76 0-5 2.24-5 5v40.823c-2.11-1.89-4.43-3.58-7.1-4.99v-35.832c0-2.76-2.24-5-5-5h-65.614c-1.2-2.76-2.44-5.5-3.79-8.171h149.559c2.76 0 5-2.24 5-5v-75.874c0-2.76-2.24-5-5-5h-196.642c-2.76 0-5 2.24-5 5v50.643c-2.35-.08-4.72-.12-7.1-.17v-50.473c0-2.76-2.24-5-5-5h-72.675c-2.762 0-5.002 2.24-5.002 5zm365.483 439.357c-5.565-10.865-26.676-36.479-30.292-16.461-2.74 17.617 6.002 38.218 20.922 48.923 3.55 2.53 6.77 4.071 9.44 2.86 7.829-5.332 3.518-24.733-.07-35.322zm-27.762-39.452c-2.33-1.25-4.47-1.75-6.33-.91-4.877 2.906-4.228 10.615-4.18 15.931 3.515-7.836 10.682-11.083 18.881-8.521-2.708-2.731-5.242-4.732-8.371-6.5zm-64.344-159.93s-12.371-9.451-12.371-9.451c-3.496-2.838-9.167-.286-9.36 4.22-1.358 19.135-9.577 135.719-10.731 151.859-.334 3.567 3.056 6.755 6.6 6.19 20.331-2.87 39.672-7.89 58.083-15.011l-6.11-13.541c-3.36-7.43-.05-16.191 7.391-19.541 7.43-3.36 16.191-.05 19.541 7.38l6.08 13.471c17.461-9.191 33.992-20.431 49.633-33.652 2.789-2.271 2.667-6.929-.25-9.041-22.356-17.085-75.38-57.588-108.506-82.883zm52.173 134.498-8.24-18.271c-2.607-5.672-11.243-1.783-8.71 3.93 0 0 14.681 32.512 14.681 32.512 1.19-1.17 2.53-2.1 3.99-2.76s3.04-1.05 4.71-1.17zm-248.495-314.179c-21.638-.058-44.681-10.049-67.054-15.961v310.819h223.114l8.561-121.117c.47-12.202 15.932-19.181 25.392-11.46 0 0 5.04 3.85 5.04 3.85 3.157-20.586 10.709-42.085-13.811-51.883-7.675-3.375-15.845-5.901-22.611-11.351-21.5-20.216-15.102-27.892-49.884-28.811-24.912-.397-38.465-13.822-46.992-35.924-12.486-34.199-27.87-38.294-61.755-38.162zm277.347 228.984c13.581 10.371 25.542 19.511 33.552 25.632 7.927 5.738 8.267 18.488.64 24.622-6.56 5.55-13.271 10.751-20.141 15.621h51.553v-65.874h-65.604zm-7.07-23.172c0 2.76 2.24 5 5 5h72.675c2.76 0 5-2.24 5-5v-75.875c0-2.76-2.24-5-5-5h-72.675c-2.76 0-5 2.24-5 5zm10-5v-65.874h62.674v65.874zm-71.704-65.874c1.239 12.661-3.641 25.845-4.14 38.352 8.249 6.294 27.612 21.083 36.042 27.522h12.701v-65.874zm-24.382-30.312h158.76v-65.874h-186.642v47.233c6.942 10.119 16.815 14.557 27.882 18.641zm-111.257-65.874c12.476 29.682 30.139 23.142 56.274 27.372v-27.372zm153.53-23.171c0 2.76 2.23 5 5 5h116.487c2.76 0 5-2.24 5-5v-75.875c0-2.76-2.24-5-5-5h-116.487c-2.77 0-5 2.24-5 5zm10.001-5.001v-65.874h106.487v65.874zm-213.744-19.531c12.865 1.12 27.898 7.795 36.072 19.531h150.569v-65.874c-30.172 0-186.641 0-186.641 0zm-27.101-1.24v-45.103h-62.674v29.002c19.93 4.981 43.446 14.959 62.674 16.101z" fill-rule="evenodd"/>
      </g>
    </g>
  </g>
</svg>