<svg xmlns="http://www.w3.org/2000/svg" version="1.1" xmlns:xlink="http://www.w3.org/1999/xlink" width="24" height="24" x="0" y="0" viewBox="0 0 32 32" style="enable-background:new 0 0 512 512" xml:space="preserve" class=""><path d="M16 29a1 1 0 0 1-.8-.4L12.5 25H9a5.006 5.006 0 0 1-5-5V8a5.006 5.006 0 0 1 5-5h14a5.006 5.006 0 0 1 5 5v12a5.006 5.006 0 0 1-5 5h-3.5l-2.7 3.6a1 1 0 0 1-.8.4zM9 5a3 3 0 0 0-3 3v12a3 3 0 0 0 3 3h4a1 1 0 0 1 .8.4l2.2 2.933 2.2-2.933a1 1 0 0 1 .8-.4h4a3 3 0 0 0 3-3V8a3 3 0 0 0-3-3z" fill="#0b5bc9" opacity="1" data-original="#000000"></path><path d="M16 21a1 1 0 0 1-.707-.293l-4.768-4.768A4.065 4.065 0 0 1 16 9.94a4.065 4.065 0 0 1 5.475 6l-4.768 4.768A1 1 0 0 1 16 21zm-2.6-10a2.064 2.064 0 0 0-1.46 3.524L16 18.586l4.061-4.061a2.065 2.065 0 1 0-2.92-2.921l-.434.434a1 1 0 0 1-1.414 0l-.434-.434A2.058 2.058 0 0 0 13.4 11z" fill="#0b5bc9" opacity="1" data-original="#000000"></path></svg>