<svg xmlns="http://www.w3.org/2000/svg" version="1.1" xmlns:xlink="http://www.w3.org/1999/xlink" width="60" height="60" x="0" y="0" viewBox="0 0 24 24" style="enable-background:new 0 0 512 512" xml:space="preserve" class=""><path d="M8.5 20a.5.5 0 0 1-.383-.82l1.068-1.282a2.92 2.92 0 0 0 .369-3.174.499.499 0 0 1 .094-.577l1.823-1.823a1.874 1.874 0 0 0 0-2.646L5.84 14.869a.5.5 0 1 1-.678-.736l5.631-5.19a.996.996 0 0 1 1.385.028 2.874 2.874 0 0 1 0 4.061l-1.581 1.581a3.92 3.92 0 0 1-.643 3.927l-1.07 1.28A.498.498 0 0 1 8.5 20z" fill="#0b5bc9" opacity="1" data-original="#000000" class=""></path><path d="M10.5 24h-7c-.827 0-1.5-.673-1.5-1.5v-6.596a7.542 7.542 0 0 1 2.969-5.977l2.079-1.576a.5.5 0 1 1 .605.797l-2.079 1.576A6.535 6.535 0 0 0 3 15.904V22.5a.5.5 0 0 0 .5.5h7a.5.5 0 0 0 .5-.5v-.998a.5.5 0 0 1 .5-.5c1.103 0 2-.897 2-2V16.75a.5.5 0 0 1 1 0v2.252A3.004 3.004 0 0 1 12 21.96v.54c0 .827-.673 1.5-1.5 1.5z" fill="#0b5bc9" opacity="1" data-original="#000000" class=""></path><path d="M19.5 19h-2a.499.499 0 0 1-.447-.277l-.105-.211C16.481 17.58 15.543 17 14.5 17s-1.981.58-2.447 1.513l-.105.211A.503.503 0 0 1 11.5 19h-2a.5.5 0 0 1 0-1h1.692c.647-1.236 1.908-2 3.308-2s2.661.764 3.309 2H19.5c.827 0 1.5-.673 1.5-1.5v-14c0-.827-.673-1.5-1.5-1.5h-1.692C17.161 2.235 15.9 3 14.5 3s-2.661-.765-3.309-2H9.5C8.673 1 8 1.673 8 2.5v10.156a.5.5 0 0 1-1 0V2.5C7 1.122 8.122 0 9.5 0h2a.5.5 0 0 1 .447.276l.106.211C12.519 1.42 13.457 2 14.5 2s1.981-.58 2.448-1.513l.106-.211A.498.498 0 0 1 17.5 0h2C20.878 0 22 1.122 22 2.5v14c0 1.378-1.122 2.5-2.5 2.5z" fill="#0b5bc9" opacity="1" data-original="#000000" class=""></path><path d="M8.5 7h-1a.5.5 0 0 1 0-1h1a.5.5 0 0 1 0 1zM17.73 7h-1.846a.5.5 0 0 1 0-1h1.846a.5.5 0 0 1 0 1zm-4.615 0h-1.846a.5.5 0 0 1 0-1h1.846a.5.5 0 0 1 0 1zM21.5 7h-1a.5.5 0 0 1 0-1h1a.5.5 0 0 1 0 1z" fill="#0b5bc9" opacity="1" data-original="#000000" class=""></path></svg>