<svg xmlns="http://www.w3.org/2000/svg" version="1.1" xmlns:xlink="http://www.w3.org/1999/xlink" width="60" height="60" x="0" y="0" viewBox="0 0 48 48" style="enable-background:new 0 0 512 512" xml:space="preserve" class=""><path fill="#0b5bc9" d="M47 41c-1 0-.74.09-.65-.27.95-3.82 1.62-5.08.45-6.58a3 3 0 0 0-1.21-.91 4.88 4.88 0 0 0 1.22-3.47l-.64-14a5 5 0 0 0-4.39-4.71 21.64 21.64 0 0 0-.64-3.45 2 2 0 0 0-2-1.61h-6.32a2 2 0 0 0-2 1.61c-.67 3.32-.65 3.14-.64 3.45a5 5 0 0 0-4.39 4.71l-.64 14a4.88 4.88 0 0 0 1.22 3.47 3 3 0 0 0-1.76 3.49c1.16 4.62 1 3.93 1.09 4.27-4.09 0-3.49.12-3.39-.27.95-3.82 1.62-5.08.45-6.58a3 3 0 0 0-1.21-.91 4.88 4.88 0 0 0 1.22-3.47l-.64-14a5 5 0 0 0-4.39-4.71 21.64 21.64 0 0 0-.64-3.45 2 2 0 0 0-2-1.61H8.82a2 2 0 0 0-2 1.61c-.67 3.32-.65 3.14-.64 3.45a5 5 0 0 0-4.39 4.71l-.64 14a4.88 4.88 0 0 0 1.22 3.47 3 3 0 0 0-1.72 3.49c1.16 4.62 1 3.93 1.09 4.27H1a1 1 0 0 0 0 2h46a1 1 0 0 0 0-2zm-15-8c0-21.61-.12-20 .22-20H40v20zm12.17-17.14c.7 15.26 1 15-.19 16.21A2.91 2.91 0 0 1 42 33V13.13a3 3 0 0 1 2.17 2.73zM32.82 8h6.36l.6 3h-7.56zm-5 7.86A3 3 0 0 1 30 13.13V33a3 3 0 0 1-2.81-3.12zM8 33c0-21.61-.12-20 .22-20H16v20zm12.17-17.14c.7 15.26 1 15-.19 16.21A2.91 2.91 0 0 1 18 33V13.13a3 3 0 0 1 2.17 2.73zM8.82 8h6.36l.6 3H8.22zm-5 7.86A3 3 0 0 1 6 13.13V33a3 3 0 0 1-2.81-3.12zM4.56 41a1 1 0 0 1-1-.76l-1-4a1 1 0 0 1 1-1.24h14.25c4.39 0 4.05-.57 2.6 5.24a1 1 0 0 1-1 .76zm24 0a1 1 0 0 1-1-.76l-1-4a1 1 0 0 1 1-1.24h14.25c4.39 0 4-.57 2.6 5.24a1 1 0 0 1-1 .76z" data-name="Two Front Seats" opacity="1" data-original="#231f20"></path></svg>