<svg xmlns="http://www.w3.org/2000/svg" version="1.1" xmlns:xlink="http://www.w3.org/1999/xlink" width="100" height="100" x="0" y="0" viewBox="0 0 64 64" style="enable-background:new 0 0 512 512" xml:space="preserve" class=""><g><path d="M3.703 44.774c18.837 6.402 37.881 6.504 56.6-.003 1.262-.46.629-2.387-.68-1.956-18.123 6.3-36.713 6.299-55.253-.002-1.276-.418-1.963 1.496-.667 1.96z" fill="#0b5bc9" opacity="1" data-original="#000000"></path><path d="M3.51 36.51c18.861 11.111 38.029 11.017 56.975.004 1.155-.7.157-2.457-1.042-1.791-18.33 10.657-36.796 10.658-54.88.003-1.16-.67-2.228 1.068-1.053 1.785zM59.964 52.765H4.036c-1.34.017-1.378 2.047 0 2.072h55.928c1.34-.017 1.378-2.047 0-2.072z" fill="#0b5bc9" opacity="1" data-original="#000000"></path><path d="M31.15 39.148c.376.628 1.371.633 1.747 0l7.946-12.465c.446-.655-.08-1.617-.873-1.592h-2.983V10.198c0-.572-.463-1.036-1.035-1.036h-7.846c-.572 0-1.036.464-1.036 1.036V25.09h-2.982c-.79-.025-1.322.938-.874 1.592l7.936 12.466zm-3.044-11.986c.572 0 1.036-.464 1.036-1.036V11.235h5.774v14.891c0 .572.463 1.036 1.036 1.036h2.13l-6.058 9.502-6.049-9.502h2.131z" fill="#0b5bc9" opacity="1" data-original="#000000"></path></g></svg>