<svg xmlns="http://www.w3.org/2000/svg" version="1.1" xmlns:xlink="http://www.w3.org/1999/xlink" width="100" height="100" x="0" y="0" viewBox="0 0 512 512" style="enable-background:new 0 0 512 512" xml:space="preserve" class=""><g><path d="M260.89 93.65v324.7c0 3.31-2.69 6-6 6s-6-2.69-6-6V93.65c0-3.31 2.69-6 6-6s6 2.69 6 6zm45.7 1.4c.78-3.22-1.21-6.46-4.43-7.24s-6.46 1.21-7.24 4.43c-25.81 107.09-25.82 217.27-.01 327.48a5.996 5.996 0 0 0 7.21 4.47 5.992 5.992 0 0 0 4.47-7.21c-25.37-108.36-25.37-216.67 0-321.93zm45.48 1.11c1.39-3.01.07-6.57-2.94-7.96s-6.57-.07-7.96 2.94c-24.53 53.22-36.99 107.89-37.04 162.51-.05 54.79 12.4 111.02 36.99 167.12a6.006 6.006 0 0 0 5.5 3.59c.8 0 1.62-.16 2.41-.51a5.995 5.995 0 0 0 3.09-7.9c-47.69-108.79-47.71-216.38-.05-319.79zm45.34.91a6 6 0 0 0-9.85-6.85c-38.03 54.76-57.33 110.44-57.36 165.51-.03 55.15 19.27 111.01 57.36 166.03a6.004 6.004 0 0 0 4.94 2.59c1.18 0 2.37-.35 3.41-1.07a6.012 6.012 0 0 0 1.52-8.35c-73.14-105.63-73.14-212.57-.02-317.86zM205.46 204.78c3.81 76.67 5.72 115.15-78.28 165.91-.95.58-2.03.86-3.1.86s-2.15-.29-3.1-.86c-84-50.76-82.09-89.24-78.29-165.91l.04-.75a5.99 5.99 0 0 1 5.02-5.62c14.73-2.41 24.47-10.7 29.8-25.34a6.004 6.004 0 0 1 5.64-3.95h81.78c2.52 0 4.78 1.58 5.64 3.95 5.32 14.64 15.07 22.92 29.8 25.34a6 6 0 0 1 5.02 5.62zm-11.79 4.48c-15.24-3.79-26.24-13.24-32.76-28.15H87.24c-6.53 14.91-17.52 24.35-32.76 28.15-1.75 35.53-2.71 61.58 5.75 84.11 8.81 23.45 27.98 43.05 63.85 65.16 35.87-22.11 55.04-41.71 63.85-65.16 8.45-22.53 7.49-48.57 5.74-84.11zm37.63-26.84c5.07 102.12 7.61 153.37-104.12 220.89-.95.58-2.03.86-3.1.86s-2.15-.29-3.1-.86C9.24 335.8 11.79 284.54 16.85 182.42l.05-1.01a5.99 5.99 0 0 1 5.02-5.62c20.57-3.37 34.18-14.93 41.61-35.35a6.004 6.004 0 0 1 5.64-3.95h109.81c2.52 0 4.78 1.58 5.64 3.95 7.42 20.41 21.03 31.98 41.61 35.35a6 6 0 0 1 5.02 5.62zm-11.81 4.27c-21-4.78-35.98-17.61-44.61-38.2H73.27c-8.63 20.59-23.61 33.42-44.61 38.2-2.41 48.75-3.86 84.33 7.77 115.29 12.08 32.17 38.38 58.97 87.65 89.17 49.27-30.21 75.56-57 87.64-89.17 11.63-30.96 10.18-66.54 7.77-115.29zm277.5 49.51v39.61c0 3.31-2.69 6-6 6H413.6v13.55c0 2.31-1.33 4.42-3.42 5.42-.82.39-1.7.58-2.58.58-1.35 0-2.69-.46-3.78-1.34l-48.47-39.35c-1.4-1.14-2.22-2.85-2.22-4.66s.82-3.52 2.22-4.66L403.82 212c1.8-1.46 4.27-1.75 6.36-.76s3.42 3.1 3.42 5.42v13.55h77.39c3.32-.01 6 2.67 6 5.99zm-12 6H407.6c-3.31 0-6-2.69-6-6v-6.95L368.65 256l32.95 26.75v-6.95c0-3.31 2.69-6 6-6h77.39z" fill="#0b5bc9" opacity="1" data-original="#000000" class=""></path></g></svg>