<svg id="Layer_1" enable-background="new 0 0 512 512" viewBox="0 0 512 512" xmlns="http://www.w3.org/2000/svg" width="100" height="100" fill="#fff">
  <path clip-rule="evenodd" d="m134.174 24.007c32.944 0 59.654 26.709 59.654 59.654 0 18.648-8.577 35.473-22.292 46.505 19.499 3.4 35.949 16.742 43.471 34.961 52.141-13.038 103.009 26.343 103.009 80.374 0 45.754-37.094 82.847-82.847 82.847-46.055 0-83.283-37.567-82.842-83.647h-96.348c-3.866 0-7-3.134-7-7v-50.694c0-28.188 20.548-52.098 47.83-56.843-27.649-22.247-29.944-63.557-4.817-88.684 10.796-10.796 25.71-17.473 42.182-17.473zm58.835 237.305 27.432 21.101c3.05 2.356 7.433 1.793 9.789-1.258l48.357-62.777c2.356-3.05 1.793-7.433-1.258-9.789-3.05-2.355-7.433-1.793-9.789 1.258l-44.106 57.259-21.894-16.841c-3.05-2.356-7.433-1.793-9.789 1.258-2.356 3.05-1.793 7.433 1.258 9.789zm8.773-91.654c-6.877-15.74-22.516-26.344-40.107-26.344-18.334 0-36.669 0-55.004 0-24.017 0-43.693 19.676-43.693 43.693v43.694h90.662c4.909-27.219 23.187-50.042 48.142-61.043zm-35.101 68.759-.005.045c-4.239 40.385 27.605 75.887 68.492 75.887 38.025 0 68.848-30.822 68.848-68.848s-30.822-68.847-68.848-68.847c-35.467 0-64.923 26.901-68.487 61.763zm139.95 212.863h142.39v-43.694c0-24.018-19.676-43.693-43.693-43.693h-55.004c-24.018 0-43.693 19.676-43.693 43.693zm149.39 13.999c3.866 0 7-3.134 7-7v-50.694c0-28.188-20.547-52.098-47.83-56.843 27.646-22.24 29.946-63.555 4.817-88.685-23.297-23.298-61.066-23.297-84.363 0-25.13 25.129-22.829 66.445 4.817 88.685-27.282 4.745-47.83 28.656-47.83 56.843v50.694c0 3.866 3.134 7 7 7zm-78.24-115.386c-25.196-.024-45.609-20.454-45.609-45.653 0-25.216 20.439-45.655 45.655-45.655s45.654 20.439 45.654 45.655c0 25.22-20.425 45.653-45.7 45.653zm-203.857 47.349c3.866 0 7 3.134 7 7s-3.134 7-7 7h-76.429c-3.866 0-7-3.134-7-7s3.134-7 7-7zm0-27.05c3.866 0 7 3.134 7 7s-3.134 7-7 7h-60.648c-3.866 0-7-3.134-7-7s3.134-7 7-7zm18.798-24.627h-116.801c-7.104 0-12.942 5.838-12.942 12.942v61.249c0 7.104 5.837 12.942 12.942 12.942h46.14c1.507 0 2.902.477 4.045 1.286l55.345 34.437-.058-28.723c0-3.851 3.122-6.973 6.973-6.973v-.027c5.193 0 9.273.411 13.492-3.807 2.349-2.349 3.807-5.583 3.807-9.135v-61.249c-.001-7.103-5.839-12.942-12.943-12.942zm-116.801-13.999c-14.832 0-26.942 12.11-26.942 26.942v61.249c0 14.832 12.11 26.942 26.942 26.942h44.163l64.674 40.241c4.51 2.806 10.883-.219 10.663-6.409l-.069-33.961c13.666-1.337 24.312-12.928 24.312-26.813v-61.249c0-14.831-12.111-26.942-26.942-26.942zm262.155-211.599c-3.866 0-7-3.134-7-7s3.134-7 7-7h76.429c3.866 0 7 3.134 7 7s-3.134 7-7 7zm0-27.051c-3.866 0-7-3.134-7-7s3.134-7 7-7h60.648c3.866 0 7 3.134 7 7s-3.134 7-7 7zm-18.798-52.626c-14.831 0-26.942 12.11-26.942 26.942v61.249c0 13.886 10.646 25.477 24.312 26.813l-.069 33.961c-.22 6.19 6.154 9.215 10.663 6.409l64.674-40.242h44.163c14.832 0 26.942-12.11 26.942-26.942v-61.249c0-14.832-12.11-26.942-26.942-26.942h-116.801zm116.802 13.999h-116.802c-7.104 0-12.942 5.838-12.942 12.942v61.249c0 7.103 5.838 12.942 12.942 12.942h4.357v.027c3.851 0 6.973 3.122 6.973 6.973l-.058 28.723 55.345-34.437c1.142-.81 2.538-1.286 4.045-1.286h46.14c7.104 0 12.942-5.838 12.942-12.942v-61.249c-.001-7.104-5.838-12.942-12.942-12.942zm-269.623-2.911c-17.829-17.829-46.739-17.828-64.567 0s-17.828 46.738 0 64.566 46.738 17.828 64.566 0c17.829-17.828 17.829-46.738.001-64.566z" fill-rule="evenodd"/>
</svg>