<svg id="Layer_1" enable-background="new 0 0 68 68" viewBox="0 0 68 68" xmlns="http://www.w3.org/2000/svg"  width="100" height="100" fill="#6895cf">
  <g>
  <path fill="#fff" d="m62.25 58.3855h-3.26758v-26.2616c1.09314.49689 2.35156.50287 3.4834-.02942 2.80549-1.31756 3.21306-5.06276.89014-6.98828h.00049l-26.6919-22.14502c-1.54395-1.28125-3.78516-1.28125-5.3291 0l-26.69141 22.14502c-2.32059 1.92358-1.91843 5.66928.89014 6.98828 1.09964.51665 2.31247.55033 3.48389.01672v26.2743h-3.26807c-2.06787 0-3.75 1.68213-3.75 3.75v2.11426c0 .96484.78516 1.75 1.75 1.75h60.5c.96484 0 1.75-.78516 1.75-1.75v-2.11426c0-2.06787-1.68213-3.75-3.75-3.75zm-56.07812-27.64844c-1.85842-.87355-2.0102-3.28276-.57031-4.47656l26.69189-22.14502c.98819-.82024 2.42478-.82033 3.41309 0l26.69189 22.14502c1.44072 1.19449 1.28685 3.6036-.57031 4.47656-.96143.45215-2.02441.31738-2.84326-.3623-14.10063-11.69897-11.03758-9.15763-24.50537-20.33154-.27789-.23023-.68017-.2306-.9585 0l-24.50586 20.33154c-.81836.67773-1.88086.81347-2.84326.3623zm4.34619.33991 2.55396-2.11896 20.92822-17.36285 23.48218 19.48218v27.30816h-28.60243c.20129-1.59485.48865-3.20209.85242-4.7876 3.07826 3.28145 5.27803 3.17497 8.84082 1.70166 1.61133-.6665 3.27637-1.35693 5.36377-.89844.29541.06396.60303-.05566.77588-.30469.17334-.24951.1792-.57813.01514-.8335-2.18506-3.40088-4.61377-5.26025-7.21875-5.52588-2.2113-.22784-4.55066.71509-6.96704 2.76868.28857-.97406.60229-1.92792.93921-2.85242 9.05579-1.6485 9.56433-6.07281 10.04395-10.3562.30127-2.68555.6123-5.4624 2.90332-7.96191.20605-.22461.25537-.55127.12549-.82666-.12939-.2749-.4043-.43945-.71729-.4292-6.33203.32959-10.67822 2.13525-12.91748 5.3667-2.15039 3.10315-2.36035 7.55676-.66125 13.22162-.27234.7226-.52966 1.46368-.7738 2.2182-.75854-3.18835-2.95801-3.99921-5.10791-4.77869-1.63916-.59424-3.33447-1.20898-4.56787-2.95215-.17529-.24805-.48145-.36572-.77881-.29834-.2959.06738-.52197.30615-.57275.60547-.67871 3.98535-.1377 6.99561 1.60693 8.94824 2.00655 2.24457 5.25723 2.73453 8.25366 2.65863-.41272 1.76105-.7323 3.54834-.94849 5.31647h-16.85108zm21.63427 3.22308c1.76709-2.54932 5.15479-4.0918 10.0835-4.59473-1.646 2.47168-1.93799 5.07959-2.20068 7.4248-.45728 4.07556-.8418 7.33221-7.91138 8.86456 1.2251-2.98615 2.67822-5.56866 4.22388-7.36261.27002-.31396.23486-.7876-.07861-1.05811-.31445-.27002-.78711-.23438-1.05811.07861-1.45374 1.68768-2.82788 4.02808-4.02136 6.73138-1.00428-4.31535-.68689-7.70329.96276-10.0839zm-1.49023 18.104c2.40918-2.31592 4.65967-3.38477 6.69482-3.1748 1.79053.18262 3.52979 1.36572 5.18359 3.52197-1.74951.0083-3.2124.61328-4.54004 1.16211-2.5078 1.03711-4.35253 1.80029-7.33837-1.50928zm-2.39453-.82519c-3.34277.08057-5.72119-.6416-7.08496-2.16797-1.19971-1.34229-1.68652-3.38818-1.45459-6.09619 1.29785 1.17334 2.78613 1.71289 4.13721 2.20264 2.55175.9248 4.42822 1.60497 4.40234 6.06152zm36.23242 12.6709c0 .1377-.1123.25-.25.25h-60.5c-.1377 0-.25-.1123-.25-.25v-2.11426c0-1.24072 1.00928-2.25 2.25-2.25h56.5c1.24072 0 2.25 1.00928 2.25 2.25z"/>
</g>
</svg>