<svg id="_x31_px" enable-background="new 0 0 100 100" viewBox="0 0 24 24" xmlns="http://www.w3.org/2000/svg"  height="100" width="100" fill="#6895cf"><g><path d="m19 24h-14c-1.103 0-2-.897-2-2v-9h-2c-.561 0-1-.439-1-1 0-.267.109-.527.299-.715l11.35-11.142c.195-.19.506-.19.701 0l3.65 3.585v-2.228c0-.276.224-.5.5-.5h4c.276 0 .5.224.5.5v7.13l2.7 2.653c.19.189.3.45.3.716 0 .561-.439 1-1 1h-2v9c0 1.104-.897 2.001-2 2.001zm-7-22.799-10.999 10.796 2.499.003c.276 0 .5.224.5.5v9.5c0 .551.448 1 1 1h14c.552 0 1-.449 1-1v-9.5c0-.276.224-.5.5-.5h2.5c0-.001-.002-.004-.003-.005l-2.848-2.799c-.095-.093-.149-.222-.149-.356v-6.84h-3v2.92c0 .202-.121.383-.307.461-.187.077-.4.036-.544-.104z"/></g><g><path d="m18.25 16h-1.75c-1.379 0-2.5-1.122-2.5-2.5v-3c0-.276.224-.5.5-.5s.5.224.5.5v3c0 .827.673 1.5 1.5 1.5h1.75c.276 0 .5.224.5.5s-.224.5-.5.5z"/></g><g><path d="m7.5 16h-1.75c-.276 0-.5-.224-.5-.5s.224-.5.5-.5h1.75c.827 0 1.5-.673 1.5-1.5v-3c0-.276.224-.5.5-.5s.5.224.5.5v3c0 1.378-1.121 2.5-2.5 2.5z"/></g><g><path d="m12 19.5c-.276 0-.5-.224-.5-.5v-10.5c0-.276.224-.5.5-.5s.5.224.5.5v10.5c0 .276-.224.5-.5.5z"/></g><g><path d="m7 17.5c-.128 0-.256-.049-.354-.146l-1.5-1.5c-.195-.195-.195-.512 0-.707l1.5-1.5c.195-.195.512-.195.707 0s.195.512 0 .707l-1.146 1.146 1.146 1.146c.195.195.195.512 0 .707-.097.098-.225.147-.353.147z"/></g><g><path d="m17 17.5c-.128 0-.256-.049-.354-.146-.195-.195-.195-.512 0-.707l1.146-1.146-1.146-1.146c-.195-.195-.195-.512 0-.707s.512-.195.707 0l1.5 1.5c.195.195.195.512 0 .707l-1.5 1.5c-.097.096-.225.145-.353.145z"/></g><g><path d="m12 20c-.128 0-.256-.049-.354-.146l-1.5-1.5c-.195-.195-.195-.512 0-.707s.512-.195.707 0l1.147 1.146 1.146-1.146c.195-.195.512-.195.707 0s.195.512 0 .707l-1.5 1.5c-.097.097-.225.146-.353.146z"/></g></svg>