<svg xmlns="http://www.w3.org/2000/svg" version="1.1" xmlns:xlink="http://www.w3.org/1999/xlink" width="32" height="32" x="0" y="0" viewBox="0 0 128 128" style="enable-background:new 0 0 512 512" xml:space="preserve" class=""><g><path d="m127.793 93.103-30.124-60A1.998 1.998 0 0 0 95.882 32h-68.91a2 2 0 0 0-1.796 1.12L1.096 82.258a1.994 1.994 0 0 0-1.035 1.73S0 93.981 0 93.987A2.019 2.019 0 0 0 2 96h67.692a2 2 0 0 0 1.796-1.121l20.43-41.773 20.576 41.778A2 2 0 0 0 114.288 96h11.718a2.02 2.02 0 0 0 1.787-2.897ZM8.617 76h5.528l-2.949 6H5.68Zm4.9-10h5.546l-2.95 6h-5.535Zm4.901-10h5.562l-2.95 6h-5.552Zm4.91-10.018c.058.005.114.018.173.018h5.396l-2.949 6h-5.57ZM43.815 36l-2.95 6h-5.543l2.95-6Zm10 0-2.95 6h-5.542l2.95-6Zm10 0-2.95 6h-5.542l2.95-6Zm10.001 0-2.95 6h-5.543l2.95-6ZM31.03 62h-5.542l2.951-6h5.542Zm7.41-6h5.541l-2.95 6H35.49Zm10 0h5.542l-2.95 6h-5.543Zm10 0h5.542l-2.95 6H55.49Zm1.967-4 2.95-6H68.9l-2.95 6Zm-4.458 0h-5.543l2.951-6H58.9Zm-10 0h-5.543l2.95-6h5.542Zm-10 0h-5.544l2.951-6h5.542ZM23.52 66h5.543l-2.95 6H20.57Zm10 0h5.543l-2.95 6h-5.542Zm10.001 0h5.543l-2.95 6h-5.543Zm10 0h5.543l-2.95 6h-5.542ZM18.604 76h5.542l-2.95 6h-5.543Zm10 0h5.542l-2.949 6h-5.543Zm10.001 0h5.542l-2.95 6h-5.543Zm10 0h5.542l-2.949 6h-5.543Zm10.001 0h5.486l-2.913 6h-5.524Zm7.427-4h-5.46l2.95-6h5.424Zm4.855-10H65.49l2.951-6H73.8Zm4.843-9.977a1.947 1.947 0 0 0-.227-.023h-5.097l2.951-6h5.296ZM80.597 42h-5.272l2.95-6h5.234ZM28.22 36h5.595l-2.95 6h-5.587Zm87.312 56L93.708 47.683a2.001 2.001 0 0 0-1.795-1.117h-.003a2 2 0 0 0-1.794 1.121L68.444 92H4.013l.036-6H62.43a2 2 0 0 0 1.8-1.127L87.954 36h6.693l28.116 56Z" fill="#0b5bc9" opacity="1" data-original="#000000" class=""></path></g></svg>