<svg xmlns="http://www.w3.org/2000/svg" version="1.1" xmlns:xlink="http://www.w3.org/1999/xlink" width="100" height="100" x="0" y="0" viewBox="0 0 512 512" style="enable-background:new 0 0 512 512" xml:space="preserve" fill="#0b5bc9"><path d="M505.093 176.247c0 40.011-13.098 77.701-37.875 108.998-24.037 30.36-57.853 52.203-95.218 61.504l-3.376-13.562c72.121-17.954 122.492-82.491 122.492-156.941 0-89.2-72.557-161.77-161.742-161.77-89.2 0-161.77 72.57-161.77 161.77h-13.977C153.627 79.34 232.467.5 329.374.5c96.891 0 175.719 78.84 175.719 175.747zm-187.262 65.692h4.555v27.697h13.977v-27.724c19.549-.572 35.279-16.642 35.279-36.328 0-20.03-16.308-36.326-36.354-36.326-24.614 0-34.204-6.274-34.204-22.378 0-12.324 10.038-22.35 22.377-22.35h17.428c9.251 0 16.776 7.513 16.776 16.748v6.988h13.977v-6.988c0-16.942-13.795-30.724-30.753-30.724h-4.526V82.828h-13.977v27.753c-19.549.572-35.279 16.629-35.279 36.299 0 36.355 36.264 36.355 48.181 36.355 12.339 0 22.377 10.025 22.377 22.349 0 12.339-10.038 22.378-22.377 22.378h-17.456c-9.235 0-16.748-7.525-16.748-16.776v-6.988h-13.977v6.988c-.001 16.958 13.782 30.753 30.724 30.753zm28.928 110.875c7.324 6.132 11.083 15.498 11.083 24.797 0 12.16-6.43 24.436-18.848 29.442 4.402 5.743 6.647 12.968 6.647 20.152 0 8.201-2.806 15.897-7.902 21.672a29.297 29.297 0 0 1-6.217 5.324c5.784 6.05 8.744 14.351 8.744 22.6 0 15.795-10.855 31.786-31.602 31.786H150.488a6.992 6.992 0 0 1-5.317-2.454c-6.813-7.989-15.86-12.232-29.482-13.662v12.042a6.988 6.988 0 0 1-6.988 6.988H13.896a6.988 6.988 0 0 1-6.988-6.988V319.825a6.988 6.988 0 0 1 6.988-6.988h94.805a6.988 6.988 0 0 1 6.988 6.988v10.733c6.371-1.453 11.163-3.891 14.709-7.471l41.214-143.004a6.984 6.984 0 0 1 8.663-4.776l10.524 3.056c.875.252 1.738.532 2.597.817-.579-24.848 5.62-49.159 18.205-70.935 18.16-31.458 47.486-53.964 82.573-63.368 35.094-9.407 71.743-4.577 103.201 13.597 64.936 37.486 87.266 120.823 49.774 185.771-20.332 35.199-54.851 59.055-94.346 65.941 3.335 5.308 5.04 11.582 5.04 17.831-.001 9.298-3.76 18.665-11.084 24.797zM207.743 185.92c9.53 5.953 17.462 14.264 23.065 24.397 7.919 14.324 10.296 30.649 6.879 46.435a121.845 121.845 0 0 0 30.678 25.167c12.101 6.982 25.122 11.79 38.702 14.312h19.196c4.088 0 7.786.63 11.098 1.749 40.8-2.717 77.241-25.329 97.687-60.723 33.638-58.273 13.602-133.046-44.661-166.681-28.225-16.306-61.109-20.639-92.593-12.2-31.482 8.438-57.794 28.631-74.089 56.859-12.483 21.594-17.959 45.961-15.962 70.685zm18.742 110.31h38.885a136.627 136.627 0 0 1-3.993-2.209 136.017 136.017 0 0 1-28.059-21.494zm-124.773 30.583H20.884v170.71h80.828zm242.154 1.203c0-8.865-5.444-17.809-17.604-17.809H217.199a6.987 6.987 0 0 1-6.715-8.924l12.675-43.965c3.903-13.545 2.275-27.836-4.582-40.239-6.86-12.406-18.102-21.387-31.659-25.29l-3.816-1.108-39.734 137.869a7.01 7.01 0 0 1-1.446 2.657c-6.15 7.055-14.776 11.525-26.232 13.593v133.602c12.484 1.091 26.62 4.591 37.885 16.207h155.09c12.176 0 17.626-8.945 17.626-17.809s-5.45-17.809-17.626-17.809H282.58v-13.977h31.459c5.62 0 10.068-1.811 13.22-5.384 2.799-3.173 4.405-7.702 4.405-12.425 0-8.864-5.45-17.808-17.626-17.808H282.58V395.42h43.681c12.161 0 17.604-8.945 17.604-17.809s-5.444-17.809-17.604-17.809H282.58v-13.977h43.682c12.161 0 17.604-8.944 17.604-17.809z" opacity="1" data-original="#000000" class=""></path></svg>