<svg xmlns="http://www.w3.org/2000/svg" version="1.1" xmlns:xlink="http://www.w3.org/1999/xlink" width="100" height="100" x="0" y="0" viewBox="0 0 512 512" style="enable-background:new 0 0 512 512" xml:space="preserve" fill-rule="evenodd" class=""><path d="M386 484H45c-25 0-45-20-45-45V68c0-22 18-40 40-40h271c22 0 40 18 41 40 0 3-3 6-6 6-4 0-6-3-6-6-1-15-13-28-29-28H40c-15 0-28 13-28 28v371c0 18 15 33 33 33s33-15 33-33v-41c1-1 1-2 2-2s0 0 0-1l24-21c1 0 1 0 2-1h5c0 1 1 1 1 1l21 18 20-18s1 0 1-1h6c0 1 0 1 1 1l20 18 21-18s1 0 1-1h5c1 1 1 1 2 1l20 18 21-18 1-1h5c1 1 1 1 2 1l20 18 20-18c1 0 1 0 2-1h5c0 1 1 1 1 1l21 18 12-10V276c0-3 2-6 6-6 3 0 6 3 6 6v97h3c0 1 1 1 1 1l20 18 21-18s1 0 1-1h5c1 1 1 1 2 1l24 21v1c1 0 1 1 2 2v41c0 25-20 45-45 45zM75 472h311c19 0 33-15 33-33v-36l-18-16-21 18h-1c-1 1-2 1-3 1s-1 0-2-1h-2l-20-18-2 2h-1l-17 16h-2c-1 1-1 1-2 1s-2 0-3-1h-1l-21-18-20 18h-2c0 1-1 1-2 1s-2 0-3-1h-1l-20-18-21 18h-1c-1 1-2 1-3 1s-2 0-2-1h-2l-20-18-21 18h-1c-1 1-2 1-3 1s-1 0-2-1h-2l-20-18-20 18h-2c-1 1-2 1-2 1-1 0-2 0-3-1h-1l-21-18-18 16v36c0 13-6 25-15 33z" fill="#0b5bc9" opacity="1" data-original="#000000" class=""></path><path d="M87 148c-8 0-15-2-22-6-20-12-27-38-16-59 8-13 22-22 38-22 7 0 15 2 21 6 10 6 18 15 21 26 3 12 1 23-5 33-7 14-22 22-37 22zm0-75c-11 0-22 6-27 16-4 7-5 16-3 24s7 14 14 19c5 2 10 4 16 4 11 0 21-6 27-16 4-7 5-15 3-23s-7-15-15-19c-4-3-10-5-15-5z" fill="#0b5bc9" opacity="1" data-original="#000000" class=""></path><path d="M82 119c-2 0-3 0-4-1l-8-8c-2-2-2-6 0-8 2-3 6-3 8 0l4 3 13-13c3-3 6-3 9 0 2 2 2 6 0 8l-18 18c-1 1-3 1-4 1zM228 126h-50c-3 0-6-2-6-6 0-3 3-6 6-6h50c3 0 6 3 6 6 0 4-3 6-6 6zM254 95h-76c-3 0-6-3-6-6s3-6 6-6h76c3 0 6 3 6 6s-3 6-6 6zM87 250c-8 0-15-2-22-6-20-12-27-38-16-59 8-13 22-22 38-22 7 0 15 2 21 6 10 6 18 15 21 26 3 12 1 23-5 33-7 13-22 22-37 22zm0-75c-11 0-22 6-27 16-9 15-4 34 11 43 5 2 10 4 16 4 11 0 21-6 27-16 4-7 5-15 3-24-2-8-7-14-15-18-4-3-10-5-15-5z" fill="#0b5bc9" opacity="1" data-original="#000000" class=""></path><path d="M82 221c-2 0-3 0-4-1l-8-8c-2-2-2-6 0-9 2-2 6-2 8 0l4 4 13-14c3-2 6-2 9 0 2 3 2 7 0 9l-18 18c-1 1-3 1-4 1zM227 228h-49c-3 0-6-2-6-6 0-3 3-6 6-6h49c3 0 6 3 6 6 0 4-3 6-6 6zM216 197h-38c-3 0-6-3-6-6s3-6 6-6h38c3 0 6 3 6 6s-3 6-6 6zM87 352c-8 0-15-2-22-6-20-12-27-38-16-59 8-13 22-22 38-22 7 0 15 2 21 6 10 6 18 15 21 26s1 23-5 33c-7 13-22 22-37 22zm0-75c-11 0-22 6-27 16-9 15-4 34 11 42 5 3 10 5 16 5 11 0 21-6 27-16 4-7 5-16 3-24s-7-14-15-19c-4-2-10-4-15-4z" fill="#0b5bc9" opacity="1" data-original="#000000" class=""></path><path d="M82 323c-2 0-3 0-4-1l-8-8c-2-3-2-6 0-9 2-2 6-2 8 0l4 4 13-14c3-2 6-2 9 0 2 3 2 7 0 9l-18 18c-1 1-3 1-4 1zM302 330H178c-3 0-6-3-6-6s3-6 6-6h124c3 0 6 3 6 6s-3 6-6 6zM302 299H178c-3 0-6-3-6-6s3-6 6-6h124c3 0 6 3 6 6s-3 6-6 6zM424 281c-1 0-3 0-4-2l-27-27c-3-2-3-6 0-9 2-2 6-2 8 0l28 28c2 2 2 6 0 8s-3 2-5 2z" fill="#0b5bc9" opacity="1" data-original="#000000" class=""></path><path d="M487 363c-7 0-13-3-18-7l-49-50c-10-9-10-25 0-35 5-5 11-7 18-7 6 0 13 2 17 7l50 49c9 10 9 26 0 36-5 4-11 7-18 7zm-49-87c-4 0-7 1-9 3-5 6-5 14 0 19l49 49c2 3 6 4 9 4 4 0 7-1 9-4 5-5 5-13 0-18l-49-50c-3-2-6-3-9-3zM321 285c-30 0-58-12-80-33-44-44-44-116 0-160 22-21 50-33 80-33s59 12 80 33c21 22 33 50 33 80s-12 59-33 80-50 33-80 33zm0-214c-27 0-52 11-71 30-39 39-39 103 0 142 19 19 44 30 71 30s52-11 72-30c19-19 29-44 29-71s-10-52-29-71c-20-19-45-30-72-30z" fill="#0b5bc9" opacity="1" data-original="#000000" class=""></path><path d="M321 250c-21 0-40-9-55-23-30-30-30-79 0-110 15-14 34-22 55-22s40 8 55 22c30 31 30 80 0 110-15 14-34 23-55 23zm0-143c-17 0-34 6-46 19-26 25-26 67 0 92 12 13 29 20 46 20 18 0 34-7 46-20 26-25 26-67 0-92-12-13-28-19-46-19z" fill="#0b5bc9" opacity="1" data-original="#000000" class=""></path><path d="M307 205c-2 0-3-1-5-2-2-2-2-6 0-9l53-53c3-2 7-2 9 0 2 3 2 6 0 9l-53 53c-1 1-3 2-4 2z" fill="#0b5bc9" opacity="1" data-original="#000000" class=""></path><path d="M307 205c-2 0-3-1-5-2l-24-24c-2-2-2-6 0-9 3-2 7-2 9 0l24 24c2 3 2 7 0 9-1 1-3 2-4 2z" fill="#0b5bc9" opacity="1" data-original="#000000" class=""></path></svg>