<svg xmlns="http://www.w3.org/2000/svg" version="1.1" xmlns:xlink="http://www.w3.org/1999/xlink" width="100" height="100" x="0" y="0" viewBox="0 0 512 512" style="enable-background:new 0 0 512 512" xml:space="preserve" class=""><path d="M191.34 260.64a6 6 0 0 1 0-8.48c2.34-2.34 6.14-2.34 8.49 0l31.28 31.28 58.06-58.06c2.34-2.34 6.14-2.34 8.49 0a6 6 0 0 1 0 8.48l-62.3 62.3a5.991 5.991 0 0 1-8.48 0zm290.17 195.65c0 6.95-2.69 13.46-7.57 18.34l-14.79 14.79c-5.06 5.06-11.7 7.59-18.34 7.59s-13.29-2.53-18.34-7.59l-67.11-67.11H99.81c-11.47 0-20.79-9.33-20.79-20.8V217.55H43.9c-5.65 0-10.58-3.42-12.56-8.72-1.97-5.3-.48-11.12 3.8-14.81L240.57 16.46a5.998 5.998 0 0 1 7.85 0l69.28 59.88V40.1c0-3.31 2.69-6 6-6h72.9c3.31 0 6 2.69 6 6v109.61l51.25 44.3c4.28 3.7 5.77 9.51 3.8 14.81s-6.9 8.73-12.56 8.73h-35.12v156.43l63.97 63.96c4.88 4.89 7.57 11.4 7.57 18.35zm-381.7-45.97h245.74c-2.74-5.88-3.15-12.59-1.25-18.72l-30.35-30.35a121.596 121.596 0 0 1-37.84 17.51 122.186 122.186 0 0 1-31.58 4.18c-53.93 0-103.4-36.04-118.01-90.54-8.44-31.51-4.11-64.43 12.2-92.68s42.65-48.47 74.17-56.91c31.51-8.44 64.43-4.11 92.69 12.2 28.25 16.31 48.47 42.65 56.91 74.17 9.53 35.57 2.27 71.75-16.91 100.09l30.54 30.54c7.26-2.26 15.32-1.26 21.86 2.99V211.55c0-3.31 2.69-6 6-6h41.12c.64 0 1.09-.31 1.31-.91s.09-1.12-.4-1.54L392.67 157a6.005 6.005 0 0 1-2.08-4.54V46.1h-60.9v43.35c0 2.35-1.37 4.48-3.5 5.46s-4.64.62-6.42-.92L244.5 28.93 42.99 203.1c-.49.42-.62.94-.4 1.55.22.6.67.91 1.31.91h41.12c3.31 0 6 2.69 6 6v189.97c0 4.84 3.94 8.79 8.79 8.79zM365.5 366.2c.01-.01.02-.01.02-.02l-27.24-27.24c-4.46 5.37-9.39 10.37-14.75 14.93l27.15 27.15c.01-.01.01-.02.02-.02zM149.11 205.7c-14.71 25.48-18.62 55.16-11 83.58 15.72 58.66 76.23 93.6 134.9 77.88 58.66-15.72 93.6-76.23 77.88-134.9-7.61-28.42-25.84-52.17-51.32-66.88s-55.16-18.62-83.58-11c-28.42 7.61-52.17 25.84-66.88 51.32zm320.4 250.59c0-3.74-1.44-7.24-4.06-9.86l-71.75-71.75c-5.44-5.44-14.28-5.44-19.72 0l-14.79 14.79c-5.44 5.44-5.44 14.28 0 19.72l71.75 71.75c5.43 5.43 14.28 5.44 19.72 0l14.79-14.79c2.62-2.62 4.06-6.12 4.06-9.86zM165.77 215.31c12.14-21.03 31.74-36.07 55.2-42.36 23.45-6.28 47.95-3.06 68.98 9.08s36.07 31.75 42.36 55.2c6.28 23.45 3.06 47.95-9.08 68.98s-31.74 36.07-55.2 42.36a90.88 90.88 0 0 1-23.51 3.11c-40.14 0-76.96-26.82-87.83-67.39-6.29-23.45-3.06-47.95 9.08-68.98zm10.39 6c-10.54 18.25-13.34 39.52-7.88 59.88 9.44 35.21 41.4 58.49 76.24 58.49 6.74 0 13.59-.87 20.4-2.7 20.36-5.46 37.37-18.51 47.91-36.76s13.34-39.52 7.88-59.88-18.51-37.38-36.77-47.91c-12.16-7.02-25.65-10.61-39.33-10.61-6.85 0-13.75.9-20.55 2.72-20.35 5.46-37.36 18.52-47.9 36.77z" fill="#0b5bc9" opacity="1" data-original="#000000"></path></svg>