<svg id="Layer_1" xmlns="http://www.w3.org/2000/svg" version="1.1" viewBox="0 0 512 512" width="100" height="100">
  <defs>
    <style>
      .st0 {
        fill: #0b5bc9;
      }
      .st1 {
        fill: #fff;
      }
    </style>
  </defs>
  <path class="st0" d="M475.83,83.85h-105.84v-32.57c-.03-22.47-18.24-40.68-40.71-40.71h-146.55c-22.47.03-40.68,18.24-40.71,40.71v32.57H36.17c-13.49,0-24.43,10.94-24.43,24.43v181.24c.05,10.33,6.56,19.51,16.28,22.99v113.31c0,13.49,10.94,24.43,24.43,24.43h407.09c13.49,0,24.43-10.94,24.43-24.43v-113.3c9.73-3.47,16.24-12.67,16.28-22.99V108.27c0-13.49-10.94-24.43-24.43-24.43ZM158.3,51.28c0-13.49,10.94-24.43,24.43-24.43h146.55c13.49,0,24.43,10.94,24.43,24.43v32.57h-16.28v-32.57c0-4.5-3.65-8.14-8.14-8.14h-146.55c-4.5,0-8.14,3.65-8.14,8.14v32.57h-16.28v-32.57ZM321.13,83.85h-130.27v-24.43h130.27v24.43ZM467.69,425.8c0,4.5-3.65,8.14-8.14,8.14H52.45c-4.5,0-8.14-3.65-8.14-8.14v-110.51l179.12,24.7v20.67c0,13.49,10.94,24.43,24.43,24.43h16.28c13.49,0,24.43-10.94,24.43-24.43v-20.67l179.12-24.7v110.51ZM272.28,360.67c0,4.5-3.65,8.14-8.14,8.14h-16.28c-4.5,0-8.14-3.65-8.14-8.14v-48.85c0-4.5,3.65-8.14,8.14-8.14h16.28c4.5,0,8.14,3.65,8.14,8.14v48.85ZM483.97,289.51c0,4.06-2.98,7.5-7,8.07l-2.26.31-186.14,25.67v-11.74c0-13.49-10.94-24.43-24.43-24.43h-16.28c-13.49,0-24.43,10.94-24.43,24.43v11.74l-188.4-25.98c-4.02-.57-7.01-4.01-7.01-8.07V108.27c0-4.5,3.65-8.14,8.14-8.14h439.66c4.5,0,8.14,3.65,8.14,8.14v181.24Z"/>
  <path class="st0" d="M191.42,196.29c0,7.5-3.72,14.51-9.95,18.69-4.76,3.44-7.07,9.35-5.91,15.11,2.06,12.27-6.22,23.89-18.5,25.95-2.47.41-4.99.41-7.46,0-5.76-1.16-11.67,1.15-15.11,5.91-6.95,10.32-20.95,13.06-31.28,6.11-2.41-1.62-4.49-3.7-6.11-6.11-3.44-4.76-9.35-7.07-15.11-5.91-12.27,2.06-23.89-6.22-25.95-18.5-.41-2.47-.41-4.99,0-7.46,1.16-5.76-1.15-11.67-5.91-15.11-10.32-6.95-13.06-20.95-6.11-31.28,1.62-2.41,3.7-4.49,6.11-6.11,4.76-3.44,7.07-9.35,5.91-15.11-2.06-12.27,6.22-23.89,18.5-25.95,2.47-.41,4.99-.41,7.46,0,5.76,1.16,11.67-1.15,15.11-5.91,6.95-10.32,20.96-13.05,31.28-6.1,2.41,1.62,4.48,3.69,6.1,6.1,3.44,4.76,9.35,7.08,15.12,5.91,12.27-2.06,23.89,6.22,25.95,18.5.41,2.47.41,4.99,0,7.46-1.16,5.76,1.15,11.67,5.91,15.11,6.23,4.18,9.96,11.19,9.95,18.69Z"/>
  <g>
    <path class="st1" d="M96.39,223.67v-11.16h-24.8v-9.31l26.29-35.23h9.76v35.19h7.52v9.35h-7.52v11.16h-11.24ZM96.39,203.16v-18.96l-13.93,18.96h13.93Z"/>
    <path class="st1" d="M140.34,167.96c5.87,0,10.46,1.92,13.77,5.75,3.94,4.54,5.91,12.07,5.91,22.59s-1.98,18.04-5.95,22.63c-3.28,3.78-7.85,5.68-13.73,5.68s-10.65-2.08-14.26-6.23c-3.61-4.15-5.42-11.55-5.42-22.19s1.98-17.96,5.95-22.55c3.28-3.78,7.85-5.68,13.73-5.68ZM140.34,176.78c-1.41,0-2.66.41-3.76,1.23-1.1.82-1.96,2.29-2.56,4.41-.8,2.75-1.2,7.38-1.2,13.89s.36,10.98,1.08,13.42c.72,2.43,1.62,4.06,2.71,4.86,1.09.81,2.34,1.21,3.74,1.21s2.66-.41,3.76-1.23c1.1-.82,1.96-2.29,2.56-4.41.8-2.72,1.2-7.34,1.2-13.85s-.36-10.98-1.07-13.42c-.72-2.43-1.62-4.06-2.71-4.88-1.09-.82-2.34-1.23-3.74-1.23Z"/>
  </g>
  <g>
    <path class="st0" d="M273.03,243.81l-.18,3.96c-2.47,1.54-4.66,2.63-6.57,3.27-2.04.69-4.78,1.43-8.22,2.24-3.27.75-5.84,1.44-7.7,2.06-2.64.89-6.6,2.53-11.87,4.93l.08-3.4c3.74-2.32,5.95-4.21,6.62-5.67.66-1.46.8-6.78.4-15.97-.4-9.19-1.05-15.11-1.94-17.77-1.79-5.3-4.75-10.37-8.88-15.2-4.13-4.83-8.46-8.39-13-10.7-5.64,4.28-9.51,7.82-11.63,10.63-2.11,2.81-3.54,5.86-4.29,9.15-.75,3.29-.77,5.97-.08,8.03.68,2.02,2.31,3.56,4.89,4.64,2.19.94,3.48,1.98,3.87,3.13.35,1.03.3,1.99-.15,2.89-.44.9-1.16,1.52-2.16,1.85-1.77.6-3.53.31-5.28-.87-2.38-1.62-4.08-3.96-5.11-7.01-1.48-4.4-1.53-8.98-.16-13.77,1.37-4.78,4.02-9.29,7.94-13.52,2.29-2.49,6.37-5.69,12.22-9.61,2.17-1.43,4.09-2.81,5.76-4.12,5,2.77,9.52,6.48,13.56,11.14,4.04,4.66,7.82,10.85,11.34,18.57,2.82-18.17,6.81-31.62,11.98-40.36,5.16-8.74,10.03-13.88,14.61-15.42,1.43-.48,2.72-.5,3.88-.05,1.16.45,1.93,1.22,2.3,2.33.39,1.15.17,2.26-.65,3.33-.82,1.07-2.73,2.22-5.74,3.45-2.96,1.22-5.12,2.56-6.45,4.03-2.63,2.92-5.32,7.58-8.06,13.97-2.74,6.4-5.01,14.01-6.81,22.83-1.8,8.82-2.48,17.6-2.03,26.33.45,8.73,1,14.34,1.64,16.81,2.15-.37,4.22-.89,6.21-1.57,3.04-1.02,6.25-2.54,9.62-4.57Z"/>
    <path class="st0" d="M318.13,215.91l3.02,1.89c-7.49,12.8-15.02,20.47-22.59,23.02-3.07,1.04-5.74.88-8-.48s-4.1-4.13-5.52-8.33c-2.85-8.47-2.88-17.85-.09-28.14,3.1-11.67,9.04-18.99,17.82-21.94,3.07-1.03,5.65-1.12,7.75-.26,2.1.86,3.56,2.52,4.38,4.97.87,2.57.75,5.44-.36,8.59-1.11,3.15-3.71,6.92-7.82,11.3-2.07,2.15-6.64,6.32-13.71,12.49.33,2.27.82,4.37,1.48,6.31.95,2.81,2.09,4.61,3.44,5.39,1.35.78,2.95.86,4.81.23,1.77-.6,3.57-1.71,5.38-3.33,2.44-2.19,5.77-6.09,10-11.7ZM292.51,214.95c6-5.2,10.2-10.03,12.6-14.5,1.6-3.1,2.03-5.78,1.27-8.03-.57-1.7-1.52-2.89-2.83-3.58-1.31-.68-2.75-.76-4.31-.24-1.6.54-2.97,1.62-4.11,3.24-1.54,2.15-2.5,4.94-2.88,8.38-.52,5.03-.44,9.93.26,14.72Z"/>
    <path class="st0" d="M361.39,161.19l4-2.27.2,16.67c.07,6.64.55,14.14,1.45,22.53.48,4.56.92,7.45,1.33,8.68.41,1.23,1.16,1.66,2.24,1.29.69-.23,1.65-1.02,2.89-2.36,2.19-2.37,4.15-5.06,5.88-8.07l2.86,1.62c-3.54,5.78-5.86,9.34-6.95,10.68-2.18,2.68-4.39,4.85-6.62,6.53-1.46,1.11-2.96,1.93-4.52,2.45-1.13.38-2.05.43-2.77.14-.72-.28-1.24-.88-1.54-1.79-.2-.59-.3-1.46-.3-2.61l-.13-8.95c-2.35,5.33-5.6,10.33-9.76,14.99-2.54,2.88-5.14,4.77-7.77,5.66-2.51.85-4.71.68-6.59-.49-2.55-1.57-4.42-4.11-5.61-7.64-1.41-4.2-1.77-9.28-1.06-15.25.71-5.97,2.41-11.75,5.11-17.33,2.69-5.58,5.98-10.13,9.85-13.64,3-2.68,7.24-4.95,12.74-6.8,1.38-.47,2.82-.86,4.3-1.18l.78-2.84ZM356.41,172.99c-2.48.35-4.52.8-6.12,1.34-3.89,1.31-6.96,3.44-9.2,6.37-2.24,2.94-3.74,7.37-4.52,13.29-.77,5.93-.31,11.42,1.4,16.49.91,2.69,2.06,4.46,3.45,5.32,1.4.85,2.89,1.01,4.49.47,2.98-1.01,5.69-3.56,8.11-7.66,2.42-4.1,3.5-9.19,3.23-15.28l-.86-20.35Z"/>
    <path class="st0" d="M402.11,204.22l-9.67,3.26-.84-17.51c-.44-8.58-1.02-16.68-1.75-24.28-.2-1.87-.37-3.03-.52-3.46-.32-.95-.96-1.27-1.91-.95-.65.22-1.51.96-2.58,2.22-1.07,1.26-2.81,4.09-5.23,8.48l-2.71-1.4c2.78-5.48,5.89-9.93,9.33-13.36,3.44-3.43,6.27-5.52,8.47-6.26.78-.26,1.45-.3,2.02-.12.57.18.94.53,1.11,1.05.17.52.35,1.99.53,4.41l.78,11.64c2.25-7.8,5.37-14.87,9.36-21.21,1.92-3.04,3.77-4.85,5.55-5.45,1.3-.44,2.51-.42,3.64.06,1.13.48,1.86,1.23,2.21,2.26.36,1.07.25,2.12-.34,3.16-.59,1.04-2.4,2.64-5.42,4.8-2.86,2.07-5.07,4.13-6.61,6.2-1.54,2.06-3.03,4.93-4.47,8.59-1.44,3.66-2.28,6.71-2.52,9.15-.24,2.44-.04,7.85.61,16.22l.96,12.51Z"/>
    <path class="st0" d="M441.6,135.29c3.85-1.3,7.05-1.61,9.61-.96,2.56.66,4.14,1.88,4.74,3.66.36,1.07.23,2.15-.39,3.24-.62,1.09-1.56,1.85-2.81,2.27-.82.28-1.59.35-2.31.22-.72-.13-1.87-.68-3.45-1.65-2.99-1.86-5.52-2.44-7.59-1.74-1.78.6-3.13,1.75-4.07,3.45s-1.1,3.49-.48,5.34c.55,1.62,1.51,3.05,2.89,4.28,1.38,1.23,4.39,2.96,9.04,5.18,6.37,3.05,10.27,6.67,11.68,10.86,1.41,4.19.7,8.52-2.13,12.97-2.83,4.46-7.32,7.72-13.46,9.79-5.15,1.73-9.3,2.06-12.45.99-3.16-1.08-5.21-3.02-6.16-5.83-.47-1.39-.38-2.69.27-3.93.64-1.23,1.66-2.08,3.04-2.55,1.21-.41,2.37-.39,3.48.05,1.11.44,1.83,1.16,2.17,2.15.13.4.28.92.43,1.57.15.53.28.96.4,1.32.44,1.31,1.42,2.21,2.93,2.72,1.47.52,3.22.44,5.24-.25,2.33-.78,4.25-1.84,5.77-3.17,1.52-1.33,2.53-2.9,3.02-4.72.49-1.82.49-3.46,0-4.92-.48-1.42-1.42-2.69-2.83-3.8-1.41-1.11-4.29-2.76-8.64-4.95-6.05-3.07-9.78-6.72-11.21-10.95-1.31-3.88-.74-7.84,1.7-11.9,2.44-4.06,6.29-6.98,11.57-8.75Z"/>
  </g>
</svg>