<svg id="Layer_3" enable-background="new 0 0 100 100" viewBox="0 0 100 100" xmlns="http://www.w3.org/2000/svg" width="100" height="100" fill="#fff"><path d="m61.102 27.149c-.092-.207-.145-.435-.145-.675 0-.924.756-1.681 1.68-1.681.942 0 1.697.756 1.697 1.681 0 .924-.756 1.68-1.697 1.68-.683 0-1.273-.415-1.535-1.005zm13.72 9.408-6.162 8.403h19.875c.928 0 1.681.752 1.681 1.681 0 .928-.753 1.68-1.681 1.68h-22.34l-3.193 4.355c-.33.449-.839.687-1.357.687-.345 0-.693-.106-.992-.325-.748-.549-.91-1.601-.362-2.35l1.736-2.367h-15.506c-.109 0-.216-.012-.32-.032l-1.42 1.76c.03.294.034.591.011.889l7.467 7.467h36.276c.928 0 1.681.753 1.681 1.681s-.753 1.681-1.681 1.681h-36.972-15.125c-.332 0-.64-.1-.9-.266l-.479.593 2.289 10.292c.062.228.125.577.179 1.145h51.008c.928 0 1.681.753 1.681 1.681s-.753 1.681-1.681 1.681h-50.86c.032 2.051.015 4.995-.087 9.257-.002.128-.02.256-.052.38-.04.153-.087.301-.139.447h51.139c.924 0 1.681.756 1.681 1.68s-.757 1.681-1.681 1.681h-77.071c-.638 0-1.243-.37-1.512-.959-.286-.588-.202-1.276.202-1.781l2.877-3.565 1.443-9.136-.947-14.704-.003-6.828c0-.025.006-.048.007-.074v-6.161c0-.925.74-1.681 1.664-1.681.003 0 .006.001.009.001.937.005 1.688.758 1.688 1.68v4.554h12.823v-2.085l-5.998-4.195c-2.667-1.41-4.073-4.428-3.424-7.384l1.052-5.158c.185-.909 1.071-1.493 1.983-1.31.683.14 1.183.674 1.312 1.317.043.213.045.439-.001.666l-1.058 5.182c-.334 1.523.393 3.053 1.764 3.746.072.036.14.078.206.123l4.163 2.912 1.68 1.175 1.681 1.175 5.85 4.093.26.182c.593.22 1.25.077 1.705-.33.166-.149.307-.331.406-.546.294-.641.146-1.373-.312-1.856-.144-.151-.315-.28-.516-.372-.082-.038-.153-.092-.228-.143-.045-.03-.096-.051-.138-.085l-7.027-5.762-1.681-1.378-1.235-1.013c-.192-.157-.341-.354-.446-.572-.114-.235-.175-.495-.169-.764l.161-7.447.008-.348c-.007-1.745-1.616-3.352-3.361-3.352l-.521-.084-4.74-1.58c-.621.101-1.73.756-2.588 1.748-1.008 1.092-1.663 2.571-1.613 3.26v2.185c0 .938-.751 1.675-1.688 1.68-.003 0-.006.001-.009.001-.924 0-1.664-.74-1.664-1.681v-2.167c.017-1.833.858-3.681 2.487-5.529 1.612-1.752 3.224-2.679 4.917-2.84-.469-1.67-.361-3.502.326-5.204.162-.402.356-.783.572-1.148-.199-.412-.235-.901-.051-1.358l.629-1.558c.672-1.666 1.952-2.97 3.604-3.672 1.652-.704 3.478-.719 5.145-.047l1.559.629c2.933 1.183 3.742 3.689 2.412 7.454l.667 1.568c.266.625.129 1.35-.348 1.835-.322.328-.757.503-1.199.503-.078 0-.156-.012-.234-.023-.082.285-.174.569-.287.848-.602 1.493-1.594 2.746-2.836 3.626 1.327 1.232 2.166 2.982 2.184 4.919v.036 7.129l9.008 7.385c.375.194.712.433 1.016.702l13.637-16.899c.554-.689 1.664-.806 2.369-.253 0 .001.001.001.002.002.352.286.57.689.62 1.125.034.454-.084.89-.37 1.243l-.977 1.21h14.736l3.697-5.042h-7.455c-.924 0-1.664-.756-1.664-1.68s.74-1.681 1.664-1.681h19.175c.924 0 1.681.756 1.681 1.681 0 .924-.757 1.68-1.681 1.68h-7.551l-3.697 5.042h11.248c.928 0 1.681.752 1.681 1.681 0 .928-.753 1.68-1.681 1.68h-13.713zm-40.741 36.618-1.72-7.737-.466-2.096-.468-2.105-1.377-6.193h-13.165v5.04l.955 14.781c.007.124.002.249-.017.371l-.563 3.554-.529 3.34-.465 2.938c-.009.102-.008.205.002.307.07.7.576 1.361 1.285 1.539.547.136 1.098.041 1.544-.274.411-.29.662-.716.707-1.198l.726-5.349.436-3.212.438-3.229.033-.238v-11.651c0-.928.752-1.68 1.681-1.68h2.512c.768 0 1.437.52 1.628 1.263l.981 3.836.522 2.039.519 2.03 1.095 4.277.234.916c.032.124.049.251.052.379l.046 2.066.168 7.548c.004.154-.014.308-.052.457-.107.416-.043.851.18 1.224.241.401.634.685 1.106.8.907.222 1.825-.258 2.123-1.08.073-3.139.103-6.49.075-8.95-.018-1.616-.063-2.838-.138-3.362-.005-.035-.009-.08-.015-.109-.03-.077-.054-.158-.073-.242zm-6.374 13.799c-.309-.852-.379-1.768-.195-2.668l-.165-7.415h-2.989l-1.214 8.934c-.036.392-.129.777-.264 1.149zm-2.1-18.527-.807-3.153v4.153zm.222 5.082h1.078l-.259-1.014zm8.296-15.638 2.687-3.33-3.734-2.613v1.23zm-2.664-43.988-1.558-.628c-.432-.175-.886-.254-1.338-.243-.419.01-.837.098-1.235.267-.826.351-1.466 1.003-1.802 1.835l.27.109 5.965 2.406c.081-.201.153-.391.217-.569.403-1.12.486-1.811.397-2.259-.116-.59-.528-.761-.916-.918zm-.597 7.008-6.108-2.465c-.144.237-.27.488-.377.753-.437 1.085-.491 2.237-.152 3.243.309.914.911 1.592 1.698 1.91.787.317 1.691.249 2.548-.197.943-.49 1.703-1.356 2.141-2.44.105-.265.189-.534.25-.804zm12.4 33.251c-.801.771-1.828 1.256-2.919 1.383l-2.308 2.859h9.47zm27.39-17.605h-14.983l-6.782 8.403h15.603zm-55.458 5.529c.003 0 .006-.001.009-.001.937-.004 1.688-.742 1.688-1.679 0-.922-.751-1.675-1.688-1.68-.003 0-.006 0-.009 0-.924 0-1.664.756-1.664 1.681 0 .939.74 1.679 1.664 1.679z"/></svg>