<?xml version="1.0" encoding="UTF-8"?>
<svg xmlns="http://www.w3.org/2000/svg" version="1.1" viewBox="0 0 80 80" width="80" height="80">
  <defs>
    <style>
      .cls-1, .cls-2 {
        fill: #ffffff;
      }

      .cls-2 {
        fill-rule: evenodd;
      }
    </style>
  </defs>
  <!-- Generator: Adobe Illustrator 28.7.6, SVG Export Plug-In . SVG Version: 1.2.0 Build 188)  -->
  <g>
    <g id="Layer_1">
      <g>
        <g id="Layer_1-2" data-name="Layer_1">
          <path class="cls-2" d="M37,57.1c-.6-1.2-1.4-2.3-2.4-3,1-.7,1.8-1.8,2.4-3,.6,1.2,1.4,2.3,2.4,3-1,.7-1.8,1.8-2.4,3h0ZM41.9,53.1c-2-.6-3.5-3-3.8-5.9-.1-1.2-1.9-1.2-2,0-.3,2.9-1.9,5.3-3.8,5.9-1,.3-1,1.7,0,2,2,.6,3.5,3,3.8,5.9.1,1.2,1.9,1.2,2,0,.3-2.9,1.9-5.3,3.8-5.9,1-.3,1-1.7,0-2h0ZM25.3,47.5v11c0,.6-.5,1-1,1h0c-.6,0-1-.5-1-1v-11c0-.6.5-1,1-1s1,.5,1,1h0ZM25.3,62.7v2.9c0,.6-.5,1-1,1s-1-.5-1-1h0v-2.9c0-.6.5-1,1-1s1,.5,1,1h0ZM13.6,68.1v2.9c0,.6-.5,1-1,1s-1-.5-1-1h0v-2.9c0-.6.5-1,1-1h0c.6,0,1,.5,1,1h0ZM19.4,63.6v2.9c0,.6-.5,1-1,1-.5,0-1-.5-1-1v-2.9c0-.6.5-1,1-1s1,.5,1,1h0ZM64.2,38.1c-1.3,1.9-3.1,3-5,3h-31.6c2.6-2.4,4-6.2,4.1-10h34.6c-.1,2.7-.9,5.1-2.2,7h0ZM57.3,52.9l-7.3,7.3c-.2.2-.3.5-.3.7v10.7h-2.1v-11.9l7.3-7.3c.2-.2.3-.5.3-.7v-8.5h2.1v9.8h0ZM22.3,41c2,.2,3.9-.9,5.3-3,1.5-2.1,2.2-5,2.2-8,0-.6.5-1,1-1h19.5c0-.8.2-1.5.3-2.2H16c-.8,3.4-.4,7.4,1.2,10.3.7-.7,1.5-1.3,2.3-1.8.5-.3,1.1-.2,1.4.3.3.5.2,1.1-.3,1.4-.8.5-1.6,1.1-2.3,1.8.5.6,1.1,1.1,1.7,1.4.8-.8,1.8-1.5,2.9-2,.5-.2,1.1,0,1.3.5.2.5,0,1.1-.5,1.3-.5.2-1,.5-1.5.9h0ZM68.5,30c0,3.4-.8,6.7-2.5,9.2-1.8,2.5-4.1,3.8-6.6,3.8v10.3c0,.3-.1.5-.3.7l-7.3,7.3v10.4c0,1-.8,1.9-1.9,1.9h-2.4c-1,0-1.9-.8-1.9-1.9v-12.5c0-.3.1-.5.3-.7l7.3-7.3v-8.1h-30.5c-.7,0-1.4-.1-2-.3-.8,1.2-1.3,2.6-1.3,4.1v12.5c0,.6-.5,1-1,1s-1-.5-1-1v-12.5c0-1.8.5-3.5,1.5-5-.6-.4-1.2-.9-1.8-1.5-2.2,2.7-3.4,6.1-3.4,9.7v13.8c0,.6-.5,1-1,1s-1-.5-1-1h0v-13.8c0-4.2,1.5-8.2,4.2-11.4-2.3-3.7-2.8-8.8-1.5-13.1.1-.4.5-.7,1-.7h36.7c.7,0,1.2.7,1,1.3-.3.9-.5,1.9-.5,2.9h15.1c.5,0,1,.4,1,1h0Z"/>
        </g>
        <g>
          <path class="cls-1" d="M56.7,9.9c-2.2,0-4.2.9-5.8,2.4v-2.4h-1.1v4.4h4.4v-1.1h-2.7c1.3-1.4,3.2-2.2,5.2-2.2,3.9,0,7.2,3.2,7.2,7.2s-3.2,7.2-7.2,7.2-7.2-3.2-7.2-7.2h-1.1c0,4.6,3.7,8.3,8.3,8.3s8.3-3.7,8.3-8.3-3.7-8.3-8.3-8.3Z"/>
          <path class="cls-1" d="M56.2,13.2v6.1s4.4,0,4.4,0v-1.1h-3.3v-5s-1.1,0-1.1,0Z"/>
        </g>
      </g>
    </g>
  </g>
</svg>